M48
;DRILL file {KiCad 5.0.2-1.fc29} date Mon 25 Feb 2019 04:28:04 CET
;FORMAT={-:-/ absolute / metric / decimal}
FMAT,2
METRIC,TZ
T1C0.400
T2C0.600
T3C0.800
T4C1.000
%
G90
G05
T1
X-49.5Y75.4
X-48.4Y75.5
X-48.Y105.
X-47.9Y80.65
X-47.1Y89.2
X-47.Y106.
X-46.45Y84.55
X-46.3Y119.9
X-46.Y118.8
X-46.Y107.
X-45.2Y114.9
X-45.175Y102.197
X-44.7Y113.9
X-44.1Y103.1
X-44.Y110.5
X-44.Y71.3
X-43.15Y104.2
X-42.3Y59.5
X-41.752Y72.148
X-41.7Y110.5
X-41.7Y87.2
X-41.694Y93.76
X-41.6Y88.4
X-41.515Y104.315
X-41.Y111.2
X-40.9Y100.8
X-40.6Y93.8
X-40.4Y117.2
X-39.7Y88.
X-39.027Y60.673
X-38.925Y103.925
X-38.887Y101.713
X-38.875Y105.178
X-38.769Y96.869
X-38.525Y107.1
X-37.8Y116.1
X-36.2Y47.1
X-35.668Y83.505
X-35.53Y101.15
X-35.4Y115.375
X-35.4Y100.025
X-35.3Y118.3
X-34.817Y114.615
X-34.Y115.1
X-33.7Y108.8
X-33.6Y81.7
X-33.5Y71.4
X-33.4Y36.
X-33.3Y48.8
X-32.4Y96.4
X-31.7Y103.3
X-31.6Y36.
X-31.5Y59.5
X-31.3Y101.1
X-30.777Y72.623
X-30.7Y115.1
X-30.2Y99.8
X-28.8Y106.
X-28.6Y104.
X-28.5Y60.85
X-26.5Y47.1
X-26.5Y103.65
X-26.15Y104.7
X-25.246Y84.419
X-24.9Y130.6
X-24.84Y106.009
X-24.3Y81.9
X-24.1Y106.9
X-23.4Y48.95
X-23.Y71.4
X-21.9Y119.1
X-21.6Y112.7
X-21.Y105.
X-20.7Y59.5
X-20.6Y128.9
X-20.6Y97.6
X-20.5Y118.7
X-20.2Y72.75
X-19.Y122.8
X-18.723Y120.277
X-18.4Y126.6
X-18.3Y94.8
X-17.9Y132.225
X-17.55Y60.85
X-17.427Y120.373
X-17.1Y128.3
X-16.6Y114.8
X-15.8Y113.5
X-15.Y120.9
X-14.95Y84.65
X-14.944Y94.239
X-14.3Y81.9
X-14.Y95.1
X-13.9Y122.3
X-13.8Y96.3
X-12.825Y96.35
X-12.8Y47.3
X-12.5Y98.9
X-12.065Y120.56
X-10.975Y96.25
X-10.8Y126.4
X-10.1Y59.5
X-9.65Y72.75
X-9.65Y49.
X-9.6Y104.8
X-9.4Y101.6
X-9.4Y97.5
X-8.8Y70.2
X-7.4Y83.3
X-7.1Y60.85
X-7.Y95.1
X-6.6Y97.7
X-6.337Y126.037
X-5.3Y108.3
X-5.196Y125.921
X-4.927Y122.927
X-4.75Y84.544
X-4.Y124.7
X-2.6Y119.
X-2.523Y123.123
X-2.4Y96.4
X-2.1Y95.1
X-1.95Y125.65
X-1.9Y132.65
X-1.8Y94.1
X-0.9Y93.3
X-0.85Y78.65
X-0.8Y129.6
X0.4Y59.4
X0.8Y106.65
X0.8Y72.75
X0.85Y115.25
X1.1Y116.55
X1.141Y117.828
X1.2Y129.6
X1.2Y78.65
X1.55Y123.6
X1.8Y70.6
X3.3Y83.7
X3.4Y60.9
X4.175Y118.91
X4.175Y113.859
X4.2Y122.1
X4.442Y106.639
X5.Y112.2
X5.8Y126.96
X5.8Y98.4
X5.9Y121.2
X6.05Y130.4
X6.05Y84.7
X6.375Y119.95
X6.5Y123.7
X7.2Y121.725
X8.2Y71.5
X10.95Y102.1
X11.Y59.6
X11.3Y72.6
X11.95Y102.1
X12.2Y108.875
X13.75Y130.15
X13.8Y83.4
X13.95Y60.85
X14.5Y109.066
X14.823Y112.177
X15.05Y121.3
X15.57Y110.873
X15.786Y107.25
X15.9Y126.7
X15.97Y121.96
X16.5Y84.55
X16.786Y107.25
X17.7Y103.5
X18.03Y118.61
X18.8Y71.4
X20.05Y115.9
X21.25Y133.05
X21.3Y114.2
X21.4Y59.6
X21.5Y47.7
X21.571Y128.729
X21.7Y72.75
X21.85Y130.25
X23.Y108.8
X23.1Y102.7
X23.9Y123.5
X24.2Y108.8
X24.2Y83.5
X24.4Y131.95
X24.4Y48.95
X24.45Y60.9
X25.1Y108.8
X25.7Y103.1
X25.9Y121.3
X27.Y84.65
X27.1Y122.
X27.8Y119.7
X27.8Y115.4
X27.8Y112.8
X28.2Y122.7
X29.36Y124.79
X29.4Y71.4
X29.555Y104.675
X30.4Y124.4
X31.18Y125.25
X31.7Y111.488
X32.Y98.7
X32.Y47.7
X32.3Y72.75
X32.4Y102.3
X33.Y95.3
X33.66Y124.7
X34.028Y107.181
X34.074Y111.8
X34.1Y115.8
X34.2Y113.1
X34.5Y83.5
X34.6Y59.6
X34.9Y49.
X34.937Y107.457
X35.Y111.413
X35.Y108.405
X35.013Y109.413
X35.014Y110.413
X35.3Y124.
X35.3Y122.1
X35.9Y119.7
X36.01Y105.29
X36.5Y123.7
X37.3Y120.2
X37.55Y84.65
X37.55Y60.95
X38.4Y115.2
X38.7Y94.7
X39.9Y71.5
X40.3Y97.6
X41.2Y95.2
X41.9Y95.2
X42.6Y95.2
X42.7Y99.6
X42.8Y72.75
X43.6Y95.2
X44.3Y95.2
X45.Y95.2
X45.2Y83.5
X46.2Y116.3
X47.05Y117.7
X47.2Y115.9
X48.Y84.6
X49.2Y114.7
X49.3Y104.9
X50.3Y110.425
X51.8Y118.2
T3
X-12.065Y130.175
X-10.795Y131.445
X-12.065Y127.635
X12.065Y112.395
X40.2Y131.85
X-10.795Y118.745
X12.065Y130.175
X-12.065Y122.555
X10.795Y126.365
X-12.065Y117.475
X12.065Y120.015
X-12.065Y132.715
X10.795Y131.445
X10.795Y111.125
X-10.795Y113.665
X12.065Y122.555
X12.065Y117.475
X-10.795Y111.125
X10.795Y113.665
X12.065Y127.635
X39.09Y127.05
X39.45Y128.64
X-12.065Y114.935
X10.795Y128.905
X-12.065Y112.395
X-10.795Y128.905
X10.795Y123.825
X12.065Y132.715
X-10.795Y116.205
X10.795Y118.745
X-10.795Y123.825
X39.86Y130.25
X12.065Y125.095
X10.795Y121.285
X-12.065Y125.095
X12.065Y114.935
T4
X14.9Y103.74
X14.9Y101.2
X20.22Y125.6
X22.76Y125.6
X25.3Y125.6
X-1.27Y12.33
X-1.27Y9.79
X1.27Y12.33
X1.27Y9.79
T2
X28.943Y128.684G85X28.705Y127.61
G05
X29.809Y132.589G85X29.636Y131.808
G05
X37.378Y126.814G85X37.14Y125.74
G05
X38.244Y130.719G85X38.071Y129.938
G05
T0
M30
