%FSLAX45Y45*%
G04 Gerber Fmt 4.5, Leading zero omitted, Abs format (unit mm)*
G04 Created by KiCad (PCBNEW 5.0.2-1.fc29) date Mon 25 Feb 2019 04:28:05 CET*
%MOMM*%
%LPD*%
G01*
G04 APERTURE LIST*
%ADD10C,0.100000*%
%ADD11C,0.200000*%
%ADD12C,0.300000*%
G04 APERTURE END LIST*
D10*
X5128859Y13101191D02*
G75*
G02X0Y0I-11617245J-3006596D01*
G01*
X5211417Y9600000D02*
G75*
G03X5211417Y9600000I-210000J0D01*
G01*
X4547827Y11682000D02*
X4547827Y10182000D01*
X4384999Y11682000D02*
G75*
G02X4547827Y11682000I81414J0D01*
G01*
X4384999Y10182000D02*
X4384999Y11682000D01*
X-4791285Y9600000D02*
G75*
G03X-4791285Y9600000I-210000J0D01*
G01*
X0Y14575271D02*
G75*
G02X-5128700Y13101191I-7481641J16371471D01*
G01*
X4547827Y10182000D02*
G75*
G02X4384999Y10182000I-81414J0D01*
G01*
X5128859Y13101191D02*
G75*
G02X0Y14575271I2352718J17845580D01*
G01*
X0Y0D02*
G75*
G02X-5128700Y13101191I6488522J10094508D01*
G01*
X-4302509Y12650000D02*
G75*
G03X-4302509Y12650000I-375000J0D01*
G01*
X5052668Y12650000D02*
G75*
G03X5052668Y12650000I-375000J0D01*
G01*
X210000Y500000D02*
G75*
G03X210000Y500000I-210000J0D01*
G01*
D11*
X-4970000Y7560000D02*
X-4930000Y7520000D01*
X-4930000Y7560000D02*
X-4970000Y7520000D01*
X-4860000Y7570000D02*
X-4820000Y7530000D01*
X-4820000Y7570000D02*
X-4860000Y7530000D01*
X-4820000Y10520000D02*
X-4780000Y10480000D01*
X-4780000Y10520000D02*
X-4820000Y10480000D01*
X-4810000Y8085000D02*
X-4770000Y8045000D01*
X-4770000Y8085000D02*
X-4810000Y8045000D01*
X-4730000Y8940000D02*
X-4690000Y8900000D01*
X-4690000Y8940000D02*
X-4730000Y8900000D01*
X-4720000Y10620005D02*
X-4680000Y10580005D01*
X-4680000Y10620005D02*
X-4720000Y10580005D01*
X-4665000Y8475000D02*
X-4625000Y8435000D01*
X-4625000Y8475000D02*
X-4665000Y8435000D01*
X-4650000Y12010000D02*
X-4610000Y11970000D01*
X-4610000Y12010000D02*
X-4650000Y11970000D01*
X-4620000Y11900000D02*
X-4580000Y11860000D01*
X-4580000Y11900000D02*
X-4620000Y11860000D01*
X-4620000Y10720000D02*
X-4580000Y10680000D01*
X-4580000Y10720000D02*
X-4620000Y10680000D01*
X-4540000Y11510000D02*
X-4500000Y11470000D01*
X-4500000Y11510000D02*
X-4540000Y11470000D01*
X-4537499Y10239747D02*
X-4497499Y10199747D01*
X-4497499Y10239747D02*
X-4537499Y10199747D01*
X-4490000Y11410000D02*
X-4450000Y11370000D01*
X-4450000Y11410000D02*
X-4490000Y11370000D01*
X-4430000Y10330000D02*
X-4390000Y10290000D01*
X-4390000Y10330000D02*
X-4430000Y10290000D01*
X-4420000Y11070000D02*
X-4380000Y11030000D01*
X-4380000Y11070000D02*
X-4420000Y11030000D01*
X-4420000Y7150000D02*
X-4380000Y7110000D01*
X-4380000Y7150000D02*
X-4420000Y7110000D01*
X-4335000Y10440000D02*
X-4295000Y10400000D01*
X-4295000Y10440000D02*
X-4335000Y10400000D01*
X-4250000Y5970000D02*
X-4210000Y5930000D01*
X-4210000Y5970000D02*
X-4250000Y5930000D01*
X-4195231Y7234769D02*
X-4155230Y7194769D01*
X-4155230Y7234769D02*
X-4195231Y7194769D01*
X-4190000Y11070000D02*
X-4150000Y11030000D01*
X-4150000Y11070000D02*
X-4190000Y11030000D01*
X-4190000Y8740000D02*
X-4150000Y8700000D01*
X-4150000Y8740000D02*
X-4190000Y8700000D01*
X-4189375Y9396049D02*
X-4149375Y9356049D01*
X-4149375Y9396049D02*
X-4189375Y9356049D01*
X-4180000Y8860000D02*
X-4140000Y8820000D01*
X-4140000Y8860000D02*
X-4180000Y8820000D01*
X-4171485Y10451485D02*
X-4131485Y10411485D01*
X-4131485Y10451485D02*
X-4171485Y10411485D01*
X-4120000Y11140000D02*
X-4080000Y11100000D01*
X-4080000Y11140000D02*
X-4120000Y11100000D01*
X-4110000Y10100000D02*
X-4070000Y10060000D01*
X-4070000Y10100000D02*
X-4110000Y10060000D01*
X-4080000Y9400000D02*
X-4040000Y9360000D01*
X-4040000Y9400000D02*
X-4080000Y9360000D01*
X-4060000Y11740000D02*
X-4020000Y11700000D01*
X-4020000Y11740000D02*
X-4060000Y11700000D01*
X-3990000Y8820000D02*
X-3950000Y8780000D01*
X-3950000Y8820000D02*
X-3990000Y8780000D01*
X-3922730Y6087269D02*
X-3882730Y6047269D01*
X-3882730Y6087269D02*
X-3922730Y6047269D01*
X-3912501Y10412499D02*
X-3872501Y10372499D01*
X-3872501Y10412499D02*
X-3912501Y10372499D01*
X-3908734Y10191266D02*
X-3868734Y10151266D01*
X-3868734Y10191266D02*
X-3908734Y10151266D01*
X-3907496Y10537819D02*
X-3867496Y10497819D01*
X-3867496Y10537819D02*
X-3907496Y10497819D01*
X-3896886Y9706883D02*
X-3856886Y9666883D01*
X-3856886Y9706883D02*
X-3896886Y9666883D01*
X-3872499Y10730000D02*
X-3832499Y10690000D01*
X-3832499Y10730000D02*
X-3872499Y10690000D01*
X-3800000Y11630000D02*
X-3760000Y11590000D01*
X-3760000Y11630000D02*
X-3800000Y11590000D01*
X-3640000Y4730000D02*
X-3600000Y4690000D01*
X-3600000Y4730000D02*
X-3640000Y4690000D01*
X-3586764Y8370492D02*
X-3546764Y8330492D01*
X-3546764Y8370492D02*
X-3586764Y8330492D01*
X-3573000Y10135000D02*
X-3533000Y10095000D01*
X-3533000Y10135000D02*
X-3573000Y10095000D01*
X-3560000Y11557499D02*
X-3520000Y11517499D01*
X-3520000Y11557499D02*
X-3560000Y11517499D01*
X-3560000Y10022501D02*
X-3520000Y9982501D01*
X-3520000Y10022501D02*
X-3560000Y9982501D01*
X-3550000Y11850000D02*
X-3510000Y11810000D01*
X-3510000Y11850000D02*
X-3550000Y11810000D01*
X-3501687Y11481501D02*
X-3461687Y11441501D01*
X-3461687Y11481501D02*
X-3501687Y11441501D01*
X-3420000Y11530003D02*
X-3380000Y11490003D01*
X-3380000Y11530003D02*
X-3420000Y11490003D01*
X-3390000Y10900000D02*
X-3350000Y10860000D01*
X-3350000Y10900000D02*
X-3390000Y10860000D01*
X-3380000Y8190000D02*
X-3340000Y8150000D01*
X-3340000Y8190000D02*
X-3380000Y8150000D01*
X-3370000Y7160000D02*
X-3330000Y7120000D01*
X-3330000Y7160000D02*
X-3370000Y7120000D01*
X-3360000Y3620000D02*
X-3320000Y3580000D01*
X-3320000Y3620000D02*
X-3360000Y3580000D01*
X-3350000Y4900000D02*
X-3310000Y4860000D01*
X-3310000Y4900000D02*
X-3350000Y4860000D01*
X-3260000Y9660000D02*
X-3220000Y9620000D01*
X-3220000Y9660000D02*
X-3260000Y9620000D01*
X-3190000Y10350000D02*
X-3150000Y10310000D01*
X-3150000Y10350000D02*
X-3190000Y10310000D01*
X-3180000Y3620000D02*
X-3140000Y3580000D01*
X-3140000Y3620000D02*
X-3180000Y3580000D01*
X-3170000Y5970000D02*
X-3130000Y5930000D01*
X-3130000Y5970000D02*
X-3170000Y5930000D01*
X-3150000Y10130000D02*
X-3110000Y10090000D01*
X-3110000Y10130000D02*
X-3150000Y10090000D01*
X-3097730Y7282269D02*
X-3057730Y7242269D01*
X-3057730Y7282269D02*
X-3097730Y7242269D01*
X-3090000Y11530000D02*
X-3050000Y11490000D01*
X-3050000Y11530000D02*
X-3090000Y11490000D01*
X-3040000Y10000000D02*
X-3000000Y9960000D01*
X-3000000Y10000000D02*
X-3040000Y9960000D01*
X-2900000Y10620000D02*
X-2860000Y10580000D01*
X-2860000Y10620000D02*
X-2900000Y10580000D01*
X-2880000Y10420000D02*
X-2840000Y10380000D01*
X-2840000Y10420000D02*
X-2880000Y10380000D01*
X-2870000Y6105000D02*
X-2830000Y6065000D01*
X-2830000Y6105000D02*
X-2870000Y6065000D01*
X-2670000Y4730000D02*
X-2630000Y4690000D01*
X-2630000Y4730000D02*
X-2670000Y4690000D01*
X-2669999Y10385000D02*
X-2629999Y10345000D01*
X-2629999Y10385000D02*
X-2669999Y10345000D01*
X-2635000Y10490000D02*
X-2595000Y10450000D01*
X-2595000Y10490000D02*
X-2635000Y10450000D01*
X-2544566Y8461858D02*
X-2504566Y8421858D01*
X-2504566Y8461858D02*
X-2544566Y8421858D01*
X-2510000Y13079999D02*
X-2470000Y13039999D01*
X-2470000Y13079999D02*
X-2510000Y13039999D01*
X-2503951Y10620877D02*
X-2463951Y10580877D01*
X-2463951Y10620877D02*
X-2503951Y10580877D01*
X-2450000Y8210000D02*
X-2410000Y8170000D01*
X-2410000Y8210000D02*
X-2450000Y8170000D01*
X-2430000Y10710000D02*
X-2390000Y10670000D01*
X-2390000Y10710000D02*
X-2430000Y10670000D01*
X-2360000Y4915000D02*
X-2320000Y4875000D01*
X-2320000Y4915000D02*
X-2360000Y4875000D01*
X-2320000Y7160000D02*
X-2280000Y7120000D01*
X-2280000Y7160000D02*
X-2320000Y7120000D01*
X-2210000Y11930000D02*
X-2170000Y11890000D01*
X-2170000Y11930000D02*
X-2210000Y11890000D01*
X-2180000Y11290000D02*
X-2140000Y11250000D01*
X-2140000Y11290000D02*
X-2180000Y11250000D01*
X-2120000Y10520000D02*
X-2080000Y10480000D01*
X-2080000Y10520000D02*
X-2120000Y10480000D01*
X-2090000Y5970000D02*
X-2050000Y5930000D01*
X-2050000Y5970000D02*
X-2090000Y5930000D01*
X-2080000Y12910000D02*
X-2040000Y12870000D01*
X-2040000Y12910000D02*
X-2080000Y12870000D01*
X-2080000Y9780000D02*
X-2040000Y9740000D01*
X-2040000Y9780000D02*
X-2080000Y9740000D01*
X-2070000Y11890000D02*
X-2030000Y11850000D01*
X-2030000Y11890000D02*
X-2070000Y11850000D01*
X-2040000Y7295000D02*
X-2000000Y7255000D01*
X-2000000Y7295000D02*
X-2040000Y7255000D01*
X-1920000Y12300000D02*
X-1880000Y12260000D01*
X-1880000Y12300000D02*
X-1920000Y12260000D01*
X-1892269Y12047730D02*
X-1852269Y12007730D01*
X-1852269Y12047730D02*
X-1892269Y12007730D01*
X-1860000Y12680000D02*
X-1820000Y12640000D01*
X-1820000Y12680000D02*
X-1860000Y12640000D01*
X-1850000Y9500000D02*
X-1810000Y9460000D01*
X-1810000Y9500000D02*
X-1850000Y9460000D01*
X-1810000Y13242500D02*
X-1770000Y13202500D01*
X-1770000Y13242500D02*
X-1810000Y13202500D01*
X-1775000Y6105000D02*
X-1735000Y6065000D01*
X-1735000Y6105000D02*
X-1775000Y6065000D01*
X-1762730Y12057269D02*
X-1722730Y12017269D01*
X-1722730Y12057269D02*
X-1762730Y12017269D01*
X-1730000Y12850000D02*
X-1690000Y12810000D01*
X-1690000Y12850000D02*
X-1730000Y12810000D01*
X-1680000Y11500000D02*
X-1640000Y11460000D01*
X-1640000Y11500000D02*
X-1680000Y11460000D01*
X-1600000Y11370000D02*
X-1560000Y11330000D01*
X-1560000Y11370000D02*
X-1600000Y11330000D01*
X-1520000Y12110001D02*
X-1480000Y12070001D01*
X-1480000Y12110001D02*
X-1520000Y12070001D01*
X-1515000Y8485000D02*
X-1475000Y8445000D01*
X-1475000Y8485000D02*
X-1515000Y8445000D01*
X-1514420Y9443922D02*
X-1474420Y9403922D01*
X-1474420Y9443922D02*
X-1514420Y9403922D01*
X-1450000Y8210000D02*
X-1410000Y8170000D01*
X-1410000Y8210000D02*
X-1450000Y8170000D01*
X-1420000Y9529998D02*
X-1380000Y9489998D01*
X-1380000Y9529998D02*
X-1420000Y9489998D01*
X-1410000Y12250000D02*
X-1370000Y12210000D01*
X-1370000Y12250000D02*
X-1410000Y12210000D01*
X-1400000Y9650000D02*
X-1360000Y9610000D01*
X-1360000Y9650000D02*
X-1400000Y9610000D01*
X-1302502Y9655000D02*
X-1262502Y9615000D01*
X-1262502Y9655000D02*
X-1302502Y9615000D01*
X-1300000Y4750000D02*
X-1260000Y4710000D01*
X-1260000Y4750000D02*
X-1300000Y4710000D01*
X-1270000Y9910000D02*
X-1230000Y9870000D01*
X-1230000Y9910000D02*
X-1270000Y9870000D01*
X-1226500Y12076001D02*
X-1186500Y12036001D01*
X-1186500Y12076001D02*
X-1226500Y12036001D01*
X-1117501Y9645000D02*
X-1077501Y9605000D01*
X-1077501Y9645000D02*
X-1117501Y9605000D01*
X-1100000Y12660000D02*
X-1060000Y12620000D01*
X-1060000Y12660000D02*
X-1100000Y12620000D01*
X-1030000Y5970000D02*
X-990000Y5930000D01*
X-990000Y5970000D02*
X-1030000Y5930000D01*
X-985000Y7295000D02*
X-945000Y7255000D01*
X-945000Y7295000D02*
X-985000Y7255000D01*
X-985000Y4920000D02*
X-945000Y4880000D01*
X-945000Y4920000D02*
X-985000Y4880000D01*
X-980000Y10500000D02*
X-940000Y10460000D01*
X-940000Y10500000D02*
X-980000Y10460000D01*
X-960000Y10180000D02*
X-920000Y10140000D01*
X-920000Y10180000D02*
X-960000Y10140000D01*
X-960000Y9770000D02*
X-920000Y9730000D01*
X-920000Y9770000D02*
X-960000Y9730000D01*
X-900000Y7040000D02*
X-860000Y7000000D01*
X-860000Y7040000D02*
X-900000Y7000000D01*
X-760000Y8350000D02*
X-720000Y8310000D01*
X-720000Y8350000D02*
X-760000Y8310000D01*
X-730000Y6105000D02*
X-690000Y6065000D01*
X-690000Y6105000D02*
X-730000Y6065000D01*
X-720000Y9530001D02*
X-680000Y9490001D01*
X-680000Y9530001D02*
X-720000Y9490001D01*
X-680000Y9790000D02*
X-640000Y9750000D01*
X-640000Y9790000D02*
X-680000Y9750000D01*
X-653734Y12623734D02*
X-613734Y12583734D01*
X-613734Y12623734D02*
X-653734Y12583734D01*
X-550000Y10850000D02*
X-510000Y10810000D01*
X-510000Y10850000D02*
X-550000Y10810000D01*
X-539607Y12612139D02*
X-499607Y12572139D01*
X-499607Y12612139D02*
X-539607Y12572139D01*
X-512730Y12312730D02*
X-472730Y12272730D01*
X-472730Y12312730D02*
X-512730Y12272730D01*
X-495001Y8474415D02*
X-455001Y8434415D01*
X-455001Y8474415D02*
X-495001Y8434415D01*
X-420000Y12490000D02*
X-380000Y12450000D01*
X-380000Y12490000D02*
X-420000Y12450000D01*
X-280000Y11920000D02*
X-240000Y11880000D01*
X-240000Y11920000D02*
X-280000Y11880000D01*
X-272270Y12332269D02*
X-232269Y12292269D01*
X-232269Y12332269D02*
X-272270Y12292269D01*
X-260000Y9660000D02*
X-220000Y9620000D01*
X-220000Y9660000D02*
X-260000Y9620000D01*
X-230000Y9530000D02*
X-190000Y9490000D01*
X-190000Y9530000D02*
X-230000Y9490000D01*
X-215000Y12585000D02*
X-175000Y12545000D01*
X-175000Y12585000D02*
X-215000Y12545000D01*
X-210000Y13285001D02*
X-170000Y13245001D01*
X-170000Y13285001D02*
X-210000Y13245001D01*
X-200000Y9430000D02*
X-160000Y9390000D01*
X-160000Y9430000D02*
X-200000Y9390000D01*
X-110000Y9350000D02*
X-70000Y9310000D01*
X-70000Y9350000D02*
X-110000Y9310000D01*
X-104993Y7885000D02*
X-64993Y7845000D01*
X-64993Y7885000D02*
X-104993Y7845000D01*
X-100001Y12980000D02*
X-60001Y12940000D01*
X-60001Y12980000D02*
X-100001Y12940000D01*
X20000Y5960000D02*
X60000Y5920000D01*
X60000Y5960000D02*
X20000Y5920000D01*
X60000Y10685000D02*
X100000Y10645000D01*
X100000Y10685000D02*
X60000Y10645000D01*
X60000Y7295000D02*
X100000Y7255000D01*
X100000Y7295000D02*
X60000Y7255000D01*
X65000Y11545000D02*
X105000Y11505000D01*
X105000Y11545000D02*
X65000Y11505000D01*
X90000Y11675000D02*
X130000Y11635000D01*
X130000Y11675000D02*
X90000Y11635000D01*
X94059Y11802818D02*
X134059Y11762818D01*
X134059Y11802818D02*
X94059Y11762818D01*
X100000Y12980000D02*
X140000Y12940000D01*
X140000Y12980000D02*
X100000Y12940000D01*
X100000Y7885000D02*
X140000Y7845000D01*
X140000Y7885000D02*
X100000Y7845000D01*
X135000Y12380000D02*
X175000Y12340000D01*
X175000Y12380000D02*
X135000Y12340000D01*
X160000Y7080000D02*
X200000Y7040000D01*
X200000Y7080000D02*
X160000Y7040000D01*
X310000Y8390000D02*
X350000Y8350000D01*
X350000Y8390000D02*
X310000Y8350000D01*
X320000Y6110000D02*
X360000Y6070000D01*
X360000Y6110000D02*
X320000Y6070000D01*
X397501Y11910994D02*
X437501Y11870994D01*
X437501Y11910994D02*
X397501Y11870994D01*
X397503Y11405918D02*
X437503Y11365918D01*
X437503Y11405918D02*
X397503Y11365918D01*
X400000Y12230000D02*
X440000Y12190000D01*
X440000Y12230000D02*
X400000Y12190000D01*
X424189Y10683888D02*
X464189Y10643888D01*
X464189Y10683888D02*
X424189Y10643888D01*
X480000Y11240000D02*
X520000Y11200000D01*
X520000Y11240000D02*
X480000Y11200000D01*
X560000Y12715999D02*
X600000Y12675999D01*
X600000Y12715999D02*
X560000Y12675999D01*
X560000Y9860000D02*
X600000Y9820000D01*
X600000Y9860000D02*
X560000Y9820000D01*
X570000Y12140000D02*
X610000Y12100000D01*
X610000Y12140000D02*
X570000Y12100000D01*
X585000Y13060000D02*
X625000Y13020000D01*
X625000Y13060000D02*
X585000Y13020000D01*
X585000Y8490000D02*
X625000Y8450000D01*
X625000Y8490000D02*
X585000Y8450000D01*
X617499Y12015000D02*
X657499Y11975000D01*
X657499Y12015000D02*
X617499Y11975000D01*
X630000Y12390000D02*
X670000Y12350000D01*
X670000Y12390000D02*
X630000Y12350000D01*
X700000Y12192499D02*
X740000Y12152499D01*
X740000Y12192499D02*
X700000Y12152499D01*
X800000Y7170000D02*
X840000Y7130000D01*
X840000Y7170000D02*
X800000Y7130000D01*
X1075000Y10230000D02*
X1115000Y10190000D01*
X1115000Y10230000D02*
X1075000Y10190000D01*
X1080000Y5980000D02*
X1120000Y5940000D01*
X1120000Y5980000D02*
X1080000Y5940000D01*
X1110000Y7280000D02*
X1150000Y7240000D01*
X1150000Y7280000D02*
X1110000Y7240000D01*
X1175000Y10230000D02*
X1215000Y10190000D01*
X1215000Y10230000D02*
X1175000Y10190000D01*
X1200016Y10907517D02*
X1240016Y10867517D01*
X1240016Y10907517D02*
X1200016Y10867517D01*
X1355000Y13035000D02*
X1395000Y12995000D01*
X1395000Y13035000D02*
X1355000Y12995000D01*
X1360000Y8360000D02*
X1400000Y8320000D01*
X1400000Y8360000D02*
X1360000Y8320000D01*
X1375000Y6105000D02*
X1415000Y6065000D01*
X1415000Y6105000D02*
X1375000Y6065000D01*
X1430002Y10926604D02*
X1470002Y10886604D01*
X1470002Y10926604D02*
X1430002Y10886604D01*
X1462269Y11237730D02*
X1502269Y11197730D01*
X1502269Y11237730D02*
X1462269Y11197730D01*
X1485000Y12150000D02*
X1525000Y12110000D01*
X1525000Y12150000D02*
X1485000Y12110000D01*
X1536973Y11107254D02*
X1576973Y11067254D01*
X1576973Y11107254D02*
X1536973Y11067254D01*
X1558615Y10745001D02*
X1598615Y10705001D01*
X1598615Y10745001D02*
X1558615Y10705001D01*
X1570000Y12690000D02*
X1610000Y12650000D01*
X1610000Y12690000D02*
X1570000Y12650000D01*
X1577000Y12216000D02*
X1617000Y12176000D01*
X1617000Y12216000D02*
X1577000Y12176000D01*
X1630000Y8475000D02*
X1670000Y8435000D01*
X1670000Y8475000D02*
X1630000Y8435000D01*
X1658645Y10745001D02*
X1698645Y10705001D01*
X1698645Y10745001D02*
X1658645Y10705001D01*
X1750000Y10370000D02*
X1790000Y10330000D01*
X1790000Y10370000D02*
X1750000Y10330000D01*
X1783000Y11881000D02*
X1823000Y11841000D01*
X1823000Y11881000D02*
X1783000Y11841000D01*
X1860000Y7160000D02*
X1900000Y7120000D01*
X1900000Y7160000D02*
X1860000Y7120000D01*
X1985000Y11610000D02*
X2025000Y11570000D01*
X2025000Y11610000D02*
X1985000Y11570000D01*
X2105000Y13325000D02*
X2145000Y13285000D01*
X2145000Y13325000D02*
X2105000Y13285000D01*
X2110000Y11440000D02*
X2150000Y11400000D01*
X2150000Y11440000D02*
X2110000Y11400000D01*
X2120000Y5980000D02*
X2160000Y5940000D01*
X2160000Y5980000D02*
X2120000Y5940000D01*
X2130000Y4790000D02*
X2170000Y4750000D01*
X2170000Y4790000D02*
X2130000Y4750000D01*
X2137123Y12892877D02*
X2177123Y12852877D01*
X2177123Y12892877D02*
X2137123Y12852877D01*
X2150000Y7295000D02*
X2190000Y7255000D01*
X2190000Y7295000D02*
X2150000Y7255000D01*
X2165000Y13045000D02*
X2205000Y13005000D01*
X2205000Y13045000D02*
X2165000Y13005000D01*
X2280000Y10899998D02*
X2320000Y10859998D01*
X2320000Y10899998D02*
X2280000Y10859998D01*
X2290000Y10290000D02*
X2330000Y10250000D01*
X2330000Y10290000D02*
X2290000Y10250000D01*
X2370000Y12370000D02*
X2410000Y12330000D01*
X2410000Y12370000D02*
X2370000Y12330000D01*
X2400000Y10900000D02*
X2440000Y10860000D01*
X2440000Y10900000D02*
X2400000Y10860000D01*
X2400000Y8370000D02*
X2440000Y8330000D01*
X2440000Y8370000D02*
X2400000Y8330000D01*
X2420000Y13215000D02*
X2460000Y13175000D01*
X2460000Y13215000D02*
X2420000Y13175000D01*
X2420000Y4915000D02*
X2460000Y4875000D01*
X2460000Y4915000D02*
X2420000Y4875000D01*
X2425000Y6110000D02*
X2465000Y6070000D01*
X2465000Y6110000D02*
X2425000Y6070000D01*
X2490000Y10899998D02*
X2530000Y10859998D01*
X2530000Y10899998D02*
X2490000Y10859998D01*
X2550000Y10330000D02*
X2590000Y10290000D01*
X2590000Y10330000D02*
X2550000Y10290000D01*
X2570000Y12150000D02*
X2610000Y12110000D01*
X2610000Y12150000D02*
X2570000Y12110000D01*
X2680000Y8485000D02*
X2720000Y8445000D01*
X2720000Y8485000D02*
X2680000Y8445000D01*
X2690000Y12220000D02*
X2730000Y12180000D01*
X2730000Y12220000D02*
X2690000Y12180000D01*
X2760000Y11990000D02*
X2800000Y11950000D01*
X2800000Y11990000D02*
X2760000Y11950000D01*
X2760000Y11560000D02*
X2800000Y11520000D01*
X2800000Y11560000D02*
X2760000Y11520000D01*
X2760000Y11300000D02*
X2800000Y11260000D01*
X2800000Y11300000D02*
X2760000Y11260000D01*
X2800000Y12290000D02*
X2840000Y12250000D01*
X2840000Y12290000D02*
X2800000Y12250000D01*
X2916000Y12499000D02*
X2956000Y12459000D01*
X2956000Y12499000D02*
X2916000Y12459000D01*
X2920000Y7160000D02*
X2960000Y7120000D01*
X2960000Y7160000D02*
X2920000Y7120000D01*
X2935463Y10487498D02*
X2975463Y10447498D01*
X2975463Y10487498D02*
X2935463Y10447498D01*
X3020000Y12460000D02*
X3060000Y12420000D01*
X3060000Y12460000D02*
X3020000Y12420000D01*
X3098000Y12545000D02*
X3138000Y12505000D01*
X3138000Y12545000D02*
X3098000Y12505000D01*
X3150000Y11168769D02*
X3190000Y11128769D01*
X3190000Y11168769D02*
X3150000Y11128769D01*
X3180000Y9890000D02*
X3220000Y9850000D01*
X3220000Y9890000D02*
X3180000Y9850000D01*
X3180000Y4790000D02*
X3220000Y4750000D01*
X3220000Y4790000D02*
X3180000Y4750000D01*
X3210000Y7295000D02*
X3250000Y7255000D01*
X3250000Y7295000D02*
X3210000Y7255000D01*
X3220000Y10250000D02*
X3260000Y10210000D01*
X3260000Y10250000D02*
X3220000Y10210000D01*
X3280000Y9550000D02*
X3320000Y9510000D01*
X3320000Y9550000D02*
X3280000Y9510000D01*
X3346000Y12490000D02*
X3386000Y12450000D01*
X3386000Y12490000D02*
X3346000Y12450000D01*
X3382774Y10738071D02*
X3422774Y10698071D01*
X3422774Y10738071D02*
X3382774Y10698071D01*
X3387403Y11200032D02*
X3427403Y11160032D01*
X3427403Y11200032D02*
X3387403Y11160032D01*
X3390000Y11600000D02*
X3430000Y11560000D01*
X3430000Y11600000D02*
X3390000Y11560000D01*
X3400000Y11330000D02*
X3440000Y11290000D01*
X3440000Y11330000D02*
X3400000Y11290000D01*
X3430000Y8370000D02*
X3470000Y8330000D01*
X3470000Y8370000D02*
X3430000Y8330000D01*
X3440000Y5980000D02*
X3480000Y5940000D01*
X3480000Y5980000D02*
X3440000Y5940000D01*
X3470000Y4920000D02*
X3510000Y4880000D01*
X3510000Y4920000D02*
X3470000Y4880000D01*
X3473669Y10765700D02*
X3513669Y10725700D01*
X3513669Y10765700D02*
X3473669Y10725700D01*
X3479983Y11161259D02*
X3519983Y11121259D01*
X3519983Y11161259D02*
X3479983Y11121259D01*
X3480033Y10860488D02*
X3520033Y10820488D01*
X3520033Y10860488D02*
X3480033Y10820488D01*
X3481266Y10961266D02*
X3521266Y10921266D01*
X3521266Y10961266D02*
X3481266Y10921266D01*
X3481368Y11061267D02*
X3521368Y11021267D01*
X3521368Y11061267D02*
X3481368Y11021267D01*
X3510000Y12420000D02*
X3550000Y12380000D01*
X3550000Y12420000D02*
X3510000Y12380000D01*
X3510000Y12230000D02*
X3550000Y12190000D01*
X3550000Y12230000D02*
X3510000Y12190000D01*
X3570000Y11990000D02*
X3610000Y11950000D01*
X3610000Y11990000D02*
X3570000Y11950000D01*
X3581016Y10548985D02*
X3621016Y10508985D01*
X3621016Y10548985D02*
X3581016Y10508985D01*
X3630000Y12390000D02*
X3670000Y12350000D01*
X3670000Y12390000D02*
X3630000Y12350000D01*
X3710000Y12040000D02*
X3750000Y12000000D01*
X3750000Y12040000D02*
X3710000Y12000000D01*
X3735000Y8485000D02*
X3775000Y8445000D01*
X3775000Y8485000D02*
X3735000Y8445000D01*
X3735000Y6115000D02*
X3775000Y6075000D01*
X3775000Y6115000D02*
X3735000Y6075000D01*
X3820000Y11540000D02*
X3860000Y11500000D01*
X3860000Y11540000D02*
X3820000Y11500000D01*
X3850000Y9490000D02*
X3890000Y9450000D01*
X3890000Y9490000D02*
X3850000Y9450000D01*
X3970000Y7170000D02*
X4010000Y7130000D01*
X4010000Y7170000D02*
X3970000Y7130000D01*
X4010000Y9780000D02*
X4050000Y9740000D01*
X4050000Y9780000D02*
X4010000Y9740000D01*
X4100000Y9540000D02*
X4140000Y9500000D01*
X4140000Y9540000D02*
X4100000Y9500000D01*
X4170000Y9540000D02*
X4210000Y9500000D01*
X4210000Y9540000D02*
X4170000Y9500000D01*
X4240000Y9540000D02*
X4280000Y9500000D01*
X4280000Y9540000D02*
X4240000Y9500000D01*
X4250000Y9980000D02*
X4290000Y9940000D01*
X4290000Y9980000D02*
X4250000Y9940000D01*
X4260000Y7295000D02*
X4300000Y7255000D01*
X4300000Y7295000D02*
X4260000Y7255000D01*
X4340000Y9540000D02*
X4380000Y9500000D01*
X4380000Y9540000D02*
X4340000Y9500000D01*
X4410000Y9540000D02*
X4450000Y9500000D01*
X4450000Y9540000D02*
X4410000Y9500000D01*
X4480000Y9540000D02*
X4520000Y9500000D01*
X4520000Y9540000D02*
X4480000Y9500000D01*
X4500000Y8370000D02*
X4540000Y8330000D01*
X4540000Y8370000D02*
X4500000Y8330000D01*
X4600000Y11650000D02*
X4640000Y11610000D01*
X4640000Y11650000D02*
X4600000Y11610000D01*
X4685000Y11790000D02*
X4725000Y11750000D01*
X4725000Y11790000D02*
X4685000Y11750000D01*
X4700000Y11610000D02*
X4740000Y11570000D01*
X4740000Y11610000D02*
X4700000Y11570000D01*
X4780000Y8480000D02*
X4820000Y8440000D01*
X4820000Y8480000D02*
X4780000Y8440000D01*
X4900000Y11490000D02*
X4940000Y11450000D01*
X4940000Y11490000D02*
X4900000Y11450000D01*
X4910000Y10510000D02*
X4950000Y10470000D01*
X4950000Y10510000D02*
X4910000Y10470000D01*
X5010000Y11062500D02*
X5050000Y11022500D01*
X5050000Y11062500D02*
X5010000Y11022500D01*
X5160000Y11840000D02*
X5200000Y11800000D01*
X5200000Y11840000D02*
X5160000Y11800000D01*
X2912418Y12814687D02*
G75*
G03X2912418Y12814687I-30000J0D01*
G01*
X2874796Y12872712D02*
X2850988Y12765320D01*
X2913848Y12864055D02*
X2890040Y12756662D01*
X2850988Y12765320D02*
G75*
G03X2890040Y12756662I19526J-4329D01*
G01*
X2913848Y12864055D02*
G75*
G03X2874796Y12872712I-19526J4329D01*
G01*
X3002241Y13219850D02*
G75*
G03X3002241Y13219850I-30000J0D01*
G01*
X2961372Y13263231D02*
X2944057Y13185127D01*
X3000424Y13254573D02*
X2983109Y13176469D01*
X2944057Y13185127D02*
G75*
G03X2983109Y13176469I19526J-4329D01*
G01*
X3000424Y13254573D02*
G75*
G03X2961372Y13263231I-19526J4329D01*
G01*
X3755938Y12627683D02*
G75*
G03X3755938Y12627683I-30000J0D01*
G01*
X3718316Y12685708D02*
X3694508Y12578316D01*
X3757368Y12677051D02*
X3733560Y12569658D01*
X3694508Y12578316D02*
G75*
G03X3733560Y12569658I19526J-4329D01*
G01*
X3757368Y12677051D02*
G75*
G03X3718316Y12685708I-19526J4329D01*
G01*
X3845760Y13032846D02*
G75*
G03X3845760Y13032846I-30000J0D01*
G01*
X3804892Y13076227D02*
X3787577Y12998123D01*
X3843944Y13067569D02*
X3826629Y12989465D01*
X3787577Y12998123D02*
G75*
G03X3826629Y12989465I19526J-4329D01*
G01*
X3843944Y13067569D02*
G75*
G03X3804892Y13076227I-19526J4329D01*
G01*
X-1206500Y13057500D02*
X-1206500Y12977500D01*
X-1246500Y13017500D02*
X-1166500Y13017500D01*
X-1079500Y13184500D02*
X-1079500Y13104500D01*
X-1119500Y13144500D02*
X-1039500Y13144500D01*
X-1206500Y12803500D02*
X-1206500Y12723500D01*
X-1246500Y12763500D02*
X-1166500Y12763500D01*
X1206500Y11279500D02*
X1206500Y11199500D01*
X1166500Y11239500D02*
X1246500Y11239500D01*
X4020000Y13225000D02*
X4020000Y13145000D01*
X3980000Y13185000D02*
X4060000Y13185000D01*
X-1079500Y11914500D02*
X-1079500Y11834500D01*
X-1119500Y11874500D02*
X-1039500Y11874500D01*
X1206500Y13057500D02*
X1206500Y12977500D01*
X1166500Y13017500D02*
X1246500Y13017500D01*
X-1206500Y12295500D02*
X-1206500Y12215500D01*
X-1246500Y12255500D02*
X-1166500Y12255500D01*
X1079500Y12676500D02*
X1079500Y12596500D01*
X1039500Y12636500D02*
X1119500Y12636500D01*
X-1206500Y11787500D02*
X-1206500Y11707500D01*
X-1246500Y11747500D02*
X-1166500Y11747500D01*
X1206500Y12041500D02*
X1206500Y11961500D01*
X1166500Y12001500D02*
X1246500Y12001500D01*
X-1206500Y13311500D02*
X-1206500Y13231500D01*
X-1246500Y13271500D02*
X-1166500Y13271500D01*
X1079500Y13184500D02*
X1079500Y13104500D01*
X1039500Y13144500D02*
X1119500Y13144500D01*
X1079500Y11152500D02*
X1079500Y11072500D01*
X1039500Y11112500D02*
X1119500Y11112500D01*
X-1079500Y11406500D02*
X-1079500Y11326500D01*
X-1119500Y11366500D02*
X-1039500Y11366500D01*
X1206500Y12295500D02*
X1206500Y12215500D01*
X1166500Y12255500D02*
X1246500Y12255500D01*
X1206500Y11787500D02*
X1206500Y11707500D01*
X1166500Y11747500D02*
X1246500Y11747500D01*
X-1079500Y11152500D02*
X-1079500Y11072500D01*
X-1119500Y11112500D02*
X-1039500Y11112500D01*
X1079500Y11406500D02*
X1079500Y11326500D01*
X1039500Y11366500D02*
X1119500Y11366500D01*
X1206500Y12803500D02*
X1206500Y12723500D01*
X1166500Y12763500D02*
X1246500Y12763500D01*
X3909000Y12745000D02*
X3909000Y12665000D01*
X3869000Y12705000D02*
X3949000Y12705000D01*
X3945000Y12904000D02*
X3945000Y12824000D01*
X3905000Y12864000D02*
X3985000Y12864000D01*
X-1206500Y11533500D02*
X-1206500Y11453500D01*
X-1246500Y11493500D02*
X-1166500Y11493500D01*
X1079500Y12930500D02*
X1079500Y12850500D01*
X1039500Y12890500D02*
X1119500Y12890500D01*
X-1206500Y11279500D02*
X-1206500Y11199500D01*
X-1246500Y11239500D02*
X-1166500Y11239500D01*
X-1079500Y12930500D02*
X-1079500Y12850500D01*
X-1119500Y12890500D02*
X-1039500Y12890500D01*
X1079500Y12422500D02*
X1079500Y12342500D01*
X1039500Y12382500D02*
X1119500Y12382500D01*
X1206500Y13311500D02*
X1206500Y13231500D01*
X1166500Y13271500D02*
X1246500Y13271500D01*
X-1079500Y11660500D02*
X-1079500Y11580500D01*
X-1119500Y11620500D02*
X-1039500Y11620500D01*
X1079500Y11914500D02*
X1079500Y11834500D01*
X1039500Y11874500D02*
X1119500Y11874500D01*
X-1079500Y12422500D02*
X-1079500Y12342500D01*
X-1119500Y12382500D02*
X-1039500Y12382500D01*
X3986000Y13065000D02*
X3986000Y12985000D01*
X3946000Y13025000D02*
X4026000Y13025000D01*
X1206500Y12549500D02*
X1206500Y12469500D01*
X1166500Y12509500D02*
X1246500Y12509500D01*
X1079500Y12168500D02*
X1079500Y12088500D01*
X1039500Y12128500D02*
X1119500Y12128500D01*
X-1206500Y12549500D02*
X-1206500Y12469500D01*
X-1246500Y12509500D02*
X-1166500Y12509500D01*
X1206500Y11533500D02*
X1206500Y11453500D01*
X1166500Y11493500D02*
X1246500Y11493500D01*
X1525356Y10338644D02*
X1525356Y10409356D01*
X1454644Y10409356D01*
X1454644Y10338644D01*
X1525356Y10338644D01*
X1525356Y10084644D02*
X1525356Y10155356D01*
X1454644Y10155356D01*
X1454644Y10084644D01*
X1525356Y10084644D01*
X2057356Y12524644D02*
X2057356Y12595356D01*
X1986644Y12595356D01*
X1986644Y12524644D01*
X2057356Y12524644D01*
X2311356Y12524644D02*
X2311356Y12595356D01*
X2240644Y12595356D01*
X2240644Y12524644D01*
X2311356Y12524644D01*
X2565356Y12524644D02*
X2565356Y12595356D01*
X2494644Y12595356D01*
X2494644Y12524644D01*
X2565356Y12524644D01*
X-91644Y1197644D02*
X-91644Y1268356D01*
X-162356Y1268356D01*
X-162356Y1197644D01*
X-91644Y1197644D01*
X-91644Y943644D02*
X-91644Y1014356D01*
X-162356Y1014356D01*
X-162356Y943644D01*
X-91644Y943644D01*
X162356Y1197644D02*
X162356Y1268356D01*
X91644Y1268356D01*
X91644Y1197644D01*
X162356Y1197644D01*
X162356Y943644D02*
X162356Y1014356D01*
X91644Y1014356D01*
X91644Y943644D01*
X162356Y943644D01*
D12*
X-5230050Y-470714D02*
X-5230050Y-170714D01*
X-5158621Y-170714D01*
X-5115764Y-185000D01*
X-5087192Y-213571D01*
X-5072907Y-242143D01*
X-5058621Y-299286D01*
X-5058621Y-342143D01*
X-5072907Y-399286D01*
X-5087192Y-427857D01*
X-5115764Y-456429D01*
X-5158621Y-470714D01*
X-5230050Y-470714D01*
X-4930050Y-470714D02*
X-4930050Y-270714D01*
X-4930050Y-327857D02*
X-4915764Y-299286D01*
X-4901478Y-285000D01*
X-4872907Y-270714D01*
X-4844335Y-270714D01*
X-4744335Y-470714D02*
X-4744335Y-270714D01*
X-4744335Y-170714D02*
X-4758621Y-185000D01*
X-4744335Y-199286D01*
X-4730050Y-185000D01*
X-4744335Y-170714D01*
X-4744335Y-199286D01*
X-4558621Y-470714D02*
X-4587192Y-456429D01*
X-4601478Y-427857D01*
X-4601478Y-170714D01*
X-4401478Y-470714D02*
X-4430050Y-456429D01*
X-4444335Y-427857D01*
X-4444335Y-170714D01*
X-4058621Y-470714D02*
X-4058621Y-170714D01*
X-3958621Y-385000D01*
X-3858621Y-170714D01*
X-3858621Y-470714D01*
X-3587192Y-470714D02*
X-3587192Y-313572D01*
X-3601478Y-285000D01*
X-3630050Y-270714D01*
X-3687192Y-270714D01*
X-3715764Y-285000D01*
X-3587192Y-456429D02*
X-3615764Y-470714D01*
X-3687192Y-470714D01*
X-3715764Y-456429D01*
X-3730050Y-427857D01*
X-3730050Y-399286D01*
X-3715764Y-370714D01*
X-3687192Y-356429D01*
X-3615764Y-356429D01*
X-3587192Y-342143D01*
X-3444335Y-270714D02*
X-3444335Y-570714D01*
X-3444335Y-285000D02*
X-3415764Y-270714D01*
X-3358621Y-270714D01*
X-3330050Y-285000D01*
X-3315764Y-299286D01*
X-3301478Y-327857D01*
X-3301478Y-413571D01*
X-3315764Y-442143D01*
X-3330050Y-456429D01*
X-3358621Y-470714D01*
X-3415764Y-470714D01*
X-3444335Y-456429D01*
X-3172907Y-442143D02*
X-3158621Y-456429D01*
X-3172907Y-470714D01*
X-3187192Y-456429D01*
X-3172907Y-442143D01*
X-3172907Y-470714D01*
X-3172907Y-285000D02*
X-3158621Y-299286D01*
X-3172907Y-313572D01*
X-3187192Y-299286D01*
X-3172907Y-285000D01*
X-3172907Y-313572D01*
X-5556478Y-945000D02*
X-5516478Y-985000D01*
X-5516478Y-945000D02*
X-5556478Y-985000D01*
X-5172907Y-800714D02*
X-5144335Y-800714D01*
X-5115764Y-815000D01*
X-5101478Y-829286D01*
X-5087192Y-857857D01*
X-5072907Y-915000D01*
X-5072907Y-986429D01*
X-5087192Y-1043571D01*
X-5101478Y-1072143D01*
X-5115764Y-1086429D01*
X-5144335Y-1100714D01*
X-5172907Y-1100714D01*
X-5201478Y-1086429D01*
X-5215764Y-1072143D01*
X-5230050Y-1043571D01*
X-5244335Y-986429D01*
X-5244335Y-915000D01*
X-5230050Y-857857D01*
X-5215764Y-829286D01*
X-5201478Y-815000D01*
X-5172907Y-800714D01*
X-4944335Y-1072143D02*
X-4930050Y-1086429D01*
X-4944335Y-1100714D01*
X-4958621Y-1086429D01*
X-4944335Y-1072143D01*
X-4944335Y-1100714D01*
X-4672907Y-900714D02*
X-4672907Y-1100714D01*
X-4744335Y-786429D02*
X-4815764Y-1000714D01*
X-4630050Y-1000714D01*
X-4458621Y-800714D02*
X-4430050Y-800714D01*
X-4401478Y-815000D01*
X-4387192Y-829286D01*
X-4372907Y-857857D01*
X-4358621Y-915000D01*
X-4358621Y-986429D01*
X-4372907Y-1043571D01*
X-4387192Y-1072143D01*
X-4401478Y-1086429D01*
X-4430050Y-1100714D01*
X-4458621Y-1100714D01*
X-4487192Y-1086429D01*
X-4501478Y-1072143D01*
X-4515764Y-1043571D01*
X-4530050Y-986429D01*
X-4530050Y-915000D01*
X-4515764Y-857857D01*
X-4501478Y-829286D01*
X-4487192Y-815000D01*
X-4458621Y-800714D01*
X-4230050Y-1100714D02*
X-4230050Y-900714D01*
X-4230050Y-929286D02*
X-4215764Y-915000D01*
X-4187192Y-900714D01*
X-4144335Y-900714D01*
X-4115764Y-915000D01*
X-4101478Y-943571D01*
X-4101478Y-1100714D01*
X-4101478Y-943571D02*
X-4087192Y-915000D01*
X-4058621Y-900714D01*
X-4015764Y-900714D01*
X-3987192Y-915000D01*
X-3972907Y-943571D01*
X-3972907Y-1100714D01*
X-3830050Y-1100714D02*
X-3830050Y-900714D01*
X-3830050Y-929286D02*
X-3815764Y-915000D01*
X-3787192Y-900714D01*
X-3744335Y-900714D01*
X-3715764Y-915000D01*
X-3701478Y-943571D01*
X-3701478Y-1100714D01*
X-3701478Y-943571D02*
X-3687192Y-915000D01*
X-3658621Y-900714D01*
X-3615764Y-900714D01*
X-3587192Y-915000D01*
X-3572907Y-943571D01*
X-3572907Y-1100714D01*
X-2987192Y-786429D02*
X-3244335Y-1172143D01*
X-2601478Y-800714D02*
X-2572907Y-800714D01*
X-2544335Y-815000D01*
X-2530050Y-829286D01*
X-2515764Y-857857D01*
X-2501478Y-915000D01*
X-2501478Y-986429D01*
X-2515764Y-1043571D01*
X-2530050Y-1072143D01*
X-2544335Y-1086429D01*
X-2572907Y-1100714D01*
X-2601478Y-1100714D01*
X-2630050Y-1086429D01*
X-2644335Y-1072143D01*
X-2658621Y-1043571D01*
X-2672907Y-986429D01*
X-2672907Y-915000D01*
X-2658621Y-857857D01*
X-2644335Y-829286D01*
X-2630050Y-815000D01*
X-2601478Y-800714D01*
X-2372907Y-1072143D02*
X-2358621Y-1086429D01*
X-2372907Y-1100714D01*
X-2387192Y-1086429D01*
X-2372907Y-1072143D01*
X-2372907Y-1100714D01*
X-2172907Y-800714D02*
X-2144335Y-800714D01*
X-2115764Y-815000D01*
X-2101478Y-829286D01*
X-2087192Y-857857D01*
X-2072907Y-915000D01*
X-2072907Y-986429D01*
X-2087192Y-1043571D01*
X-2101478Y-1072143D01*
X-2115764Y-1086429D01*
X-2144335Y-1100714D01*
X-2172907Y-1100714D01*
X-2201478Y-1086429D01*
X-2215764Y-1072143D01*
X-2230050Y-1043571D01*
X-2244335Y-986429D01*
X-2244335Y-915000D01*
X-2230050Y-857857D01*
X-2215764Y-829286D01*
X-2201478Y-815000D01*
X-2172907Y-800714D01*
X-1787192Y-1100714D02*
X-1958621Y-1100714D01*
X-1872907Y-1100714D02*
X-1872907Y-800714D01*
X-1901478Y-843571D01*
X-1930050Y-872143D01*
X-1958621Y-886429D01*
X-1530050Y-800714D02*
X-1587192Y-800714D01*
X-1615764Y-815000D01*
X-1630050Y-829286D01*
X-1658621Y-872143D01*
X-1672907Y-929286D01*
X-1672907Y-1043571D01*
X-1658621Y-1072143D01*
X-1644335Y-1086429D01*
X-1615764Y-1100714D01*
X-1558621Y-1100714D01*
X-1530050Y-1086429D01*
X-1515764Y-1072143D01*
X-1501478Y-1043571D01*
X-1501478Y-972143D01*
X-1515764Y-943571D01*
X-1530050Y-929286D01*
X-1558621Y-915000D01*
X-1615764Y-915000D01*
X-1644335Y-929286D01*
X-1658621Y-943571D01*
X-1672907Y-972143D01*
X-1387192Y-800714D02*
X-1387192Y-857857D01*
X-1272907Y-800714D02*
X-1272907Y-857857D01*
X-830050Y-1215000D02*
X-844335Y-1200714D01*
X-872907Y-1157857D01*
X-887192Y-1129286D01*
X-901478Y-1086429D01*
X-915764Y-1015000D01*
X-915764Y-957857D01*
X-901478Y-886429D01*
X-887192Y-843571D01*
X-872907Y-815000D01*
X-844335Y-772143D01*
X-830050Y-757857D01*
X-730050Y-829286D02*
X-715764Y-815000D01*
X-687192Y-800714D01*
X-615764Y-800714D01*
X-587192Y-815000D01*
X-572907Y-829286D01*
X-558621Y-857857D01*
X-558621Y-886429D01*
X-572907Y-929286D01*
X-744335Y-1100714D01*
X-558621Y-1100714D01*
X-287192Y-800714D02*
X-430050Y-800714D01*
X-444335Y-943571D01*
X-430050Y-929286D01*
X-401478Y-915000D01*
X-330050Y-915000D01*
X-301478Y-929286D01*
X-287192Y-943571D01*
X-272907Y-972143D01*
X-272907Y-1043571D01*
X-287192Y-1072143D01*
X-301478Y-1086429D01*
X-330050Y-1100714D01*
X-401478Y-1100714D01*
X-430050Y-1086429D01*
X-444335Y-1072143D01*
X-158621Y-829286D02*
X-144335Y-815000D01*
X-115764Y-800714D01*
X-44335Y-800714D01*
X-15764Y-815000D01*
X-1478Y-829286D01*
X12807Y-857857D01*
X12807Y-886429D01*
X-1478Y-929286D01*
X-172907Y-1100714D01*
X12807Y-1100714D01*
X369950Y-1100714D02*
X369950Y-800714D01*
X498522Y-1100714D02*
X498522Y-943571D01*
X484236Y-915000D01*
X455665Y-900714D01*
X412807Y-900714D01*
X384236Y-915000D01*
X369950Y-929286D01*
X684236Y-1100714D02*
X655665Y-1086429D01*
X641379Y-1072143D01*
X627093Y-1043571D01*
X627093Y-957857D01*
X641379Y-929286D01*
X655665Y-915000D01*
X684236Y-900714D01*
X727093Y-900714D01*
X755665Y-915000D01*
X769950Y-929286D01*
X784236Y-957857D01*
X784236Y-1043571D01*
X769950Y-1072143D01*
X755665Y-1086429D01*
X727093Y-1100714D01*
X684236Y-1100714D01*
X955665Y-1100714D02*
X927093Y-1086429D01*
X912807Y-1057857D01*
X912807Y-800714D01*
X1184236Y-1086429D02*
X1155665Y-1100714D01*
X1098522Y-1100714D01*
X1069950Y-1086429D01*
X1055665Y-1057857D01*
X1055665Y-943571D01*
X1069950Y-915000D01*
X1098522Y-900714D01*
X1155665Y-900714D01*
X1184236Y-915000D01*
X1198522Y-943571D01*
X1198522Y-972143D01*
X1055665Y-1000714D01*
X1312808Y-1086429D02*
X1341379Y-1100714D01*
X1398522Y-1100714D01*
X1427093Y-1086429D01*
X1441379Y-1057857D01*
X1441379Y-1043571D01*
X1427093Y-1015000D01*
X1398522Y-1000714D01*
X1355665Y-1000714D01*
X1327093Y-986429D01*
X1312808Y-957857D01*
X1312808Y-943571D01*
X1327093Y-915000D01*
X1355665Y-900714D01*
X1398522Y-900714D01*
X1427093Y-915000D01*
X1541379Y-1215000D02*
X1555665Y-1200714D01*
X1584236Y-1157857D01*
X1598522Y-1129286D01*
X1612807Y-1086429D01*
X1627093Y-1015000D01*
X1627093Y-957857D01*
X1612807Y-886429D01*
X1598522Y-843571D01*
X1584236Y-815000D01*
X1555665Y-772143D01*
X1541379Y-757857D01*
X-5516478Y-1361000D02*
G75*
G03X-5516478Y-1361000I-30000J0D01*
G01*
X-5172907Y-1196714D02*
X-5144335Y-1196714D01*
X-5115764Y-1211000D01*
X-5101478Y-1225286D01*
X-5087192Y-1253857D01*
X-5072907Y-1311000D01*
X-5072907Y-1382429D01*
X-5087192Y-1439571D01*
X-5101478Y-1468143D01*
X-5115764Y-1482429D01*
X-5144335Y-1496714D01*
X-5172907Y-1496714D01*
X-5201478Y-1482429D01*
X-5215764Y-1468143D01*
X-5230050Y-1439571D01*
X-5244335Y-1382429D01*
X-5244335Y-1311000D01*
X-5230050Y-1253857D01*
X-5215764Y-1225286D01*
X-5201478Y-1211000D01*
X-5172907Y-1196714D01*
X-4944335Y-1468143D02*
X-4930050Y-1482429D01*
X-4944335Y-1496714D01*
X-4958621Y-1482429D01*
X-4944335Y-1468143D01*
X-4944335Y-1496714D01*
X-4672907Y-1196714D02*
X-4730050Y-1196714D01*
X-4758621Y-1211000D01*
X-4772907Y-1225286D01*
X-4801478Y-1268143D01*
X-4815764Y-1325286D01*
X-4815764Y-1439571D01*
X-4801478Y-1468143D01*
X-4787192Y-1482429D01*
X-4758621Y-1496714D01*
X-4701478Y-1496714D01*
X-4672907Y-1482429D01*
X-4658621Y-1468143D01*
X-4644335Y-1439571D01*
X-4644335Y-1368143D01*
X-4658621Y-1339572D01*
X-4672907Y-1325286D01*
X-4701478Y-1311000D01*
X-4758621Y-1311000D01*
X-4787192Y-1325286D01*
X-4801478Y-1339572D01*
X-4815764Y-1368143D01*
X-4458621Y-1196714D02*
X-4430050Y-1196714D01*
X-4401478Y-1211000D01*
X-4387192Y-1225286D01*
X-4372907Y-1253857D01*
X-4358621Y-1311000D01*
X-4358621Y-1382429D01*
X-4372907Y-1439571D01*
X-4387192Y-1468143D01*
X-4401478Y-1482429D01*
X-4430050Y-1496714D01*
X-4458621Y-1496714D01*
X-4487192Y-1482429D01*
X-4501478Y-1468143D01*
X-4515764Y-1439571D01*
X-4530050Y-1382429D01*
X-4530050Y-1311000D01*
X-4515764Y-1253857D01*
X-4501478Y-1225286D01*
X-4487192Y-1211000D01*
X-4458621Y-1196714D01*
X-4230050Y-1496714D02*
X-4230050Y-1296714D01*
X-4230050Y-1325286D02*
X-4215764Y-1311000D01*
X-4187192Y-1296714D01*
X-4144335Y-1296714D01*
X-4115764Y-1311000D01*
X-4101478Y-1339572D01*
X-4101478Y-1496714D01*
X-4101478Y-1339572D02*
X-4087192Y-1311000D01*
X-4058621Y-1296714D01*
X-4015764Y-1296714D01*
X-3987192Y-1311000D01*
X-3972907Y-1339572D01*
X-3972907Y-1496714D01*
X-3830050Y-1496714D02*
X-3830050Y-1296714D01*
X-3830050Y-1325286D02*
X-3815764Y-1311000D01*
X-3787192Y-1296714D01*
X-3744335Y-1296714D01*
X-3715764Y-1311000D01*
X-3701478Y-1339572D01*
X-3701478Y-1496714D01*
X-3701478Y-1339572D02*
X-3687192Y-1311000D01*
X-3658621Y-1296714D01*
X-3615764Y-1296714D01*
X-3587192Y-1311000D01*
X-3572907Y-1339572D01*
X-3572907Y-1496714D01*
X-2987192Y-1182429D02*
X-3244335Y-1568143D01*
X-2601478Y-1196714D02*
X-2572907Y-1196714D01*
X-2544335Y-1211000D01*
X-2530050Y-1225286D01*
X-2515764Y-1253857D01*
X-2501478Y-1311000D01*
X-2501478Y-1382429D01*
X-2515764Y-1439571D01*
X-2530050Y-1468143D01*
X-2544335Y-1482429D01*
X-2572907Y-1496714D01*
X-2601478Y-1496714D01*
X-2630050Y-1482429D01*
X-2644335Y-1468143D01*
X-2658621Y-1439571D01*
X-2672907Y-1382429D01*
X-2672907Y-1311000D01*
X-2658621Y-1253857D01*
X-2644335Y-1225286D01*
X-2630050Y-1211000D01*
X-2601478Y-1196714D01*
X-2372907Y-1468143D02*
X-2358621Y-1482429D01*
X-2372907Y-1496714D01*
X-2387192Y-1482429D01*
X-2372907Y-1468143D01*
X-2372907Y-1496714D01*
X-2172907Y-1196714D02*
X-2144335Y-1196714D01*
X-2115764Y-1211000D01*
X-2101478Y-1225286D01*
X-2087192Y-1253857D01*
X-2072907Y-1311000D01*
X-2072907Y-1382429D01*
X-2087192Y-1439571D01*
X-2101478Y-1468143D01*
X-2115764Y-1482429D01*
X-2144335Y-1496714D01*
X-2172907Y-1496714D01*
X-2201478Y-1482429D01*
X-2215764Y-1468143D01*
X-2230050Y-1439571D01*
X-2244335Y-1382429D01*
X-2244335Y-1311000D01*
X-2230050Y-1253857D01*
X-2215764Y-1225286D01*
X-2201478Y-1211000D01*
X-2172907Y-1196714D01*
X-1958621Y-1225286D02*
X-1944335Y-1211000D01*
X-1915764Y-1196714D01*
X-1844335Y-1196714D01*
X-1815764Y-1211000D01*
X-1801478Y-1225286D01*
X-1787192Y-1253857D01*
X-1787192Y-1282429D01*
X-1801478Y-1325286D01*
X-1972907Y-1496714D01*
X-1787192Y-1496714D01*
X-1530050Y-1296714D02*
X-1530050Y-1496714D01*
X-1601478Y-1182429D02*
X-1672907Y-1396714D01*
X-1487192Y-1396714D01*
X-1387192Y-1196714D02*
X-1387192Y-1253857D01*
X-1272907Y-1196714D02*
X-1272907Y-1253857D01*
X-830050Y-1611000D02*
X-844335Y-1596714D01*
X-872907Y-1553857D01*
X-887192Y-1525286D01*
X-901478Y-1482429D01*
X-915764Y-1411000D01*
X-915764Y-1353857D01*
X-901478Y-1282429D01*
X-887192Y-1239572D01*
X-872907Y-1211000D01*
X-844335Y-1168143D01*
X-830050Y-1153857D01*
X-658621Y-1196714D02*
X-630050Y-1196714D01*
X-601478Y-1211000D01*
X-587192Y-1225286D01*
X-572907Y-1253857D01*
X-558621Y-1311000D01*
X-558621Y-1382429D01*
X-572907Y-1439571D01*
X-587192Y-1468143D01*
X-601478Y-1482429D01*
X-630050Y-1496714D01*
X-658621Y-1496714D01*
X-687192Y-1482429D01*
X-701478Y-1468143D01*
X-715764Y-1439571D01*
X-730050Y-1382429D01*
X-730050Y-1311000D01*
X-715764Y-1253857D01*
X-701478Y-1225286D01*
X-687192Y-1211000D01*
X-658621Y-1196714D01*
X-201478Y-1496714D02*
X-201478Y-1196714D01*
X-72907Y-1496714D02*
X-72907Y-1339572D01*
X-87192Y-1311000D01*
X-115764Y-1296714D01*
X-158621Y-1296714D01*
X-187192Y-1311000D01*
X-201478Y-1325286D01*
X112807Y-1496714D02*
X84236Y-1482429D01*
X69950Y-1468143D01*
X55665Y-1439571D01*
X55665Y-1353857D01*
X69950Y-1325286D01*
X84236Y-1311000D01*
X112807Y-1296714D01*
X155665Y-1296714D01*
X184236Y-1311000D01*
X198522Y-1325286D01*
X212807Y-1353857D01*
X212807Y-1439571D01*
X198522Y-1468143D01*
X184236Y-1482429D01*
X155665Y-1496714D01*
X112807Y-1496714D01*
X384236Y-1496714D02*
X355665Y-1482429D01*
X341379Y-1453857D01*
X341379Y-1196714D01*
X612808Y-1482429D02*
X584236Y-1496714D01*
X527093Y-1496714D01*
X498522Y-1482429D01*
X484236Y-1453857D01*
X484236Y-1339572D01*
X498522Y-1311000D01*
X527093Y-1296714D01*
X584236Y-1296714D01*
X612808Y-1311000D01*
X627093Y-1339572D01*
X627093Y-1368143D01*
X484236Y-1396714D01*
X741379Y-1482429D02*
X769950Y-1496714D01*
X827093Y-1496714D01*
X855665Y-1482429D01*
X869950Y-1453857D01*
X869950Y-1439571D01*
X855665Y-1411000D01*
X827093Y-1396714D01*
X784236Y-1396714D01*
X755665Y-1382429D01*
X741379Y-1353857D01*
X741379Y-1339572D01*
X755665Y-1311000D01*
X784236Y-1296714D01*
X827093Y-1296714D01*
X855665Y-1311000D01*
X1227093Y-1382429D02*
X1455665Y-1382429D01*
X1341379Y-1496714D02*
X1341379Y-1268143D01*
X1955665Y-1296714D02*
X1955665Y-1496714D01*
X1884236Y-1182429D02*
X1812807Y-1396714D01*
X1998522Y-1396714D01*
X2327093Y-1482429D02*
X2355665Y-1496714D01*
X2412808Y-1496714D01*
X2441379Y-1482429D01*
X2455665Y-1453857D01*
X2455665Y-1439571D01*
X2441379Y-1411000D01*
X2412808Y-1396714D01*
X2369950Y-1396714D01*
X2341379Y-1382429D01*
X2327093Y-1353857D01*
X2327093Y-1339572D01*
X2341379Y-1311000D01*
X2369950Y-1296714D01*
X2412808Y-1296714D01*
X2441379Y-1311000D01*
X2627093Y-1496714D02*
X2598522Y-1482429D01*
X2584236Y-1453857D01*
X2584236Y-1196714D01*
X2784236Y-1496714D02*
X2755665Y-1482429D01*
X2741379Y-1468143D01*
X2727093Y-1439571D01*
X2727093Y-1353857D01*
X2741379Y-1325286D01*
X2755665Y-1311000D01*
X2784236Y-1296714D01*
X2827093Y-1296714D01*
X2855665Y-1311000D01*
X2869950Y-1325286D01*
X2884236Y-1353857D01*
X2884236Y-1439571D01*
X2869950Y-1468143D01*
X2855665Y-1482429D01*
X2827093Y-1496714D01*
X2784236Y-1496714D01*
X2969950Y-1296714D02*
X3084236Y-1296714D01*
X3012807Y-1196714D02*
X3012807Y-1453857D01*
X3027093Y-1482429D01*
X3055665Y-1496714D01*
X3084236Y-1496714D01*
X3169950Y-1482429D02*
X3198522Y-1496714D01*
X3255665Y-1496714D01*
X3284236Y-1482429D01*
X3298522Y-1453857D01*
X3298522Y-1439571D01*
X3284236Y-1411000D01*
X3255665Y-1396714D01*
X3212807Y-1396714D01*
X3184236Y-1382429D01*
X3169950Y-1353857D01*
X3169950Y-1339572D01*
X3184236Y-1311000D01*
X3212807Y-1296714D01*
X3255665Y-1296714D01*
X3284236Y-1311000D01*
X3398522Y-1611000D02*
X3412807Y-1596714D01*
X3441379Y-1553857D01*
X3455665Y-1525286D01*
X3469950Y-1482429D01*
X3484236Y-1411000D01*
X3484236Y-1353857D01*
X3469950Y-1282429D01*
X3455665Y-1239572D01*
X3441379Y-1211000D01*
X3412807Y-1168143D01*
X3398522Y-1153857D01*
X-5556478Y-1717000D02*
X-5556478Y-1797000D01*
X-5596478Y-1757000D02*
X-5516478Y-1757000D01*
X-5172907Y-1592714D02*
X-5144335Y-1592714D01*
X-5115764Y-1607000D01*
X-5101478Y-1621286D01*
X-5087192Y-1649857D01*
X-5072907Y-1707000D01*
X-5072907Y-1778429D01*
X-5087192Y-1835571D01*
X-5101478Y-1864143D01*
X-5115764Y-1878429D01*
X-5144335Y-1892714D01*
X-5172907Y-1892714D01*
X-5201478Y-1878429D01*
X-5215764Y-1864143D01*
X-5230050Y-1835571D01*
X-5244335Y-1778429D01*
X-5244335Y-1707000D01*
X-5230050Y-1649857D01*
X-5215764Y-1621286D01*
X-5201478Y-1607000D01*
X-5172907Y-1592714D01*
X-4944335Y-1864143D02*
X-4930050Y-1878429D01*
X-4944335Y-1892714D01*
X-4958621Y-1878429D01*
X-4944335Y-1864143D01*
X-4944335Y-1892714D01*
X-4758621Y-1721286D02*
X-4787192Y-1707000D01*
X-4801478Y-1692714D01*
X-4815764Y-1664143D01*
X-4815764Y-1649857D01*
X-4801478Y-1621286D01*
X-4787192Y-1607000D01*
X-4758621Y-1592714D01*
X-4701478Y-1592714D01*
X-4672907Y-1607000D01*
X-4658621Y-1621286D01*
X-4644335Y-1649857D01*
X-4644335Y-1664143D01*
X-4658621Y-1692714D01*
X-4672907Y-1707000D01*
X-4701478Y-1721286D01*
X-4758621Y-1721286D01*
X-4787192Y-1735571D01*
X-4801478Y-1749857D01*
X-4815764Y-1778429D01*
X-4815764Y-1835571D01*
X-4801478Y-1864143D01*
X-4787192Y-1878429D01*
X-4758621Y-1892714D01*
X-4701478Y-1892714D01*
X-4672907Y-1878429D01*
X-4658621Y-1864143D01*
X-4644335Y-1835571D01*
X-4644335Y-1778429D01*
X-4658621Y-1749857D01*
X-4672907Y-1735571D01*
X-4701478Y-1721286D01*
X-4458621Y-1592714D02*
X-4430050Y-1592714D01*
X-4401478Y-1607000D01*
X-4387192Y-1621286D01*
X-4372907Y-1649857D01*
X-4358621Y-1707000D01*
X-4358621Y-1778429D01*
X-4372907Y-1835571D01*
X-4387192Y-1864143D01*
X-4401478Y-1878429D01*
X-4430050Y-1892714D01*
X-4458621Y-1892714D01*
X-4487192Y-1878429D01*
X-4501478Y-1864143D01*
X-4515764Y-1835571D01*
X-4530050Y-1778429D01*
X-4530050Y-1707000D01*
X-4515764Y-1649857D01*
X-4501478Y-1621286D01*
X-4487192Y-1607000D01*
X-4458621Y-1592714D01*
X-4230050Y-1892714D02*
X-4230050Y-1692714D01*
X-4230050Y-1721286D02*
X-4215764Y-1707000D01*
X-4187192Y-1692714D01*
X-4144335Y-1692714D01*
X-4115764Y-1707000D01*
X-4101478Y-1735571D01*
X-4101478Y-1892714D01*
X-4101478Y-1735571D02*
X-4087192Y-1707000D01*
X-4058621Y-1692714D01*
X-4015764Y-1692714D01*
X-3987192Y-1707000D01*
X-3972907Y-1735571D01*
X-3972907Y-1892714D01*
X-3830050Y-1892714D02*
X-3830050Y-1692714D01*
X-3830050Y-1721286D02*
X-3815764Y-1707000D01*
X-3787192Y-1692714D01*
X-3744335Y-1692714D01*
X-3715764Y-1707000D01*
X-3701478Y-1735571D01*
X-3701478Y-1892714D01*
X-3701478Y-1735571D02*
X-3687192Y-1707000D01*
X-3658621Y-1692714D01*
X-3615764Y-1692714D01*
X-3587192Y-1707000D01*
X-3572907Y-1735571D01*
X-3572907Y-1892714D01*
X-2987192Y-1578429D02*
X-3244335Y-1964143D01*
X-2601478Y-1592714D02*
X-2572907Y-1592714D01*
X-2544335Y-1607000D01*
X-2530050Y-1621286D01*
X-2515764Y-1649857D01*
X-2501478Y-1707000D01*
X-2501478Y-1778429D01*
X-2515764Y-1835571D01*
X-2530050Y-1864143D01*
X-2544335Y-1878429D01*
X-2572907Y-1892714D01*
X-2601478Y-1892714D01*
X-2630050Y-1878429D01*
X-2644335Y-1864143D01*
X-2658621Y-1835571D01*
X-2672907Y-1778429D01*
X-2672907Y-1707000D01*
X-2658621Y-1649857D01*
X-2644335Y-1621286D01*
X-2630050Y-1607000D01*
X-2601478Y-1592714D01*
X-2372907Y-1864143D02*
X-2358621Y-1878429D01*
X-2372907Y-1892714D01*
X-2387192Y-1878429D01*
X-2372907Y-1864143D01*
X-2372907Y-1892714D01*
X-2172907Y-1592714D02*
X-2144335Y-1592714D01*
X-2115764Y-1607000D01*
X-2101478Y-1621286D01*
X-2087192Y-1649857D01*
X-2072907Y-1707000D01*
X-2072907Y-1778429D01*
X-2087192Y-1835571D01*
X-2101478Y-1864143D01*
X-2115764Y-1878429D01*
X-2144335Y-1892714D01*
X-2172907Y-1892714D01*
X-2201478Y-1878429D01*
X-2215764Y-1864143D01*
X-2230050Y-1835571D01*
X-2244335Y-1778429D01*
X-2244335Y-1707000D01*
X-2230050Y-1649857D01*
X-2215764Y-1621286D01*
X-2201478Y-1607000D01*
X-2172907Y-1592714D01*
X-1972907Y-1592714D02*
X-1787192Y-1592714D01*
X-1887192Y-1707000D01*
X-1844335Y-1707000D01*
X-1815764Y-1721286D01*
X-1801478Y-1735571D01*
X-1787192Y-1764143D01*
X-1787192Y-1835571D01*
X-1801478Y-1864143D01*
X-1815764Y-1878429D01*
X-1844335Y-1892714D01*
X-1930050Y-1892714D01*
X-1958621Y-1878429D01*
X-1972907Y-1864143D01*
X-1501478Y-1892714D02*
X-1672907Y-1892714D01*
X-1587192Y-1892714D02*
X-1587192Y-1592714D01*
X-1615764Y-1635571D01*
X-1644335Y-1664143D01*
X-1672907Y-1678429D01*
X-1387192Y-1592714D02*
X-1387192Y-1649857D01*
X-1272907Y-1592714D02*
X-1272907Y-1649857D01*
X-830050Y-2007000D02*
X-844335Y-1992714D01*
X-872907Y-1949857D01*
X-887192Y-1921286D01*
X-901478Y-1878429D01*
X-915764Y-1807000D01*
X-915764Y-1749857D01*
X-901478Y-1678429D01*
X-887192Y-1635571D01*
X-872907Y-1607000D01*
X-844335Y-1564143D01*
X-830050Y-1549857D01*
X-744335Y-1592714D02*
X-558621Y-1592714D01*
X-658621Y-1707000D01*
X-615764Y-1707000D01*
X-587192Y-1721286D01*
X-572907Y-1735571D01*
X-558621Y-1764143D01*
X-558621Y-1835571D01*
X-572907Y-1864143D01*
X-587192Y-1878429D01*
X-615764Y-1892714D01*
X-701478Y-1892714D01*
X-730050Y-1878429D01*
X-744335Y-1864143D01*
X-301478Y-1592714D02*
X-358621Y-1592714D01*
X-387192Y-1607000D01*
X-401478Y-1621286D01*
X-430050Y-1664143D01*
X-444335Y-1721286D01*
X-444335Y-1835571D01*
X-430050Y-1864143D01*
X-415764Y-1878429D01*
X-387192Y-1892714D01*
X-330050Y-1892714D01*
X-301478Y-1878429D01*
X-287192Y-1864143D01*
X-272907Y-1835571D01*
X-272907Y-1764143D01*
X-287192Y-1735571D01*
X-301478Y-1721286D01*
X-330050Y-1707000D01*
X-387192Y-1707000D01*
X-415764Y-1721286D01*
X-430050Y-1735571D01*
X-444335Y-1764143D01*
X84236Y-1892714D02*
X84236Y-1592714D01*
X212807Y-1892714D02*
X212807Y-1735571D01*
X198522Y-1707000D01*
X169950Y-1692714D01*
X127093Y-1692714D01*
X98522Y-1707000D01*
X84236Y-1721286D01*
X398522Y-1892714D02*
X369950Y-1878429D01*
X355665Y-1864143D01*
X341379Y-1835571D01*
X341379Y-1749857D01*
X355665Y-1721286D01*
X369950Y-1707000D01*
X398522Y-1692714D01*
X441379Y-1692714D01*
X469950Y-1707000D01*
X484236Y-1721286D01*
X498522Y-1749857D01*
X498522Y-1835571D01*
X484236Y-1864143D01*
X469950Y-1878429D01*
X441379Y-1892714D01*
X398522Y-1892714D01*
X669950Y-1892714D02*
X641379Y-1878429D01*
X627093Y-1849857D01*
X627093Y-1592714D01*
X898522Y-1878429D02*
X869950Y-1892714D01*
X812807Y-1892714D01*
X784236Y-1878429D01*
X769950Y-1849857D01*
X769950Y-1735571D01*
X784236Y-1707000D01*
X812807Y-1692714D01*
X869950Y-1692714D01*
X898522Y-1707000D01*
X912807Y-1735571D01*
X912807Y-1764143D01*
X769950Y-1792714D01*
X1027093Y-1878429D02*
X1055665Y-1892714D01*
X1112808Y-1892714D01*
X1141379Y-1878429D01*
X1155665Y-1849857D01*
X1155665Y-1835571D01*
X1141379Y-1807000D01*
X1112808Y-1792714D01*
X1069950Y-1792714D01*
X1041379Y-1778429D01*
X1027093Y-1749857D01*
X1027093Y-1735571D01*
X1041379Y-1707000D01*
X1069950Y-1692714D01*
X1112808Y-1692714D01*
X1141379Y-1707000D01*
X1255665Y-2007000D02*
X1269950Y-1992714D01*
X1298522Y-1949857D01*
X1312808Y-1921286D01*
X1327093Y-1878429D01*
X1341379Y-1807000D01*
X1341379Y-1749857D01*
X1327093Y-1678429D01*
X1312808Y-1635571D01*
X1298522Y-1607000D01*
X1269950Y-1564143D01*
X1255665Y-1549857D01*
X-5531123Y-2188356D02*
X-5531123Y-2117644D01*
X-5601834Y-2117644D01*
X-5601834Y-2188356D01*
X-5531123Y-2188356D01*
X-5072907Y-2288714D02*
X-5244335Y-2288714D01*
X-5158621Y-2288714D02*
X-5158621Y-1988714D01*
X-5187192Y-2031571D01*
X-5215764Y-2060143D01*
X-5244335Y-2074429D01*
X-4944335Y-2260143D02*
X-4930050Y-2274429D01*
X-4944335Y-2288714D01*
X-4958621Y-2274429D01*
X-4944335Y-2260143D01*
X-4944335Y-2288714D01*
X-4744335Y-1988714D02*
X-4715764Y-1988714D01*
X-4687192Y-2003000D01*
X-4672907Y-2017286D01*
X-4658621Y-2045857D01*
X-4644335Y-2103000D01*
X-4644335Y-2174429D01*
X-4658621Y-2231572D01*
X-4672907Y-2260143D01*
X-4687192Y-2274429D01*
X-4715764Y-2288714D01*
X-4744335Y-2288714D01*
X-4772907Y-2274429D01*
X-4787192Y-2260143D01*
X-4801478Y-2231572D01*
X-4815764Y-2174429D01*
X-4815764Y-2103000D01*
X-4801478Y-2045857D01*
X-4787192Y-2017286D01*
X-4772907Y-2003000D01*
X-4744335Y-1988714D01*
X-4458621Y-1988714D02*
X-4430050Y-1988714D01*
X-4401478Y-2003000D01*
X-4387192Y-2017286D01*
X-4372907Y-2045857D01*
X-4358621Y-2103000D01*
X-4358621Y-2174429D01*
X-4372907Y-2231572D01*
X-4387192Y-2260143D01*
X-4401478Y-2274429D01*
X-4430050Y-2288714D01*
X-4458621Y-2288714D01*
X-4487192Y-2274429D01*
X-4501478Y-2260143D01*
X-4515764Y-2231572D01*
X-4530050Y-2174429D01*
X-4530050Y-2103000D01*
X-4515764Y-2045857D01*
X-4501478Y-2017286D01*
X-4487192Y-2003000D01*
X-4458621Y-1988714D01*
X-4230050Y-2288714D02*
X-4230050Y-2088714D01*
X-4230050Y-2117286D02*
X-4215764Y-2103000D01*
X-4187192Y-2088714D01*
X-4144335Y-2088714D01*
X-4115764Y-2103000D01*
X-4101478Y-2131572D01*
X-4101478Y-2288714D01*
X-4101478Y-2131572D02*
X-4087192Y-2103000D01*
X-4058621Y-2088714D01*
X-4015764Y-2088714D01*
X-3987192Y-2103000D01*
X-3972907Y-2131572D01*
X-3972907Y-2288714D01*
X-3830050Y-2288714D02*
X-3830050Y-2088714D01*
X-3830050Y-2117286D02*
X-3815764Y-2103000D01*
X-3787192Y-2088714D01*
X-3744335Y-2088714D01*
X-3715764Y-2103000D01*
X-3701478Y-2131572D01*
X-3701478Y-2288714D01*
X-3701478Y-2131572D02*
X-3687192Y-2103000D01*
X-3658621Y-2088714D01*
X-3615764Y-2088714D01*
X-3587192Y-2103000D01*
X-3572907Y-2131572D01*
X-3572907Y-2288714D01*
X-2987192Y-1974429D02*
X-3244335Y-2360143D01*
X-2601478Y-1988714D02*
X-2572907Y-1988714D01*
X-2544335Y-2003000D01*
X-2530050Y-2017286D01*
X-2515764Y-2045857D01*
X-2501478Y-2103000D01*
X-2501478Y-2174429D01*
X-2515764Y-2231572D01*
X-2530050Y-2260143D01*
X-2544335Y-2274429D01*
X-2572907Y-2288714D01*
X-2601478Y-2288714D01*
X-2630050Y-2274429D01*
X-2644335Y-2260143D01*
X-2658621Y-2231572D01*
X-2672907Y-2174429D01*
X-2672907Y-2103000D01*
X-2658621Y-2045857D01*
X-2644335Y-2017286D01*
X-2630050Y-2003000D01*
X-2601478Y-1988714D01*
X-2372907Y-2260143D02*
X-2358621Y-2274429D01*
X-2372907Y-2288714D01*
X-2387192Y-2274429D01*
X-2372907Y-2260143D01*
X-2372907Y-2288714D01*
X-2172907Y-1988714D02*
X-2144335Y-1988714D01*
X-2115764Y-2003000D01*
X-2101478Y-2017286D01*
X-2087192Y-2045857D01*
X-2072907Y-2103000D01*
X-2072907Y-2174429D01*
X-2087192Y-2231572D01*
X-2101478Y-2260143D01*
X-2115764Y-2274429D01*
X-2144335Y-2288714D01*
X-2172907Y-2288714D01*
X-2201478Y-2274429D01*
X-2215764Y-2260143D01*
X-2230050Y-2231572D01*
X-2244335Y-2174429D01*
X-2244335Y-2103000D01*
X-2230050Y-2045857D01*
X-2215764Y-2017286D01*
X-2201478Y-2003000D01*
X-2172907Y-1988714D01*
X-1972907Y-1988714D02*
X-1787192Y-1988714D01*
X-1887192Y-2103000D01*
X-1844335Y-2103000D01*
X-1815764Y-2117286D01*
X-1801478Y-2131572D01*
X-1787192Y-2160143D01*
X-1787192Y-2231572D01*
X-1801478Y-2260143D01*
X-1815764Y-2274429D01*
X-1844335Y-2288714D01*
X-1930050Y-2288714D01*
X-1958621Y-2274429D01*
X-1972907Y-2260143D01*
X-1644335Y-2288714D02*
X-1587192Y-2288714D01*
X-1558621Y-2274429D01*
X-1544335Y-2260143D01*
X-1515764Y-2217286D01*
X-1501478Y-2160143D01*
X-1501478Y-2045857D01*
X-1515764Y-2017286D01*
X-1530050Y-2003000D01*
X-1558621Y-1988714D01*
X-1615764Y-1988714D01*
X-1644335Y-2003000D01*
X-1658621Y-2017286D01*
X-1672907Y-2045857D01*
X-1672907Y-2117286D01*
X-1658621Y-2145857D01*
X-1644335Y-2160143D01*
X-1615764Y-2174429D01*
X-1558621Y-2174429D01*
X-1530050Y-2160143D01*
X-1515764Y-2145857D01*
X-1501478Y-2117286D01*
X-1387192Y-1988714D02*
X-1387192Y-2045857D01*
X-1272907Y-1988714D02*
X-1272907Y-2045857D01*
X-830050Y-2403000D02*
X-844335Y-2388714D01*
X-872907Y-2345857D01*
X-887192Y-2317286D01*
X-901478Y-2274429D01*
X-915764Y-2203000D01*
X-915764Y-2145857D01*
X-901478Y-2074429D01*
X-887192Y-2031571D01*
X-872907Y-2003000D01*
X-844335Y-1960143D01*
X-830050Y-1945857D01*
X-701478Y-2288714D02*
X-644335Y-2288714D01*
X-615764Y-2274429D01*
X-601478Y-2260143D01*
X-572907Y-2217286D01*
X-558621Y-2160143D01*
X-558621Y-2045857D01*
X-572907Y-2017286D01*
X-587192Y-2003000D01*
X-615764Y-1988714D01*
X-672907Y-1988714D01*
X-701478Y-2003000D01*
X-715764Y-2017286D01*
X-730050Y-2045857D01*
X-730050Y-2117286D01*
X-715764Y-2145857D01*
X-701478Y-2160143D01*
X-672907Y-2174429D01*
X-615764Y-2174429D01*
X-587192Y-2160143D01*
X-572907Y-2145857D01*
X-558621Y-2117286D01*
X-201478Y-2288714D02*
X-201478Y-1988714D01*
X-72907Y-2288714D02*
X-72907Y-2131572D01*
X-87192Y-2103000D01*
X-115764Y-2088714D01*
X-158621Y-2088714D01*
X-187192Y-2103000D01*
X-201478Y-2117286D01*
X112807Y-2288714D02*
X84236Y-2274429D01*
X69950Y-2260143D01*
X55665Y-2231572D01*
X55665Y-2145857D01*
X69950Y-2117286D01*
X84236Y-2103000D01*
X112807Y-2088714D01*
X155665Y-2088714D01*
X184236Y-2103000D01*
X198522Y-2117286D01*
X212807Y-2145857D01*
X212807Y-2231572D01*
X198522Y-2260143D01*
X184236Y-2274429D01*
X155665Y-2288714D01*
X112807Y-2288714D01*
X384236Y-2288714D02*
X355665Y-2274429D01*
X341379Y-2245857D01*
X341379Y-1988714D01*
X612808Y-2274429D02*
X584236Y-2288714D01*
X527093Y-2288714D01*
X498522Y-2274429D01*
X484236Y-2245857D01*
X484236Y-2131572D01*
X498522Y-2103000D01*
X527093Y-2088714D01*
X584236Y-2088714D01*
X612808Y-2103000D01*
X627093Y-2131572D01*
X627093Y-2160143D01*
X484236Y-2188714D01*
X741379Y-2274429D02*
X769950Y-2288714D01*
X827093Y-2288714D01*
X855665Y-2274429D01*
X869950Y-2245857D01*
X869950Y-2231572D01*
X855665Y-2203000D01*
X827093Y-2188714D01*
X784236Y-2188714D01*
X755665Y-2174429D01*
X741379Y-2145857D01*
X741379Y-2131572D01*
X755665Y-2103000D01*
X784236Y-2088714D01*
X827093Y-2088714D01*
X855665Y-2103000D01*
X969950Y-2403000D02*
X984236Y-2388714D01*
X1012807Y-2345857D01*
X1027093Y-2317286D01*
X1041379Y-2274429D01*
X1055665Y-2203000D01*
X1055665Y-2145857D01*
X1041379Y-2074429D01*
X1027093Y-2031571D01*
X1012807Y-2003000D01*
X984236Y-1960143D01*
X969950Y-1945857D01*
M02*
