G04 #@! TF.GenerationSoftware,KiCad,Pcbnew,5.0.2-1.fc29*
G04 #@! TF.CreationDate,2019-02-25T04:27:57+01:00*
G04 #@! TF.ProjectId,tr19-badge,74723139-2d62-4616-9467-652e6b696361,rev?*
G04 #@! TF.SameCoordinates,Original*
G04 #@! TF.FileFunction,Paste,Top*
G04 #@! TF.FilePolarity,Positive*
%FSLAX46Y46*%
G04 Gerber Fmt 4.6, Leading zero omitted, Abs format (unit mm)*
G04 Created by KiCad (PCBNEW 5.0.2-1.fc29) date Mon 25 Feb 2019 04:27:57 CET*
%MOMM*%
%LPD*%
G01*
G04 APERTURE LIST*
%ADD10R,1.050000X0.650000*%
%ADD11C,1.800000*%
%ADD12C,0.100000*%
%ADD13C,1.000000*%
%ADD14R,1.550000X1.300000*%
%ADD15R,1.300000X1.550000*%
%ADD16C,0.875000*%
%ADD17R,1.600000X0.850000*%
G04 APERTURE END LIST*
D10*
G04 #@! TO.C,S38*
X-49375000Y86775000D03*
X-45225000Y86775000D03*
X-49375000Y84625000D03*
X-45225000Y84625000D03*
G04 #@! TD*
D11*
G04 #@! TO.C,S6*
X-42634187Y107361804D03*
D12*
G36*
X-41290684Y107291093D02*
X-42563476Y106018301D01*
X-43977690Y107432515D01*
X-42704898Y108705307D01*
X-41290684Y107291093D01*
X-41290684Y107291093D01*
G37*
D11*
X-48361751Y101634241D03*
D12*
G36*
X-47018248Y101563530D02*
X-48291040Y100290738D01*
X-49705254Y101704952D01*
X-48432462Y102977744D01*
X-47018248Y101563530D01*
X-47018248Y101563530D01*
G37*
D13*
X-49334023Y106318823D03*
D12*
G36*
X-48273363Y105965270D02*
X-48980470Y105258163D01*
X-50394683Y106672376D01*
X-49687576Y107379483D01*
X-48273363Y105965270D01*
X-48273363Y105965270D01*
G37*
D13*
X-48326396Y107326450D03*
D12*
G36*
X-47265736Y106972897D02*
X-47972843Y106265790D01*
X-49387056Y107680003D01*
X-48679949Y108387110D01*
X-47265736Y106972897D01*
X-47265736Y106972897D01*
G37*
D13*
X-47318769Y108334077D03*
D12*
G36*
X-46258109Y107980524D02*
X-46965216Y107273417D01*
X-48379429Y108687630D01*
X-47672322Y109394737D01*
X-46258109Y107980524D01*
X-46258109Y107980524D01*
G37*
D13*
X-41661915Y102677223D03*
D12*
G36*
X-40601255Y102323670D02*
X-41308362Y101616563D01*
X-42722575Y103030776D01*
X-42015468Y103737883D01*
X-40601255Y102323670D01*
X-40601255Y102323670D01*
G37*
D13*
X-43677169Y100661968D03*
D12*
G36*
X-42616509Y100308415D02*
X-43323616Y99601308D01*
X-44737829Y101015521D01*
X-44030722Y101722628D01*
X-42616509Y100308415D01*
X-42616509Y100308415D01*
G37*
D13*
X-42669542Y101669596D03*
D12*
G36*
X-41608882Y101316043D02*
X-42315989Y100608936D01*
X-43730202Y102023149D01*
X-43023095Y102730256D01*
X-41608882Y101316043D01*
X-41608882Y101316043D01*
G37*
G04 #@! TD*
D14*
G04 #@! TO.C,S1*
X-41525000Y114750000D03*
X-49475000Y114750000D03*
X-41525000Y119250000D03*
X-49475000Y119250000D03*
G04 #@! TD*
D15*
G04 #@! TO.C,S2*
X51750000Y119975000D03*
X51750000Y112025000D03*
X47250000Y119975000D03*
X47250000Y112025000D03*
G04 #@! TD*
G04 #@! TO.C,S3*
X51750000Y108975000D03*
X51750000Y101025000D03*
X47250000Y108975000D03*
X47250000Y101025000D03*
G04 #@! TD*
D10*
G04 #@! TO.C,S8*
X21525000Y51125000D03*
X25675000Y51125000D03*
X21525000Y48975000D03*
X25675000Y48975000D03*
G04 #@! TD*
G04 #@! TO.C,S9*
X45175000Y86775000D03*
X49325000Y86775000D03*
X45175000Y84625000D03*
X49325000Y84625000D03*
G04 #@! TD*
G04 #@! TO.C,S10*
X-25725000Y51125000D03*
X-21575000Y51125000D03*
X-25725000Y48975000D03*
X-21575000Y48975000D03*
G04 #@! TD*
G04 #@! TO.C,S11*
X-28325000Y86775000D03*
X-24175000Y86775000D03*
X-28325000Y84625000D03*
X-24175000Y84625000D03*
G04 #@! TD*
G04 #@! TO.C,S12*
X32075000Y51075000D03*
X36225000Y51075000D03*
X32075000Y48925000D03*
X36225000Y48925000D03*
G04 #@! TD*
G04 #@! TO.C,S13*
X34725000Y86775000D03*
X38875000Y86775000D03*
X34725000Y84625000D03*
X38875000Y84625000D03*
G04 #@! TD*
G04 #@! TO.C,S14*
X-30925000Y62975000D03*
X-26775000Y62975000D03*
X-30925000Y60825000D03*
X-26775000Y60825000D03*
G04 #@! TD*
G04 #@! TO.C,S15*
X-23075000Y74875000D03*
X-18925000Y74875000D03*
X-23075000Y72725000D03*
X-18925000Y72725000D03*
G04 #@! TD*
G04 #@! TO.C,S16*
X11075000Y63025000D03*
X15225000Y63025000D03*
X11075000Y60875000D03*
X15225000Y60875000D03*
G04 #@! TD*
G04 #@! TO.C,S17*
X24175000Y86775000D03*
X28325000Y86775000D03*
X24175000Y84625000D03*
X28325000Y84625000D03*
G04 #@! TD*
G04 #@! TO.C,S18*
X-33575000Y74875000D03*
X-29425000Y74875000D03*
X-33575000Y72725000D03*
X-29425000Y72725000D03*
G04 #@! TD*
G04 #@! TO.C,S19*
X-20425000Y62975000D03*
X-16275000Y62975000D03*
X-20425000Y60825000D03*
X-16275000Y60825000D03*
G04 #@! TD*
G04 #@! TO.C,S20*
X21575000Y63025000D03*
X25725000Y63025000D03*
X21575000Y60875000D03*
X25725000Y60875000D03*
G04 #@! TD*
G04 #@! TO.C,S21*
X13725000Y86775000D03*
X17875000Y86775000D03*
X13725000Y84625000D03*
X17875000Y84625000D03*
G04 #@! TD*
G04 #@! TO.C,S22*
X-38775000Y86725000D03*
X-34625000Y86725000D03*
X-38775000Y84575000D03*
X-34625000Y84575000D03*
G04 #@! TD*
G04 #@! TO.C,S23*
X-12575000Y51125000D03*
X-8425000Y51125000D03*
X-12575000Y48975000D03*
X-8425000Y48975000D03*
G04 #@! TD*
G04 #@! TO.C,S24*
X34675000Y63025000D03*
X38825000Y63025000D03*
X34675000Y60875000D03*
X38825000Y60875000D03*
G04 #@! TD*
G04 #@! TO.C,S25*
X3175000Y86775000D03*
X7325000Y86775000D03*
X3175000Y84625000D03*
X7325000Y84625000D03*
G04 #@! TD*
G04 #@! TO.C,S26*
X-36175000Y51125000D03*
X-32025000Y51125000D03*
X-36175000Y48975000D03*
X-32025000Y48975000D03*
G04 #@! TD*
G04 #@! TO.C,S27*
X-17825000Y86775000D03*
X-13675000Y86775000D03*
X-17825000Y84625000D03*
X-13675000Y84625000D03*
G04 #@! TD*
G04 #@! TO.C,S28*
X8425000Y74875000D03*
X12575000Y74875000D03*
X8425000Y72725000D03*
X12575000Y72725000D03*
G04 #@! TD*
G04 #@! TO.C,S29*
X39925000Y74925000D03*
X44075000Y74925000D03*
X39925000Y72775000D03*
X44075000Y72775000D03*
G04 #@! TD*
G04 #@! TO.C,S30*
X-41475000Y62975000D03*
X-37325000Y62975000D03*
X-41475000Y60825000D03*
X-37325000Y60825000D03*
G04 #@! TD*
G04 #@! TO.C,S31*
X-12525000Y74875000D03*
X-8375000Y74875000D03*
X-12525000Y72725000D03*
X-8375000Y72725000D03*
G04 #@! TD*
G04 #@! TO.C,S32*
X525000Y63025000D03*
X4675000Y63025000D03*
X525000Y60875000D03*
X4675000Y60875000D03*
G04 #@! TD*
G04 #@! TO.C,S33*
X29425000Y74875000D03*
X33575000Y74875000D03*
X29425000Y72725000D03*
X33575000Y72725000D03*
G04 #@! TD*
G04 #@! TO.C,S34*
X-44075000Y74875000D03*
X-39925000Y74875000D03*
X-44075000Y72725000D03*
X-39925000Y72725000D03*
G04 #@! TD*
G04 #@! TO.C,S35*
X-9925000Y62975000D03*
X-5775000Y62975000D03*
X-9925000Y60825000D03*
X-5775000Y60825000D03*
G04 #@! TD*
G04 #@! TO.C,S36*
X-2075000Y74875000D03*
X2075000Y74875000D03*
X-2075000Y72725000D03*
X2075000Y72725000D03*
G04 #@! TD*
G04 #@! TO.C,S37*
X18925000Y74925000D03*
X23075000Y74925000D03*
X18925000Y72775000D03*
X23075000Y72775000D03*
G04 #@! TD*
G04 #@! TO.C,S39*
X-7325000Y86775000D03*
X-3175000Y86775000D03*
X-7325000Y84625000D03*
X-3175000Y84625000D03*
G04 #@! TD*
G04 #@! TO.C,S40*
X2055000Y48975000D03*
X-2095000Y48975000D03*
X2055000Y51125000D03*
X-2095000Y51125000D03*
G04 #@! TD*
G04 #@! TO.C,S41*
X8425000Y51115000D03*
X12575000Y51115000D03*
X8425000Y48965000D03*
X12575000Y48965000D03*
G04 #@! TD*
D12*
G04 #@! TO.C,C12*
G36*
X26077691Y132373947D02*
X26098926Y132370797D01*
X26119750Y132365581D01*
X26139962Y132358349D01*
X26159368Y132349170D01*
X26177781Y132338134D01*
X26195024Y132325346D01*
X26210930Y132310930D01*
X26225346Y132295024D01*
X26238134Y132277781D01*
X26249170Y132259368D01*
X26258349Y132239962D01*
X26265581Y132219750D01*
X26270797Y132198926D01*
X26273947Y132177691D01*
X26275000Y132156250D01*
X26275000Y131718750D01*
X26273947Y131697309D01*
X26270797Y131676074D01*
X26265581Y131655250D01*
X26258349Y131635038D01*
X26249170Y131615632D01*
X26238134Y131597219D01*
X26225346Y131579976D01*
X26210930Y131564070D01*
X26195024Y131549654D01*
X26177781Y131536866D01*
X26159368Y131525830D01*
X26139962Y131516651D01*
X26119750Y131509419D01*
X26098926Y131504203D01*
X26077691Y131501053D01*
X26056250Y131500000D01*
X25543750Y131500000D01*
X25522309Y131501053D01*
X25501074Y131504203D01*
X25480250Y131509419D01*
X25460038Y131516651D01*
X25440632Y131525830D01*
X25422219Y131536866D01*
X25404976Y131549654D01*
X25389070Y131564070D01*
X25374654Y131579976D01*
X25361866Y131597219D01*
X25350830Y131615632D01*
X25341651Y131635038D01*
X25334419Y131655250D01*
X25329203Y131676074D01*
X25326053Y131697309D01*
X25325000Y131718750D01*
X25325000Y132156250D01*
X25326053Y132177691D01*
X25329203Y132198926D01*
X25334419Y132219750D01*
X25341651Y132239962D01*
X25350830Y132259368D01*
X25361866Y132277781D01*
X25374654Y132295024D01*
X25389070Y132310930D01*
X25404976Y132325346D01*
X25422219Y132338134D01*
X25440632Y132349170D01*
X25460038Y132358349D01*
X25480250Y132365581D01*
X25501074Y132370797D01*
X25522309Y132373947D01*
X25543750Y132375000D01*
X26056250Y132375000D01*
X26077691Y132373947D01*
X26077691Y132373947D01*
G37*
D16*
X25800000Y131937500D03*
D12*
G36*
X26077691Y130798947D02*
X26098926Y130795797D01*
X26119750Y130790581D01*
X26139962Y130783349D01*
X26159368Y130774170D01*
X26177781Y130763134D01*
X26195024Y130750346D01*
X26210930Y130735930D01*
X26225346Y130720024D01*
X26238134Y130702781D01*
X26249170Y130684368D01*
X26258349Y130664962D01*
X26265581Y130644750D01*
X26270797Y130623926D01*
X26273947Y130602691D01*
X26275000Y130581250D01*
X26275000Y130143750D01*
X26273947Y130122309D01*
X26270797Y130101074D01*
X26265581Y130080250D01*
X26258349Y130060038D01*
X26249170Y130040632D01*
X26238134Y130022219D01*
X26225346Y130004976D01*
X26210930Y129989070D01*
X26195024Y129974654D01*
X26177781Y129961866D01*
X26159368Y129950830D01*
X26139962Y129941651D01*
X26119750Y129934419D01*
X26098926Y129929203D01*
X26077691Y129926053D01*
X26056250Y129925000D01*
X25543750Y129925000D01*
X25522309Y129926053D01*
X25501074Y129929203D01*
X25480250Y129934419D01*
X25460038Y129941651D01*
X25440632Y129950830D01*
X25422219Y129961866D01*
X25404976Y129974654D01*
X25389070Y129989070D01*
X25374654Y130004976D01*
X25361866Y130022219D01*
X25350830Y130040632D01*
X25341651Y130060038D01*
X25334419Y130080250D01*
X25329203Y130101074D01*
X25326053Y130122309D01*
X25325000Y130143750D01*
X25325000Y130581250D01*
X25326053Y130602691D01*
X25329203Y130623926D01*
X25334419Y130644750D01*
X25341651Y130664962D01*
X25350830Y130684368D01*
X25361866Y130702781D01*
X25374654Y130720024D01*
X25389070Y130735930D01*
X25404976Y130750346D01*
X25422219Y130763134D01*
X25440632Y130774170D01*
X25460038Y130783349D01*
X25480250Y130790581D01*
X25501074Y130795797D01*
X25522309Y130798947D01*
X25543750Y130800000D01*
X26056250Y130800000D01*
X26077691Y130798947D01*
X26077691Y130798947D01*
G37*
D16*
X25800000Y130362500D03*
G04 #@! TD*
D12*
G04 #@! TO.C,C20*
G36*
X-9222309Y131098947D02*
X-9201074Y131095797D01*
X-9180250Y131090581D01*
X-9160038Y131083349D01*
X-9140632Y131074170D01*
X-9122219Y131063134D01*
X-9104976Y131050346D01*
X-9089070Y131035930D01*
X-9074654Y131020024D01*
X-9061866Y131002781D01*
X-9050830Y130984368D01*
X-9041651Y130964962D01*
X-9034419Y130944750D01*
X-9029203Y130923926D01*
X-9026053Y130902691D01*
X-9025000Y130881250D01*
X-9025000Y130443750D01*
X-9026053Y130422309D01*
X-9029203Y130401074D01*
X-9034419Y130380250D01*
X-9041651Y130360038D01*
X-9050830Y130340632D01*
X-9061866Y130322219D01*
X-9074654Y130304976D01*
X-9089070Y130289070D01*
X-9104976Y130274654D01*
X-9122219Y130261866D01*
X-9140632Y130250830D01*
X-9160038Y130241651D01*
X-9180250Y130234419D01*
X-9201074Y130229203D01*
X-9222309Y130226053D01*
X-9243750Y130225000D01*
X-9756250Y130225000D01*
X-9777691Y130226053D01*
X-9798926Y130229203D01*
X-9819750Y130234419D01*
X-9839962Y130241651D01*
X-9859368Y130250830D01*
X-9877781Y130261866D01*
X-9895024Y130274654D01*
X-9910930Y130289070D01*
X-9925346Y130304976D01*
X-9938134Y130322219D01*
X-9949170Y130340632D01*
X-9958349Y130360038D01*
X-9965581Y130380250D01*
X-9970797Y130401074D01*
X-9973947Y130422309D01*
X-9975000Y130443750D01*
X-9975000Y130881250D01*
X-9973947Y130902691D01*
X-9970797Y130923926D01*
X-9965581Y130944750D01*
X-9958349Y130964962D01*
X-9949170Y130984368D01*
X-9938134Y131002781D01*
X-9925346Y131020024D01*
X-9910930Y131035930D01*
X-9895024Y131050346D01*
X-9877781Y131063134D01*
X-9859368Y131074170D01*
X-9839962Y131083349D01*
X-9819750Y131090581D01*
X-9798926Y131095797D01*
X-9777691Y131098947D01*
X-9756250Y131100000D01*
X-9243750Y131100000D01*
X-9222309Y131098947D01*
X-9222309Y131098947D01*
G37*
D16*
X-9500000Y130662500D03*
D12*
G36*
X-9222309Y132673947D02*
X-9201074Y132670797D01*
X-9180250Y132665581D01*
X-9160038Y132658349D01*
X-9140632Y132649170D01*
X-9122219Y132638134D01*
X-9104976Y132625346D01*
X-9089070Y132610930D01*
X-9074654Y132595024D01*
X-9061866Y132577781D01*
X-9050830Y132559368D01*
X-9041651Y132539962D01*
X-9034419Y132519750D01*
X-9029203Y132498926D01*
X-9026053Y132477691D01*
X-9025000Y132456250D01*
X-9025000Y132018750D01*
X-9026053Y131997309D01*
X-9029203Y131976074D01*
X-9034419Y131955250D01*
X-9041651Y131935038D01*
X-9050830Y131915632D01*
X-9061866Y131897219D01*
X-9074654Y131879976D01*
X-9089070Y131864070D01*
X-9104976Y131849654D01*
X-9122219Y131836866D01*
X-9140632Y131825830D01*
X-9160038Y131816651D01*
X-9180250Y131809419D01*
X-9201074Y131804203D01*
X-9222309Y131801053D01*
X-9243750Y131800000D01*
X-9756250Y131800000D01*
X-9777691Y131801053D01*
X-9798926Y131804203D01*
X-9819750Y131809419D01*
X-9839962Y131816651D01*
X-9859368Y131825830D01*
X-9877781Y131836866D01*
X-9895024Y131849654D01*
X-9910930Y131864070D01*
X-9925346Y131879976D01*
X-9938134Y131897219D01*
X-9949170Y131915632D01*
X-9958349Y131935038D01*
X-9965581Y131955250D01*
X-9970797Y131976074D01*
X-9973947Y131997309D01*
X-9975000Y132018750D01*
X-9975000Y132456250D01*
X-9973947Y132477691D01*
X-9970797Y132498926D01*
X-9965581Y132519750D01*
X-9958349Y132539962D01*
X-9949170Y132559368D01*
X-9938134Y132577781D01*
X-9925346Y132595024D01*
X-9910930Y132610930D01*
X-9895024Y132625346D01*
X-9877781Y132638134D01*
X-9859368Y132649170D01*
X-9839962Y132658349D01*
X-9819750Y132665581D01*
X-9798926Y132670797D01*
X-9777691Y132673947D01*
X-9756250Y132675000D01*
X-9243750Y132675000D01*
X-9222309Y132673947D01*
X-9222309Y132673947D01*
G37*
D16*
X-9500000Y132237500D03*
G04 #@! TD*
D12*
G04 #@! TO.C,C23*
G36*
X2577691Y132448947D02*
X2598926Y132445797D01*
X2619750Y132440581D01*
X2639962Y132433349D01*
X2659368Y132424170D01*
X2677781Y132413134D01*
X2695024Y132400346D01*
X2710930Y132385930D01*
X2725346Y132370024D01*
X2738134Y132352781D01*
X2749170Y132334368D01*
X2758349Y132314962D01*
X2765581Y132294750D01*
X2770797Y132273926D01*
X2773947Y132252691D01*
X2775000Y132231250D01*
X2775000Y131793750D01*
X2773947Y131772309D01*
X2770797Y131751074D01*
X2765581Y131730250D01*
X2758349Y131710038D01*
X2749170Y131690632D01*
X2738134Y131672219D01*
X2725346Y131654976D01*
X2710930Y131639070D01*
X2695024Y131624654D01*
X2677781Y131611866D01*
X2659368Y131600830D01*
X2639962Y131591651D01*
X2619750Y131584419D01*
X2598926Y131579203D01*
X2577691Y131576053D01*
X2556250Y131575000D01*
X2043750Y131575000D01*
X2022309Y131576053D01*
X2001074Y131579203D01*
X1980250Y131584419D01*
X1960038Y131591651D01*
X1940632Y131600830D01*
X1922219Y131611866D01*
X1904976Y131624654D01*
X1889070Y131639070D01*
X1874654Y131654976D01*
X1861866Y131672219D01*
X1850830Y131690632D01*
X1841651Y131710038D01*
X1834419Y131730250D01*
X1829203Y131751074D01*
X1826053Y131772309D01*
X1825000Y131793750D01*
X1825000Y132231250D01*
X1826053Y132252691D01*
X1829203Y132273926D01*
X1834419Y132294750D01*
X1841651Y132314962D01*
X1850830Y132334368D01*
X1861866Y132352781D01*
X1874654Y132370024D01*
X1889070Y132385930D01*
X1904976Y132400346D01*
X1922219Y132413134D01*
X1940632Y132424170D01*
X1960038Y132433349D01*
X1980250Y132440581D01*
X2001074Y132445797D01*
X2022309Y132448947D01*
X2043750Y132450000D01*
X2556250Y132450000D01*
X2577691Y132448947D01*
X2577691Y132448947D01*
G37*
D16*
X2300000Y132012500D03*
D12*
G36*
X2577691Y130873947D02*
X2598926Y130870797D01*
X2619750Y130865581D01*
X2639962Y130858349D01*
X2659368Y130849170D01*
X2677781Y130838134D01*
X2695024Y130825346D01*
X2710930Y130810930D01*
X2725346Y130795024D01*
X2738134Y130777781D01*
X2749170Y130759368D01*
X2758349Y130739962D01*
X2765581Y130719750D01*
X2770797Y130698926D01*
X2773947Y130677691D01*
X2775000Y130656250D01*
X2775000Y130218750D01*
X2773947Y130197309D01*
X2770797Y130176074D01*
X2765581Y130155250D01*
X2758349Y130135038D01*
X2749170Y130115632D01*
X2738134Y130097219D01*
X2725346Y130079976D01*
X2710930Y130064070D01*
X2695024Y130049654D01*
X2677781Y130036866D01*
X2659368Y130025830D01*
X2639962Y130016651D01*
X2619750Y130009419D01*
X2598926Y130004203D01*
X2577691Y130001053D01*
X2556250Y130000000D01*
X2043750Y130000000D01*
X2022309Y130001053D01*
X2001074Y130004203D01*
X1980250Y130009419D01*
X1960038Y130016651D01*
X1940632Y130025830D01*
X1922219Y130036866D01*
X1904976Y130049654D01*
X1889070Y130064070D01*
X1874654Y130079976D01*
X1861866Y130097219D01*
X1850830Y130115632D01*
X1841651Y130135038D01*
X1834419Y130155250D01*
X1829203Y130176074D01*
X1826053Y130197309D01*
X1825000Y130218750D01*
X1825000Y130656250D01*
X1826053Y130677691D01*
X1829203Y130698926D01*
X1834419Y130719750D01*
X1841651Y130739962D01*
X1850830Y130759368D01*
X1861866Y130777781D01*
X1874654Y130795024D01*
X1889070Y130810930D01*
X1904976Y130825346D01*
X1922219Y130838134D01*
X1940632Y130849170D01*
X1960038Y130858349D01*
X1980250Y130865581D01*
X2001074Y130870797D01*
X2022309Y130873947D01*
X2043750Y130875000D01*
X2556250Y130875000D01*
X2577691Y130873947D01*
X2577691Y130873947D01*
G37*
D16*
X2300000Y130437500D03*
G04 #@! TD*
D12*
G04 #@! TO.C,C25*
G36*
X-22097309Y130998947D02*
X-22076074Y130995797D01*
X-22055250Y130990581D01*
X-22035038Y130983349D01*
X-22015632Y130974170D01*
X-21997219Y130963134D01*
X-21979976Y130950346D01*
X-21964070Y130935930D01*
X-21949654Y130920024D01*
X-21936866Y130902781D01*
X-21925830Y130884368D01*
X-21916651Y130864962D01*
X-21909419Y130844750D01*
X-21904203Y130823926D01*
X-21901053Y130802691D01*
X-21900000Y130781250D01*
X-21900000Y130343750D01*
X-21901053Y130322309D01*
X-21904203Y130301074D01*
X-21909419Y130280250D01*
X-21916651Y130260038D01*
X-21925830Y130240632D01*
X-21936866Y130222219D01*
X-21949654Y130204976D01*
X-21964070Y130189070D01*
X-21979976Y130174654D01*
X-21997219Y130161866D01*
X-22015632Y130150830D01*
X-22035038Y130141651D01*
X-22055250Y130134419D01*
X-22076074Y130129203D01*
X-22097309Y130126053D01*
X-22118750Y130125000D01*
X-22631250Y130125000D01*
X-22652691Y130126053D01*
X-22673926Y130129203D01*
X-22694750Y130134419D01*
X-22714962Y130141651D01*
X-22734368Y130150830D01*
X-22752781Y130161866D01*
X-22770024Y130174654D01*
X-22785930Y130189070D01*
X-22800346Y130204976D01*
X-22813134Y130222219D01*
X-22824170Y130240632D01*
X-22833349Y130260038D01*
X-22840581Y130280250D01*
X-22845797Y130301074D01*
X-22848947Y130322309D01*
X-22850000Y130343750D01*
X-22850000Y130781250D01*
X-22848947Y130802691D01*
X-22845797Y130823926D01*
X-22840581Y130844750D01*
X-22833349Y130864962D01*
X-22824170Y130884368D01*
X-22813134Y130902781D01*
X-22800346Y130920024D01*
X-22785930Y130935930D01*
X-22770024Y130950346D01*
X-22752781Y130963134D01*
X-22734368Y130974170D01*
X-22714962Y130983349D01*
X-22694750Y130990581D01*
X-22673926Y130995797D01*
X-22652691Y130998947D01*
X-22631250Y131000000D01*
X-22118750Y131000000D01*
X-22097309Y130998947D01*
X-22097309Y130998947D01*
G37*
D16*
X-22375000Y130562500D03*
D12*
G36*
X-22097309Y132573947D02*
X-22076074Y132570797D01*
X-22055250Y132565581D01*
X-22035038Y132558349D01*
X-22015632Y132549170D01*
X-21997219Y132538134D01*
X-21979976Y132525346D01*
X-21964070Y132510930D01*
X-21949654Y132495024D01*
X-21936866Y132477781D01*
X-21925830Y132459368D01*
X-21916651Y132439962D01*
X-21909419Y132419750D01*
X-21904203Y132398926D01*
X-21901053Y132377691D01*
X-21900000Y132356250D01*
X-21900000Y131918750D01*
X-21901053Y131897309D01*
X-21904203Y131876074D01*
X-21909419Y131855250D01*
X-21916651Y131835038D01*
X-21925830Y131815632D01*
X-21936866Y131797219D01*
X-21949654Y131779976D01*
X-21964070Y131764070D01*
X-21979976Y131749654D01*
X-21997219Y131736866D01*
X-22015632Y131725830D01*
X-22035038Y131716651D01*
X-22055250Y131709419D01*
X-22076074Y131704203D01*
X-22097309Y131701053D01*
X-22118750Y131700000D01*
X-22631250Y131700000D01*
X-22652691Y131701053D01*
X-22673926Y131704203D01*
X-22694750Y131709419D01*
X-22714962Y131716651D01*
X-22734368Y131725830D01*
X-22752781Y131736866D01*
X-22770024Y131749654D01*
X-22785930Y131764070D01*
X-22800346Y131779976D01*
X-22813134Y131797219D01*
X-22824170Y131815632D01*
X-22833349Y131835038D01*
X-22840581Y131855250D01*
X-22845797Y131876074D01*
X-22848947Y131897309D01*
X-22850000Y131918750D01*
X-22850000Y132356250D01*
X-22848947Y132377691D01*
X-22845797Y132398926D01*
X-22840581Y132419750D01*
X-22833349Y132439962D01*
X-22824170Y132459368D01*
X-22813134Y132477781D01*
X-22800346Y132495024D01*
X-22785930Y132510930D01*
X-22770024Y132525346D01*
X-22752781Y132538134D01*
X-22734368Y132549170D01*
X-22714962Y132558349D01*
X-22694750Y132565581D01*
X-22673926Y132570797D01*
X-22652691Y132573947D01*
X-22631250Y132575000D01*
X-22118750Y132575000D01*
X-22097309Y132573947D01*
X-22097309Y132573947D01*
G37*
D16*
X-22375000Y132137500D03*
G04 #@! TD*
D12*
G04 #@! TO.C,C27*
G36*
X14277691Y131648947D02*
X14298926Y131645797D01*
X14319750Y131640581D01*
X14339962Y131633349D01*
X14359368Y131624170D01*
X14377781Y131613134D01*
X14395024Y131600346D01*
X14410930Y131585930D01*
X14425346Y131570024D01*
X14438134Y131552781D01*
X14449170Y131534368D01*
X14458349Y131514962D01*
X14465581Y131494750D01*
X14470797Y131473926D01*
X14473947Y131452691D01*
X14475000Y131431250D01*
X14475000Y130993750D01*
X14473947Y130972309D01*
X14470797Y130951074D01*
X14465581Y130930250D01*
X14458349Y130910038D01*
X14449170Y130890632D01*
X14438134Y130872219D01*
X14425346Y130854976D01*
X14410930Y130839070D01*
X14395024Y130824654D01*
X14377781Y130811866D01*
X14359368Y130800830D01*
X14339962Y130791651D01*
X14319750Y130784419D01*
X14298926Y130779203D01*
X14277691Y130776053D01*
X14256250Y130775000D01*
X13743750Y130775000D01*
X13722309Y130776053D01*
X13701074Y130779203D01*
X13680250Y130784419D01*
X13660038Y130791651D01*
X13640632Y130800830D01*
X13622219Y130811866D01*
X13604976Y130824654D01*
X13589070Y130839070D01*
X13574654Y130854976D01*
X13561866Y130872219D01*
X13550830Y130890632D01*
X13541651Y130910038D01*
X13534419Y130930250D01*
X13529203Y130951074D01*
X13526053Y130972309D01*
X13525000Y130993750D01*
X13525000Y131431250D01*
X13526053Y131452691D01*
X13529203Y131473926D01*
X13534419Y131494750D01*
X13541651Y131514962D01*
X13550830Y131534368D01*
X13561866Y131552781D01*
X13574654Y131570024D01*
X13589070Y131585930D01*
X13604976Y131600346D01*
X13622219Y131613134D01*
X13640632Y131624170D01*
X13660038Y131633349D01*
X13680250Y131640581D01*
X13701074Y131645797D01*
X13722309Y131648947D01*
X13743750Y131650000D01*
X14256250Y131650000D01*
X14277691Y131648947D01*
X14277691Y131648947D01*
G37*
D16*
X14000000Y131212500D03*
D12*
G36*
X14277691Y133223947D02*
X14298926Y133220797D01*
X14319750Y133215581D01*
X14339962Y133208349D01*
X14359368Y133199170D01*
X14377781Y133188134D01*
X14395024Y133175346D01*
X14410930Y133160930D01*
X14425346Y133145024D01*
X14438134Y133127781D01*
X14449170Y133109368D01*
X14458349Y133089962D01*
X14465581Y133069750D01*
X14470797Y133048926D01*
X14473947Y133027691D01*
X14475000Y133006250D01*
X14475000Y132568750D01*
X14473947Y132547309D01*
X14470797Y132526074D01*
X14465581Y132505250D01*
X14458349Y132485038D01*
X14449170Y132465632D01*
X14438134Y132447219D01*
X14425346Y132429976D01*
X14410930Y132414070D01*
X14395024Y132399654D01*
X14377781Y132386866D01*
X14359368Y132375830D01*
X14339962Y132366651D01*
X14319750Y132359419D01*
X14298926Y132354203D01*
X14277691Y132351053D01*
X14256250Y132350000D01*
X13743750Y132350000D01*
X13722309Y132351053D01*
X13701074Y132354203D01*
X13680250Y132359419D01*
X13660038Y132366651D01*
X13640632Y132375830D01*
X13622219Y132386866D01*
X13604976Y132399654D01*
X13589070Y132414070D01*
X13574654Y132429976D01*
X13561866Y132447219D01*
X13550830Y132465632D01*
X13541651Y132485038D01*
X13534419Y132505250D01*
X13529203Y132526074D01*
X13526053Y132547309D01*
X13525000Y132568750D01*
X13525000Y133006250D01*
X13526053Y133027691D01*
X13529203Y133048926D01*
X13534419Y133069750D01*
X13541651Y133089962D01*
X13550830Y133109368D01*
X13561866Y133127781D01*
X13574654Y133145024D01*
X13589070Y133160930D01*
X13604976Y133175346D01*
X13622219Y133188134D01*
X13640632Y133199170D01*
X13660038Y133208349D01*
X13680250Y133215581D01*
X13701074Y133220797D01*
X13722309Y133223947D01*
X13743750Y133225000D01*
X14256250Y133225000D01*
X14277691Y133223947D01*
X14277691Y133223947D01*
G37*
D16*
X14000000Y132787500D03*
G04 #@! TD*
D12*
G04 #@! TO.C,C28*
G36*
X-33922309Y132423947D02*
X-33901074Y132420797D01*
X-33880250Y132415581D01*
X-33860038Y132408349D01*
X-33840632Y132399170D01*
X-33822219Y132388134D01*
X-33804976Y132375346D01*
X-33789070Y132360930D01*
X-33774654Y132345024D01*
X-33761866Y132327781D01*
X-33750830Y132309368D01*
X-33741651Y132289962D01*
X-33734419Y132269750D01*
X-33729203Y132248926D01*
X-33726053Y132227691D01*
X-33725000Y132206250D01*
X-33725000Y131768750D01*
X-33726053Y131747309D01*
X-33729203Y131726074D01*
X-33734419Y131705250D01*
X-33741651Y131685038D01*
X-33750830Y131665632D01*
X-33761866Y131647219D01*
X-33774654Y131629976D01*
X-33789070Y131614070D01*
X-33804976Y131599654D01*
X-33822219Y131586866D01*
X-33840632Y131575830D01*
X-33860038Y131566651D01*
X-33880250Y131559419D01*
X-33901074Y131554203D01*
X-33922309Y131551053D01*
X-33943750Y131550000D01*
X-34456250Y131550000D01*
X-34477691Y131551053D01*
X-34498926Y131554203D01*
X-34519750Y131559419D01*
X-34539962Y131566651D01*
X-34559368Y131575830D01*
X-34577781Y131586866D01*
X-34595024Y131599654D01*
X-34610930Y131614070D01*
X-34625346Y131629976D01*
X-34638134Y131647219D01*
X-34649170Y131665632D01*
X-34658349Y131685038D01*
X-34665581Y131705250D01*
X-34670797Y131726074D01*
X-34673947Y131747309D01*
X-34675000Y131768750D01*
X-34675000Y132206250D01*
X-34673947Y132227691D01*
X-34670797Y132248926D01*
X-34665581Y132269750D01*
X-34658349Y132289962D01*
X-34649170Y132309368D01*
X-34638134Y132327781D01*
X-34625346Y132345024D01*
X-34610930Y132360930D01*
X-34595024Y132375346D01*
X-34577781Y132388134D01*
X-34559368Y132399170D01*
X-34539962Y132408349D01*
X-34519750Y132415581D01*
X-34498926Y132420797D01*
X-34477691Y132423947D01*
X-34456250Y132425000D01*
X-33943750Y132425000D01*
X-33922309Y132423947D01*
X-33922309Y132423947D01*
G37*
D16*
X-34200000Y131987500D03*
D12*
G36*
X-33922309Y130848947D02*
X-33901074Y130845797D01*
X-33880250Y130840581D01*
X-33860038Y130833349D01*
X-33840632Y130824170D01*
X-33822219Y130813134D01*
X-33804976Y130800346D01*
X-33789070Y130785930D01*
X-33774654Y130770024D01*
X-33761866Y130752781D01*
X-33750830Y130734368D01*
X-33741651Y130714962D01*
X-33734419Y130694750D01*
X-33729203Y130673926D01*
X-33726053Y130652691D01*
X-33725000Y130631250D01*
X-33725000Y130193750D01*
X-33726053Y130172309D01*
X-33729203Y130151074D01*
X-33734419Y130130250D01*
X-33741651Y130110038D01*
X-33750830Y130090632D01*
X-33761866Y130072219D01*
X-33774654Y130054976D01*
X-33789070Y130039070D01*
X-33804976Y130024654D01*
X-33822219Y130011866D01*
X-33840632Y130000830D01*
X-33860038Y129991651D01*
X-33880250Y129984419D01*
X-33901074Y129979203D01*
X-33922309Y129976053D01*
X-33943750Y129975000D01*
X-34456250Y129975000D01*
X-34477691Y129976053D01*
X-34498926Y129979203D01*
X-34519750Y129984419D01*
X-34539962Y129991651D01*
X-34559368Y130000830D01*
X-34577781Y130011866D01*
X-34595024Y130024654D01*
X-34610930Y130039070D01*
X-34625346Y130054976D01*
X-34638134Y130072219D01*
X-34649170Y130090632D01*
X-34658349Y130110038D01*
X-34665581Y130130250D01*
X-34670797Y130151074D01*
X-34673947Y130172309D01*
X-34675000Y130193750D01*
X-34675000Y130631250D01*
X-34673947Y130652691D01*
X-34670797Y130673926D01*
X-34665581Y130694750D01*
X-34658349Y130714962D01*
X-34649170Y130734368D01*
X-34638134Y130752781D01*
X-34625346Y130770024D01*
X-34610930Y130785930D01*
X-34595024Y130800346D01*
X-34577781Y130813134D01*
X-34559368Y130824170D01*
X-34539962Y130833349D01*
X-34519750Y130840581D01*
X-34498926Y130845797D01*
X-34477691Y130848947D01*
X-34456250Y130850000D01*
X-33943750Y130850000D01*
X-33922309Y130848947D01*
X-33922309Y130848947D01*
G37*
D16*
X-34200000Y130412500D03*
G04 #@! TD*
D12*
G04 #@! TO.C,R74*
G36*
X-24597309Y132948947D02*
X-24576074Y132945797D01*
X-24555250Y132940581D01*
X-24535038Y132933349D01*
X-24515632Y132924170D01*
X-24497219Y132913134D01*
X-24479976Y132900346D01*
X-24464070Y132885930D01*
X-24449654Y132870024D01*
X-24436866Y132852781D01*
X-24425830Y132834368D01*
X-24416651Y132814962D01*
X-24409419Y132794750D01*
X-24404203Y132773926D01*
X-24401053Y132752691D01*
X-24400000Y132731250D01*
X-24400000Y132218750D01*
X-24401053Y132197309D01*
X-24404203Y132176074D01*
X-24409419Y132155250D01*
X-24416651Y132135038D01*
X-24425830Y132115632D01*
X-24436866Y132097219D01*
X-24449654Y132079976D01*
X-24464070Y132064070D01*
X-24479976Y132049654D01*
X-24497219Y132036866D01*
X-24515632Y132025830D01*
X-24535038Y132016651D01*
X-24555250Y132009419D01*
X-24576074Y132004203D01*
X-24597309Y132001053D01*
X-24618750Y132000000D01*
X-25056250Y132000000D01*
X-25077691Y132001053D01*
X-25098926Y132004203D01*
X-25119750Y132009419D01*
X-25139962Y132016651D01*
X-25159368Y132025830D01*
X-25177781Y132036866D01*
X-25195024Y132049654D01*
X-25210930Y132064070D01*
X-25225346Y132079976D01*
X-25238134Y132097219D01*
X-25249170Y132115632D01*
X-25258349Y132135038D01*
X-25265581Y132155250D01*
X-25270797Y132176074D01*
X-25273947Y132197309D01*
X-25275000Y132218750D01*
X-25275000Y132731250D01*
X-25273947Y132752691D01*
X-25270797Y132773926D01*
X-25265581Y132794750D01*
X-25258349Y132814962D01*
X-25249170Y132834368D01*
X-25238134Y132852781D01*
X-25225346Y132870024D01*
X-25210930Y132885930D01*
X-25195024Y132900346D01*
X-25177781Y132913134D01*
X-25159368Y132924170D01*
X-25139962Y132933349D01*
X-25119750Y132940581D01*
X-25098926Y132945797D01*
X-25077691Y132948947D01*
X-25056250Y132950000D01*
X-24618750Y132950000D01*
X-24597309Y132948947D01*
X-24597309Y132948947D01*
G37*
D16*
X-24837500Y132475000D03*
D12*
G36*
X-26172309Y132948947D02*
X-26151074Y132945797D01*
X-26130250Y132940581D01*
X-26110038Y132933349D01*
X-26090632Y132924170D01*
X-26072219Y132913134D01*
X-26054976Y132900346D01*
X-26039070Y132885930D01*
X-26024654Y132870024D01*
X-26011866Y132852781D01*
X-26000830Y132834368D01*
X-25991651Y132814962D01*
X-25984419Y132794750D01*
X-25979203Y132773926D01*
X-25976053Y132752691D01*
X-25975000Y132731250D01*
X-25975000Y132218750D01*
X-25976053Y132197309D01*
X-25979203Y132176074D01*
X-25984419Y132155250D01*
X-25991651Y132135038D01*
X-26000830Y132115632D01*
X-26011866Y132097219D01*
X-26024654Y132079976D01*
X-26039070Y132064070D01*
X-26054976Y132049654D01*
X-26072219Y132036866D01*
X-26090632Y132025830D01*
X-26110038Y132016651D01*
X-26130250Y132009419D01*
X-26151074Y132004203D01*
X-26172309Y132001053D01*
X-26193750Y132000000D01*
X-26631250Y132000000D01*
X-26652691Y132001053D01*
X-26673926Y132004203D01*
X-26694750Y132009419D01*
X-26714962Y132016651D01*
X-26734368Y132025830D01*
X-26752781Y132036866D01*
X-26770024Y132049654D01*
X-26785930Y132064070D01*
X-26800346Y132079976D01*
X-26813134Y132097219D01*
X-26824170Y132115632D01*
X-26833349Y132135038D01*
X-26840581Y132155250D01*
X-26845797Y132176074D01*
X-26848947Y132197309D01*
X-26850000Y132218750D01*
X-26850000Y132731250D01*
X-26848947Y132752691D01*
X-26845797Y132773926D01*
X-26840581Y132794750D01*
X-26833349Y132814962D01*
X-26824170Y132834368D01*
X-26813134Y132852781D01*
X-26800346Y132870024D01*
X-26785930Y132885930D01*
X-26770024Y132900346D01*
X-26752781Y132913134D01*
X-26734368Y132924170D01*
X-26714962Y132933349D01*
X-26694750Y132940581D01*
X-26673926Y132945797D01*
X-26652691Y132948947D01*
X-26631250Y132950000D01*
X-26193750Y132950000D01*
X-26172309Y132948947D01*
X-26172309Y132948947D01*
G37*
D16*
X-26412500Y132475000D03*
G04 #@! TD*
D17*
G04 #@! TO.C,D5*
X16250000Y132075000D03*
X16250000Y130325000D03*
X19750000Y132075000D03*
X19750000Y130325000D03*
G04 #@! TD*
G04 #@! TO.C,D13*
X-31750000Y132075000D03*
X-31750000Y130325000D03*
X-28250000Y132075000D03*
X-28250000Y130325000D03*
G04 #@! TD*
G04 #@! TO.C,D14*
X-16250000Y130325000D03*
X-16250000Y132075000D03*
X-19750000Y130325000D03*
X-19750000Y132075000D03*
G04 #@! TD*
G04 #@! TO.C,D15*
X-4250000Y130325000D03*
X-4250000Y132075000D03*
X-7750000Y130325000D03*
X-7750000Y132075000D03*
G04 #@! TD*
G04 #@! TO.C,D16*
X4250000Y132075000D03*
X4250000Y130325000D03*
X7750000Y132075000D03*
X7750000Y130325000D03*
G04 #@! TD*
G04 #@! TO.C,D17*
X31650000Y130325000D03*
X31650000Y132075000D03*
X28150000Y130325000D03*
X28150000Y132075000D03*
G04 #@! TD*
M02*
