G04 #@! TF.GenerationSoftware,KiCad,Pcbnew,5.0.2-1.fc29*
G04 #@! TF.CreationDate,2019-02-25T04:27:58+01:00*
G04 #@! TF.ProjectId,tr19-badge,74723139-2d62-4616-9467-652e6b696361,rev?*
G04 #@! TF.SameCoordinates,Original*
G04 #@! TF.FileFunction,Legend,Top*
G04 #@! TF.FilePolarity,Positive*
%FSLAX46Y46*%
G04 Gerber Fmt 4.6, Leading zero omitted, Abs format (unit mm)*
G04 Created by KiCad (PCBNEW 5.0.2-1.fc29) date Mon 25 Feb 2019 04:27:58 CET*
%MOMM*%
%LPD*%
G01*
G04 APERTURE LIST*
%ADD10C,0.200000*%
%ADD11C,0.250000*%
%ADD12C,0.600000*%
%ADD13C,1.000000*%
%ADD14C,0.120000*%
%ADD15C,0.500000*%
%ADD16C,0.100000*%
%ADD17C,0.010000*%
%ADD18C,0.400000*%
G04 APERTURE END LIST*
D10*
X38774032Y70258056D02*
X39805967Y68331283D01*
X34173610Y75149602D02*
X34230753Y75149702D01*
X34344914Y75221330D01*
X34401807Y75364287D01*
X34400560Y76078571D01*
X34457454Y76221528D01*
X34571615Y76293156D01*
X34457205Y76364385D01*
X34399813Y76507142D01*
X34398566Y77221427D01*
X34341174Y77364184D01*
X34226764Y77435413D01*
X34169621Y77435313D01*
X24130752Y75150400D02*
X24073609Y75150301D01*
X23959199Y75221530D01*
X23901807Y75364287D01*
X23900560Y76078571D01*
X23843168Y76221329D01*
X23728758Y76292558D01*
X23842919Y76364186D01*
X23899813Y76507142D01*
X23898566Y77221427D01*
X23955459Y77364383D01*
X24069620Y77436011D01*
X24126763Y77436111D01*
X-46316834Y80114296D02*
X-46549432Y80258846D01*
X-46782399Y80548539D01*
X-47131851Y80983078D01*
X-47364449Y81127629D01*
X-47596676Y81127037D01*
X-47478713Y80401621D02*
X-47711311Y80546171D01*
X-47944278Y80835864D01*
X-48061872Y81416138D01*
X-48064462Y82432135D01*
X-47949827Y83013000D01*
X-47718340Y83303877D01*
X-47486482Y83449611D01*
X-47022026Y83450795D01*
X-46789428Y83306244D01*
X-46556461Y83016551D01*
X-46438867Y82436278D01*
X-46436277Y81420281D01*
X-46550911Y80839416D01*
X-46782399Y80548539D01*
X-47014257Y80402805D01*
X-47478713Y80401621D01*
X-44148634Y87750683D02*
X-44091309Y87679400D01*
X-44148270Y87607826D01*
X-44205595Y87679109D01*
X-44148634Y87750683D01*
X-44148270Y87607826D01*
X-44149726Y88179253D02*
X-44209054Y89036247D01*
X-44152093Y89107821D01*
X-44094768Y89036539D01*
X-44149726Y88179253D01*
X-44152093Y89107821D01*
X29925000Y57008274D02*
X29925000Y64913604D01*
X36513517Y83449611D02*
X36977973Y83450795D01*
X37210571Y83306244D01*
X37443538Y83016551D01*
X37561132Y82436278D01*
X37563722Y81420281D01*
X37449088Y80839416D01*
X37217600Y80548539D01*
X36985742Y80402805D01*
X36521286Y80401621D01*
X36288688Y80546171D01*
X36055721Y80835864D01*
X35938127Y81416138D01*
X35935537Y82432135D01*
X36050172Y83013000D01*
X36281659Y83303877D01*
X36513517Y83449611D01*
X-18622248Y81503076D02*
X-18619699Y80503079D01*
X-18909418Y82073774D02*
X-19192400Y81001621D01*
X-18449546Y81003514D01*
X-18950000Y79781066D02*
G75*
G02X-19950000Y80781066I0J1000000D01*
G01*
X13700000Y67894670D02*
X7300000Y67894670D01*
X24200000Y67894670D02*
X17800000Y67894670D01*
X6300000Y68894670D02*
X6300000Y76800000D01*
X-17800000Y77800000D02*
G75*
G02X-16800000Y76800000I0J-1000000D01*
G01*
X-29925000Y53027208D02*
X-29925000Y45121878D01*
X28300000Y67894670D02*
G75*
G02X27300000Y68894670I0J1000000D01*
G01*
X43575000Y57008274D02*
G75*
G02X42575000Y56008274I-1000000J0D01*
G01*
X16800000Y68894670D02*
X16800000Y76800000D01*
X-27300000Y76800000D02*
X-27300000Y68894670D01*
X-40192051Y59675339D02*
X-38566456Y59679483D01*
X-40184282Y56627349D01*
X-38558688Y56631493D01*
X-30925000Y54027208D02*
G75*
G02X-29925000Y53027208I0J-1000000D01*
G01*
X40950000Y88686396D02*
X40950000Y80781066D01*
X-17617485Y56921629D02*
X-17733229Y56776191D01*
X-18081200Y56630161D01*
X-18313428Y56629569D01*
X-18662140Y56773823D01*
X-18895107Y57063516D01*
X-19011961Y57353505D01*
X-19129555Y57933779D01*
X-19130665Y58369206D01*
X-19016031Y58950071D01*
X-18900657Y59240652D01*
X-18669169Y59531529D01*
X-18321197Y59677559D01*
X-18088969Y59678151D01*
X-17740257Y59533896D01*
X-17623774Y59389050D01*
X-17325000Y45121878D02*
X-17325000Y53027208D01*
X35500000Y57508274D02*
X35500000Y57758274D01*
X-40950000Y88686396D02*
G75*
G02X-39950000Y89686396I1000000J0D01*
G01*
X-11433116Y57789574D02*
X-10518833Y57791904D01*
X-10517741Y57363334D02*
X-11432024Y57361004D01*
X19425000Y45121878D02*
X19425000Y53027208D01*
X33625000Y44621878D02*
X34625000Y44621878D01*
X33625000Y46621878D02*
X33625000Y44621878D01*
X-4675000Y56008274D02*
X-11075000Y56008274D01*
X-3675000Y57008274D02*
G75*
G02X-4675000Y56008274I-1000000J0D01*
G01*
X-32550000Y88686396D02*
X-32550000Y80781066D01*
X11550000Y80781066D02*
X11550000Y88686396D01*
X-50450000Y89686396D02*
X-44050000Y89686396D01*
X-51450000Y88686396D02*
G75*
G02X-50450000Y89686396I1000000J0D01*
G01*
X4200000Y76800000D02*
X4200000Y68894670D01*
X17800000Y77800000D02*
X24200000Y77800000D01*
X-24200000Y67894670D02*
G75*
G02X-25200000Y68894670I0J1000000D01*
G01*
X27300000Y68894670D02*
X27300000Y76800000D01*
X35125000Y46621878D02*
X34125000Y47621878D01*
X-42575000Y65913604D02*
X-36175000Y65913604D01*
X-43575000Y64913604D02*
G75*
G02X-42575000Y65913604I1000000J0D01*
G01*
X-23050000Y79781066D02*
X-29450000Y79781066D01*
X-3041786Y68874869D02*
X-3041604Y68803441D01*
X-3098383Y68660439D01*
X-3155343Y68588865D01*
X-3101114Y69731864D02*
X-3043789Y69660581D01*
X-3100750Y69589007D01*
X-3158074Y69660290D01*
X-3101114Y69731864D01*
X-3100750Y69589007D01*
X-44050000Y79781066D02*
X-50450000Y79781066D01*
X-43050000Y80781066D02*
G75*
G02X-44050000Y79781066I-1000000J0D01*
G01*
X30450000Y80781066D02*
G75*
G02X29450000Y79781066I-1000000J0D01*
G01*
X38000000Y57508274D02*
X35500000Y57508274D01*
X38000000Y59008274D02*
X38000000Y57508274D01*
X-36175000Y56008274D02*
X-42575000Y56008274D01*
X-35175000Y57008274D02*
G75*
G02X-36175000Y56008274I-1000000J0D01*
G01*
X-16800000Y68894670D02*
G75*
G02X-17800000Y67894670I-1000000J0D01*
G01*
X20425000Y44121878D02*
G75*
G02X19425000Y45121878I0J1000000D01*
G01*
X32550000Y80781066D02*
X32550000Y88686396D01*
X-7300000Y77800000D02*
G75*
G02X-6300000Y76800000I0J-1000000D01*
G01*
X-43575000Y57008274D02*
X-43575000Y64913604D01*
X-42575000Y56008274D02*
G75*
G02X-43575000Y57008274I0J1000000D01*
G01*
X-22050000Y80781066D02*
G75*
G02X-23050000Y79781066I-1000000J0D01*
G01*
X23375000Y47121878D02*
X24875000Y47121878D01*
X-37799279Y83447539D02*
X-37210941Y80401029D01*
X-36752034Y82579349D01*
X-36282029Y80403397D01*
X-35709229Y83452867D01*
X23050000Y89686396D02*
X29450000Y89686396D01*
X-38325000Y53027208D02*
G75*
G02X-37325000Y54027208I1000000J0D01*
G01*
X-44050000Y89686396D02*
X-50450000Y89686396D01*
X38500000Y57008274D02*
X38500000Y59008274D01*
X29347906Y89107821D02*
X29348816Y88750680D01*
X29062739Y88892808D02*
X29348816Y88750680D01*
X29634165Y88894265D01*
X29178116Y88464529D02*
X29348816Y88750680D01*
X29520972Y88465403D01*
X27825000Y64913604D02*
X27825000Y57008274D01*
X22375000Y46121878D02*
X23375000Y47121878D01*
X38500000Y59008274D02*
X38000000Y59008274D01*
X-8450000Y89686396D02*
X-2050000Y89686396D01*
X-39950000Y79781066D02*
G75*
G02X-40950000Y80781066I0J1000000D01*
G01*
X37800000Y68894670D02*
X37800000Y76800000D01*
X-10152213Y70113271D02*
X-10965010Y70111199D01*
X-10960941Y68514633D02*
X-10968709Y71562623D01*
X-9807570Y71565583D01*
X1050000Y80781066D02*
X1050000Y88686396D01*
X45103003Y75221432D02*
X45097542Y77364282D01*
X-20425000Y44121878D02*
X-26825000Y44121878D01*
X-19425000Y45121878D02*
G75*
G02X-20425000Y44121878I-1000000J0D01*
G01*
X-25675000Y56008274D02*
X-32075000Y56008274D01*
X-24675000Y57008274D02*
G75*
G02X-25675000Y56008274I-1000000J0D01*
G01*
X35700000Y68894670D02*
G75*
G02X34700000Y67894670I-1000000J0D01*
G01*
X19425000Y53027208D02*
G75*
G02X20425000Y54027208I1000000J0D01*
G01*
X-33125000Y47371878D02*
G75*
G02X-34125000Y47621878I-367851J653594D01*
G01*
X43050000Y80781066D02*
X43050000Y88686396D01*
X-45200000Y67894670D02*
G75*
G02X-46200000Y68894670I0J1000000D01*
G01*
X-19950000Y88686396D02*
G75*
G02X-18950000Y89686396I1000000J0D01*
G01*
X-29450000Y79781066D02*
G75*
G02X-30450000Y80781066I0J1000000D01*
G01*
X34700000Y67894670D02*
X28300000Y67894670D01*
X35700000Y76800000D02*
X35700000Y68894670D01*
X38325000Y45121878D02*
G75*
G02X37325000Y44121878I-1000000J0D01*
G01*
X-575000Y65913604D02*
X5825000Y65913604D01*
X-1575000Y64913604D02*
G75*
G02X-575000Y65913604I1000000J0D01*
G01*
X-22575000Y57008274D02*
X-22575000Y64913604D01*
X-21575000Y56008274D02*
G75*
G02X-22575000Y57008274I0J1000000D01*
G01*
X30925000Y56008274D02*
G75*
G02X29925000Y57008274I0J1000000D01*
G01*
X-16800000Y76800000D02*
X-16800000Y68894670D01*
X25200000Y76800000D02*
X25200000Y68894670D01*
X-29450000Y89686396D02*
X-23050000Y89686396D01*
X30925000Y65913604D02*
X42575000Y65913604D01*
X3200000Y77800000D02*
G75*
G02X4200000Y76800000I0J-1000000D01*
G01*
X-3675000Y64913604D02*
X-3675000Y57008274D01*
X-4675000Y65913604D02*
G75*
G02X-3675000Y64913604I0J-1000000D01*
G01*
X-15175000Y56008274D02*
X-21575000Y56008274D01*
X-14175000Y57008274D02*
G75*
G02X-15175000Y56008274I-1000000J0D01*
G01*
X-12075000Y57008274D02*
X-12075000Y64913604D01*
X-11075000Y56008274D02*
G75*
G02X-12075000Y57008274I0J1000000D01*
G01*
X-3200000Y77800000D02*
X3200000Y77800000D01*
X24875000Y45121878D02*
X23375000Y45121878D01*
X39950000Y89686396D02*
G75*
G02X40950000Y88686396I0J-1000000D01*
G01*
X-29752092Y82001472D02*
X-29009237Y82003365D01*
X-29407779Y81430919D01*
X-29236351Y81431356D01*
X-29121884Y81360219D01*
X-29064559Y81288936D01*
X-29007052Y81146225D01*
X-29006142Y80789084D01*
X-29062921Y80646081D01*
X-29119881Y80574507D01*
X-29233985Y80502788D01*
X-29576841Y80501914D01*
X-29691308Y80573051D01*
X-29748633Y80644333D01*
X-32075000Y65913604D02*
X-25675000Y65913604D01*
X-33075000Y64913604D02*
G75*
G02X-32075000Y65913604I1000000J0D01*
G01*
X39950000Y79781066D02*
X33550000Y79781066D01*
X-33125001Y47371877D02*
G75*
G02X-34125000Y44621878I-2405110J-682232D01*
G01*
X6180981Y64969907D02*
X5267790Y64539007D01*
X6183165Y64112767D01*
X33125000Y46621878D02*
X33625000Y46621878D01*
X-21932827Y57676180D02*
X-21018544Y57678510D01*
X38800000Y67894670D02*
G75*
G02X37800000Y68894670I0J1000000D01*
G01*
X-5950937Y83448427D02*
X-4557570Y83451979D01*
X-5246485Y80402213D02*
X-5254254Y83450203D01*
X19950000Y80781066D02*
G75*
G02X18950000Y79781066I-1000000J0D01*
G01*
X42575000Y56008274D02*
X30925000Y56008274D01*
X-34700000Y67894670D02*
G75*
G02X-35700000Y68894670I0J1000000D01*
G01*
X-21575000Y65913604D02*
X-15175000Y65913604D01*
X-22575000Y64913604D02*
G75*
G02X-21575000Y65913604I1000000J0D01*
G01*
X-1575000Y57008274D02*
X-1575000Y64913604D01*
X-32550000Y80781066D02*
G75*
G02X-33550000Y79781066I-1000000J0D01*
G01*
X18950000Y79781066D02*
X12550000Y79781066D01*
X45200000Y77800000D02*
G75*
G02X46200000Y76800000I0J-1000000D01*
G01*
X22050000Y80781066D02*
X22050000Y88686396D01*
X19366013Y87609137D02*
X19308870Y87608991D01*
X19194403Y87680128D01*
X19022429Y87893977D01*
X18735623Y88321818D01*
X18620792Y88535812D01*
X18563103Y88749951D01*
X18562739Y88892808D01*
X18619517Y89035810D01*
X18733620Y89107530D01*
X18790763Y89107676D01*
X18905231Y89036539D01*
X18962737Y88893828D01*
X18962919Y88822399D01*
X18906141Y88679397D01*
X18849180Y88607823D01*
X18507052Y88321236D01*
X18450092Y88249662D01*
X18393313Y88106659D01*
X18393859Y87892374D01*
X18451366Y87749663D01*
X18508691Y87678381D01*
X18623158Y87607244D01*
X18794586Y87607681D01*
X18908690Y87679400D01*
X18965650Y87750974D01*
X19136350Y88037125D01*
X19192947Y88251555D01*
X19192582Y88394412D01*
X26825000Y65913604D02*
G75*
G02X27825000Y64913604I0J-1000000D01*
G01*
X29450000Y89686396D02*
G75*
G02X30450000Y88686396I0J-1000000D01*
G01*
X-35700000Y68894670D02*
X-35700000Y76800000D01*
X33125000Y46621878D02*
X33625000Y46621878D01*
X-25200000Y68894670D02*
X-25200000Y76800000D01*
X23375000Y47121878D02*
X24875000Y47121878D01*
X37800000Y76800000D02*
G75*
G02X38800000Y77800000I1000000J0D01*
G01*
X-12991308Y87678381D02*
X-12819698Y87607389D01*
X-12533985Y87608118D01*
X-12419881Y87679837D01*
X-12362921Y87751411D01*
X-12306142Y87894414D01*
X-12306506Y88037270D01*
X-12364013Y88179981D01*
X-12421338Y88251264D01*
X-12535805Y88322401D01*
X-12764558Y88393247D01*
X-12879025Y88464384D01*
X-12936350Y88535666D01*
X-12993857Y88678377D01*
X-12994221Y88821234D01*
X-12937442Y88964236D01*
X-12880482Y89035810D01*
X-12766379Y89107530D01*
X-12480665Y89108258D01*
X-12309055Y89037267D01*
X-12652639Y89322106D02*
X-12647724Y87393541D01*
X19425000Y57008274D02*
X19425000Y64913604D01*
X40950000Y80781066D02*
G75*
G02X39950000Y79781066I-1000000J0D01*
G01*
X2050000Y79781066D02*
G75*
G02X1050000Y80781066I0J1000000D01*
G01*
X34625000Y46621878D02*
X35125000Y46621878D01*
X27825000Y45121878D02*
G75*
G02X26825000Y44121878I-1000000J0D01*
G01*
X34125000Y47621878D02*
X33125000Y46621878D01*
X-11550000Y88686396D02*
X-11550000Y80781066D01*
X-4200000Y68894670D02*
X-4200000Y76800000D01*
X35500000Y56758274D02*
X35500000Y57008274D01*
X-37800000Y76800000D02*
X-37800000Y68894670D01*
X34625000Y46621878D02*
X35125000Y46621878D01*
X34625000Y44621878D02*
X34625000Y46621878D01*
X18131574Y68116684D02*
X17845861Y68115956D01*
X17840399Y70258806D01*
X18126112Y70259535D01*
X-11550000Y80781066D02*
G75*
G02X-12550000Y79781066I-1000000J0D01*
G01*
X-14700000Y68894670D02*
X-14700000Y76800000D01*
X33423158Y80501914D02*
X33651729Y80502496D01*
X33765832Y80574216D01*
X33822793Y80645790D01*
X33936532Y80860366D01*
X33992947Y81146225D01*
X33991490Y81717652D01*
X33933983Y81860363D01*
X33876659Y81931646D01*
X33762191Y82002783D01*
X33533620Y82002200D01*
X33419517Y81930480D01*
X33362557Y81858906D01*
X33305778Y81715904D01*
X33306688Y81358762D01*
X33364195Y81216051D01*
X33421520Y81144769D01*
X33535987Y81073632D01*
X33764558Y81074214D01*
X33878661Y81145934D01*
X33935622Y81217508D01*
X33992400Y81360510D01*
X-43050000Y88686396D02*
X-43050000Y80781066D01*
X-44050000Y89686396D02*
G75*
G02X-43050000Y88686396I0J-1000000D01*
G01*
X7300000Y67894670D02*
G75*
G02X6300000Y68894670I0J1000000D01*
G01*
X46614887Y80400585D02*
X46607119Y83448575D01*
X47536030Y83450943D01*
X47768628Y83306392D01*
X47885112Y83161546D01*
X48001965Y82871557D01*
X48003075Y82436130D01*
X47887701Y82145549D01*
X47771957Y82000111D01*
X47540099Y81854377D01*
X46611188Y81852009D01*
X17325000Y45121878D02*
G75*
G02X16325000Y44121878I-1000000J0D01*
G01*
X-40950000Y80781066D02*
X-40950000Y88686396D01*
X11550000Y88686396D02*
G75*
G02X12550000Y89686396I1000000J0D01*
G01*
X-417855Y57407840D02*
X-417673Y57336412D01*
X-474452Y57193410D01*
X-531412Y57121836D01*
X35500000Y57008274D02*
X38500000Y57008274D01*
X13369335Y77220843D02*
X13370063Y76935129D01*
X13826477Y77222008D02*
X13827205Y76936295D01*
X-13700000Y67894670D02*
G75*
G02X-14700000Y68894670I0J1000000D01*
G01*
X-25200000Y76800000D02*
G75*
G02X-24200000Y77800000I1000000J0D01*
G01*
X33550000Y79781066D02*
G75*
G02X32550000Y80781066I0J1000000D01*
G01*
X22375000Y46121878D02*
X23375000Y47121878D01*
X23375000Y45121878D02*
X22375000Y46121878D01*
X-4200000Y76800000D02*
G75*
G02X-3200000Y77800000I1000000J0D01*
G01*
X13700000Y77800000D02*
G75*
G02X14700000Y76800000I0J-1000000D01*
G01*
X7662558Y88963217D02*
X7890582Y89178085D01*
X8119699Y88964382D01*
X20425000Y65913604D02*
X26825000Y65913604D01*
X30925000Y44121878D02*
G75*
G02X29925000Y45121878I0J1000000D01*
G01*
X28174433Y68115519D02*
X28460146Y68116248D01*
X28454684Y70259098D01*
X28168971Y70258369D01*
X-24675000Y64913604D02*
X-24675000Y57008274D01*
X-25675000Y65913604D02*
G75*
G02X-24675000Y64913604I0J-1000000D01*
G01*
X37325000Y44121878D02*
X30925000Y44121878D01*
X-45200000Y77800000D02*
X-38800000Y77800000D01*
X23035259Y81359345D02*
X22920792Y81430482D01*
X22863467Y81501765D01*
X22805960Y81644476D01*
X22805778Y81715904D01*
X22862557Y81858906D01*
X22919517Y81930480D01*
X23033620Y82002200D01*
X23262191Y82002783D01*
X23376659Y81931646D01*
X23433983Y81860363D01*
X23491490Y81717652D01*
X23491672Y81646224D01*
X23434894Y81503221D01*
X23377933Y81431647D01*
X23263830Y81359928D01*
X23035259Y81359345D01*
X22921156Y81287625D01*
X22864195Y81216051D01*
X22807417Y81073049D01*
X22808145Y80787336D01*
X22865652Y80644625D01*
X22922976Y80573342D01*
X23037444Y80502205D01*
X23266014Y80502788D01*
X23380118Y80574507D01*
X23437078Y80646081D01*
X23493857Y80789084D01*
X23493129Y81074797D01*
X23435622Y81217508D01*
X23378297Y81288791D01*
X23263830Y81359928D01*
X38000000Y57508274D02*
X35500000Y57508274D01*
X21037008Y58302439D02*
X20013355Y56371252D01*
X7455049Y70116241D02*
X7341491Y69830236D01*
X-33075000Y57008274D02*
X-33075000Y64913604D01*
X-32075000Y56008274D02*
G75*
G02X-33075000Y57008274I0J1000000D01*
G01*
X26669222Y63977745D02*
X26726547Y63906463D01*
X26669586Y63834889D01*
X26612262Y63906171D01*
X26669222Y63977745D01*
X26669586Y63834889D01*
X26437375Y65262873D02*
X26551478Y65334592D01*
X26837191Y65335321D01*
X26951659Y65264184D01*
X27009165Y65121473D01*
X27009529Y64978616D01*
X26952751Y64835614D01*
X26895790Y64764040D01*
X26781687Y64692320D01*
X26724726Y64620746D01*
X26667948Y64477744D01*
X26668130Y64406315D01*
X-34700000Y77800000D02*
X-28300000Y77800000D01*
X-42579274Y69385191D02*
X-41418135Y69388151D01*
X-42809282Y68513745D02*
X-42004254Y71563807D01*
X-41183688Y68517889D01*
X-5232192Y64532321D02*
X-4317909Y64534651D01*
X-4773594Y63962059D02*
X-4776507Y65104913D01*
X-37325000Y54027208D02*
X-30925000Y54027208D01*
X23771447Y46475431D02*
X24478553Y45768324D01*
X23771447Y45768324D02*
X24478553Y46475431D01*
X6825000Y64913604D02*
X6825000Y57008274D01*
X5825000Y65913604D02*
G75*
G02X6825000Y64913604I0J-1000000D01*
G01*
X3200000Y67894670D02*
X-3200000Y67894670D01*
X24875000Y45121878D02*
X23375000Y45121878D01*
X24875000Y47121878D02*
X24875000Y45121878D01*
X38000000Y59008274D02*
X38000000Y57508274D01*
X21344087Y71564695D02*
X21349636Y69387559D01*
X21234632Y68951836D01*
X21003144Y68660959D01*
X20655172Y68514929D01*
X20422944Y68514337D01*
X16800000Y76800000D02*
G75*
G02X17800000Y77800000I1000000J0D01*
G01*
X-15732177Y64526706D02*
X-14817894Y64529037D01*
X-50450000Y79781066D02*
X-44050000Y79781066D01*
X27825000Y53027208D02*
X27825000Y45121878D01*
X34625000Y44621878D02*
X34625000Y46621878D01*
X-6300000Y76800000D02*
X-6300000Y68894670D01*
X-28300000Y77800000D02*
G75*
G02X-27300000Y76800000I0J-1000000D01*
G01*
X44090763Y82002346D02*
X44205049Y82002637D01*
X44319516Y81931500D01*
X44376841Y81860217D01*
X44434347Y81717506D01*
X44492218Y81431939D01*
X44493129Y81074797D01*
X44436714Y80788938D01*
X44379936Y80645936D01*
X44322975Y80574362D01*
X44208872Y80502642D01*
X44094586Y80502351D01*
X43980119Y80573488D01*
X43922794Y80644770D01*
X43865287Y80787481D01*
X43807417Y81073049D01*
X43806506Y81430191D01*
X43862921Y81716050D01*
X43919699Y81859052D01*
X43976660Y81930626D01*
X44090763Y82002346D01*
X1050000Y88686396D02*
G75*
G02X2050000Y89686396I1000000J0D01*
G01*
X-19950000Y80781066D02*
X-19950000Y88686396D01*
X634742Y71420292D02*
X402144Y71564843D01*
X53802Y71563955D01*
X-294169Y71417925D01*
X-525657Y71127048D01*
X-641031Y70836467D01*
X-755665Y70255602D01*
X-754555Y69820175D01*
X-636961Y69239901D01*
X-520107Y68949912D01*
X-287140Y68660219D01*
X61571Y68515965D01*
X293799Y68516557D01*
X641770Y68662587D01*
X757514Y68808025D01*
X754925Y69824022D01*
X290469Y69822838D01*
X2376477Y82003074D02*
X2147906Y82002491D01*
X2033803Y81930772D01*
X1976842Y81859198D01*
X1863103Y81644621D01*
X1806688Y81358762D01*
X1808145Y80787336D01*
X1865652Y80644625D01*
X1922976Y80573342D01*
X2037444Y80502205D01*
X2266014Y80502788D01*
X2380118Y80574507D01*
X2437078Y80646081D01*
X2493857Y80789084D01*
X2492947Y81146225D01*
X2435440Y81288936D01*
X2378115Y81360219D01*
X2263648Y81431356D01*
X2035077Y81430773D01*
X1920974Y81359054D01*
X1864013Y81287480D01*
X1807234Y81144477D01*
X8925000Y64913604D02*
G75*
G02X9925000Y65913604I1000000J0D01*
G01*
X16325000Y65913604D02*
X9925000Y65913604D01*
X30925000Y54027208D02*
X37325000Y54027208D01*
X-23522246Y88606876D02*
X-22665106Y88609061D01*
X-23181029Y89250605D02*
X-23518969Y87321166D01*
X-22777753Y87965915D02*
X-23634893Y87963730D01*
X-23118970Y87322186D02*
X-22781030Y89251625D01*
X20425000Y56008274D02*
G75*
G02X19425000Y57008274I0J1000000D01*
G01*
X46200000Y76800000D02*
X46200000Y68894670D01*
X-1050000Y80781066D02*
G75*
G02X-2050000Y79781066I-1000000J0D01*
G01*
X-29692051Y59675339D02*
X-28058688Y56631493D01*
X-28066456Y59679483D02*
X-29684282Y56627349D01*
X34700000Y77800000D02*
G75*
G02X35700000Y76800000I0J-1000000D01*
G01*
X22815717Y56627349D02*
X22807948Y59675339D01*
X23626294Y57500275D01*
X24433543Y59679483D01*
X24441311Y56631493D01*
X17325000Y53027208D02*
X17325000Y45121878D01*
X-35175000Y64913604D02*
X-35175000Y57008274D01*
X-36175000Y65913604D02*
G75*
G02X-35175000Y64913604I0J-1000000D01*
G01*
X-24910714Y46657592D02*
X-24148809Y46657592D01*
X-24625000Y44990925D02*
X-24625000Y47133782D01*
X-24529761Y47371878D01*
X-24339285Y47490925D01*
X-24148809Y47490925D01*
X-23482142Y46657592D02*
X-23482142Y44990925D01*
X-23482142Y46419497D02*
X-23386904Y46538544D01*
X-23196428Y46657592D01*
X-22910714Y46657592D01*
X-22720238Y46538544D01*
X-22625000Y46300449D01*
X-22625000Y44990925D01*
X38325000Y53027208D02*
X38325000Y45121878D01*
X51450000Y88686396D02*
X51450000Y80781066D01*
X34125000Y47621878D02*
X33125000Y46621878D01*
X35125000Y46621878D02*
X34125000Y47621878D01*
X5249815Y81853637D02*
X5253514Y80402213D01*
X4432948Y83448131D02*
X5249815Y81853637D01*
X6058543Y83452275D01*
X17325000Y57008274D02*
G75*
G02X16325000Y56008274I-1000000J0D01*
G01*
X9925000Y56008274D02*
X16325000Y56008274D01*
X19950000Y88686396D02*
X19950000Y80781066D01*
X-37825000Y44621878D02*
X-37825000Y46033409D01*
X-26773067Y81997447D02*
X-25960270Y81999519D01*
X-25607859Y80403841D02*
X-26768998Y80400881D01*
X-26776766Y83448871D01*
X-25615627Y83451831D01*
X18950000Y89686396D02*
G75*
G02X19950000Y88686396I0J-1000000D01*
G01*
X-40194585Y81858761D02*
X-40137624Y81930335D01*
X-40023521Y82002054D01*
X-39737808Y82002783D01*
X-39623340Y81931646D01*
X-39566016Y81860363D01*
X-39508509Y81717652D01*
X-39508145Y81574795D01*
X-39564741Y81360365D01*
X-40248269Y80501477D01*
X-39505414Y80503370D01*
X16325000Y65913604D02*
G75*
G02X17325000Y64913604I0J-1000000D01*
G01*
X17325000Y57008274D02*
X17325000Y64913604D01*
X-7300000Y67894670D02*
X-13700000Y67894670D01*
X29925000Y64913604D02*
G75*
G02X30925000Y65913604I1000000J0D01*
G01*
X-18950000Y89686396D02*
X-12550000Y89686396D01*
X20425000Y54027208D02*
X26825000Y54027208D01*
X-37800000Y68894670D02*
G75*
G02X-38800000Y67894670I-1000000J0D01*
G01*
X29925000Y45121878D02*
X29925000Y53027208D01*
X10024819Y57479123D02*
X10082144Y57407840D01*
X10025183Y57336266D01*
X9967858Y57407549D01*
X10024819Y57479123D01*
X10025183Y57336266D01*
X2050000Y89686396D02*
X8450000Y89686396D01*
X24200000Y77800000D02*
G75*
G02X25200000Y76800000I0J-1000000D01*
G01*
X42758254Y68517741D02*
X41597115Y68514781D01*
X41589347Y71562771D01*
X43050000Y88686396D02*
G75*
G02X44050000Y89686396I1000000J0D01*
G01*
X35500000Y57758274D02*
X35000000Y57258274D01*
X46200000Y68894670D02*
G75*
G02X45200000Y67894670I-1000000J0D01*
G01*
X37325000Y54027208D02*
G75*
G02X38325000Y53027208I0J-1000000D01*
G01*
X38500000Y59008274D02*
X38000000Y59008274D01*
X38500000Y57008274D02*
X38500000Y59008274D01*
X-3200000Y67894670D02*
G75*
G02X-4200000Y68894670I0J1000000D01*
G01*
X14700000Y76800000D02*
X14700000Y68894670D01*
X-29925000Y45121878D02*
G75*
G02X-30925000Y44121878I-1000000J0D01*
G01*
X-19925000Y53527208D02*
X-21339214Y52112994D01*
X-19925000Y53527208D02*
X-21336532Y53527208D01*
X-19925000Y53527208D02*
X-19925000Y52115676D01*
X-37825000Y44621878D02*
X-36410786Y46036091D01*
X-37825000Y44621878D02*
X-36575000Y44621878D01*
X8450000Y79781066D02*
X2050000Y79781066D01*
X25200000Y68894670D02*
G75*
G02X24200000Y67894670I-1000000J0D01*
G01*
X50124615Y87035817D02*
X50181575Y87107391D01*
X50295315Y87321967D01*
X50352093Y87464970D01*
X50408690Y87679400D01*
X50464922Y88036688D01*
X50464194Y88322401D01*
X50406141Y88679397D01*
X50348452Y88893536D01*
X50290945Y89036247D01*
X50176114Y89250241D01*
X50118789Y89321524D01*
X26825000Y56008274D02*
X20425000Y56008274D01*
X-13700000Y77800000D02*
X-7300000Y77800000D01*
X40081756Y87036982D02*
X40024431Y87108265D01*
X39909600Y87322259D01*
X39852093Y87464970D01*
X39794404Y87679109D01*
X39736351Y88036105D01*
X39735623Y88321818D01*
X39791856Y88679106D01*
X39848452Y88893536D01*
X39905231Y89036539D01*
X40018970Y89251115D01*
X40075930Y89322689D01*
X27825000Y57008274D02*
G75*
G02X26825000Y56008274I-1000000J0D01*
G01*
X12431830Y56627645D02*
X12424062Y59675635D01*
X13825197Y56631197D01*
X13817429Y59679187D01*
X16325000Y54027208D02*
G75*
G02X17325000Y53027208I0J-1000000D01*
G01*
X-46200000Y76800000D02*
G75*
G02X-45200000Y77800000I1000000J0D01*
G01*
X-51450000Y88686396D02*
X-51450000Y80781066D01*
X-37325000Y44121878D02*
G75*
G02X-38325000Y45121878I0J1000000D01*
G01*
X15766698Y64967577D02*
X16682073Y64541337D01*
X15768883Y64110437D01*
X-34125000Y47621878D02*
G75*
G02X-35125000Y47371878I-632149J403594D01*
G01*
X-30450000Y88686396D02*
G75*
G02X-29450000Y89686396I1000000J0D01*
G01*
X51450000Y80781066D02*
G75*
G02X50450000Y79781066I-1000000J0D01*
G01*
X23050000Y79781066D02*
G75*
G02X22050000Y80781066I0J1000000D01*
G01*
X12247907Y82001472D02*
X13047905Y82003511D01*
X12537444Y80502205D01*
X-34125001Y44621878D02*
G75*
G02X-35125000Y47371878I1405112J2067767D01*
G01*
X-24200000Y77800000D02*
X-17800000Y77800000D01*
X-14175000Y64913604D02*
X-14175000Y57008274D01*
X-15175000Y65913604D02*
G75*
G02X-14175000Y64913604I0J-1000000D01*
G01*
X50450000Y89686396D02*
G75*
G02X51450000Y88686396I0J-1000000D01*
G01*
X33625000Y46621878D02*
X33625000Y44621878D01*
X12550000Y89686396D02*
X18950000Y89686396D01*
X-23050000Y89686396D02*
G75*
G02X-22050000Y88686396I0J-1000000D01*
G01*
X-11075000Y65913604D02*
X-4675000Y65913604D01*
X-12075000Y64913604D02*
G75*
G02X-11075000Y65913604I1000000J0D01*
G01*
X-27825000Y45121878D02*
X-27825000Y53027208D01*
X-26825000Y44121878D02*
G75*
G02X-27825000Y45121878I0J1000000D01*
G01*
X-9450000Y88686396D02*
G75*
G02X-8450000Y89686396I1000000J0D01*
G01*
X-12550000Y89686396D02*
G75*
G02X-11550000Y88686396I0J-1000000D01*
G01*
X-44050000Y89686396D02*
G75*
G02X-43050000Y88686396I0J-1000000D01*
G01*
X23375000Y45121878D02*
X22375000Y46121878D01*
X-19425000Y53027208D02*
X-19425000Y45121878D01*
X-20425000Y54027208D02*
G75*
G02X-19425000Y53027208I0J-1000000D01*
G01*
X-2050000Y79781066D02*
X-8450000Y79781066D01*
X-51450000Y88686396D02*
G75*
G02X-50450000Y89686396I1000000J0D01*
G01*
X9806830Y68514041D02*
X9799062Y71562031D01*
X9802761Y70110607D02*
X11196128Y70114159D01*
X11200197Y68517593D02*
X11192429Y71565583D01*
X-9450000Y80781066D02*
X-9450000Y88686396D01*
X15049062Y83448427D02*
X15055351Y80981007D01*
X15172205Y80691018D01*
X15288688Y80546171D01*
X15521286Y80401621D01*
X15985742Y80402805D01*
X16217600Y80548539D01*
X16333344Y80693977D01*
X16448718Y80984558D01*
X16442429Y83451979D01*
X2798615Y58226431D02*
X3147327Y58082176D01*
X3263811Y57937330D01*
X3380665Y57647341D01*
X3381775Y57211914D01*
X3266401Y56921333D01*
X3150657Y56775895D01*
X2918799Y56630161D01*
X1989887Y56627793D01*
X1982119Y59675783D01*
X2794916Y59677855D01*
X3027514Y59533304D01*
X3143998Y59388458D01*
X3260851Y59098469D01*
X3261591Y58808184D01*
X3146217Y58517604D01*
X3030473Y58372165D01*
X2798615Y58226431D01*
X1985818Y58224359D01*
X-16325000Y54027208D02*
X16325000Y54027208D01*
X44050000Y79781066D02*
G75*
G02X43050000Y80781066I0J1000000D01*
G01*
X-26825000Y54027208D02*
X-20425000Y54027208D01*
X-27825000Y53027208D02*
G75*
G02X-26825000Y54027208I1000000J0D01*
G01*
X4200000Y68894670D02*
G75*
G02X3200000Y67894670I-1000000J0D01*
G01*
X9450000Y88686396D02*
X9450000Y80781066D01*
X29450000Y79781066D02*
X23050000Y79781066D01*
X26825000Y54027208D02*
G75*
G02X27825000Y53027208I0J-1000000D01*
G01*
X29925000Y53027208D02*
G75*
G02X30925000Y54027208I1000000J0D01*
G01*
X-33392949Y88322765D02*
X-33450273Y88394048D01*
X-33564741Y88465185D01*
X-33679026Y88464894D01*
X-33793129Y88393174D01*
X-33850090Y88321600D01*
X-33906868Y88178598D01*
X-33906504Y88035741D01*
X-33848998Y87893030D01*
X-33791673Y87821747D01*
X-33677205Y87750610D01*
X-33562920Y87750901D01*
X-33448817Y87822621D01*
X-33391856Y87894195D01*
X-33393313Y88465622D02*
X-33391856Y87894195D01*
X-33334531Y87822912D01*
X-33277389Y87823058D01*
X-33163285Y87894778D01*
X-33106507Y88037780D01*
X-33107417Y88394922D01*
X-33222249Y88608915D01*
X-33394041Y88751335D01*
X-33622794Y88822181D01*
X-33851182Y88750170D01*
X-34022246Y88606876D01*
X-34135985Y88392300D01*
X-34192400Y88106441D01*
X-34134529Y87820873D01*
X-34019697Y87606880D01*
X-33847905Y87464460D01*
X-33619152Y87393614D01*
X-33390764Y87465625D01*
X-33219700Y87608919D01*
X9925000Y56008274D02*
G75*
G02X8925000Y57008274I0J1000000D01*
G01*
X8925000Y64913604D02*
X8925000Y57008274D01*
X8450000Y89686396D02*
G75*
G02X9450000Y88686396I0J-1000000D01*
G01*
X-33550000Y79781066D02*
X-39950000Y79781066D01*
X-12550000Y79781066D02*
X-18950000Y79781066D01*
X-1050000Y88686396D02*
X-1050000Y80781066D01*
X12550000Y79781066D02*
G75*
G02X11550000Y80781066I0J1000000D01*
G01*
X32550000Y88686396D02*
G75*
G02X33550000Y89686396I1000000J0D01*
G01*
X-39950000Y89686396D02*
X-33550000Y89686396D01*
X35000000Y57258274D02*
X35500000Y56758274D01*
X-8450000Y79781066D02*
G75*
G02X-9450000Y80781066I0J1000000D01*
G01*
X6300000Y76800000D02*
G75*
G02X7300000Y77800000I1000000J0D01*
G01*
X-46200000Y68894670D02*
X-46200000Y76800000D01*
X44050000Y89686396D02*
X50450000Y89686396D01*
X-43050000Y80781066D02*
X-43050000Y88686396D01*
X-8692051Y59675339D02*
X-7871485Y56629421D01*
X-7066456Y59679483D01*
X-17325000Y53027208D02*
G75*
G02X-16325000Y54027208I1000000J0D01*
G01*
X-14700000Y76800000D02*
G75*
G02X-13700000Y77800000I1000000J0D01*
G01*
X-30925000Y44121878D02*
X-37325000Y44121878D01*
X-50450000Y79781066D02*
G75*
G02X-51450000Y80781066I0J1000000D01*
G01*
X22050000Y88686396D02*
G75*
G02X23050000Y89686396I1000000J0D01*
G01*
X-38325000Y45121878D02*
X-38325000Y53027208D01*
X-21635112Y68514189D02*
X-21642880Y71562179D01*
X-21062311Y71563659D01*
X-20713599Y71419404D01*
X-20480631Y71129712D01*
X-20363778Y70839723D01*
X-20246184Y70259449D01*
X-20245074Y69824022D01*
X-20359708Y69243157D01*
X-20475082Y68952576D01*
X-20706570Y68661699D01*
X-21054542Y68515669D01*
X-21635112Y68514189D01*
X30450000Y88686396D02*
X30450000Y80781066D01*
X9450000Y80781066D02*
G75*
G02X8450000Y79781066I-1000000J0D01*
G01*
X-2605411Y87606661D02*
X-1694952Y89108987D01*
X-2437807Y89107093D02*
X-2323339Y89035956D01*
X-2265832Y88893245D01*
X-2322611Y88750243D01*
X-2436714Y88678523D01*
X-2551182Y88749660D01*
X-2608688Y88892371D01*
X-2551910Y89035374D01*
X-2437807Y89107093D01*
X-1748453Y87680274D02*
X-1691675Y87823276D01*
X-1749182Y87965987D01*
X-1863649Y88037125D01*
X-1977752Y87965405D01*
X-2034531Y87822403D01*
X-1977024Y87679692D01*
X-1862557Y87608555D01*
X-1748453Y87680274D01*
X19425000Y64913604D02*
G75*
G02X20425000Y65913604I1000000J0D01*
G01*
X26825000Y44121878D02*
X20425000Y44121878D01*
X-6300000Y68894670D02*
G75*
G02X-7300000Y67894670I-1000000J0D01*
G01*
X33625000Y44621878D02*
X34625000Y44621878D01*
X-17800000Y67894670D02*
X-24200000Y67894670D01*
X-8066380Y82003220D02*
X-8637807Y82001763D01*
X-8693129Y81287334D01*
X-8636168Y81358908D01*
X-8522065Y81430628D01*
X-8236351Y81431356D01*
X-8121884Y81360219D01*
X-8064559Y81288936D01*
X-8007052Y81146225D01*
X-8006142Y80789084D01*
X-8062921Y80646081D01*
X-8119881Y80574507D01*
X-8233985Y80502788D01*
X-8519698Y80502059D01*
X-8634165Y80573196D01*
X-8691490Y80644479D01*
X14700000Y68894670D02*
G75*
G02X13700000Y67894670I-1000000J0D01*
G01*
X28300000Y77800000D02*
X34700000Y77800000D01*
X-43050000Y80781066D02*
G75*
G02X-44050000Y79781066I-1000000J0D01*
G01*
X-32193538Y68659184D02*
X-31844827Y68514929D01*
X-31264257Y68516409D01*
X-31032399Y68662143D01*
X-30916655Y68807581D01*
X-30801281Y69098162D01*
X-30802021Y69388447D01*
X-30918875Y69678436D01*
X-31035359Y69823282D01*
X-31267957Y69967833D01*
X-31732782Y70111791D01*
X-31965380Y70256342D01*
X-32081864Y70401188D01*
X-32198718Y70691177D01*
X-32199458Y70981462D01*
X-32084083Y71272042D01*
X-31968340Y71417481D01*
X-31736482Y71563215D01*
X-31155912Y71564695D01*
X-30807200Y71420440D01*
X43575000Y64913604D02*
X43575000Y57008274D01*
X26253514Y80402213D02*
X26245745Y83450203D01*
X16325000Y44121878D02*
X-16325000Y44121878D01*
X-33550000Y89686396D02*
G75*
G02X-32550000Y88686396I0J-1000000D01*
G01*
X50450000Y79781066D02*
X44050000Y79781066D01*
X-50005414Y80503370D02*
X-50691126Y80501622D01*
X-50348270Y80502496D02*
X-50352093Y82002491D01*
X-50465832Y81787915D01*
X-50579754Y81644767D01*
X-50693857Y81573047D01*
X-28300000Y67894670D02*
X-34700000Y67894670D01*
X-51450000Y80781066D02*
X-51450000Y88686396D01*
X24875000Y47121878D02*
X24875000Y45121878D01*
X45200000Y67894670D02*
X38800000Y67894670D01*
X-35700000Y76800000D02*
G75*
G02X-34700000Y77800000I1000000J0D01*
G01*
X38800000Y77800000D02*
X45200000Y77800000D01*
X-30450000Y80781066D02*
X-30450000Y88686396D01*
X-575000Y56008274D02*
G75*
G02X-1575000Y57008274I0J1000000D01*
G01*
X-22050000Y88686396D02*
X-22050000Y80781066D01*
X5825000Y56008274D02*
X-575000Y56008274D01*
X6825000Y57008274D02*
G75*
G02X5825000Y56008274I-1000000J0D01*
G01*
X-27300000Y68894670D02*
G75*
G02X-28300000Y67894670I-1000000J0D01*
G01*
X-14991745Y80404137D02*
X-15808241Y81853489D01*
X-16385112Y80400585D02*
X-16392880Y83448575D01*
X-15463969Y83450943D01*
X-15231371Y83306392D01*
X-15114887Y83161546D01*
X-14998034Y82871557D01*
X-14996924Y82436130D01*
X-15112298Y82145549D01*
X-15228042Y82000111D01*
X-15459900Y81854377D01*
X-16388811Y81852009D01*
X-38800000Y67894670D02*
X-45200000Y67894670D01*
X35500000Y57008274D02*
X38500000Y57008274D01*
X-38800000Y77800000D02*
G75*
G02X-37800000Y76800000I0J-1000000D01*
G01*
X27300000Y76800000D02*
G75*
G02X28300000Y77800000I1000000J0D01*
G01*
X30864887Y68514189D02*
X30857119Y71562179D01*
X32258254Y68517741D02*
X31208790Y70256786D01*
X32250486Y71565731D02*
X30861558Y69820471D01*
X-16325000Y44121878D02*
G75*
G02X-17325000Y45121878I0J1000000D01*
G01*
X7300000Y77800000D02*
X13700000Y77800000D01*
X-2050000Y89686396D02*
G75*
G02X-1050000Y88686396I0J-1000000D01*
G01*
X3100888Y76051482D02*
X3158213Y75980199D01*
X3101252Y75908625D01*
X3043927Y75979908D01*
X3100888Y76051482D01*
X3101252Y75908625D01*
X3098885Y76837194D02*
X3156210Y76765911D01*
X3099249Y76694337D01*
X3041925Y76765620D01*
X3098885Y76837194D01*
X3099249Y76694337D01*
X-50450000Y79781066D02*
G75*
G02X-51450000Y80781066I0J1000000D01*
G01*
X33550000Y89686396D02*
X39950000Y89686396D01*
X17800000Y67894670D02*
G75*
G02X16800000Y68894670I0J1000000D01*
G01*
X42575000Y65913604D02*
G75*
G02X43575000Y64913604I0J-1000000D01*
G01*
D11*
X3112108Y3792405D02*
X3689977Y4212251D01*
X3248442Y3361714D02*
X2771273Y4869132D01*
X4057459Y3949499D01*
X4982050Y4621254D02*
X4100372Y5834779D01*
X4940065Y4679041D02*
X4866476Y4537284D01*
X4635328Y4369346D01*
X4477770Y4343163D01*
X4377998Y4358966D01*
X4236242Y4432555D01*
X3984334Y4779276D01*
X3958152Y4936835D01*
X3973954Y5036607D01*
X4047543Y5178363D01*
X4278691Y5346301D01*
X4436249Y5372484D01*
X6080001Y5418962D02*
X5198324Y6632488D01*
X6038017Y5476749D02*
X5964428Y5334993D01*
X5733280Y5167054D01*
X5575721Y5140872D01*
X5475950Y5156674D01*
X5334194Y5230263D01*
X5082286Y5576985D01*
X5056103Y5734544D01*
X5071905Y5834315D01*
X5145495Y5976071D01*
X5376642Y6144010D01*
X5534201Y6170192D01*
X6831232Y5964763D02*
X6673673Y5938581D01*
X6573901Y5954383D01*
X6432145Y6027972D01*
X6180237Y6374694D01*
X6154055Y6532252D01*
X6169857Y6632024D01*
X6243446Y6773780D01*
X6416807Y6899734D01*
X6574366Y6925916D01*
X6674137Y6910114D01*
X6815893Y6836525D01*
X7067801Y6489803D01*
X7093984Y6332245D01*
X7078182Y6232473D01*
X7004592Y6090717D01*
X6831232Y5964763D01*
X7168037Y7445534D02*
X7755822Y6636517D01*
X7252006Y7329961D02*
X7267809Y7429732D01*
X7341398Y7571488D01*
X7514759Y7697442D01*
X7672317Y7723625D01*
X7814073Y7650036D01*
X8275905Y7014379D01*
X-7775726Y6906079D02*
X-7647576Y6720073D01*
X-7362349Y6505139D01*
X-7205272Y6476211D01*
X-7105240Y6490269D01*
X-6962221Y6561373D01*
X-6876247Y6675464D01*
X-6847319Y6832542D01*
X-6861377Y6932574D01*
X-6932481Y7075593D01*
X-7117676Y7304585D01*
X-7188780Y7447604D01*
X-7202839Y7547636D01*
X-7173911Y7704714D01*
X-7087937Y7818805D01*
X-6944918Y7889909D01*
X-6844886Y7903967D01*
X-6687808Y7875039D01*
X-6402581Y7660105D01*
X-6274432Y7474100D01*
X-6620759Y5946311D02*
X-5718037Y7144264D01*
X-6107351Y5559430D02*
X-5634496Y6186929D01*
X-5605568Y6344006D01*
X-5676672Y6487025D01*
X-5847808Y6615986D01*
X-6004886Y6644914D01*
X-6104918Y6630855D01*
X-5536897Y5129562D02*
X-4935082Y5928197D01*
X-4634174Y6327515D02*
X-4734206Y6313456D01*
X-4720148Y6213424D01*
X-4620116Y6227483D01*
X-4634174Y6327515D01*
X-4720148Y6213424D01*
X-4535764Y5627290D02*
X-4079401Y5283395D01*
X-4063720Y5897647D02*
X-4837482Y4870830D01*
X-4866411Y4713752D01*
X-4795307Y4570733D01*
X-4681216Y4484760D01*
X-3851219Y5111448D02*
X-3394856Y4767554D01*
X-3379175Y5381806D02*
X-4152938Y4354989D01*
X-4181866Y4197911D01*
X-4110762Y4054892D01*
X-3996671Y3968918D01*
X-3109629Y4552620D02*
X-3426217Y3539051D01*
X-2539175Y4122752D02*
X-3426217Y3539051D01*
X-3755242Y3339797D01*
X-3855274Y3325739D01*
X-4012352Y3354667D01*
D12*
X-3300000Y13600000D02*
G75*
G03X-3300000Y13600000I-300000J0D01*
G01*
D11*
X4914285Y9092857D02*
X5128571Y9021428D01*
X5485714Y9021428D01*
X5628571Y9092857D01*
X5700000Y9164285D01*
X5771428Y9307142D01*
X5771428Y9450000D01*
X5700000Y9592857D01*
X5628571Y9664285D01*
X5485714Y9735714D01*
X5200000Y9807142D01*
X5057142Y9878571D01*
X4985714Y9950000D01*
X4914285Y10092857D01*
X4914285Y10235714D01*
X4985714Y10378571D01*
X5057142Y10450000D01*
X5200000Y10521428D01*
X5557142Y10521428D01*
X5771428Y10450000D01*
X7271428Y9164285D02*
X7200000Y9092857D01*
X6985714Y9021428D01*
X6842857Y9021428D01*
X6628571Y9092857D01*
X6485714Y9235714D01*
X6414285Y9378571D01*
X6342857Y9664285D01*
X6342857Y9878571D01*
X6414285Y10164285D01*
X6485714Y10307142D01*
X6628571Y10450000D01*
X6842857Y10521428D01*
X6985714Y10521428D01*
X7200000Y10450000D01*
X7271428Y10378571D01*
X8628571Y9021428D02*
X7914285Y9021428D01*
X7914285Y10521428D01*
X4878571Y11592857D02*
X5092857Y11521428D01*
X5450000Y11521428D01*
X5592857Y11592857D01*
X5664285Y11664285D01*
X5735714Y11807142D01*
X5735714Y11950000D01*
X5664285Y12092857D01*
X5592857Y12164285D01*
X5450000Y12235714D01*
X5164285Y12307142D01*
X5021428Y12378571D01*
X4950000Y12450000D01*
X4878571Y12592857D01*
X4878571Y12735714D01*
X4950000Y12878571D01*
X5021428Y12950000D01*
X5164285Y13021428D01*
X5521428Y13021428D01*
X5735714Y12950000D01*
X6378571Y11521428D02*
X6378571Y13021428D01*
X6735714Y13021428D01*
X6950000Y12950000D01*
X7092857Y12807142D01*
X7164285Y12664285D01*
X7235714Y12378571D01*
X7235714Y12164285D01*
X7164285Y11878571D01*
X7092857Y11735714D01*
X6950000Y11592857D01*
X6735714Y11521428D01*
X6378571Y11521428D01*
X7807142Y11950000D02*
X8521428Y11950000D01*
X7664285Y11521428D02*
X8164285Y13021428D01*
X8664285Y11521428D01*
X-7842857Y10350000D02*
X-7985714Y10421428D01*
X-8200000Y10421428D01*
X-8414285Y10350000D01*
X-8557142Y10207142D01*
X-8628571Y10064285D01*
X-8700000Y9778571D01*
X-8700000Y9564285D01*
X-8628571Y9278571D01*
X-8557142Y9135714D01*
X-8414285Y8992857D01*
X-8200000Y8921428D01*
X-8057142Y8921428D01*
X-7842857Y8992857D01*
X-7771428Y9064285D01*
X-7771428Y9564285D01*
X-8057142Y9564285D01*
X-7128571Y8921428D02*
X-7128571Y10421428D01*
X-6271428Y8921428D01*
X-6271428Y10421428D01*
X-5557142Y8921428D02*
X-5557142Y10421428D01*
X-5200000Y10421428D01*
X-4985714Y10350000D01*
X-4842857Y10207142D01*
X-4771428Y10064285D01*
X-4700000Y9778571D01*
X-4700000Y9564285D01*
X-4771428Y9278571D01*
X-4842857Y9135714D01*
X-4985714Y8992857D01*
X-5200000Y8921428D01*
X-5557142Y8921428D01*
X-8257142Y13021428D02*
X-7328571Y13021428D01*
X-7828571Y12450000D01*
X-7614285Y12450000D01*
X-7471428Y12378571D01*
X-7400000Y12307142D01*
X-7328571Y12164285D01*
X-7328571Y11807142D01*
X-7400000Y11664285D01*
X-7471428Y11592857D01*
X-7614285Y11521428D01*
X-8042857Y11521428D01*
X-8185714Y11592857D01*
X-8257142Y11664285D01*
X-6900000Y13021428D02*
X-6400000Y11521428D01*
X-5900000Y13021428D01*
X-5542857Y13021428D02*
X-4614285Y13021428D01*
X-5114285Y12450000D01*
X-4900000Y12450000D01*
X-4757142Y12378571D01*
X-4685714Y12307142D01*
X-4614285Y12164285D01*
X-4614285Y11807142D01*
X-4685714Y11664285D01*
X-4757142Y11592857D01*
X-4900000Y11521428D01*
X-5328571Y11521428D01*
X-5471428Y11592857D01*
X-5542857Y11664285D01*
X49678571Y100278571D02*
X50035714Y100159523D01*
X50154761Y100040476D01*
X50273809Y99802380D01*
X50273809Y99445238D01*
X50154761Y99207142D01*
X50035714Y99088095D01*
X49797619Y98969047D01*
X48845238Y98969047D01*
X48845238Y101469047D01*
X49678571Y101469047D01*
X49916666Y101350000D01*
X50035714Y101230952D01*
X50154761Y100992857D01*
X50154761Y100754761D01*
X50035714Y100516666D01*
X49916666Y100397619D01*
X49678571Y100278571D01*
X48845238Y100278571D01*
X48904761Y120683333D02*
X50095238Y120683333D01*
X48666666Y119969047D02*
X49500000Y122469047D01*
X50333333Y119969047D01*
X-48528571Y120692857D02*
X-48314285Y120621428D01*
X-47957142Y120621428D01*
X-47814285Y120692857D01*
X-47742857Y120764285D01*
X-47671428Y120907142D01*
X-47671428Y121050000D01*
X-47742857Y121192857D01*
X-47814285Y121264285D01*
X-47957142Y121335714D01*
X-48242857Y121407142D01*
X-48385714Y121478571D01*
X-48457142Y121550000D01*
X-48528571Y121692857D01*
X-48528571Y121835714D01*
X-48457142Y121978571D01*
X-48385714Y122050000D01*
X-48242857Y122121428D01*
X-47885714Y122121428D01*
X-47671428Y122050000D01*
X-47242857Y121621428D02*
X-46671428Y121621428D01*
X-47028571Y122121428D02*
X-47028571Y120835714D01*
X-46957142Y120692857D01*
X-46814285Y120621428D01*
X-46671428Y120621428D01*
X-45528571Y120621428D02*
X-45528571Y121407142D01*
X-45600000Y121550000D01*
X-45742857Y121621428D01*
X-46028571Y121621428D01*
X-46171428Y121550000D01*
X-45528571Y120692857D02*
X-45671428Y120621428D01*
X-46028571Y120621428D01*
X-46171428Y120692857D01*
X-46242857Y120835714D01*
X-46242857Y120978571D01*
X-46171428Y121121428D01*
X-46028571Y121192857D01*
X-45671428Y121192857D01*
X-45528571Y121264285D01*
X-44814285Y120621428D02*
X-44814285Y121621428D01*
X-44814285Y121335714D02*
X-44742857Y121478571D01*
X-44671428Y121550000D01*
X-44528571Y121621428D01*
X-44385714Y121621428D01*
X-44100000Y121621428D02*
X-43528571Y121621428D01*
X-43885714Y122121428D02*
X-43885714Y120835714D01*
X-43814285Y120692857D01*
X-43671428Y120621428D01*
X-43528571Y120621428D01*
D13*
X-37585714Y164471428D02*
X-40252380Y164471428D01*
X-40252380Y160280952D02*
X-40252380Y168280952D01*
X-36442857Y168280952D01*
X-28823809Y160280952D02*
X-31490476Y164090476D01*
X-33395238Y160280952D02*
X-33395238Y168280952D01*
X-30347619Y168280952D01*
X-29585714Y167900000D01*
X-29204761Y167519047D01*
X-28823809Y166757142D01*
X-28823809Y165614285D01*
X-29204761Y164852380D01*
X-29585714Y164471428D01*
X-30347619Y164090476D01*
X-33395238Y164090476D01*
X-23871428Y168280952D02*
X-22347619Y168280952D01*
X-21585714Y167900000D01*
X-20823809Y167138095D01*
X-20442857Y165614285D01*
X-20442857Y162947619D01*
X-20823809Y161423809D01*
X-21585714Y160661904D01*
X-22347619Y160280952D01*
X-23871428Y160280952D01*
X-24633333Y160661904D01*
X-25395238Y161423809D01*
X-25776190Y162947619D01*
X-25776190Y165614285D01*
X-25395238Y167138095D01*
X-24633333Y167900000D01*
X-23871428Y168280952D01*
X-17014285Y160280952D02*
X-17014285Y168280952D01*
X-12442857Y160280952D01*
X-12442857Y168280952D01*
X-9776190Y168280952D02*
X-5204761Y168280952D01*
X-7490476Y160280952D02*
X-7490476Y168280952D01*
D14*
G04 #@! TO.C,J6*
X2600000Y13660000D02*
X0Y13660000D01*
X2600000Y13660000D02*
X2600000Y8460000D01*
X2600000Y8460000D02*
X-2600000Y8460000D01*
X-2600000Y11060000D02*
X-2600000Y8460000D01*
X0Y11060000D02*
X-2600000Y11060000D01*
X0Y13660000D02*
X0Y11060000D01*
X-2600000Y13660000D02*
X-2600000Y12330000D01*
X-1270000Y13660000D02*
X-2600000Y13660000D01*
D10*
G04 #@! TO.C,U4*
X1151Y95450000D02*
X1151Y124550000D01*
X-33423849Y110000000D02*
X33426151Y110000000D01*
X-36423849Y91650000D02*
X42576151Y91650000D01*
X42576151Y91650000D02*
X42576151Y128350000D01*
X42576151Y128350000D02*
X-36423849Y128350000D01*
X-36423849Y128350000D02*
X-36423849Y91650000D01*
X-33423849Y95450000D02*
X33426151Y95450000D01*
X33426151Y95450000D02*
X33426151Y124550000D01*
X33426151Y124550000D02*
X-33423849Y124550000D01*
X-33423849Y124550000D02*
X-33423849Y95450000D01*
D15*
G04 #@! TO.C,S6*
X-46900000Y109100000D02*
X-47800000Y110000000D01*
X-43200000Y110000000D02*
X-45500000Y113500000D01*
X-44100000Y109100000D02*
X-43200000Y110000000D01*
X-47800000Y110000000D02*
X-45500000Y113500000D01*
X-44100000Y99900000D02*
X-43200000Y99000000D01*
X-47800000Y99000000D02*
X-45500000Y95500000D01*
X-46900000Y99900000D02*
X-47800000Y99000000D01*
X-43200000Y99000000D02*
X-45500000Y95500000D01*
X-40900000Y105900000D02*
X-40000000Y106800000D01*
X-40000000Y102200000D02*
X-36500000Y104500000D01*
X-40900000Y103100000D02*
X-40000000Y102200000D01*
X-40000000Y106800000D02*
X-36500000Y104500000D01*
X-51000000Y102200000D02*
X-54500000Y104500000D01*
X-50100000Y103100000D02*
X-51000000Y102200000D01*
X-51000000Y106800000D02*
X-54500000Y104500000D01*
X-50100000Y105900000D02*
X-51000000Y106800000D01*
D16*
G04 #@! TO.C,S1*
X-48600000Y117000000D02*
X-48600000Y117500000D01*
X-48600000Y117000000D02*
X-48600000Y116500000D01*
X-42400000Y117000000D02*
X-42400000Y117500000D01*
X-42400000Y117000000D02*
X-42400000Y116500000D01*
X-45500000Y113900000D02*
X-46000000Y113900000D01*
X-45500000Y113900000D02*
X-45000000Y113900000D01*
X-45500000Y120100000D02*
X-45000000Y120100000D01*
X-45500000Y120100000D02*
X-46000000Y120100000D01*
X-48900000Y120000000D02*
X-50100000Y120000000D01*
X-48600000Y120000000D02*
X-48900000Y120000000D01*
X-48600000Y120100000D02*
X-48600000Y120000000D01*
X-48100000Y120100000D02*
X-48600000Y120100000D01*
G04 #@! TO.C,S2*
X49500000Y112900000D02*
X49000000Y112900000D01*
X49500000Y112900000D02*
X50000000Y112900000D01*
X49500000Y119100000D02*
X49000000Y119100000D01*
X49500000Y119100000D02*
X50000000Y119100000D01*
X52600000Y116000000D02*
X52600000Y115500000D01*
X52600000Y116000000D02*
X52600000Y116500000D01*
X46400000Y116000000D02*
X46400000Y116500000D01*
X46400000Y116000000D02*
X46400000Y115500000D01*
X46500000Y112600000D02*
X46500000Y111400000D01*
X46500000Y112900000D02*
X46500000Y112600000D01*
X46400000Y112900000D02*
X46500000Y112900000D01*
X46400000Y113400000D02*
X46400000Y112900000D01*
G04 #@! TO.C,S3*
X49500000Y101900000D02*
X49000000Y101900000D01*
X49500000Y101900000D02*
X50000000Y101900000D01*
X49500000Y108100000D02*
X49000000Y108100000D01*
X49500000Y108100000D02*
X50000000Y108100000D01*
X52600000Y105000000D02*
X52600000Y104500000D01*
X52600000Y105000000D02*
X52600000Y105500000D01*
X46400000Y105000000D02*
X46400000Y105500000D01*
X46400000Y105000000D02*
X46400000Y104500000D01*
X46500000Y101600000D02*
X46500000Y100400000D01*
X46500000Y101900000D02*
X46500000Y101600000D01*
X46400000Y101900000D02*
X46500000Y101900000D01*
X46400000Y102400000D02*
X46400000Y101900000D01*
D14*
G04 #@! TO.C,J7*
X18890000Y126930000D02*
X18890000Y124270000D01*
X24030000Y126930000D02*
X18890000Y126930000D01*
X24030000Y124270000D02*
X18890000Y124270000D01*
X24030000Y126930000D02*
X24030000Y124270000D01*
X25300000Y126930000D02*
X26630000Y126930000D01*
X26630000Y126930000D02*
X26630000Y125600000D01*
D17*
G04 #@! TO.C,Ref\002A\002A*
G36*
X-20123864Y39344055D02*
X-19585996Y39123702D01*
X-18980293Y38930965D01*
X-18301948Y38764462D01*
X-17708541Y38650049D01*
X-17146500Y38553004D01*
X-17097505Y38307046D01*
X-17032173Y37892724D01*
X-16987264Y37422408D01*
X-16963806Y36922517D01*
X-16962823Y36419473D01*
X-16985343Y35939694D01*
X-16999320Y35778569D01*
X-17120011Y34946617D01*
X-17313320Y34157664D01*
X-17579061Y33412102D01*
X-17917048Y32710323D01*
X-18327095Y32052722D01*
X-18809016Y31439689D01*
X-19298703Y30931440D01*
X-19467959Y30777665D01*
X-19656859Y30616552D01*
X-19852770Y30457710D01*
X-20043055Y30310750D01*
X-20215080Y30185283D01*
X-20356210Y30090919D01*
X-20453811Y30037268D01*
X-20485666Y30028597D01*
X-20537251Y30052854D01*
X-20640673Y30117639D01*
X-20780094Y30212602D01*
X-20914167Y30308649D01*
X-21230939Y30561149D01*
X-21566415Y30864875D01*
X-21901659Y31200153D01*
X-22217734Y31547306D01*
X-22495702Y31886660D01*
X-22681918Y32145310D01*
X-23087809Y32825600D01*
X-23417087Y33533206D01*
X-23671898Y34274099D01*
X-23854387Y35054250D01*
X-23943822Y35657666D01*
X-23962547Y35883519D01*
X-23973274Y36152796D01*
X-23976626Y36453204D01*
X-23973305Y36765277D01*
X-22838982Y36765277D01*
X-22833835Y36482452D01*
X-22822794Y36196989D01*
X-22806283Y35929310D01*
X-22784725Y35699837D01*
X-22778632Y35651094D01*
X-22646741Y34917493D01*
X-22452179Y34237850D01*
X-22192062Y33606177D01*
X-21863507Y33016483D01*
X-21463629Y32462778D01*
X-20993398Y31942916D01*
X-20828935Y31781037D01*
X-20683929Y31642752D01*
X-20569416Y31538241D01*
X-20496432Y31477680D01*
X-20476953Y31466666D01*
X-20433698Y31494911D01*
X-20343333Y31572201D01*
X-20218272Y31687370D01*
X-20070930Y31829254D01*
X-20040781Y31858963D01*
X-19562859Y32379222D01*
X-19159617Y32923522D01*
X-18826636Y33500475D01*
X-18559498Y34118696D01*
X-18353786Y34786796D01*
X-18223718Y35401540D01*
X-18180214Y35701412D01*
X-18146017Y36033613D01*
X-18122281Y36375612D01*
X-18110163Y36704877D01*
X-18110817Y36998879D01*
X-18125398Y37235085D01*
X-18128408Y37260618D01*
X-18162500Y37530070D01*
X-18882167Y37710730D01*
X-19157027Y37782953D01*
X-19440180Y37862924D01*
X-19705913Y37943014D01*
X-19928514Y38015593D01*
X-20020179Y38048394D01*
X-20203870Y38112230D01*
X-20365066Y38158934D01*
X-20482980Y38182978D01*
X-20528179Y38183480D01*
X-20600135Y38162019D01*
X-20734354Y38118607D01*
X-20913128Y38059086D01*
X-21118744Y37989299D01*
X-21169311Y37971950D01*
X-21437320Y37885250D01*
X-21740519Y37795769D01*
X-22038614Y37714995D01*
X-22255512Y37662294D01*
X-22790236Y37542248D01*
X-22814819Y37393707D01*
X-22829898Y37241327D01*
X-22837812Y37025043D01*
X-22838982Y36765277D01*
X-23973305Y36765277D01*
X-23973228Y36772449D01*
X-23963703Y37098236D01*
X-23948674Y37418272D01*
X-23928767Y37720264D01*
X-23904604Y37991917D01*
X-23876809Y38220938D01*
X-23846006Y38395032D01*
X-23812820Y38501906D01*
X-23798389Y38523722D01*
X-23750605Y38538913D01*
X-23636780Y38564207D01*
X-23474414Y38595968D01*
X-23298185Y38627607D01*
X-22842740Y38715908D01*
X-22380338Y38823367D01*
X-21928149Y38944939D01*
X-21503340Y39075582D01*
X-21123080Y39210253D01*
X-20804536Y39343907D01*
X-20719320Y39385194D01*
X-20476561Y39507738D01*
X-20123864Y39344055D01*
X-20123864Y39344055D01*
G37*
X-20123864Y39344055D02*
X-19585996Y39123702D01*
X-18980293Y38930965D01*
X-18301948Y38764462D01*
X-17708541Y38650049D01*
X-17146500Y38553004D01*
X-17097505Y38307046D01*
X-17032173Y37892724D01*
X-16987264Y37422408D01*
X-16963806Y36922517D01*
X-16962823Y36419473D01*
X-16985343Y35939694D01*
X-16999320Y35778569D01*
X-17120011Y34946617D01*
X-17313320Y34157664D01*
X-17579061Y33412102D01*
X-17917048Y32710323D01*
X-18327095Y32052722D01*
X-18809016Y31439689D01*
X-19298703Y30931440D01*
X-19467959Y30777665D01*
X-19656859Y30616552D01*
X-19852770Y30457710D01*
X-20043055Y30310750D01*
X-20215080Y30185283D01*
X-20356210Y30090919D01*
X-20453811Y30037268D01*
X-20485666Y30028597D01*
X-20537251Y30052854D01*
X-20640673Y30117639D01*
X-20780094Y30212602D01*
X-20914167Y30308649D01*
X-21230939Y30561149D01*
X-21566415Y30864875D01*
X-21901659Y31200153D01*
X-22217734Y31547306D01*
X-22495702Y31886660D01*
X-22681918Y32145310D01*
X-23087809Y32825600D01*
X-23417087Y33533206D01*
X-23671898Y34274099D01*
X-23854387Y35054250D01*
X-23943822Y35657666D01*
X-23962547Y35883519D01*
X-23973274Y36152796D01*
X-23976626Y36453204D01*
X-23973305Y36765277D01*
X-22838982Y36765277D01*
X-22833835Y36482452D01*
X-22822794Y36196989D01*
X-22806283Y35929310D01*
X-22784725Y35699837D01*
X-22778632Y35651094D01*
X-22646741Y34917493D01*
X-22452179Y34237850D01*
X-22192062Y33606177D01*
X-21863507Y33016483D01*
X-21463629Y32462778D01*
X-20993398Y31942916D01*
X-20828935Y31781037D01*
X-20683929Y31642752D01*
X-20569416Y31538241D01*
X-20496432Y31477680D01*
X-20476953Y31466666D01*
X-20433698Y31494911D01*
X-20343333Y31572201D01*
X-20218272Y31687370D01*
X-20070930Y31829254D01*
X-20040781Y31858963D01*
X-19562859Y32379222D01*
X-19159617Y32923522D01*
X-18826636Y33500475D01*
X-18559498Y34118696D01*
X-18353786Y34786796D01*
X-18223718Y35401540D01*
X-18180214Y35701412D01*
X-18146017Y36033613D01*
X-18122281Y36375612D01*
X-18110163Y36704877D01*
X-18110817Y36998879D01*
X-18125398Y37235085D01*
X-18128408Y37260618D01*
X-18162500Y37530070D01*
X-18882167Y37710730D01*
X-19157027Y37782953D01*
X-19440180Y37862924D01*
X-19705913Y37943014D01*
X-19928514Y38015593D01*
X-20020179Y38048394D01*
X-20203870Y38112230D01*
X-20365066Y38158934D01*
X-20482980Y38182978D01*
X-20528179Y38183480D01*
X-20600135Y38162019D01*
X-20734354Y38118607D01*
X-20913128Y38059086D01*
X-21118744Y37989299D01*
X-21169311Y37971950D01*
X-21437320Y37885250D01*
X-21740519Y37795769D01*
X-22038614Y37714995D01*
X-22255512Y37662294D01*
X-22790236Y37542248D01*
X-22814819Y37393707D01*
X-22829898Y37241327D01*
X-22837812Y37025043D01*
X-22838982Y36765277D01*
X-23973305Y36765277D01*
X-23973228Y36772449D01*
X-23963703Y37098236D01*
X-23948674Y37418272D01*
X-23928767Y37720264D01*
X-23904604Y37991917D01*
X-23876809Y38220938D01*
X-23846006Y38395032D01*
X-23812820Y38501906D01*
X-23798389Y38523722D01*
X-23750605Y38538913D01*
X-23636780Y38564207D01*
X-23474414Y38595968D01*
X-23298185Y38627607D01*
X-22842740Y38715908D01*
X-22380338Y38823367D01*
X-21928149Y38944939D01*
X-21503340Y39075582D01*
X-21123080Y39210253D01*
X-20804536Y39343907D01*
X-20719320Y39385194D01*
X-20476561Y39507738D01*
X-20123864Y39344055D01*
G36*
X22035135Y37423857D02*
X22075333Y37422600D01*
X22393262Y37407882D01*
X22715715Y37385061D01*
X23025620Y37355994D01*
X23305909Y37322539D01*
X23539510Y37286554D01*
X23709353Y37249896D01*
X23736916Y37241783D01*
X23771258Y37220405D01*
X23793177Y37171984D01*
X23805316Y37080677D01*
X23810321Y36930642D01*
X23811000Y36797814D01*
X23811000Y36377333D01*
X23652250Y36379647D01*
X23561808Y36382025D01*
X23402487Y36387299D01*
X23190005Y36394907D01*
X22940079Y36404281D01*
X22668426Y36414858D01*
X22624006Y36416624D01*
X22231215Y36430500D01*
X21914701Y36435142D01*
X21666260Y36426932D01*
X21477690Y36402251D01*
X21340786Y36357481D01*
X21247345Y36289006D01*
X21189164Y36193206D01*
X21158039Y36066464D01*
X21145767Y35905161D01*
X21144000Y35763895D01*
X21148224Y35576360D01*
X21159524Y35410484D01*
X21175842Y35291958D01*
X21184306Y35260830D01*
X21216676Y35193976D01*
X21263767Y35142269D01*
X21336346Y35103336D01*
X21445179Y35074810D01*
X21601032Y35054318D01*
X21814672Y35039491D01*
X22096865Y35027958D01*
X22265833Y35022721D01*
X22555647Y35013825D01*
X22774800Y35005130D01*
X22937271Y34994802D01*
X23057042Y34981008D01*
X23148092Y34961916D01*
X23224403Y34935693D01*
X23299955Y34900506D01*
X23334917Y34882564D01*
X23562187Y34717844D01*
X23746059Y34486146D01*
X23884256Y34194501D01*
X23974503Y33849942D01*
X24014521Y33459500D01*
X24002036Y33030207D01*
X23985124Y32874286D01*
X23911302Y32506508D01*
X23790091Y32206805D01*
X23616794Y31970132D01*
X23386713Y31791447D01*
X23095150Y31665708D01*
X22794745Y31596574D01*
X22628547Y31574634D01*
X22449836Y31562433D01*
X22242620Y31559960D01*
X21990906Y31567203D01*
X21678701Y31584151D01*
X21503833Y31595650D01*
X21006294Y31643106D01*
X20569144Y31712548D01*
X20329083Y31767156D01*
X20170333Y31808597D01*
X20170333Y32661356D01*
X20667750Y32635944D01*
X21093829Y32614708D01*
X21444366Y32598643D01*
X21728321Y32587663D01*
X21954655Y32581682D01*
X22132330Y32580615D01*
X22270306Y32584376D01*
X22377543Y32592879D01*
X22463004Y32606037D01*
X22515716Y32618250D01*
X22681654Y32678156D01*
X22794128Y32764288D01*
X22862089Y32891569D01*
X22894487Y33074925D01*
X22900833Y33260412D01*
X22887651Y33506710D01*
X22844813Y33683878D01*
X22767378Y33803763D01*
X22650408Y33878214D01*
X22641863Y33881556D01*
X22562657Y33895935D01*
X22416974Y33908061D01*
X22222993Y33916937D01*
X21998896Y33921563D01*
X21905327Y33922000D01*
X21530275Y33928096D01*
X21226184Y33948805D01*
X20980068Y33987759D01*
X20778936Y34048589D01*
X20609799Y34134926D01*
X20459670Y34250403D01*
X20354157Y34355683D01*
X20236236Y34499143D01*
X20148861Y34647975D01*
X20088061Y34817658D01*
X20049863Y35023672D01*
X20030295Y35281497D01*
X20025386Y35606612D01*
X20025510Y35636500D01*
X20039099Y36039608D01*
X20077612Y36370528D01*
X20144658Y36639015D01*
X20243847Y36854819D01*
X20378786Y37027693D01*
X20553086Y37167390D01*
X20603508Y37198435D01*
X20774054Y37286771D01*
X20951780Y37351749D01*
X21151717Y37395656D01*
X21388900Y37420784D01*
X21678362Y37429421D01*
X22035135Y37423857D01*
X22035135Y37423857D01*
G37*
X22035135Y37423857D02*
X22075333Y37422600D01*
X22393262Y37407882D01*
X22715715Y37385061D01*
X23025620Y37355994D01*
X23305909Y37322539D01*
X23539510Y37286554D01*
X23709353Y37249896D01*
X23736916Y37241783D01*
X23771258Y37220405D01*
X23793177Y37171984D01*
X23805316Y37080677D01*
X23810321Y36930642D01*
X23811000Y36797814D01*
X23811000Y36377333D01*
X23652250Y36379647D01*
X23561808Y36382025D01*
X23402487Y36387299D01*
X23190005Y36394907D01*
X22940079Y36404281D01*
X22668426Y36414858D01*
X22624006Y36416624D01*
X22231215Y36430500D01*
X21914701Y36435142D01*
X21666260Y36426932D01*
X21477690Y36402251D01*
X21340786Y36357481D01*
X21247345Y36289006D01*
X21189164Y36193206D01*
X21158039Y36066464D01*
X21145767Y35905161D01*
X21144000Y35763895D01*
X21148224Y35576360D01*
X21159524Y35410484D01*
X21175842Y35291958D01*
X21184306Y35260830D01*
X21216676Y35193976D01*
X21263767Y35142269D01*
X21336346Y35103336D01*
X21445179Y35074810D01*
X21601032Y35054318D01*
X21814672Y35039491D01*
X22096865Y35027958D01*
X22265833Y35022721D01*
X22555647Y35013825D01*
X22774800Y35005130D01*
X22937271Y34994802D01*
X23057042Y34981008D01*
X23148092Y34961916D01*
X23224403Y34935693D01*
X23299955Y34900506D01*
X23334917Y34882564D01*
X23562187Y34717844D01*
X23746059Y34486146D01*
X23884256Y34194501D01*
X23974503Y33849942D01*
X24014521Y33459500D01*
X24002036Y33030207D01*
X23985124Y32874286D01*
X23911302Y32506508D01*
X23790091Y32206805D01*
X23616794Y31970132D01*
X23386713Y31791447D01*
X23095150Y31665708D01*
X22794745Y31596574D01*
X22628547Y31574634D01*
X22449836Y31562433D01*
X22242620Y31559960D01*
X21990906Y31567203D01*
X21678701Y31584151D01*
X21503833Y31595650D01*
X21006294Y31643106D01*
X20569144Y31712548D01*
X20329083Y31767156D01*
X20170333Y31808597D01*
X20170333Y32661356D01*
X20667750Y32635944D01*
X21093829Y32614708D01*
X21444366Y32598643D01*
X21728321Y32587663D01*
X21954655Y32581682D01*
X22132330Y32580615D01*
X22270306Y32584376D01*
X22377543Y32592879D01*
X22463004Y32606037D01*
X22515716Y32618250D01*
X22681654Y32678156D01*
X22794128Y32764288D01*
X22862089Y32891569D01*
X22894487Y33074925D01*
X22900833Y33260412D01*
X22887651Y33506710D01*
X22844813Y33683878D01*
X22767378Y33803763D01*
X22650408Y33878214D01*
X22641863Y33881556D01*
X22562657Y33895935D01*
X22416974Y33908061D01*
X22222993Y33916937D01*
X21998896Y33921563D01*
X21905327Y33922000D01*
X21530275Y33928096D01*
X21226184Y33948805D01*
X20980068Y33987759D01*
X20778936Y34048589D01*
X20609799Y34134926D01*
X20459670Y34250403D01*
X20354157Y34355683D01*
X20236236Y34499143D01*
X20148861Y34647975D01*
X20088061Y34817658D01*
X20049863Y35023672D01*
X20030295Y35281497D01*
X20025386Y35606612D01*
X20025510Y35636500D01*
X20039099Y36039608D01*
X20077612Y36370528D01*
X20144658Y36639015D01*
X20243847Y36854819D01*
X20378786Y37027693D01*
X20553086Y37167390D01*
X20603508Y37198435D01*
X20774054Y37286771D01*
X20951780Y37351749D01*
X21151717Y37395656D01*
X21388900Y37420784D01*
X21678362Y37429421D01*
X22035135Y37423857D01*
G36*
X-1919875Y37428417D02*
X-1659018Y37416382D01*
X-1473156Y37395846D01*
X-1124401Y37316875D01*
X-826216Y37194425D01*
X-575106Y37023393D01*
X-367574Y36798675D01*
X-200125Y36515166D01*
X-69263Y36167764D01*
X28508Y35751363D01*
X96684Y35260860D01*
X113490Y35079365D01*
X133175Y34700617D01*
X133436Y34300878D01*
X115596Y33903106D01*
X80974Y33530263D01*
X30894Y33205305D01*
X-3116Y33053935D01*
X-135018Y32655513D01*
X-307470Y32328631D01*
X-525045Y32068186D01*
X-792319Y31869075D01*
X-1113866Y31726195D01*
X-1222825Y31693195D01*
X-1340525Y31671829D01*
X-1521749Y31651802D01*
X-1745550Y31634133D01*
X-1990977Y31619844D01*
X-2237081Y31609955D01*
X-2462912Y31605485D01*
X-2647523Y31607457D01*
X-2769962Y31616889D01*
X-2774334Y31617620D01*
X-3108049Y31684977D01*
X-3373496Y31761221D01*
X-3587047Y31853182D01*
X-3765077Y31967692D01*
X-3900174Y32087329D01*
X-4041572Y32266808D01*
X-4175964Y32507705D01*
X-4291826Y32786891D01*
X-4360757Y33011833D01*
X-4422500Y33322811D01*
X-4466196Y33695209D01*
X-4491458Y34107644D01*
X-4497900Y34538731D01*
X-4497503Y34552067D01*
X-3405199Y34552067D01*
X-3400095Y34167259D01*
X-3376124Y33795988D01*
X-3365023Y33689410D01*
X-3308714Y33351615D01*
X-3220847Y33086693D01*
X-3093659Y32888187D01*
X-2919392Y32749638D01*
X-2690283Y32664588D01*
X-2398574Y32626578D01*
X-2088076Y32626739D01*
X-1872334Y32639870D01*
X-1716591Y32661382D01*
X-1596253Y32696120D01*
X-1497048Y32743163D01*
X-1293247Y32902620D01*
X-1142282Y33121162D01*
X-1079604Y33282020D01*
X-1033624Y33495714D01*
X-998468Y33772552D01*
X-975250Y34091572D01*
X-965083Y34431811D01*
X-969080Y34772306D01*
X-985320Y35056978D01*
X-1026667Y35434239D01*
X-1084268Y35736040D01*
X-1162140Y35970701D01*
X-1264302Y36146541D01*
X-1394770Y36271878D01*
X-1557562Y36355030D01*
X-1622065Y36375470D01*
X-1764003Y36399503D01*
X-1962013Y36413568D01*
X-2188096Y36417744D01*
X-2414257Y36412109D01*
X-2612498Y36396741D01*
X-2752672Y36372322D01*
X-2940582Y36279348D01*
X-3104798Y36120444D01*
X-3227851Y35914118D01*
X-3256540Y35838499D01*
X-3317106Y35593629D01*
X-3362725Y35284661D01*
X-3392415Y34931004D01*
X-3405199Y34552067D01*
X-4497503Y34552067D01*
X-4485135Y34967086D01*
X-4452778Y35371327D01*
X-4409030Y35683134D01*
X-4302002Y36133858D01*
X-4151573Y36513169D01*
X-3956094Y36823313D01*
X-3713913Y37066533D01*
X-3423380Y37245075D01*
X-3197667Y37330592D01*
X-3020710Y37368383D01*
X-2781931Y37397913D01*
X-2503852Y37418330D01*
X-2208994Y37428782D01*
X-1919875Y37428417D01*
X-1919875Y37428417D01*
G37*
X-1919875Y37428417D02*
X-1659018Y37416382D01*
X-1473156Y37395846D01*
X-1124401Y37316875D01*
X-826216Y37194425D01*
X-575106Y37023393D01*
X-367574Y36798675D01*
X-200125Y36515166D01*
X-69263Y36167764D01*
X28508Y35751363D01*
X96684Y35260860D01*
X113490Y35079365D01*
X133175Y34700617D01*
X133436Y34300878D01*
X115596Y33903106D01*
X80974Y33530263D01*
X30894Y33205305D01*
X-3116Y33053935D01*
X-135018Y32655513D01*
X-307470Y32328631D01*
X-525045Y32068186D01*
X-792319Y31869075D01*
X-1113866Y31726195D01*
X-1222825Y31693195D01*
X-1340525Y31671829D01*
X-1521749Y31651802D01*
X-1745550Y31634133D01*
X-1990977Y31619844D01*
X-2237081Y31609955D01*
X-2462912Y31605485D01*
X-2647523Y31607457D01*
X-2769962Y31616889D01*
X-2774334Y31617620D01*
X-3108049Y31684977D01*
X-3373496Y31761221D01*
X-3587047Y31853182D01*
X-3765077Y31967692D01*
X-3900174Y32087329D01*
X-4041572Y32266808D01*
X-4175964Y32507705D01*
X-4291826Y32786891D01*
X-4360757Y33011833D01*
X-4422500Y33322811D01*
X-4466196Y33695209D01*
X-4491458Y34107644D01*
X-4497900Y34538731D01*
X-4497503Y34552067D01*
X-3405199Y34552067D01*
X-3400095Y34167259D01*
X-3376124Y33795988D01*
X-3365023Y33689410D01*
X-3308714Y33351615D01*
X-3220847Y33086693D01*
X-3093659Y32888187D01*
X-2919392Y32749638D01*
X-2690283Y32664588D01*
X-2398574Y32626578D01*
X-2088076Y32626739D01*
X-1872334Y32639870D01*
X-1716591Y32661382D01*
X-1596253Y32696120D01*
X-1497048Y32743163D01*
X-1293247Y32902620D01*
X-1142282Y33121162D01*
X-1079604Y33282020D01*
X-1033624Y33495714D01*
X-998468Y33772552D01*
X-975250Y34091572D01*
X-965083Y34431811D01*
X-969080Y34772306D01*
X-985320Y35056978D01*
X-1026667Y35434239D01*
X-1084268Y35736040D01*
X-1162140Y35970701D01*
X-1264302Y36146541D01*
X-1394770Y36271878D01*
X-1557562Y36355030D01*
X-1622065Y36375470D01*
X-1764003Y36399503D01*
X-1962013Y36413568D01*
X-2188096Y36417744D01*
X-2414257Y36412109D01*
X-2612498Y36396741D01*
X-2752672Y36372322D01*
X-2940582Y36279348D01*
X-3104798Y36120444D01*
X-3227851Y35914118D01*
X-3256540Y35838499D01*
X-3317106Y35593629D01*
X-3362725Y35284661D01*
X-3392415Y34931004D01*
X-3405199Y34552067D01*
X-4497503Y34552067D01*
X-4485135Y34967086D01*
X-4452778Y35371327D01*
X-4409030Y35683134D01*
X-4302002Y36133858D01*
X-4151573Y36513169D01*
X-3956094Y36823313D01*
X-3713913Y37066533D01*
X-3423380Y37245075D01*
X-3197667Y37330592D01*
X-3020710Y37368383D01*
X-2781931Y37397913D01*
X-2503852Y37418330D01*
X-2208994Y37428782D01*
X-1919875Y37428417D01*
G36*
X3563961Y37419747D02*
X3778291Y37399036D01*
X3787333Y37397688D01*
X4138458Y37316026D01*
X4440993Y37183207D01*
X4697211Y36995568D01*
X4909386Y36749446D01*
X5079791Y36441177D01*
X5210699Y36067100D01*
X5304382Y35623551D01*
X5363116Y35106867D01*
X5379545Y34832166D01*
X5386237Y34260974D01*
X5354031Y33734279D01*
X5284290Y33258542D01*
X5178373Y32840225D01*
X5037641Y32485789D01*
X4863456Y32201693D01*
X4812486Y32139726D01*
X4642642Y31989216D01*
X4416122Y31849424D01*
X4160760Y31736164D01*
X4026508Y31693195D01*
X3908809Y31671829D01*
X3727584Y31651802D01*
X3503784Y31634133D01*
X3258357Y31619844D01*
X3012253Y31609955D01*
X2786421Y31605485D01*
X2601811Y31607457D01*
X2479372Y31616889D01*
X2475000Y31617620D01*
X2095983Y31698247D01*
X1789249Y31798349D01*
X1543363Y31924750D01*
X1346889Y32084273D01*
X1188394Y32283743D01*
X1100351Y32437996D01*
X975013Y32749605D01*
X876982Y33125535D01*
X806460Y33549897D01*
X763652Y34006800D01*
X754958Y34283254D01*
X1848860Y34283254D01*
X1869018Y33856151D01*
X1916185Y33491772D01*
X1989497Y33194530D01*
X2088091Y32968839D01*
X2211104Y32819112D01*
X2242357Y32796148D01*
X2445010Y32698106D01*
X2696528Y32641140D01*
X3008456Y32623108D01*
X3156027Y32626451D01*
X3396175Y32643004D01*
X3572480Y32671986D01*
X3705303Y32717008D01*
X3727527Y32727787D01*
X3885162Y32823777D01*
X3998524Y32938292D01*
X4092963Y33099334D01*
X4123085Y33164718D01*
X4189775Y33373070D01*
X4239617Y33646682D01*
X4272629Y33967845D01*
X4288827Y34318849D01*
X4288227Y34681983D01*
X4270846Y35039538D01*
X4236699Y35373804D01*
X4185804Y35667072D01*
X4120556Y35895332D01*
X4029483Y36085141D01*
X3910275Y36226998D01*
X3752195Y36325689D01*
X3544509Y36386001D01*
X3276479Y36412722D01*
X2962659Y36411586D01*
X2696153Y36395624D01*
X2497300Y36365296D01*
X2349465Y36314287D01*
X2236019Y36236283D01*
X2140330Y36124969D01*
X2116710Y36090403D01*
X2027701Y35914943D01*
X1958063Y35684165D01*
X1906252Y35390231D01*
X1870727Y35025309D01*
X1856573Y34768666D01*
X1848860Y34283254D01*
X754958Y34283254D01*
X748759Y34480354D01*
X761984Y34954669D01*
X803532Y35413855D01*
X873605Y35842023D01*
X972405Y36223282D01*
X1049313Y36431816D01*
X1224877Y36740463D01*
X1464574Y37002514D01*
X1755427Y37206326D01*
X2051666Y37330785D01*
X2220817Y37366762D01*
X2452418Y37395408D01*
X2724501Y37415876D01*
X3015097Y37427320D01*
X3302240Y37428892D01*
X3563961Y37419747D01*
X3563961Y37419747D01*
G37*
X3563961Y37419747D02*
X3778291Y37399036D01*
X3787333Y37397688D01*
X4138458Y37316026D01*
X4440993Y37183207D01*
X4697211Y36995568D01*
X4909386Y36749446D01*
X5079791Y36441177D01*
X5210699Y36067100D01*
X5304382Y35623551D01*
X5363116Y35106867D01*
X5379545Y34832166D01*
X5386237Y34260974D01*
X5354031Y33734279D01*
X5284290Y33258542D01*
X5178373Y32840225D01*
X5037641Y32485789D01*
X4863456Y32201693D01*
X4812486Y32139726D01*
X4642642Y31989216D01*
X4416122Y31849424D01*
X4160760Y31736164D01*
X4026508Y31693195D01*
X3908809Y31671829D01*
X3727584Y31651802D01*
X3503784Y31634133D01*
X3258357Y31619844D01*
X3012253Y31609955D01*
X2786421Y31605485D01*
X2601811Y31607457D01*
X2479372Y31616889D01*
X2475000Y31617620D01*
X2095983Y31698247D01*
X1789249Y31798349D01*
X1543363Y31924750D01*
X1346889Y32084273D01*
X1188394Y32283743D01*
X1100351Y32437996D01*
X975013Y32749605D01*
X876982Y33125535D01*
X806460Y33549897D01*
X763652Y34006800D01*
X754958Y34283254D01*
X1848860Y34283254D01*
X1869018Y33856151D01*
X1916185Y33491772D01*
X1989497Y33194530D01*
X2088091Y32968839D01*
X2211104Y32819112D01*
X2242357Y32796148D01*
X2445010Y32698106D01*
X2696528Y32641140D01*
X3008456Y32623108D01*
X3156027Y32626451D01*
X3396175Y32643004D01*
X3572480Y32671986D01*
X3705303Y32717008D01*
X3727527Y32727787D01*
X3885162Y32823777D01*
X3998524Y32938292D01*
X4092963Y33099334D01*
X4123085Y33164718D01*
X4189775Y33373070D01*
X4239617Y33646682D01*
X4272629Y33967845D01*
X4288827Y34318849D01*
X4288227Y34681983D01*
X4270846Y35039538D01*
X4236699Y35373804D01*
X4185804Y35667072D01*
X4120556Y35895332D01*
X4029483Y36085141D01*
X3910275Y36226998D01*
X3752195Y36325689D01*
X3544509Y36386001D01*
X3276479Y36412722D01*
X2962659Y36411586D01*
X2696153Y36395624D01*
X2497300Y36365296D01*
X2349465Y36314287D01*
X2236019Y36236283D01*
X2140330Y36124969D01*
X2116710Y36090403D01*
X2027701Y35914943D01*
X1958063Y35684165D01*
X1906252Y35390231D01*
X1870727Y35025309D01*
X1856573Y34768666D01*
X1848860Y34283254D01*
X754958Y34283254D01*
X748759Y34480354D01*
X761984Y34954669D01*
X803532Y35413855D01*
X873605Y35842023D01*
X972405Y36223282D01*
X1049313Y36431816D01*
X1224877Y36740463D01*
X1464574Y37002514D01*
X1755427Y37206326D01*
X2051666Y37330785D01*
X2220817Y37366762D01*
X2452418Y37395408D01*
X2724501Y37415876D01*
X3015097Y37427320D01*
X3302240Y37428892D01*
X3563961Y37419747D01*
G36*
X-9674667Y36377333D02*
X-11283334Y36377333D01*
X-11283334Y31636000D01*
X-12384000Y31636000D01*
X-12384000Y36377333D01*
X-13950334Y36377333D01*
X-13950334Y37393333D01*
X-9674667Y37393333D01*
X-9674667Y36377333D01*
X-9674667Y36377333D01*
G37*
X-9674667Y36377333D02*
X-11283334Y36377333D01*
X-11283334Y31636000D01*
X-12384000Y31636000D01*
X-12384000Y36377333D01*
X-13950334Y36377333D01*
X-13950334Y37393333D01*
X-9674667Y37393333D01*
X-9674667Y36377333D01*
G36*
X-7716750Y37392672D02*
X-7289527Y37391520D01*
X-6937069Y37387779D01*
X-6649491Y37380342D01*
X-6416903Y37368101D01*
X-6229418Y37349950D01*
X-6077150Y37324782D01*
X-5950210Y37291488D01*
X-5838711Y37248963D01*
X-5732765Y37196098D01*
X-5676724Y37164236D01*
X-5452960Y36986490D01*
X-5266854Y36736488D01*
X-5137795Y36468131D01*
X-5099980Y36362850D01*
X-5073549Y36257905D01*
X-5056465Y36134876D01*
X-5046693Y35975345D01*
X-5042196Y35760891D01*
X-5041169Y35594166D01*
X-5046931Y35246272D01*
X-5068973Y34966521D01*
X-5110772Y34739365D01*
X-5175801Y34549256D01*
X-5267537Y34380643D01*
X-5333018Y34288312D01*
X-5474922Y34145262D01*
X-5661603Y34013106D01*
X-5854667Y33918573D01*
X-5873565Y33911978D01*
X-5871682Y33869086D01*
X-5831257Y33753973D01*
X-5753407Y33569218D01*
X-5639250Y33317403D01*
X-5489902Y33001111D01*
X-5386767Y32787426D01*
X-5249717Y32504639D01*
X-5125536Y32247010D01*
X-5018843Y32024230D01*
X-4934254Y31845993D01*
X-4876388Y31721990D01*
X-4849861Y31661912D01*
X-4848667Y31657987D01*
X-4888504Y31650170D01*
X-4998033Y31643578D01*
X-5162283Y31638753D01*
X-5366281Y31636238D01*
X-5455270Y31636000D01*
X-6061874Y31636000D01*
X-6537190Y32729326D01*
X-7012506Y33822653D01*
X-7444003Y33872567D01*
X-7630192Y33893512D01*
X-7787220Y33910080D01*
X-7894531Y33920163D01*
X-7928417Y33922240D01*
X-7944945Y33903626D01*
X-7957901Y33842950D01*
X-7967633Y33732709D01*
X-7974486Y33565403D01*
X-7978809Y33333530D01*
X-7980949Y33029588D01*
X-7981334Y32779000D01*
X-7981334Y31636000D01*
X-9082000Y31636000D01*
X-9082000Y34811000D01*
X-7981334Y34811000D01*
X-7243256Y34811000D01*
X-6994242Y34813270D01*
X-6768347Y34819559D01*
X-6581880Y34829085D01*
X-6451152Y34841065D01*
X-6398617Y34851514D01*
X-6290788Y34919688D01*
X-6214806Y35035817D01*
X-6167262Y35209764D01*
X-6144744Y35451394D01*
X-6141824Y35594166D01*
X-6144032Y35803310D01*
X-6154658Y35949861D01*
X-6176971Y36055738D01*
X-6214240Y36142859D01*
X-6227034Y36165572D01*
X-6282579Y36250941D01*
X-6343728Y36314678D01*
X-6423181Y36359928D01*
X-6533640Y36389833D01*
X-6687807Y36407538D01*
X-6898383Y36416186D01*
X-7178068Y36418921D01*
X-7251084Y36419042D01*
X-7981334Y36419666D01*
X-7981334Y34811000D01*
X-9082000Y34811000D01*
X-9082000Y37393333D01*
X-7716750Y37392672D01*
X-7716750Y37392672D01*
G37*
X-7716750Y37392672D02*
X-7289527Y37391520D01*
X-6937069Y37387779D01*
X-6649491Y37380342D01*
X-6416903Y37368101D01*
X-6229418Y37349950D01*
X-6077150Y37324782D01*
X-5950210Y37291488D01*
X-5838711Y37248963D01*
X-5732765Y37196098D01*
X-5676724Y37164236D01*
X-5452960Y36986490D01*
X-5266854Y36736488D01*
X-5137795Y36468131D01*
X-5099980Y36362850D01*
X-5073549Y36257905D01*
X-5056465Y36134876D01*
X-5046693Y35975345D01*
X-5042196Y35760891D01*
X-5041169Y35594166D01*
X-5046931Y35246272D01*
X-5068973Y34966521D01*
X-5110772Y34739365D01*
X-5175801Y34549256D01*
X-5267537Y34380643D01*
X-5333018Y34288312D01*
X-5474922Y34145262D01*
X-5661603Y34013106D01*
X-5854667Y33918573D01*
X-5873565Y33911978D01*
X-5871682Y33869086D01*
X-5831257Y33753973D01*
X-5753407Y33569218D01*
X-5639250Y33317403D01*
X-5489902Y33001111D01*
X-5386767Y32787426D01*
X-5249717Y32504639D01*
X-5125536Y32247010D01*
X-5018843Y32024230D01*
X-4934254Y31845993D01*
X-4876388Y31721990D01*
X-4849861Y31661912D01*
X-4848667Y31657987D01*
X-4888504Y31650170D01*
X-4998033Y31643578D01*
X-5162283Y31638753D01*
X-5366281Y31636238D01*
X-5455270Y31636000D01*
X-6061874Y31636000D01*
X-6537190Y32729326D01*
X-7012506Y33822653D01*
X-7444003Y33872567D01*
X-7630192Y33893512D01*
X-7787220Y33910080D01*
X-7894531Y33920163D01*
X-7928417Y33922240D01*
X-7944945Y33903626D01*
X-7957901Y33842950D01*
X-7967633Y33732709D01*
X-7974486Y33565403D01*
X-7978809Y33333530D01*
X-7980949Y33029588D01*
X-7981334Y32779000D01*
X-7981334Y31636000D01*
X-9082000Y31636000D01*
X-9082000Y34811000D01*
X-7981334Y34811000D01*
X-7243256Y34811000D01*
X-6994242Y34813270D01*
X-6768347Y34819559D01*
X-6581880Y34829085D01*
X-6451152Y34841065D01*
X-6398617Y34851514D01*
X-6290788Y34919688D01*
X-6214806Y35035817D01*
X-6167262Y35209764D01*
X-6144744Y35451394D01*
X-6141824Y35594166D01*
X-6144032Y35803310D01*
X-6154658Y35949861D01*
X-6176971Y36055738D01*
X-6214240Y36142859D01*
X-6227034Y36165572D01*
X-6282579Y36250941D01*
X-6343728Y36314678D01*
X-6423181Y36359928D01*
X-6533640Y36389833D01*
X-6687807Y36407538D01*
X-6898383Y36416186D01*
X-7178068Y36418921D01*
X-7251084Y36419042D01*
X-7981334Y36419666D01*
X-7981334Y34811000D01*
X-9082000Y34811000D01*
X-9082000Y37393333D01*
X-7716750Y37392672D01*
G36*
X7523250Y37383448D02*
X7927760Y37378761D01*
X8256875Y37373735D01*
X8519863Y37367871D01*
X8725996Y37360672D01*
X8884544Y37351641D01*
X9004776Y37340280D01*
X9095964Y37326092D01*
X9167377Y37308578D01*
X9214235Y37292699D01*
X9488559Y37145627D01*
X9713277Y36932171D01*
X9886894Y36655614D01*
X10007920Y36319238D01*
X10074863Y35926325D01*
X10086231Y35480157D01*
X10081672Y35384275D01*
X10031376Y34950413D01*
X9934799Y34586659D01*
X9790280Y34291171D01*
X9596161Y34062104D01*
X9350782Y33897615D01*
X9052484Y33795858D01*
X8699607Y33754991D01*
X8614691Y33753987D01*
X8457435Y33759889D01*
X8246528Y33774837D01*
X8012205Y33796419D01*
X7830166Y33816601D01*
X7623197Y33840718D01*
X7439740Y33860528D01*
X7300264Y33873921D01*
X7226916Y33878781D01*
X7131666Y33879666D01*
X7131666Y31636000D01*
X6031000Y31636000D01*
X6031000Y34770872D01*
X7131666Y34770872D01*
X7777250Y34757998D01*
X8005567Y34752921D01*
X8205785Y34747487D01*
X8361722Y34742209D01*
X8457198Y34737602D01*
X8477109Y34735729D01*
X8549526Y34744920D01*
X8658186Y34779642D01*
X8679940Y34788403D01*
X8815457Y34877109D01*
X8910399Y35017393D01*
X8967484Y35216943D01*
X8989426Y35483441D01*
X8987585Y35658879D01*
X8977292Y35865449D01*
X8960794Y36007840D01*
X8934150Y36106513D01*
X8893421Y36181927D01*
X8884419Y36194436D01*
X8821558Y36271003D01*
X8754057Y36327918D01*
X8668742Y36368076D01*
X8552436Y36394371D01*
X8391966Y36409697D01*
X8174157Y36416947D01*
X7885833Y36419016D01*
X7861916Y36419042D01*
X7131666Y36419666D01*
X7131666Y34770872D01*
X6031000Y34770872D01*
X6031000Y37399140D01*
X7523250Y37383448D01*
X7523250Y37383448D01*
G37*
X7523250Y37383448D02*
X7927760Y37378761D01*
X8256875Y37373735D01*
X8519863Y37367871D01*
X8725996Y37360672D01*
X8884544Y37351641D01*
X9004776Y37340280D01*
X9095964Y37326092D01*
X9167377Y37308578D01*
X9214235Y37292699D01*
X9488559Y37145627D01*
X9713277Y36932171D01*
X9886894Y36655614D01*
X10007920Y36319238D01*
X10074863Y35926325D01*
X10086231Y35480157D01*
X10081672Y35384275D01*
X10031376Y34950413D01*
X9934799Y34586659D01*
X9790280Y34291171D01*
X9596161Y34062104D01*
X9350782Y33897615D01*
X9052484Y33795858D01*
X8699607Y33754991D01*
X8614691Y33753987D01*
X8457435Y33759889D01*
X8246528Y33774837D01*
X8012205Y33796419D01*
X7830166Y33816601D01*
X7623197Y33840718D01*
X7439740Y33860528D01*
X7300264Y33873921D01*
X7226916Y33878781D01*
X7131666Y33879666D01*
X7131666Y31636000D01*
X6031000Y31636000D01*
X6031000Y34770872D01*
X7131666Y34770872D01*
X7777250Y34757998D01*
X8005567Y34752921D01*
X8205785Y34747487D01*
X8361722Y34742209D01*
X8457198Y34737602D01*
X8477109Y34735729D01*
X8549526Y34744920D01*
X8658186Y34779642D01*
X8679940Y34788403D01*
X8815457Y34877109D01*
X8910399Y35017393D01*
X8967484Y35216943D01*
X8989426Y35483441D01*
X8987585Y35658879D01*
X8977292Y35865449D01*
X8960794Y36007840D01*
X8934150Y36106513D01*
X8893421Y36181927D01*
X8884419Y36194436D01*
X8821558Y36271003D01*
X8754057Y36327918D01*
X8668742Y36368076D01*
X8552436Y36394371D01*
X8391966Y36409697D01*
X8174157Y36416947D01*
X7885833Y36419016D01*
X7861916Y36419042D01*
X7131666Y36419666D01*
X7131666Y34770872D01*
X6031000Y34770872D01*
X6031000Y37399140D01*
X7523250Y37383448D01*
G36*
X12543376Y37386294D02*
X12867833Y37378182D01*
X13178584Y37368959D01*
X13484534Y37358541D01*
X13767772Y37347638D01*
X14010384Y37336959D01*
X14194458Y37327215D01*
X14254250Y37323263D01*
X14624666Y37296091D01*
X14624666Y36380946D01*
X12119418Y36356166D01*
X12038542Y36256227D01*
X12005023Y36205049D01*
X11982133Y36138501D01*
X11967932Y36040689D01*
X11960475Y35895724D01*
X11957820Y35687714D01*
X11957666Y35594659D01*
X11957666Y35033031D01*
X12963083Y35005067D01*
X13256108Y34996133D01*
X13529289Y34986335D01*
X13768425Y34976300D01*
X13959314Y34966650D01*
X14087755Y34958013D01*
X14127250Y34953831D01*
X14286000Y34930558D01*
X14286000Y34057593D01*
X14000250Y34033048D01*
X13868533Y34024110D01*
X13670625Y34013729D01*
X13424968Y34002725D01*
X13150006Y33991919D01*
X12864184Y33982131D01*
X12836083Y33981252D01*
X11957666Y33953999D01*
X11957666Y33390739D01*
X11956218Y33192155D01*
X11957408Y33032586D01*
X11969536Y32907789D01*
X12000903Y32813520D01*
X12059810Y32745535D01*
X12154556Y32699592D01*
X12293442Y32671447D01*
X12484769Y32656856D01*
X12736836Y32651576D01*
X13057946Y32651364D01*
X13402709Y32652000D01*
X14624666Y32652000D01*
X14624666Y32208306D01*
X14623723Y32010164D01*
X14618733Y31880867D01*
X14606453Y31804594D01*
X14583641Y31765528D01*
X14547055Y31747849D01*
X14529416Y31743569D01*
X14435158Y31730663D01*
X14271120Y31716452D01*
X14052167Y31701635D01*
X13793161Y31686911D01*
X13508967Y31672976D01*
X13214447Y31660530D01*
X12924466Y31650270D01*
X12653887Y31642895D01*
X12417574Y31639102D01*
X12299448Y31638832D01*
X12033126Y31644652D01*
X11804062Y31658466D01*
X11629710Y31678925D01*
X11548715Y31696744D01*
X11297681Y31810619D01*
X11102023Y31982943D01*
X10994746Y32136183D01*
X10878166Y32334500D01*
X10878166Y34493500D01*
X10878224Y34976134D01*
X10878596Y35381507D01*
X10879581Y35717026D01*
X10881477Y35990097D01*
X10884582Y36208125D01*
X10889194Y36378517D01*
X10895612Y36508679D01*
X10904134Y36606016D01*
X10915058Y36677936D01*
X10928682Y36731843D01*
X10945305Y36775145D01*
X10965224Y36815247D01*
X10972188Y36828322D01*
X11137983Y37051814D01*
X11364289Y37227420D01*
X11619000Y37337585D01*
X11705625Y37359531D01*
X11802661Y37375407D01*
X11922530Y37385617D01*
X12077657Y37390566D01*
X12280464Y37390657D01*
X12543376Y37386294D01*
X12543376Y37386294D01*
G37*
X12543376Y37386294D02*
X12867833Y37378182D01*
X13178584Y37368959D01*
X13484534Y37358541D01*
X13767772Y37347638D01*
X14010384Y37336959D01*
X14194458Y37327215D01*
X14254250Y37323263D01*
X14624666Y37296091D01*
X14624666Y36380946D01*
X12119418Y36356166D01*
X12038542Y36256227D01*
X12005023Y36205049D01*
X11982133Y36138501D01*
X11967932Y36040689D01*
X11960475Y35895724D01*
X11957820Y35687714D01*
X11957666Y35594659D01*
X11957666Y35033031D01*
X12963083Y35005067D01*
X13256108Y34996133D01*
X13529289Y34986335D01*
X13768425Y34976300D01*
X13959314Y34966650D01*
X14087755Y34958013D01*
X14127250Y34953831D01*
X14286000Y34930558D01*
X14286000Y34057593D01*
X14000250Y34033048D01*
X13868533Y34024110D01*
X13670625Y34013729D01*
X13424968Y34002725D01*
X13150006Y33991919D01*
X12864184Y33982131D01*
X12836083Y33981252D01*
X11957666Y33953999D01*
X11957666Y33390739D01*
X11956218Y33192155D01*
X11957408Y33032586D01*
X11969536Y32907789D01*
X12000903Y32813520D01*
X12059810Y32745535D01*
X12154556Y32699592D01*
X12293442Y32671447D01*
X12484769Y32656856D01*
X12736836Y32651576D01*
X13057946Y32651364D01*
X13402709Y32652000D01*
X14624666Y32652000D01*
X14624666Y32208306D01*
X14623723Y32010164D01*
X14618733Y31880867D01*
X14606453Y31804594D01*
X14583641Y31765528D01*
X14547055Y31747849D01*
X14529416Y31743569D01*
X14435158Y31730663D01*
X14271120Y31716452D01*
X14052167Y31701635D01*
X13793161Y31686911D01*
X13508967Y31672976D01*
X13214447Y31660530D01*
X12924466Y31650270D01*
X12653887Y31642895D01*
X12417574Y31639102D01*
X12299448Y31638832D01*
X12033126Y31644652D01*
X11804062Y31658466D01*
X11629710Y31678925D01*
X11548715Y31696744D01*
X11297681Y31810619D01*
X11102023Y31982943D01*
X10994746Y32136183D01*
X10878166Y32334500D01*
X10878166Y34493500D01*
X10878224Y34976134D01*
X10878596Y35381507D01*
X10879581Y35717026D01*
X10881477Y35990097D01*
X10884582Y36208125D01*
X10889194Y36378517D01*
X10895612Y36508679D01*
X10904134Y36606016D01*
X10915058Y36677936D01*
X10928682Y36731843D01*
X10945305Y36775145D01*
X10965224Y36815247D01*
X10972188Y36828322D01*
X11137983Y37051814D01*
X11364289Y37227420D01*
X11619000Y37337585D01*
X11705625Y37359531D01*
X11802661Y37375407D01*
X11922530Y37385617D01*
X12077657Y37390566D01*
X12280464Y37390657D01*
X12543376Y37386294D01*
G36*
X16751916Y37383537D02*
X17184484Y37378851D01*
X17541628Y37373015D01*
X17832589Y37364334D01*
X18066608Y37351115D01*
X18252926Y37331665D01*
X18400784Y37304290D01*
X18519422Y37267295D01*
X18618081Y37218988D01*
X18706004Y37157674D01*
X18792430Y37081661D01*
X18882880Y36992975D01*
X19081835Y36734576D01*
X19224330Y36414946D01*
X19309765Y36036480D01*
X19337539Y35601570D01*
X19320726Y35246032D01*
X19259805Y34848797D01*
X19153218Y34522041D01*
X19000294Y34264518D01*
X18800358Y34074983D01*
X18639168Y33985152D01*
X18528619Y33936514D01*
X18456223Y33903673D01*
X18442532Y33896853D01*
X18454035Y33858061D01*
X18496274Y33762205D01*
X18561098Y33627427D01*
X18586263Y33577088D01*
X18653616Y33441851D01*
X18749101Y33247747D01*
X18864193Y33012226D01*
X18990369Y32752742D01*
X19119102Y32486746D01*
X19136392Y32450916D01*
X19529488Y31636000D01*
X18279793Y31636000D01*
X17804477Y32729326D01*
X17329161Y33822653D01*
X16897664Y33872567D01*
X16711474Y33893512D01*
X16554447Y33910080D01*
X16447136Y33920163D01*
X16413250Y33922240D01*
X16396721Y33903626D01*
X16383765Y33842950D01*
X16374034Y33732709D01*
X16367181Y33565403D01*
X16362858Y33333530D01*
X16360718Y33029588D01*
X16360333Y32779000D01*
X16360333Y31636000D01*
X15259666Y31636000D01*
X15259666Y36419666D01*
X16360333Y36419666D01*
X16360333Y34811000D01*
X17134080Y34811000D01*
X17421079Y34812228D01*
X17635537Y34816528D01*
X17789551Y34824819D01*
X17895220Y34838023D01*
X17964641Y34857060D01*
X18002155Y34877070D01*
X18104229Y34972516D01*
X18172613Y35100285D01*
X18212222Y35275839D01*
X18227966Y35514643D01*
X18228760Y35590356D01*
X18218038Y35869290D01*
X18182088Y36077487D01*
X18117192Y36226102D01*
X18019633Y36326288D01*
X17974437Y36353355D01*
X17908077Y36378736D01*
X17813543Y36397060D01*
X17678061Y36409299D01*
X17488857Y36416426D01*
X17233154Y36419413D01*
X17103268Y36419666D01*
X16360333Y36419666D01*
X15259666Y36419666D01*
X15259666Y37398275D01*
X16751916Y37383537D01*
X16751916Y37383537D01*
G37*
X16751916Y37383537D02*
X17184484Y37378851D01*
X17541628Y37373015D01*
X17832589Y37364334D01*
X18066608Y37351115D01*
X18252926Y37331665D01*
X18400784Y37304290D01*
X18519422Y37267295D01*
X18618081Y37218988D01*
X18706004Y37157674D01*
X18792430Y37081661D01*
X18882880Y36992975D01*
X19081835Y36734576D01*
X19224330Y36414946D01*
X19309765Y36036480D01*
X19337539Y35601570D01*
X19320726Y35246032D01*
X19259805Y34848797D01*
X19153218Y34522041D01*
X19000294Y34264518D01*
X18800358Y34074983D01*
X18639168Y33985152D01*
X18528619Y33936514D01*
X18456223Y33903673D01*
X18442532Y33896853D01*
X18454035Y33858061D01*
X18496274Y33762205D01*
X18561098Y33627427D01*
X18586263Y33577088D01*
X18653616Y33441851D01*
X18749101Y33247747D01*
X18864193Y33012226D01*
X18990369Y32752742D01*
X19119102Y32486746D01*
X19136392Y32450916D01*
X19529488Y31636000D01*
X18279793Y31636000D01*
X17804477Y32729326D01*
X17329161Y33822653D01*
X16897664Y33872567D01*
X16711474Y33893512D01*
X16554447Y33910080D01*
X16447136Y33920163D01*
X16413250Y33922240D01*
X16396721Y33903626D01*
X16383765Y33842950D01*
X16374034Y33732709D01*
X16367181Y33565403D01*
X16362858Y33333530D01*
X16360718Y33029588D01*
X16360333Y32779000D01*
X16360333Y31636000D01*
X15259666Y31636000D01*
X15259666Y36419666D01*
X16360333Y36419666D01*
X16360333Y34811000D01*
X17134080Y34811000D01*
X17421079Y34812228D01*
X17635537Y34816528D01*
X17789551Y34824819D01*
X17895220Y34838023D01*
X17964641Y34857060D01*
X18002155Y34877070D01*
X18104229Y34972516D01*
X18172613Y35100285D01*
X18212222Y35275839D01*
X18227966Y35514643D01*
X18228760Y35590356D01*
X18218038Y35869290D01*
X18182088Y36077487D01*
X18117192Y36226102D01*
X18019633Y36326288D01*
X17974437Y36353355D01*
X17908077Y36378736D01*
X17813543Y36397060D01*
X17678061Y36409299D01*
X17488857Y36416426D01*
X17233154Y36419413D01*
X17103268Y36419666D01*
X16360333Y36419666D01*
X15259666Y36419666D01*
X15259666Y37398275D01*
X16751916Y37383537D01*
G36*
X-5653908Y24436524D02*
X-5522603Y24380617D01*
X-5248463Y24201513D01*
X-5033095Y23965421D01*
X-4882638Y23681675D01*
X-4803233Y23359609D01*
X-4795258Y23275046D01*
X-4810478Y22929944D01*
X-4901159Y22619777D01*
X-5064145Y22350100D01*
X-5296282Y22126469D01*
X-5527540Y21985494D01*
X-5698776Y21908278D01*
X-5842186Y21866415D01*
X-6000999Y21849858D01*
X-6119500Y21847889D01*
X-6306460Y21854103D01*
X-6452878Y21879397D01*
X-6601440Y21933751D01*
X-6714501Y21986990D01*
X-6997056Y22126091D01*
X-7469107Y21655379D01*
X-7631539Y21494832D01*
X-7772891Y21357815D01*
X-7882450Y21254497D01*
X-7949508Y21195048D01*
X-7964867Y21184666D01*
X-8006857Y21212452D01*
X-8078455Y21280480D01*
X-8089234Y21291812D01*
X-8189892Y21398958D01*
X-7694229Y21895916D01*
X-7511675Y22080010D01*
X-7382143Y22214725D01*
X-7298220Y22309975D01*
X-7252491Y22375676D01*
X-7237543Y22421742D01*
X-7245960Y22458088D01*
X-7258567Y22478537D01*
X-7306031Y22567634D01*
X-7361178Y22700858D01*
X-7390657Y22784600D01*
X-7462746Y23005000D01*
X-8850000Y23005000D01*
X-8850000Y23343666D01*
X-7459008Y23343666D01*
X-7392139Y23573687D01*
X-7265989Y23866547D01*
X-7078802Y24111641D01*
X-6842767Y24303711D01*
X-6570071Y24437495D01*
X-6272904Y24507732D01*
X-5963454Y24509162D01*
X-5653908Y24436524D01*
X-5653908Y24436524D01*
G37*
X-5653908Y24436524D02*
X-5522603Y24380617D01*
X-5248463Y24201513D01*
X-5033095Y23965421D01*
X-4882638Y23681675D01*
X-4803233Y23359609D01*
X-4795258Y23275046D01*
X-4810478Y22929944D01*
X-4901159Y22619777D01*
X-5064145Y22350100D01*
X-5296282Y22126469D01*
X-5527540Y21985494D01*
X-5698776Y21908278D01*
X-5842186Y21866415D01*
X-6000999Y21849858D01*
X-6119500Y21847889D01*
X-6306460Y21854103D01*
X-6452878Y21879397D01*
X-6601440Y21933751D01*
X-6714501Y21986990D01*
X-6997056Y22126091D01*
X-7469107Y21655379D01*
X-7631539Y21494832D01*
X-7772891Y21357815D01*
X-7882450Y21254497D01*
X-7949508Y21195048D01*
X-7964867Y21184666D01*
X-8006857Y21212452D01*
X-8078455Y21280480D01*
X-8089234Y21291812D01*
X-8189892Y21398958D01*
X-7694229Y21895916D01*
X-7511675Y22080010D01*
X-7382143Y22214725D01*
X-7298220Y22309975D01*
X-7252491Y22375676D01*
X-7237543Y22421742D01*
X-7245960Y22458088D01*
X-7258567Y22478537D01*
X-7306031Y22567634D01*
X-7361178Y22700858D01*
X-7390657Y22784600D01*
X-7462746Y23005000D01*
X-8850000Y23005000D01*
X-8850000Y23343666D01*
X-7459008Y23343666D01*
X-7392139Y23573687D01*
X-7265989Y23866547D01*
X-7078802Y24111641D01*
X-6842767Y24303711D01*
X-6570071Y24437495D01*
X-6272904Y24507732D01*
X-5963454Y24509162D01*
X-5653908Y24436524D01*
G36*
X-11933351Y23944622D02*
X-11713405Y23845114D01*
X-11532620Y23688409D01*
X-11433686Y23536960D01*
X-11340114Y23343666D01*
X-9945556Y23343666D01*
X-9971834Y23026166D01*
X-10659424Y23014536D01*
X-11347015Y23002906D01*
X-11427888Y22845203D01*
X-11579899Y22628392D01*
X-11773633Y22475652D01*
X-11995915Y22391980D01*
X-12233572Y22382376D01*
X-12469500Y22450012D01*
X-12687267Y22592373D01*
X-12843593Y22782720D01*
X-12932259Y23007129D01*
X-12945075Y23219104D01*
X-12605248Y23219104D01*
X-12592316Y23055666D01*
X-12518066Y22904135D01*
X-12388207Y22788485D01*
X-12217046Y22718188D01*
X-12050414Y22727346D01*
X-11940801Y22771925D01*
X-11784844Y22892166D01*
X-11701887Y23055056D01*
X-11686334Y23187986D01*
X-11725258Y23360740D01*
X-11829180Y23506313D01*
X-11978830Y23605692D01*
X-12144519Y23640000D01*
X-12326499Y23604896D01*
X-12467304Y23511315D01*
X-12561899Y23376852D01*
X-12605248Y23219104D01*
X-12945075Y23219104D01*
X-12947045Y23251678D01*
X-12908390Y23432599D01*
X-12825632Y23590179D01*
X-12694464Y23746746D01*
X-12541734Y23874698D01*
X-12414285Y23940585D01*
X-12173348Y23979068D01*
X-11933351Y23944622D01*
X-11933351Y23944622D01*
G37*
X-11933351Y23944622D02*
X-11713405Y23845114D01*
X-11532620Y23688409D01*
X-11433686Y23536960D01*
X-11340114Y23343666D01*
X-9945556Y23343666D01*
X-9971834Y23026166D01*
X-10659424Y23014536D01*
X-11347015Y23002906D01*
X-11427888Y22845203D01*
X-11579899Y22628392D01*
X-11773633Y22475652D01*
X-11995915Y22391980D01*
X-12233572Y22382376D01*
X-12469500Y22450012D01*
X-12687267Y22592373D01*
X-12843593Y22782720D01*
X-12932259Y23007129D01*
X-12945075Y23219104D01*
X-12605248Y23219104D01*
X-12592316Y23055666D01*
X-12518066Y22904135D01*
X-12388207Y22788485D01*
X-12217046Y22718188D01*
X-12050414Y22727346D01*
X-11940801Y22771925D01*
X-11784844Y22892166D01*
X-11701887Y23055056D01*
X-11686334Y23187986D01*
X-11725258Y23360740D01*
X-11829180Y23506313D01*
X-11978830Y23605692D01*
X-12144519Y23640000D01*
X-12326499Y23604896D01*
X-12467304Y23511315D01*
X-12561899Y23376852D01*
X-12605248Y23219104D01*
X-12945075Y23219104D01*
X-12947045Y23251678D01*
X-12908390Y23432599D01*
X-12825632Y23590179D01*
X-12694464Y23746746D01*
X-12541734Y23874698D01*
X-12414285Y23940585D01*
X-12173348Y23979068D01*
X-11933351Y23944622D01*
G36*
X12996514Y24981897D02*
X13036322Y24968515D01*
X13036333Y24968244D01*
X13026102Y24923617D01*
X12997184Y24807351D01*
X12952237Y24629740D01*
X12893921Y24401076D01*
X12824895Y24131652D01*
X12747819Y23831761D01*
X12665352Y23511697D01*
X12580153Y23181751D01*
X12494883Y22852218D01*
X12412201Y22533389D01*
X12334765Y22235557D01*
X12265236Y21969016D01*
X12206273Y21744059D01*
X12160535Y21570977D01*
X12130682Y21460065D01*
X12121635Y21428083D01*
X12090848Y21384214D01*
X12019088Y21361438D01*
X11886321Y21354114D01*
X11858509Y21354000D01*
X11617723Y21354000D01*
X11258200Y22600805D01*
X11168391Y22908464D01*
X11085082Y23186629D01*
X11011302Y23425751D01*
X10950080Y23616280D01*
X10904444Y23748666D01*
X10877424Y23813361D01*
X10872182Y23817888D01*
X10855737Y23773169D01*
X10819636Y23659382D01*
X10767488Y23488866D01*
X10702904Y23273960D01*
X10629496Y23027003D01*
X10550874Y22760333D01*
X10470649Y22486290D01*
X10392431Y22217213D01*
X10319832Y21965440D01*
X10256461Y21743310D01*
X10205930Y21563162D01*
X10171849Y21437335D01*
X10157829Y21378168D01*
X10157666Y21376175D01*
X10119196Y21364478D01*
X10019207Y21356442D01*
X9903666Y21354000D01*
X9769677Y21356105D01*
X9677638Y21361576D01*
X9649666Y21367897D01*
X9639262Y21410436D01*
X9609511Y21526440D01*
X9562606Y21707495D01*
X9500740Y21945183D01*
X9426105Y22231091D01*
X9340895Y22556801D01*
X9247302Y22913899D01*
X9184000Y23155087D01*
X9086073Y23528784D01*
X8995146Y23877288D01*
X8913419Y24192050D01*
X8843094Y24464526D01*
X8786371Y24686165D01*
X8745451Y24848423D01*
X8722535Y24942751D01*
X8718333Y24963458D01*
X8756932Y24979335D01*
X8858224Y24987471D01*
X9000447Y24986142D01*
X9003335Y24986017D01*
X9288337Y24973500D01*
X9602997Y23682333D01*
X9680452Y23369208D01*
X9752374Y23087413D01*
X9816235Y22846161D01*
X9869506Y22654667D01*
X9909656Y22522143D01*
X9934157Y22457804D01*
X9939995Y22454666D01*
X9956719Y22510185D01*
X9993248Y22636592D01*
X10046555Y22823245D01*
X10113614Y23059500D01*
X10191399Y23334715D01*
X10276884Y23638248D01*
X10307115Y23745833D01*
X10651898Y24973500D01*
X11101788Y24973500D01*
X11454258Y23707997D01*
X11541718Y23395165D01*
X11622210Y23109522D01*
X11692877Y22861029D01*
X11750862Y22659648D01*
X11793307Y22515338D01*
X11817355Y22438063D01*
X11821463Y22427759D01*
X11834790Y22463527D01*
X11865587Y22571844D01*
X11911320Y22742988D01*
X11969452Y22967240D01*
X12037447Y23234879D01*
X12112769Y23536184D01*
X12151607Y23693262D01*
X12467016Y24973500D01*
X12751674Y24986017D01*
X12894371Y24988184D01*
X12996514Y24981897D01*
X12996514Y24981897D01*
G37*
X12996514Y24981897D02*
X13036322Y24968515D01*
X13036333Y24968244D01*
X13026102Y24923617D01*
X12997184Y24807351D01*
X12952237Y24629740D01*
X12893921Y24401076D01*
X12824895Y24131652D01*
X12747819Y23831761D01*
X12665352Y23511697D01*
X12580153Y23181751D01*
X12494883Y22852218D01*
X12412201Y22533389D01*
X12334765Y22235557D01*
X12265236Y21969016D01*
X12206273Y21744059D01*
X12160535Y21570977D01*
X12130682Y21460065D01*
X12121635Y21428083D01*
X12090848Y21384214D01*
X12019088Y21361438D01*
X11886321Y21354114D01*
X11858509Y21354000D01*
X11617723Y21354000D01*
X11258200Y22600805D01*
X11168391Y22908464D01*
X11085082Y23186629D01*
X11011302Y23425751D01*
X10950080Y23616280D01*
X10904444Y23748666D01*
X10877424Y23813361D01*
X10872182Y23817888D01*
X10855737Y23773169D01*
X10819636Y23659382D01*
X10767488Y23488866D01*
X10702904Y23273960D01*
X10629496Y23027003D01*
X10550874Y22760333D01*
X10470649Y22486290D01*
X10392431Y22217213D01*
X10319832Y21965440D01*
X10256461Y21743310D01*
X10205930Y21563162D01*
X10171849Y21437335D01*
X10157829Y21378168D01*
X10157666Y21376175D01*
X10119196Y21364478D01*
X10019207Y21356442D01*
X9903666Y21354000D01*
X9769677Y21356105D01*
X9677638Y21361576D01*
X9649666Y21367897D01*
X9639262Y21410436D01*
X9609511Y21526440D01*
X9562606Y21707495D01*
X9500740Y21945183D01*
X9426105Y22231091D01*
X9340895Y22556801D01*
X9247302Y22913899D01*
X9184000Y23155087D01*
X9086073Y23528784D01*
X8995146Y23877288D01*
X8913419Y24192050D01*
X8843094Y24464526D01*
X8786371Y24686165D01*
X8745451Y24848423D01*
X8722535Y24942751D01*
X8718333Y24963458D01*
X8756932Y24979335D01*
X8858224Y24987471D01*
X9000447Y24986142D01*
X9003335Y24986017D01*
X9288337Y24973500D01*
X9602997Y23682333D01*
X9680452Y23369208D01*
X9752374Y23087413D01*
X9816235Y22846161D01*
X9869506Y22654667D01*
X9909656Y22522143D01*
X9934157Y22457804D01*
X9939995Y22454666D01*
X9956719Y22510185D01*
X9993248Y22636592D01*
X10046555Y22823245D01*
X10113614Y23059500D01*
X10191399Y23334715D01*
X10276884Y23638248D01*
X10307115Y23745833D01*
X10651898Y24973500D01*
X11101788Y24973500D01*
X11454258Y23707997D01*
X11541718Y23395165D01*
X11622210Y23109522D01*
X11692877Y22861029D01*
X11750862Y22659648D01*
X11793307Y22515338D01*
X11817355Y22438063D01*
X11821463Y22427759D01*
X11834790Y22463527D01*
X11865587Y22571844D01*
X11911320Y22742988D01*
X11969452Y22967240D01*
X12037447Y23234879D01*
X12112769Y23536184D01*
X12151607Y23693262D01*
X12467016Y24973500D01*
X12751674Y24986017D01*
X12894371Y24988184D01*
X12996514Y24981897D01*
G36*
X8210333Y21349960D02*
X7951123Y21362563D01*
X7691912Y21375166D01*
X6861039Y22640341D01*
X6030166Y23905515D01*
X6018962Y22629758D01*
X6007758Y21354000D01*
X5458666Y21354000D01*
X5458666Y24994666D01*
X5723250Y24993557D01*
X5987833Y24992447D01*
X7638833Y22468487D01*
X7650037Y23731577D01*
X7661241Y24994666D01*
X8210333Y24994666D01*
X8210333Y21349960D01*
X8210333Y21349960D01*
G37*
X8210333Y21349960D02*
X7951123Y21362563D01*
X7691912Y21375166D01*
X6861039Y22640341D01*
X6030166Y23905515D01*
X6018962Y22629758D01*
X6007758Y21354000D01*
X5458666Y21354000D01*
X5458666Y24994666D01*
X5723250Y24993557D01*
X5987833Y24992447D01*
X7638833Y22468487D01*
X7650037Y23731577D01*
X7661241Y24994666D01*
X8210333Y24994666D01*
X8210333Y21349960D01*
G36*
X3388754Y24991935D02*
X3667749Y24981791D01*
X3887739Y24961308D01*
X4061494Y24927562D01*
X4201786Y24877627D01*
X4321386Y24808578D01*
X4433064Y24717489D01*
X4490802Y24661887D01*
X4631554Y24495394D01*
X4720973Y24334963D01*
X4733983Y24296166D01*
X4773333Y24064907D01*
X4774560Y23819984D01*
X4739051Y23596692D01*
X4702382Y23491470D01*
X4600312Y23330091D01*
X4453814Y23173868D01*
X4291302Y23049878D01*
X4183207Y22996753D01*
X4063952Y22955181D01*
X4464976Y22182731D01*
X4585644Y21948991D01*
X4691773Y21740909D01*
X4777548Y21570095D01*
X4837153Y21448158D01*
X4864773Y21386706D01*
X4866000Y21382141D01*
X4827246Y21368265D01*
X4725267Y21358214D01*
X4581486Y21354021D01*
X4569889Y21354000D01*
X4273779Y21354000D01*
X3510887Y22878000D01*
X2791666Y22878000D01*
X2791666Y21354000D01*
X2241333Y21354000D01*
X2241333Y24486666D01*
X2834000Y24486666D01*
X2834000Y23343666D01*
X3310250Y23343732D01*
X3545043Y23347159D01*
X3713868Y23358834D01*
X3835205Y23380959D01*
X3927537Y23415739D01*
X3931657Y23417816D01*
X4108641Y23544079D01*
X4211204Y23708062D01*
X4244171Y23917672D01*
X4244072Y23929979D01*
X4223680Y24119568D01*
X4163402Y24263696D01*
X4054903Y24367412D01*
X3889845Y24435766D01*
X3659893Y24473806D01*
X3356710Y24486583D01*
X3325018Y24486666D01*
X2834000Y24486666D01*
X2241333Y24486666D01*
X2241333Y24994666D01*
X3037983Y24994666D01*
X3388754Y24991935D01*
X3388754Y24991935D01*
G37*
X3388754Y24991935D02*
X3667749Y24981791D01*
X3887739Y24961308D01*
X4061494Y24927562D01*
X4201786Y24877627D01*
X4321386Y24808578D01*
X4433064Y24717489D01*
X4490802Y24661887D01*
X4631554Y24495394D01*
X4720973Y24334963D01*
X4733983Y24296166D01*
X4773333Y24064907D01*
X4774560Y23819984D01*
X4739051Y23596692D01*
X4702382Y23491470D01*
X4600312Y23330091D01*
X4453814Y23173868D01*
X4291302Y23049878D01*
X4183207Y22996753D01*
X4063952Y22955181D01*
X4464976Y22182731D01*
X4585644Y21948991D01*
X4691773Y21740909D01*
X4777548Y21570095D01*
X4837153Y21448158D01*
X4864773Y21386706D01*
X4866000Y21382141D01*
X4827246Y21368265D01*
X4725267Y21358214D01*
X4581486Y21354021D01*
X4569889Y21354000D01*
X4273779Y21354000D01*
X3510887Y22878000D01*
X2791666Y22878000D01*
X2791666Y21354000D01*
X2241333Y21354000D01*
X2241333Y24486666D01*
X2834000Y24486666D01*
X2834000Y23343666D01*
X3310250Y23343732D01*
X3545043Y23347159D01*
X3713868Y23358834D01*
X3835205Y23380959D01*
X3927537Y23415739D01*
X3931657Y23417816D01*
X4108641Y23544079D01*
X4211204Y23708062D01*
X4244171Y23917672D01*
X4244072Y23929979D01*
X4223680Y24119568D01*
X4163402Y24263696D01*
X4054903Y24367412D01*
X3889845Y24435766D01*
X3659893Y24473806D01*
X3356710Y24486583D01*
X3325018Y24486666D01*
X2834000Y24486666D01*
X2241333Y24486666D01*
X2241333Y24994666D01*
X3037983Y24994666D01*
X3388754Y24991935D01*
G36*
X1564000Y24486666D02*
X-214000Y24486666D01*
X-214000Y23428333D01*
X1314225Y23428333D01*
X1301529Y23184916D01*
X1288833Y22941500D01*
X537416Y22929940D01*
X-214000Y22918380D01*
X-214000Y21819666D01*
X1564000Y21819666D01*
X1564000Y21354000D01*
X-764334Y21354000D01*
X-764334Y24994666D01*
X1564000Y24994666D01*
X1564000Y24486666D01*
X1564000Y24486666D01*
G37*
X1564000Y24486666D02*
X-214000Y24486666D01*
X-214000Y23428333D01*
X1314225Y23428333D01*
X1301529Y23184916D01*
X1288833Y22941500D01*
X537416Y22929940D01*
X-214000Y22918380D01*
X-214000Y21819666D01*
X1564000Y21819666D01*
X1564000Y21354000D01*
X-764334Y21354000D01*
X-764334Y24994666D01*
X1564000Y24994666D01*
X1564000Y24486666D01*
G36*
X9932085Y20689066D02*
X9946000Y20634333D01*
X9916065Y20563581D01*
X9861333Y20549666D01*
X9790581Y20579601D01*
X9776666Y20634333D01*
X9806600Y20705085D01*
X9861333Y20719000D01*
X9932085Y20689066D01*
X9932085Y20689066D01*
G37*
X9932085Y20689066D02*
X9946000Y20634333D01*
X9916065Y20563581D01*
X9861333Y20549666D01*
X9790581Y20579601D01*
X9776666Y20634333D01*
X9806600Y20705085D01*
X9861333Y20719000D01*
X9932085Y20689066D01*
G36*
X3610261Y20671261D02*
X3630367Y20623264D01*
X3614769Y20563007D01*
X3556770Y20549666D01*
X3484395Y20577558D01*
X3469000Y20637437D01*
X3495607Y20700161D01*
X3553606Y20710477D01*
X3610261Y20671261D01*
X3610261Y20671261D01*
G37*
X3610261Y20671261D02*
X3630367Y20623264D01*
X3614769Y20563007D01*
X3556770Y20549666D01*
X3484395Y20577558D01*
X3469000Y20637437D01*
X3495607Y20700161D01*
X3553606Y20710477D01*
X3610261Y20671261D01*
G36*
X2354418Y20689066D02*
X2368333Y20634333D01*
X2338399Y20563581D01*
X2283666Y20549666D01*
X2212914Y20579601D01*
X2199000Y20634333D01*
X2228934Y20705085D01*
X2283666Y20719000D01*
X2354418Y20689066D01*
X2354418Y20689066D01*
G37*
X2354418Y20689066D02*
X2368333Y20634333D01*
X2338399Y20563581D01*
X2283666Y20549666D01*
X2212914Y20579601D01*
X2199000Y20634333D01*
X2228934Y20705085D01*
X2283666Y20719000D01*
X2354418Y20689066D01*
G36*
X11456085Y19757732D02*
X11470000Y19703000D01*
X11440065Y19632248D01*
X11385333Y19618333D01*
X11314581Y19648267D01*
X11300666Y19703000D01*
X11330600Y19773752D01*
X11385333Y19787666D01*
X11456085Y19757732D01*
X11456085Y19757732D01*
G37*
X11456085Y19757732D02*
X11470000Y19703000D01*
X11440065Y19632248D01*
X11385333Y19618333D01*
X11314581Y19648267D01*
X11300666Y19703000D01*
X11330600Y19773752D01*
X11385333Y19787666D01*
X11456085Y19757732D01*
G36*
X9901559Y20373967D02*
X9926555Y20344125D01*
X9939901Y20274693D01*
X9945180Y20149557D01*
X9946000Y19999333D01*
X9944585Y19818316D01*
X9937953Y19705834D01*
X9922524Y19645775D01*
X9894716Y19622023D01*
X9861333Y19618333D01*
X9821107Y19624699D01*
X9796111Y19654541D01*
X9782764Y19723973D01*
X9777486Y19849109D01*
X9776666Y19999333D01*
X9778081Y20180351D01*
X9784712Y20292832D01*
X9800142Y20352891D01*
X9827950Y20376644D01*
X9861333Y20380333D01*
X9901559Y20373967D01*
X9901559Y20373967D01*
G37*
X9901559Y20373967D02*
X9926555Y20344125D01*
X9939901Y20274693D01*
X9945180Y20149557D01*
X9946000Y19999333D01*
X9944585Y19818316D01*
X9937953Y19705834D01*
X9922524Y19645775D01*
X9894716Y19622023D01*
X9861333Y19618333D01*
X9821107Y19624699D01*
X9796111Y19654541D01*
X9782764Y19723973D01*
X9777486Y19849109D01*
X9776666Y19999333D01*
X9778081Y20180351D01*
X9784712Y20292832D01*
X9800142Y20352891D01*
X9827950Y20376644D01*
X9861333Y20380333D01*
X9901559Y20373967D01*
G36*
X9476494Y20372126D02*
X9579608Y20363162D01*
X9615890Y20353878D01*
X9633448Y20312008D01*
X9595454Y20266945D01*
X9527508Y20239630D01*
X9478551Y20241533D01*
X9377587Y20242343D01*
X9311360Y20178411D01*
X9276421Y20043928D01*
X9268666Y19888316D01*
X9265927Y19741105D01*
X9253766Y19659623D01*
X9226268Y19625008D01*
X9184000Y19618333D01*
X9143584Y19624764D01*
X9118557Y19654860D01*
X9105274Y19724824D01*
X9100093Y19850857D01*
X9099333Y19994955D01*
X9099333Y20371577D01*
X9338667Y20374435D01*
X9476494Y20372126D01*
X9476494Y20372126D01*
G37*
X9476494Y20372126D02*
X9579608Y20363162D01*
X9615890Y20353878D01*
X9633448Y20312008D01*
X9595454Y20266945D01*
X9527508Y20239630D01*
X9478551Y20241533D01*
X9377587Y20242343D01*
X9311360Y20178411D01*
X9276421Y20043928D01*
X9268666Y19888316D01*
X9265927Y19741105D01*
X9253766Y19659623D01*
X9226268Y19625008D01*
X9184000Y19618333D01*
X9143584Y19624764D01*
X9118557Y19654860D01*
X9105274Y19724824D01*
X9100093Y19850857D01*
X9099333Y19994955D01*
X9099333Y20371577D01*
X9338667Y20374435D01*
X9476494Y20372126D01*
G36*
X4270716Y20363578D02*
X4381676Y20323949D01*
X4447087Y20239694D01*
X4477871Y20097459D01*
X4485000Y19905247D01*
X4482567Y19752521D01*
X4471658Y19666039D01*
X4446851Y19627435D01*
X4402727Y19618343D01*
X4400333Y19618333D01*
X4355688Y19626392D01*
X4330189Y19662682D01*
X4318599Y19745378D01*
X4315682Y19892650D01*
X4315666Y19912168D01*
X4309635Y20089351D01*
X4286488Y20195110D01*
X4238640Y20242150D01*
X4158510Y20243173D01*
X4122760Y20235345D01*
X4068452Y20215777D01*
X4037454Y20177827D01*
X4023279Y20101327D01*
X4019439Y19966114D01*
X4019333Y19913860D01*
X4017037Y19758383D01*
X4006686Y19669399D01*
X3983087Y19628782D01*
X3941048Y19618407D01*
X3934666Y19618333D01*
X3894181Y19624789D01*
X3869141Y19654980D01*
X3855882Y19725142D01*
X3850738Y19851512D01*
X3850000Y19993339D01*
X3850000Y20368345D01*
X4103282Y20371936D01*
X4270716Y20363578D01*
X4270716Y20363578D01*
G37*
X4270716Y20363578D02*
X4381676Y20323949D01*
X4447087Y20239694D01*
X4477871Y20097459D01*
X4485000Y19905247D01*
X4482567Y19752521D01*
X4471658Y19666039D01*
X4446851Y19627435D01*
X4402727Y19618343D01*
X4400333Y19618333D01*
X4355688Y19626392D01*
X4330189Y19662682D01*
X4318599Y19745378D01*
X4315682Y19892650D01*
X4315666Y19912168D01*
X4309635Y20089351D01*
X4286488Y20195110D01*
X4238640Y20242150D01*
X4158510Y20243173D01*
X4122760Y20235345D01*
X4068452Y20215777D01*
X4037454Y20177827D01*
X4023279Y20101327D01*
X4019439Y19966114D01*
X4019333Y19913860D01*
X4017037Y19758383D01*
X4006686Y19669399D01*
X3983087Y19628782D01*
X3941048Y19618407D01*
X3934666Y19618333D01*
X3894181Y19624789D01*
X3869141Y19654980D01*
X3855882Y19725142D01*
X3850738Y19851512D01*
X3850000Y19993339D01*
X3850000Y20368345D01*
X4103282Y20371936D01*
X4270716Y20363578D01*
G36*
X3563479Y20365486D02*
X3582775Y20311297D01*
X3592800Y20203298D01*
X3595966Y20027020D01*
X3596000Y19999333D01*
X3593525Y19813458D01*
X3584493Y19697679D01*
X3566494Y19637528D01*
X3537114Y19618534D01*
X3532500Y19618333D01*
X3501520Y19633181D01*
X3482224Y19687369D01*
X3472199Y19795368D01*
X3469033Y19971646D01*
X3469000Y19999333D01*
X3471474Y20185208D01*
X3480506Y20300987D01*
X3498505Y20361139D01*
X3527885Y20380132D01*
X3532500Y20380333D01*
X3563479Y20365486D01*
X3563479Y20365486D01*
G37*
X3563479Y20365486D02*
X3582775Y20311297D01*
X3592800Y20203298D01*
X3595966Y20027020D01*
X3596000Y19999333D01*
X3593525Y19813458D01*
X3584493Y19697679D01*
X3566494Y19637528D01*
X3537114Y19618534D01*
X3532500Y19618333D01*
X3501520Y19633181D01*
X3482224Y19687369D01*
X3472199Y19795368D01*
X3469033Y19971646D01*
X3469000Y19999333D01*
X3471474Y20185208D01*
X3480506Y20300987D01*
X3498505Y20361139D01*
X3527885Y20380132D01*
X3532500Y20380333D01*
X3563479Y20365486D01*
G36*
X2323892Y20373967D02*
X2348888Y20344125D01*
X2362235Y20274693D01*
X2367513Y20149557D01*
X2368333Y19999333D01*
X2366918Y19818316D01*
X2360287Y19705834D01*
X2344857Y19645775D01*
X2317049Y19622023D01*
X2283666Y19618333D01*
X2243440Y19624699D01*
X2218444Y19654541D01*
X2205098Y19723973D01*
X2199819Y19849109D01*
X2199000Y19999333D01*
X2200414Y20180351D01*
X2207046Y20292832D01*
X2222475Y20352891D01*
X2250283Y20376644D01*
X2283666Y20380333D01*
X2323892Y20373967D01*
X2323892Y20373967D01*
G37*
X2323892Y20373967D02*
X2348888Y20344125D01*
X2362235Y20274693D01*
X2367513Y20149557D01*
X2368333Y19999333D01*
X2366918Y19818316D01*
X2360287Y19705834D01*
X2344857Y19645775D01*
X2317049Y19622023D01*
X2283666Y19618333D01*
X2243440Y19624699D01*
X2218444Y19654541D01*
X2205098Y19723973D01*
X2199819Y19849109D01*
X2199000Y19999333D01*
X2200414Y20180351D01*
X2207046Y20292832D01*
X2222475Y20352891D01*
X2250283Y20376644D01*
X2283666Y20380333D01*
X2323892Y20373967D01*
G36*
X2037681Y20378557D02*
X2060639Y20363734D01*
X2060948Y20321619D01*
X2036643Y20237969D01*
X1985761Y20098539D01*
X1937724Y19971827D01*
X1855689Y19773063D01*
X1787526Y19655973D01*
X1726894Y19620007D01*
X1667456Y19664621D01*
X1602873Y19789267D01*
X1546146Y19938043D01*
X1489607Y20096710D01*
X1442148Y20228817D01*
X1412407Y20310349D01*
X1409127Y20319043D01*
X1418371Y20369525D01*
X1471401Y20380333D01*
X1530452Y20359895D01*
X1580371Y20287649D01*
X1629301Y20158083D01*
X1674526Y20028801D01*
X1713839Y19933625D01*
X1731424Y19902729D01*
X1757762Y19922021D01*
X1797266Y20004810D01*
X1838756Y20124979D01*
X1891282Y20275218D01*
X1939591Y20355684D01*
X1992159Y20380311D01*
X1994035Y20380333D01*
X2037681Y20378557D01*
X2037681Y20378557D01*
G37*
X2037681Y20378557D02*
X2060639Y20363734D01*
X2060948Y20321619D01*
X2036643Y20237969D01*
X1985761Y20098539D01*
X1937724Y19971827D01*
X1855689Y19773063D01*
X1787526Y19655973D01*
X1726894Y19620007D01*
X1667456Y19664621D01*
X1602873Y19789267D01*
X1546146Y19938043D01*
X1489607Y20096710D01*
X1442148Y20228817D01*
X1412407Y20310349D01*
X1409127Y20319043D01*
X1418371Y20369525D01*
X1471401Y20380333D01*
X1530452Y20359895D01*
X1580371Y20287649D01*
X1629301Y20158083D01*
X1674526Y20028801D01*
X1713839Y19933625D01*
X1731424Y19902729D01*
X1757762Y19922021D01*
X1797266Y20004810D01*
X1838756Y20124979D01*
X1891282Y20275218D01*
X1939591Y20355684D01*
X1992159Y20380311D01*
X1994035Y20380333D01*
X2037681Y20378557D01*
G36*
X1131159Y20344119D02*
X1245050Y20241858D01*
X1303808Y20083126D01*
X1310000Y19999333D01*
X1277745Y19819130D01*
X1186667Y19691256D01*
X1045291Y19625285D01*
X970661Y19618333D01*
X837189Y19635949D01*
X752510Y19696970D01*
X740900Y19712419D01*
X699925Y19813001D01*
X680049Y19932139D01*
X814237Y19932139D01*
X843305Y19831920D01*
X914377Y19761307D01*
X1005930Y19753379D01*
X1076502Y19770353D01*
X1112534Y19815955D01*
X1128737Y19914357D01*
X1132122Y19960708D01*
X1122187Y20123102D01*
X1069046Y20218453D01*
X975629Y20242756D01*
X932502Y20233278D01*
X862274Y20171660D01*
X820452Y20060478D01*
X814237Y19932139D01*
X680049Y19932139D01*
X676858Y19951262D01*
X675000Y19999333D01*
X696892Y20189910D01*
X765290Y20312474D01*
X884272Y20372281D01*
X970661Y20380333D01*
X1131159Y20344119D01*
X1131159Y20344119D01*
G37*
X1131159Y20344119D02*
X1245050Y20241858D01*
X1303808Y20083126D01*
X1310000Y19999333D01*
X1277745Y19819130D01*
X1186667Y19691256D01*
X1045291Y19625285D01*
X970661Y19618333D01*
X837189Y19635949D01*
X752510Y19696970D01*
X740900Y19712419D01*
X699925Y19813001D01*
X680049Y19932139D01*
X814237Y19932139D01*
X843305Y19831920D01*
X914377Y19761307D01*
X1005930Y19753379D01*
X1076502Y19770353D01*
X1112534Y19815955D01*
X1128737Y19914357D01*
X1132122Y19960708D01*
X1122187Y20123102D01*
X1069046Y20218453D01*
X975629Y20242756D01*
X932502Y20233278D01*
X862274Y20171660D01*
X820452Y20060478D01*
X814237Y19932139D01*
X680049Y19932139D01*
X676858Y19951262D01*
X675000Y19999333D01*
X696892Y20189910D01*
X765290Y20312474D01*
X884272Y20372281D01*
X970661Y20380333D01*
X1131159Y20344119D01*
G36*
X495117Y20367831D02*
X578281Y20345008D01*
X582939Y20305208D01*
X537416Y20267721D01*
X454363Y20245828D01*
X392156Y20246705D01*
X301125Y20226355D01*
X241977Y20135108D01*
X213020Y19969331D01*
X209333Y19853950D01*
X203754Y19712594D01*
X184147Y19639378D01*
X146210Y19618334D01*
X145833Y19618333D01*
X114586Y19633357D01*
X95241Y19688143D01*
X85320Y19797260D01*
X82345Y19975276D01*
X82333Y19991755D01*
X82333Y20365177D01*
X336333Y20372178D01*
X495117Y20367831D01*
X495117Y20367831D01*
G37*
X495117Y20367831D02*
X578281Y20345008D01*
X582939Y20305208D01*
X537416Y20267721D01*
X454363Y20245828D01*
X392156Y20246705D01*
X301125Y20226355D01*
X241977Y20135108D01*
X213020Y19969331D01*
X209333Y19853950D01*
X203754Y19712594D01*
X184147Y19639378D01*
X146210Y19618334D01*
X145833Y19618333D01*
X114586Y19633357D01*
X95241Y19688143D01*
X85320Y19797260D01*
X82345Y19975276D01*
X82333Y19991755D01*
X82333Y20365177D01*
X336333Y20372178D01*
X495117Y20367831D01*
G36*
X-5650803Y26720705D02*
X-5271230Y26657966D01*
X-4907830Y26546881D01*
X-4555452Y26393001D01*
X-4078214Y26115199D01*
X-3662750Y25779657D01*
X-3307434Y25384749D01*
X-3010640Y24928850D01*
X-2923836Y24761833D01*
X-2788391Y24471067D01*
X-2691257Y24220150D01*
X-2626441Y23982859D01*
X-2587952Y23732971D01*
X-2569798Y23444264D01*
X-2565949Y23195500D01*
X-2570748Y22871818D01*
X-2590639Y22604956D01*
X-2630500Y22367681D01*
X-2695208Y22132766D01*
X-2789641Y21872979D01*
X-2813595Y21812987D01*
X-3036944Y21368364D01*
X-3333052Y20950376D01*
X-3691457Y20570065D01*
X-4101699Y20238475D01*
X-4553318Y19966647D01*
X-4571034Y19957705D01*
X-4969882Y19797349D01*
X-5416122Y19686284D01*
X-5886618Y19626953D01*
X-6358233Y19621805D01*
X-6807833Y19673284D01*
X-6957053Y19705462D01*
X-7467179Y19872467D01*
X-7938011Y20109188D01*
X-8364249Y20408508D01*
X-8740590Y20763309D01*
X-9061731Y21166473D01*
X-9322372Y21610883D01*
X-9517209Y22089421D01*
X-9640941Y22594970D01*
X-9688265Y23120412D01*
X-9688254Y23120952D01*
X-9097769Y23120952D01*
X-9094291Y23016831D01*
X-9081284Y22776062D01*
X-9061383Y22590759D01*
X-9029404Y22431739D01*
X-8980161Y22269817D01*
X-8943462Y22167936D01*
X-8733144Y21719614D01*
X-8456319Y21313805D01*
X-8121605Y20957805D01*
X-7737621Y20658912D01*
X-7312983Y20424422D01*
X-6856310Y20261630D01*
X-6633304Y20212006D01*
X-6393642Y20187208D01*
X-6105513Y20185324D01*
X-5801358Y20204320D01*
X-5513617Y20242159D01*
X-5274730Y20296805D01*
X-5272834Y20297388D01*
X-4916324Y20426652D01*
X-4606186Y20585709D01*
X-4316721Y20790317D01*
X-4022231Y21056239D01*
X-4000833Y21077489D01*
X-3816938Y21267393D01*
X-3680443Y21426513D01*
X-3573719Y21578280D01*
X-3479134Y21746123D01*
X-3442379Y21819666D01*
X-3294856Y22152971D01*
X-3197296Y22456304D01*
X-3142082Y22761769D01*
X-3121600Y23101469D01*
X-3121003Y23174333D01*
X-3138279Y23558655D01*
X-3196259Y23899243D01*
X-3302462Y24230256D01*
X-3405202Y24465500D01*
X-3658197Y24902080D01*
X-3973339Y25283217D01*
X-4345242Y25604538D01*
X-4768523Y25861668D01*
X-5237798Y26050234D01*
X-5418364Y26100843D01*
X-5811901Y26165678D01*
X-6233045Y26176601D01*
X-6650162Y26134831D01*
X-7031619Y26041587D01*
X-7041316Y26038303D01*
X-7499974Y25838773D01*
X-7918419Y25570640D01*
X-8287887Y25242021D01*
X-8599617Y24861034D01*
X-8844843Y24435795D01*
X-8896065Y24320335D01*
X-8997550Y24040779D01*
X-9062355Y23765061D01*
X-9094441Y23467134D01*
X-9097769Y23120952D01*
X-9688254Y23120952D01*
X-9683030Y23364833D01*
X-9611786Y23917589D01*
X-9462833Y24436838D01*
X-9236616Y24921588D01*
X-8933580Y25370844D01*
X-8632676Y25707485D01*
X-8214613Y26069887D01*
X-7766234Y26353607D01*
X-7285531Y26559456D01*
X-6770497Y26688247D01*
X-6219126Y26740793D01*
X-6077167Y26742123D01*
X-5650803Y26720705D01*
X-5650803Y26720705D01*
G37*
X-5650803Y26720705D02*
X-5271230Y26657966D01*
X-4907830Y26546881D01*
X-4555452Y26393001D01*
X-4078214Y26115199D01*
X-3662750Y25779657D01*
X-3307434Y25384749D01*
X-3010640Y24928850D01*
X-2923836Y24761833D01*
X-2788391Y24471067D01*
X-2691257Y24220150D01*
X-2626441Y23982859D01*
X-2587952Y23732971D01*
X-2569798Y23444264D01*
X-2565949Y23195500D01*
X-2570748Y22871818D01*
X-2590639Y22604956D01*
X-2630500Y22367681D01*
X-2695208Y22132766D01*
X-2789641Y21872979D01*
X-2813595Y21812987D01*
X-3036944Y21368364D01*
X-3333052Y20950376D01*
X-3691457Y20570065D01*
X-4101699Y20238475D01*
X-4553318Y19966647D01*
X-4571034Y19957705D01*
X-4969882Y19797349D01*
X-5416122Y19686284D01*
X-5886618Y19626953D01*
X-6358233Y19621805D01*
X-6807833Y19673284D01*
X-6957053Y19705462D01*
X-7467179Y19872467D01*
X-7938011Y20109188D01*
X-8364249Y20408508D01*
X-8740590Y20763309D01*
X-9061731Y21166473D01*
X-9322372Y21610883D01*
X-9517209Y22089421D01*
X-9640941Y22594970D01*
X-9688265Y23120412D01*
X-9688254Y23120952D01*
X-9097769Y23120952D01*
X-9094291Y23016831D01*
X-9081284Y22776062D01*
X-9061383Y22590759D01*
X-9029404Y22431739D01*
X-8980161Y22269817D01*
X-8943462Y22167936D01*
X-8733144Y21719614D01*
X-8456319Y21313805D01*
X-8121605Y20957805D01*
X-7737621Y20658912D01*
X-7312983Y20424422D01*
X-6856310Y20261630D01*
X-6633304Y20212006D01*
X-6393642Y20187208D01*
X-6105513Y20185324D01*
X-5801358Y20204320D01*
X-5513617Y20242159D01*
X-5274730Y20296805D01*
X-5272834Y20297388D01*
X-4916324Y20426652D01*
X-4606186Y20585709D01*
X-4316721Y20790317D01*
X-4022231Y21056239D01*
X-4000833Y21077489D01*
X-3816938Y21267393D01*
X-3680443Y21426513D01*
X-3573719Y21578280D01*
X-3479134Y21746123D01*
X-3442379Y21819666D01*
X-3294856Y22152971D01*
X-3197296Y22456304D01*
X-3142082Y22761769D01*
X-3121600Y23101469D01*
X-3121003Y23174333D01*
X-3138279Y23558655D01*
X-3196259Y23899243D01*
X-3302462Y24230256D01*
X-3405202Y24465500D01*
X-3658197Y24902080D01*
X-3973339Y25283217D01*
X-4345242Y25604538D01*
X-4768523Y25861668D01*
X-5237798Y26050234D01*
X-5418364Y26100843D01*
X-5811901Y26165678D01*
X-6233045Y26176601D01*
X-6650162Y26134831D01*
X-7031619Y26041587D01*
X-7041316Y26038303D01*
X-7499974Y25838773D01*
X-7918419Y25570640D01*
X-8287887Y25242021D01*
X-8599617Y24861034D01*
X-8844843Y24435795D01*
X-8896065Y24320335D01*
X-8997550Y24040779D01*
X-9062355Y23765061D01*
X-9094441Y23467134D01*
X-9097769Y23120952D01*
X-9688254Y23120952D01*
X-9683030Y23364833D01*
X-9611786Y23917589D01*
X-9462833Y24436838D01*
X-9236616Y24921588D01*
X-8933580Y25370844D01*
X-8632676Y25707485D01*
X-8214613Y26069887D01*
X-7766234Y26353607D01*
X-7285531Y26559456D01*
X-6770497Y26688247D01*
X-6219126Y26740793D01*
X-6077167Y26742123D01*
X-5650803Y26720705D01*
G36*
X10314571Y20555199D02*
X10327000Y20486166D01*
X10346843Y20403176D01*
X10411666Y20380333D01*
X10480328Y20355932D01*
X10496333Y20321771D01*
X10460865Y20264909D01*
X10411666Y20241067D01*
X10360716Y20213973D01*
X10335185Y20152351D01*
X10327189Y20033691D01*
X10327000Y19999333D01*
X10332309Y19865799D01*
X10353494Y19794041D01*
X10398438Y19761549D01*
X10411666Y19757599D01*
X10480842Y19705839D01*
X10496333Y19655729D01*
X10485446Y19593346D01*
X10441117Y19582712D01*
X10345840Y19621230D01*
X10327000Y19630619D01*
X10269501Y19668294D01*
X10235830Y19723760D01*
X10218046Y19819699D01*
X10208649Y19968662D01*
X10196877Y20111501D01*
X10177981Y20213674D01*
X10156022Y20253326D01*
X10155732Y20253333D01*
X10119881Y20287651D01*
X10115333Y20316833D01*
X10138192Y20373169D01*
X10157666Y20380333D01*
X10189489Y20416561D01*
X10200000Y20486166D01*
X10222080Y20571286D01*
X10263500Y20592000D01*
X10314571Y20555199D01*
X10314571Y20555199D01*
G37*
X10314571Y20555199D02*
X10327000Y20486166D01*
X10346843Y20403176D01*
X10411666Y20380333D01*
X10480328Y20355932D01*
X10496333Y20321771D01*
X10460865Y20264909D01*
X10411666Y20241067D01*
X10360716Y20213973D01*
X10335185Y20152351D01*
X10327189Y20033691D01*
X10327000Y19999333D01*
X10332309Y19865799D01*
X10353494Y19794041D01*
X10398438Y19761549D01*
X10411666Y19757599D01*
X10480842Y19705839D01*
X10496333Y19655729D01*
X10485446Y19593346D01*
X10441117Y19582712D01*
X10345840Y19621230D01*
X10327000Y19630619D01*
X10269501Y19668294D01*
X10235830Y19723760D01*
X10218046Y19819699D01*
X10208649Y19968662D01*
X10196877Y20111501D01*
X10177981Y20213674D01*
X10156022Y20253326D01*
X10155732Y20253333D01*
X10119881Y20287651D01*
X10115333Y20316833D01*
X10138192Y20373169D01*
X10157666Y20380333D01*
X10189489Y20416561D01*
X10200000Y20486166D01*
X10222080Y20571286D01*
X10263500Y20592000D01*
X10314571Y20555199D01*
G36*
X8812872Y20365447D02*
X8832179Y20311126D01*
X8842182Y20202879D01*
X8845305Y20026216D01*
X8845333Y20001037D01*
X8845333Y19621742D01*
X8728916Y19625039D01*
X8606420Y19616870D01*
X8525403Y19599363D01*
X8413690Y19605824D01*
X8335958Y19653267D01*
X8281908Y19707743D01*
X8248571Y19778497D01*
X8229247Y19888398D01*
X8217344Y20058239D01*
X8210636Y20221287D01*
X8213607Y20317427D01*
X8230238Y20364225D01*
X8264513Y20379248D01*
X8290372Y20380333D01*
X8340370Y20372069D01*
X8367231Y20334157D01*
X8377970Y20246919D01*
X8379666Y20129796D01*
X8385257Y19943170D01*
X8405595Y19826433D01*
X8446027Y19765329D01*
X8511901Y19745604D01*
X8523895Y19745333D01*
X8621208Y19764584D01*
X8681546Y19830784D01*
X8711597Y19956605D01*
X8718333Y20113633D01*
X8722809Y20265260D01*
X8738755Y20348436D01*
X8769949Y20379029D01*
X8781833Y20380333D01*
X8812872Y20365447D01*
X8812872Y20365447D01*
G37*
X8812872Y20365447D02*
X8832179Y20311126D01*
X8842182Y20202879D01*
X8845305Y20026216D01*
X8845333Y20001037D01*
X8845333Y19621742D01*
X8728916Y19625039D01*
X8606420Y19616870D01*
X8525403Y19599363D01*
X8413690Y19605824D01*
X8335958Y19653267D01*
X8281908Y19707743D01*
X8248571Y19778497D01*
X8229247Y19888398D01*
X8217344Y20058239D01*
X8210636Y20221287D01*
X8213607Y20317427D01*
X8230238Y20364225D01*
X8264513Y20379248D01*
X8290372Y20380333D01*
X8340370Y20372069D01*
X8367231Y20334157D01*
X8377970Y20246919D01*
X8379666Y20129796D01*
X8385257Y19943170D01*
X8405595Y19826433D01*
X8446027Y19765329D01*
X8511901Y19745604D01*
X8523895Y19745333D01*
X8621208Y19764584D01*
X8681546Y19830784D01*
X8711597Y19956605D01*
X8718333Y20113633D01*
X8722809Y20265260D01*
X8738755Y20348436D01*
X8769949Y20379029D01*
X8781833Y20380333D01*
X8812872Y20365447D01*
G36*
X7942772Y20356320D02*
X7997127Y20318688D01*
X8032365Y20242593D01*
X8000468Y20201441D01*
X7916346Y20209258D01*
X7891493Y20219313D01*
X7798524Y20243742D01*
X7720258Y20205410D01*
X7702505Y20189989D01*
X7632581Y20085874D01*
X7615518Y19966595D01*
X7642834Y19852480D01*
X7706050Y19763857D01*
X7796682Y19721053D01*
X7891493Y19737020D01*
X7984690Y19762229D01*
X8023099Y19740048D01*
X8023827Y19679593D01*
X7963204Y19630356D01*
X7864489Y19600458D01*
X7750940Y19598019D01*
X7673051Y19617828D01*
X7554339Y19708235D01*
X7480218Y19846790D01*
X7454297Y20007552D01*
X7480183Y20164583D01*
X7561485Y20291943D01*
X7577356Y20305817D01*
X7690358Y20360871D01*
X7823951Y20378066D01*
X7942772Y20356320D01*
X7942772Y20356320D01*
G37*
X7942772Y20356320D02*
X7997127Y20318688D01*
X8032365Y20242593D01*
X8000468Y20201441D01*
X7916346Y20209258D01*
X7891493Y20219313D01*
X7798524Y20243742D01*
X7720258Y20205410D01*
X7702505Y20189989D01*
X7632581Y20085874D01*
X7615518Y19966595D01*
X7642834Y19852480D01*
X7706050Y19763857D01*
X7796682Y19721053D01*
X7891493Y19737020D01*
X7984690Y19762229D01*
X8023099Y19740048D01*
X8023827Y19679593D01*
X7963204Y19630356D01*
X7864489Y19600458D01*
X7750940Y19598019D01*
X7673051Y19617828D01*
X7554339Y19708235D01*
X7480218Y19846790D01*
X7454297Y20007552D01*
X7480183Y20164583D01*
X7561485Y20291943D01*
X7577356Y20305817D01*
X7690358Y20360871D01*
X7823951Y20378066D01*
X7942772Y20356320D01*
G36*
X7103101Y20342214D02*
X7211511Y20244697D01*
X7272953Y20113045D01*
X7279000Y20057124D01*
X7272238Y19999979D01*
X7238278Y19970057D01*
X7156610Y19958649D01*
X7043222Y19957000D01*
X6909275Y19954340D01*
X6840729Y19940867D01*
X6818357Y19908342D01*
X6820972Y19861750D01*
X6840821Y19802208D01*
X6893861Y19774206D01*
X7004010Y19766578D01*
X7025000Y19766500D01*
X7161965Y19754752D01*
X7226454Y19722692D01*
X7214203Y19675096D01*
X7147250Y19629541D01*
X7013137Y19583521D01*
X6879991Y19599354D01*
X6826684Y19618629D01*
X6718889Y19699207D01*
X6659381Y19838925D01*
X6644000Y20010337D01*
X6664741Y20125527D01*
X6813333Y20125527D01*
X6830566Y20067268D01*
X6897109Y20044101D01*
X6959001Y20041666D01*
X7063181Y20051183D01*
X7124296Y20074428D01*
X7126978Y20077763D01*
X7122788Y20136407D01*
X7093730Y20189839D01*
X7016579Y20240482D01*
X6922049Y20240472D01*
X6843312Y20197419D01*
X6813333Y20125527D01*
X6664741Y20125527D01*
X6675988Y20187987D01*
X6766399Y20312668D01*
X6906900Y20374970D01*
X6971739Y20380333D01*
X7103101Y20342214D01*
X7103101Y20342214D01*
G37*
X7103101Y20342214D02*
X7211511Y20244697D01*
X7272953Y20113045D01*
X7279000Y20057124D01*
X7272238Y19999979D01*
X7238278Y19970057D01*
X7156610Y19958649D01*
X7043222Y19957000D01*
X6909275Y19954340D01*
X6840729Y19940867D01*
X6818357Y19908342D01*
X6820972Y19861750D01*
X6840821Y19802208D01*
X6893861Y19774206D01*
X7004010Y19766578D01*
X7025000Y19766500D01*
X7161965Y19754752D01*
X7226454Y19722692D01*
X7214203Y19675096D01*
X7147250Y19629541D01*
X7013137Y19583521D01*
X6879991Y19599354D01*
X6826684Y19618629D01*
X6718889Y19699207D01*
X6659381Y19838925D01*
X6644000Y20010337D01*
X6664741Y20125527D01*
X6813333Y20125527D01*
X6830566Y20067268D01*
X6897109Y20044101D01*
X6959001Y20041666D01*
X7063181Y20051183D01*
X7124296Y20074428D01*
X7126978Y20077763D01*
X7122788Y20136407D01*
X7093730Y20189839D01*
X7016579Y20240482D01*
X6922049Y20240472D01*
X6843312Y20197419D01*
X6813333Y20125527D01*
X6664741Y20125527D01*
X6675988Y20187987D01*
X6766399Y20312668D01*
X6906900Y20374970D01*
X6971739Y20380333D01*
X7103101Y20342214D01*
G36*
X6357004Y20356521D02*
X6384840Y20342085D01*
X6427260Y20291872D01*
X6400110Y20252567D01*
X6318488Y20234907D01*
X6241807Y20240371D01*
X6134042Y20246966D01*
X6079571Y20215539D01*
X6067081Y20190978D01*
X6071456Y20110997D01*
X6147472Y20058837D01*
X6265116Y20042315D01*
X6367759Y20022953D01*
X6423866Y19990866D01*
X6466173Y19900867D01*
X6469845Y19784369D01*
X6435726Y19685909D01*
X6417715Y19666101D01*
X6307561Y19615644D01*
X6158920Y19595364D01*
X6014322Y19610855D01*
X6009000Y19612364D01*
X5914714Y19656575D01*
X5897144Y19703496D01*
X5949321Y19742975D01*
X6064277Y19764866D01*
X6114833Y19766500D01*
X6257618Y19780280D01*
X6326974Y19814733D01*
X6320129Y19859526D01*
X6234309Y19904327D01*
X6157166Y19924275D01*
X5997255Y19980950D01*
X5906831Y20065844D01*
X5890761Y20169467D01*
X5953912Y20282331D01*
X5966666Y20295666D01*
X6078776Y20358106D01*
X6223581Y20380022D01*
X6357004Y20356521D01*
X6357004Y20356521D01*
G37*
X6357004Y20356521D02*
X6384840Y20342085D01*
X6427260Y20291872D01*
X6400110Y20252567D01*
X6318488Y20234907D01*
X6241807Y20240371D01*
X6134042Y20246966D01*
X6079571Y20215539D01*
X6067081Y20190978D01*
X6071456Y20110997D01*
X6147472Y20058837D01*
X6265116Y20042315D01*
X6367759Y20022953D01*
X6423866Y19990866D01*
X6466173Y19900867D01*
X6469845Y19784369D01*
X6435726Y19685909D01*
X6417715Y19666101D01*
X6307561Y19615644D01*
X6158920Y19595364D01*
X6014322Y19610855D01*
X6009000Y19612364D01*
X5914714Y19656575D01*
X5897144Y19703496D01*
X5949321Y19742975D01*
X6064277Y19764866D01*
X6114833Y19766500D01*
X6257618Y19780280D01*
X6326974Y19814733D01*
X6320129Y19859526D01*
X6234309Y19904327D01*
X6157166Y19924275D01*
X5997255Y19980950D01*
X5906831Y20065844D01*
X5890761Y20169467D01*
X5953912Y20282331D01*
X5966666Y20295666D01*
X6078776Y20358106D01*
X6223581Y20380022D01*
X6357004Y20356521D01*
G36*
X3165451Y20671852D02*
X3189237Y20648245D01*
X3203887Y20592099D01*
X3211597Y20489671D01*
X3214564Y20327213D01*
X3215000Y20146827D01*
X3215000Y19616988D01*
X3098583Y19621304D01*
X2973189Y19613764D01*
X2889305Y19596497D01*
X2798791Y19596078D01*
X2702461Y19661722D01*
X2688221Y19675596D01*
X2616346Y19768996D01*
X2584936Y19881475D01*
X2584112Y19899265D01*
X2747229Y19899265D01*
X2762023Y19800650D01*
X2777555Y19773555D01*
X2838188Y19751213D01*
X2903749Y19745333D01*
X2992055Y19776654D01*
X3026998Y19846051D01*
X3043788Y19995642D01*
X3021965Y20122645D01*
X2970463Y20211454D01*
X2898217Y20246466D01*
X2816381Y20213945D01*
X2777591Y20142012D01*
X2753480Y20025085D01*
X2747229Y19899265D01*
X2584112Y19899265D01*
X2580000Y19987989D01*
X2599958Y20183967D01*
X2662247Y20309263D01*
X2770486Y20368494D01*
X2881502Y20372585D01*
X3045666Y20356929D01*
X3045666Y20516798D01*
X3053697Y20623761D01*
X3085696Y20669318D01*
X3130333Y20676666D01*
X3165451Y20671852D01*
X3165451Y20671852D01*
G37*
X3165451Y20671852D02*
X3189237Y20648245D01*
X3203887Y20592099D01*
X3211597Y20489671D01*
X3214564Y20327213D01*
X3215000Y20146827D01*
X3215000Y19616988D01*
X3098583Y19621304D01*
X2973189Y19613764D01*
X2889305Y19596497D01*
X2798791Y19596078D01*
X2702461Y19661722D01*
X2688221Y19675596D01*
X2616346Y19768996D01*
X2584936Y19881475D01*
X2584112Y19899265D01*
X2747229Y19899265D01*
X2762023Y19800650D01*
X2777555Y19773555D01*
X2838188Y19751213D01*
X2903749Y19745333D01*
X2992055Y19776654D01*
X3026998Y19846051D01*
X3043788Y19995642D01*
X3021965Y20122645D01*
X2970463Y20211454D01*
X2898217Y20246466D01*
X2816381Y20213945D01*
X2777591Y20142012D01*
X2753480Y20025085D01*
X2747229Y19899265D01*
X2584112Y19899265D01*
X2580000Y19987989D01*
X2599958Y20183967D01*
X2662247Y20309263D01*
X2770486Y20368494D01*
X2881502Y20372585D01*
X3045666Y20356929D01*
X3045666Y20516798D01*
X3053697Y20623761D01*
X3085696Y20669318D01*
X3130333Y20676666D01*
X3165451Y20671852D01*
G36*
X10666615Y20373615D02*
X10673454Y20372626D01*
X10735319Y20342622D01*
X10789228Y20262122D01*
X10846145Y20114701D01*
X10846677Y20113104D01*
X10891778Y19987498D01*
X10927900Y19905032D01*
X10945515Y19884071D01*
X10967328Y19930373D01*
X11005953Y20032267D01*
X11040173Y20130133D01*
X11099561Y20276042D01*
X11158559Y20352357D01*
X11205969Y20372266D01*
X11240445Y20372616D01*
X11256265Y20352686D01*
X11250883Y20300158D01*
X11221753Y20202711D01*
X11166330Y20048025D01*
X11105371Y19885433D01*
X11027788Y19690110D01*
X10953707Y19521590D01*
X10891222Y19397165D01*
X10848431Y19334129D01*
X10846544Y19332583D01*
X10749047Y19283802D01*
X10684473Y19301130D01*
X10665666Y19364333D01*
X10691749Y19432956D01*
X10728360Y19449000D01*
X10796311Y19484144D01*
X10818839Y19587362D01*
X10796030Y19755328D01*
X10727969Y19984722D01*
X10713542Y20025102D01*
X10652357Y20195186D01*
X10618758Y20300453D01*
X10611060Y20355529D01*
X10627575Y20375041D01*
X10666615Y20373615D01*
X10666615Y20373615D01*
G37*
X10666615Y20373615D02*
X10673454Y20372626D01*
X10735319Y20342622D01*
X10789228Y20262122D01*
X10846145Y20114701D01*
X10846677Y20113104D01*
X10891778Y19987498D01*
X10927900Y19905032D01*
X10945515Y19884071D01*
X10967328Y19930373D01*
X11005953Y20032267D01*
X11040173Y20130133D01*
X11099561Y20276042D01*
X11158559Y20352357D01*
X11205969Y20372266D01*
X11240445Y20372616D01*
X11256265Y20352686D01*
X11250883Y20300158D01*
X11221753Y20202711D01*
X11166330Y20048025D01*
X11105371Y19885433D01*
X11027788Y19690110D01*
X10953707Y19521590D01*
X10891222Y19397165D01*
X10848431Y19334129D01*
X10846544Y19332583D01*
X10749047Y19283802D01*
X10684473Y19301130D01*
X10665666Y19364333D01*
X10691749Y19432956D01*
X10728360Y19449000D01*
X10796311Y19484144D01*
X10818839Y19587362D01*
X10796030Y19755328D01*
X10727969Y19984722D01*
X10713542Y20025102D01*
X10652357Y20195186D01*
X10618758Y20300453D01*
X10611060Y20355529D01*
X10627575Y20375041D01*
X10666615Y20373615D01*
G36*
X5069771Y20374218D02*
X5289333Y20369272D01*
X5289333Y19917227D01*
X5283301Y19658031D01*
X5265205Y19482610D01*
X5235042Y19390935D01*
X5234931Y19390783D01*
X5151306Y19334179D01*
X5021891Y19300182D01*
X4883771Y19294071D01*
X4774031Y19321124D01*
X4768402Y19324377D01*
X4721757Y19382466D01*
X4737827Y19437243D01*
X4797262Y19464587D01*
X4867662Y19448110D01*
X4950698Y19413690D01*
X4987193Y19406666D01*
X5062539Y19441801D01*
X5130386Y19523718D01*
X5162193Y19617190D01*
X5162333Y19622846D01*
X5150149Y19680013D01*
X5098743Y19671513D01*
X5080449Y19662156D01*
X4939258Y19620948D01*
X4824327Y19655868D01*
X4742513Y19760631D01*
X4700674Y19928952D01*
X4698230Y19980787D01*
X4837650Y19980787D01*
X4870244Y19873033D01*
X4937210Y19803823D01*
X5023955Y19788632D01*
X5111533Y19838466D01*
X5147598Y19914544D01*
X5162333Y20023783D01*
X5136065Y20152766D01*
X5070939Y20229739D01*
X4987473Y20248856D01*
X4906183Y20204274D01*
X4854016Y20111609D01*
X4837650Y19980787D01*
X4698230Y19980787D01*
X4696666Y20013939D01*
X4712077Y20192019D01*
X4766989Y20303105D01*
X4874418Y20359768D01*
X5047383Y20374577D01*
X5069771Y20374218D01*
X5069771Y20374218D01*
G37*
X5069771Y20374218D02*
X5289333Y20369272D01*
X5289333Y19917227D01*
X5283301Y19658031D01*
X5265205Y19482610D01*
X5235042Y19390935D01*
X5234931Y19390783D01*
X5151306Y19334179D01*
X5021891Y19300182D01*
X4883771Y19294071D01*
X4774031Y19321124D01*
X4768402Y19324377D01*
X4721757Y19382466D01*
X4737827Y19437243D01*
X4797262Y19464587D01*
X4867662Y19448110D01*
X4950698Y19413690D01*
X4987193Y19406666D01*
X5062539Y19441801D01*
X5130386Y19523718D01*
X5162193Y19617190D01*
X5162333Y19622846D01*
X5150149Y19680013D01*
X5098743Y19671513D01*
X5080449Y19662156D01*
X4939258Y19620948D01*
X4824327Y19655868D01*
X4742513Y19760631D01*
X4700674Y19928952D01*
X4698230Y19980787D01*
X4837650Y19980787D01*
X4870244Y19873033D01*
X4937210Y19803823D01*
X5023955Y19788632D01*
X5111533Y19838466D01*
X5147598Y19914544D01*
X5162333Y20023783D01*
X5136065Y20152766D01*
X5070939Y20229739D01*
X4987473Y20248856D01*
X4906183Y20204274D01*
X4854016Y20111609D01*
X4837650Y19980787D01*
X4698230Y19980787D01*
X4696666Y20013939D01*
X4712077Y20192019D01*
X4766989Y20303105D01*
X4874418Y20359768D01*
X5047383Y20374577D01*
X5069771Y20374218D01*
G36*
X-364398Y20371604D02*
X-275028Y20355147D01*
X-218513Y20315757D01*
X-194792Y20285616D01*
X-146448Y20160345D01*
X-131322Y19996122D01*
X-149155Y19831760D01*
X-198633Y19707567D01*
X-255991Y19645420D01*
X-330484Y19622838D01*
X-452633Y19629448D01*
X-637334Y19650266D01*
X-637334Y19464966D01*
X-646104Y19341300D01*
X-675764Y19286141D01*
X-700834Y19279666D01*
X-727440Y19292010D01*
X-745618Y19337439D01*
X-756842Y19428552D01*
X-762586Y19577946D01*
X-764324Y19798219D01*
X-764334Y19822422D01*
X-764334Y19980039D01*
X-595000Y19980039D01*
X-587191Y19842214D01*
X-555352Y19771282D01*
X-486866Y19750239D01*
X-427251Y19753973D01*
X-362760Y19769301D01*
X-331005Y19811064D01*
X-320595Y19902548D01*
X-319834Y19973553D01*
X-331742Y20124098D01*
X-370393Y20208634D01*
X-390369Y20225098D01*
X-478480Y20244662D01*
X-547280Y20190850D01*
X-587877Y20074311D01*
X-595000Y19980039D01*
X-764334Y19980039D01*
X-764334Y20365177D01*
X-512292Y20372124D01*
X-364398Y20371604D01*
X-364398Y20371604D01*
G37*
X-364398Y20371604D02*
X-275028Y20355147D01*
X-218513Y20315757D01*
X-194792Y20285616D01*
X-146448Y20160345D01*
X-131322Y19996122D01*
X-149155Y19831760D01*
X-198633Y19707567D01*
X-255991Y19645420D01*
X-330484Y19622838D01*
X-452633Y19629448D01*
X-637334Y19650266D01*
X-637334Y19464966D01*
X-646104Y19341300D01*
X-675764Y19286141D01*
X-700834Y19279666D01*
X-727440Y19292010D01*
X-745618Y19337439D01*
X-756842Y19428552D01*
X-762586Y19577946D01*
X-764324Y19798219D01*
X-764334Y19822422D01*
X-764334Y19980039D01*
X-595000Y19980039D01*
X-587191Y19842214D01*
X-555352Y19771282D01*
X-486866Y19750239D01*
X-427251Y19753973D01*
X-362760Y19769301D01*
X-331005Y19811064D01*
X-320595Y19902548D01*
X-319834Y19973553D01*
X-331742Y20124098D01*
X-370393Y20208634D01*
X-390369Y20225098D01*
X-478480Y20244662D01*
X-547280Y20190850D01*
X-587877Y20074311D01*
X-595000Y19980039D01*
X-764334Y19980039D01*
X-764334Y20365177D01*
X-512292Y20372124D01*
X-364398Y20371604D01*
G36*
X-8875320Y20480413D02*
X-8752473Y20373332D01*
X-9741799Y19381422D01*
X-9655449Y19186214D01*
X-9559367Y18877985D01*
X-9545602Y18578952D01*
X-9613348Y18295015D01*
X-9761800Y18032071D01*
X-9823323Y17956605D01*
X-10054982Y17752253D01*
X-10320262Y17621827D01*
X-10608576Y17569059D01*
X-10867449Y17588743D01*
X-11165907Y17685302D01*
X-11410933Y17844855D01*
X-11596834Y18060472D01*
X-11717915Y18325221D01*
X-11768484Y18632171D01*
X-11769657Y18687000D01*
X-11761083Y18755150D01*
X-11429439Y18755150D01*
X-11411406Y18526883D01*
X-11327117Y18308656D01*
X-11179597Y18116696D01*
X-11035847Y18003808D01*
X-10867629Y17940849D01*
X-10661121Y17924836D01*
X-10446867Y17953420D01*
X-10255411Y18024251D01*
X-10184804Y18069302D01*
X-10011868Y18244266D01*
X-9910629Y18439920D01*
X-9874227Y18645384D01*
X-9895797Y18849779D01*
X-9968477Y19042228D01*
X-10085403Y19211851D01*
X-10239713Y19347770D01*
X-10424544Y19439107D01*
X-10633033Y19474981D01*
X-10858316Y19444516D01*
X-11013300Y19382564D01*
X-11110071Y19315262D01*
X-11219985Y19214337D01*
X-11254628Y19176901D01*
X-11378188Y18977232D01*
X-11429439Y18755150D01*
X-11761083Y18755150D01*
X-11731262Y18992147D01*
X-11619960Y19267317D01*
X-11443353Y19500654D01*
X-11209045Y19680304D01*
X-11096746Y19736257D01*
X-10890063Y19790801D01*
X-10645328Y19803879D01*
X-10397746Y19776469D01*
X-10185539Y19710930D01*
X-9975911Y19615535D01*
X-8998167Y20587493D01*
X-8875320Y20480413D01*
X-8875320Y20480413D01*
G37*
X-8875320Y20480413D02*
X-8752473Y20373332D01*
X-9741799Y19381422D01*
X-9655449Y19186214D01*
X-9559367Y18877985D01*
X-9545602Y18578952D01*
X-9613348Y18295015D01*
X-9761800Y18032071D01*
X-9823323Y17956605D01*
X-10054982Y17752253D01*
X-10320262Y17621827D01*
X-10608576Y17569059D01*
X-10867449Y17588743D01*
X-11165907Y17685302D01*
X-11410933Y17844855D01*
X-11596834Y18060472D01*
X-11717915Y18325221D01*
X-11768484Y18632171D01*
X-11769657Y18687000D01*
X-11761083Y18755150D01*
X-11429439Y18755150D01*
X-11411406Y18526883D01*
X-11327117Y18308656D01*
X-11179597Y18116696D01*
X-11035847Y18003808D01*
X-10867629Y17940849D01*
X-10661121Y17924836D01*
X-10446867Y17953420D01*
X-10255411Y18024251D01*
X-10184804Y18069302D01*
X-10011868Y18244266D01*
X-9910629Y18439920D01*
X-9874227Y18645384D01*
X-9895797Y18849779D01*
X-9968477Y19042228D01*
X-10085403Y19211851D01*
X-10239713Y19347770D01*
X-10424544Y19439107D01*
X-10633033Y19474981D01*
X-10858316Y19444516D01*
X-11013300Y19382564D01*
X-11110071Y19315262D01*
X-11219985Y19214337D01*
X-11254628Y19176901D01*
X-11378188Y18977232D01*
X-11429439Y18755150D01*
X-11761083Y18755150D01*
X-11731262Y18992147D01*
X-11619960Y19267317D01*
X-11443353Y19500654D01*
X-11209045Y19680304D01*
X-11096746Y19736257D01*
X-10890063Y19790801D01*
X-10645328Y19803879D01*
X-10397746Y19776469D01*
X-10185539Y19710930D01*
X-9975911Y19615535D01*
X-8998167Y20587493D01*
X-8875320Y20480413D01*
D14*
G04 #@! TO.C,C12*
X26310000Y131312779D02*
X26310000Y130987221D01*
X25290000Y131312779D02*
X25290000Y130987221D01*
G04 #@! TO.C,C20*
X-10010000Y131612779D02*
X-10010000Y131287221D01*
X-8990000Y131612779D02*
X-8990000Y131287221D01*
G04 #@! TO.C,C23*
X2810000Y131387779D02*
X2810000Y131062221D01*
X1790000Y131387779D02*
X1790000Y131062221D01*
G04 #@! TO.C,C25*
X-22885000Y131512779D02*
X-22885000Y131187221D01*
X-21865000Y131512779D02*
X-21865000Y131187221D01*
G04 #@! TO.C,C27*
X13490000Y132162779D02*
X13490000Y131837221D01*
X14510000Y132162779D02*
X14510000Y131837221D01*
G04 #@! TO.C,C28*
X-33690000Y131362779D02*
X-33690000Y131037221D01*
X-34710000Y131362779D02*
X-34710000Y131037221D01*
G04 #@! TO.C,R74*
X-25462221Y131965000D02*
X-25787779Y131965000D01*
X-25462221Y132985000D02*
X-25787779Y132985000D01*
D18*
G04 #@! TO.C,D5*
X20400000Y129400000D02*
G75*
G03X20400000Y129400000I-200000J0D01*
G01*
G04 #@! TO.C,D13*
X-27600000Y129400000D02*
G75*
G03X-27600000Y129400000I-200000J0D01*
G01*
G04 #@! TO.C,D14*
X-15600000Y129400000D02*
G75*
G03X-15600000Y129400000I-200000J0D01*
G01*
G04 #@! TO.C,D15*
X-3600000Y129400000D02*
G75*
G03X-3600000Y129400000I-200000J0D01*
G01*
G04 #@! TO.C,D16*
X8400000Y129400000D02*
G75*
G03X8400000Y129400000I-200000J0D01*
G01*
G04 #@! TO.C,D17*
X32300000Y129400000D02*
G75*
G03X32300000Y129400000I-200000J0D01*
G01*
G04 #@! TD*
M02*
