G04 #@! TF.GenerationSoftware,KiCad,Pcbnew,5.0.2-1.fc29*
G04 #@! TF.CreationDate,2019-02-25T04:27:58+01:00*
G04 #@! TF.ProjectId,tr19-badge,74723139-2d62-4616-9467-652e6b696361,rev?*
G04 #@! TF.SameCoordinates,Original*
G04 #@! TF.FileFunction,Soldermask,Top*
G04 #@! TF.FilePolarity,Negative*
%FSLAX46Y46*%
G04 Gerber Fmt 4.6, Leading zero omitted, Abs format (unit mm)*
G04 Created by KiCad (PCBNEW 5.0.2-1.fc29) date Mon 25 Feb 2019 04:27:58 CET*
%MOMM*%
%LPD*%
G01*
G04 APERTURE LIST*
%ADD10C,0.100000*%
G04 APERTURE END LIST*
D10*
G36*
X1353376Y10635900D02*
X1436633Y10627700D01*
X1596852Y10579098D01*
X1596855Y10579097D01*
X1675165Y10537239D01*
X1744520Y10500168D01*
X1873949Y10393949D01*
X1980168Y10264520D01*
X2017239Y10195165D01*
X2059097Y10116855D01*
X2059098Y10116852D01*
X2107700Y9956633D01*
X2124112Y9790000D01*
X2107700Y9623367D01*
X2059098Y9463148D01*
X2059097Y9463145D01*
X2017239Y9384835D01*
X1980168Y9315480D01*
X1873949Y9186051D01*
X1744520Y9079832D01*
X1675165Y9042761D01*
X1596855Y9000903D01*
X1596852Y9000902D01*
X1436633Y8952300D01*
X1353376Y8944100D01*
X1311749Y8940000D01*
X1228251Y8940000D01*
X1186624Y8944100D01*
X1103367Y8952300D01*
X943148Y9000902D01*
X943145Y9000903D01*
X864835Y9042761D01*
X795480Y9079832D01*
X666051Y9186051D01*
X559832Y9315480D01*
X522761Y9384835D01*
X480903Y9463145D01*
X480902Y9463148D01*
X432300Y9623367D01*
X415888Y9790000D01*
X432300Y9956633D01*
X480902Y10116852D01*
X480903Y10116855D01*
X522761Y10195165D01*
X559832Y10264520D01*
X666051Y10393949D01*
X795480Y10500168D01*
X864835Y10537239D01*
X943145Y10579097D01*
X943148Y10579098D01*
X1103367Y10627700D01*
X1186624Y10635900D01*
X1228251Y10640000D01*
X1311749Y10640000D01*
X1353376Y10635900D01*
X1353376Y10635900D01*
G37*
G36*
X-1186624Y10635900D02*
X-1103367Y10627700D01*
X-943148Y10579098D01*
X-943145Y10579097D01*
X-864835Y10537239D01*
X-795480Y10500168D01*
X-666051Y10393949D01*
X-559832Y10264520D01*
X-522761Y10195165D01*
X-480903Y10116855D01*
X-480902Y10116852D01*
X-432300Y9956633D01*
X-415888Y9790000D01*
X-432300Y9623367D01*
X-480902Y9463148D01*
X-480903Y9463145D01*
X-522761Y9384835D01*
X-559832Y9315480D01*
X-666051Y9186051D01*
X-795480Y9079832D01*
X-864835Y9042761D01*
X-943145Y9000903D01*
X-943148Y9000902D01*
X-1103367Y8952300D01*
X-1186624Y8944100D01*
X-1228251Y8940000D01*
X-1311749Y8940000D01*
X-1353376Y8944100D01*
X-1436633Y8952300D01*
X-1596852Y9000902D01*
X-1596855Y9000903D01*
X-1675165Y9042761D01*
X-1744520Y9079832D01*
X-1873949Y9186051D01*
X-1980168Y9315480D01*
X-2017239Y9384835D01*
X-2059097Y9463145D01*
X-2059098Y9463148D01*
X-2107700Y9623367D01*
X-2124112Y9790000D01*
X-2107700Y9956633D01*
X-2059098Y10116852D01*
X-2059097Y10116855D01*
X-2017239Y10195165D01*
X-1980168Y10264520D01*
X-1873949Y10393949D01*
X-1744520Y10500168D01*
X-1675165Y10537239D01*
X-1596855Y10579097D01*
X-1596852Y10579098D01*
X-1436633Y10627700D01*
X-1353376Y10635900D01*
X-1311749Y10640000D01*
X-1228251Y10640000D01*
X-1186624Y10635900D01*
X-1186624Y10635900D01*
G37*
G36*
X-420000Y11480000D02*
X-2120000Y11480000D01*
X-2120000Y13180000D01*
X-420000Y13180000D01*
X-420000Y11480000D01*
X-420000Y11480000D01*
G37*
G36*
X1353376Y13175900D02*
X1436633Y13167700D01*
X1596852Y13119098D01*
X1596855Y13119097D01*
X1675165Y13077239D01*
X1744520Y13040168D01*
X1873949Y12933949D01*
X1980168Y12804520D01*
X2017239Y12735165D01*
X2059097Y12656855D01*
X2059098Y12656852D01*
X2107700Y12496633D01*
X2124112Y12330000D01*
X2107700Y12163367D01*
X2059098Y12003148D01*
X2059097Y12003145D01*
X2017239Y11924835D01*
X1980168Y11855480D01*
X1873949Y11726051D01*
X1744520Y11619832D01*
X1675165Y11582761D01*
X1596855Y11540903D01*
X1596852Y11540902D01*
X1436633Y11492300D01*
X1353376Y11484100D01*
X1311749Y11480000D01*
X1228251Y11480000D01*
X1186624Y11484100D01*
X1103367Y11492300D01*
X943148Y11540902D01*
X943145Y11540903D01*
X864835Y11582761D01*
X795480Y11619832D01*
X666051Y11726051D01*
X559832Y11855480D01*
X522761Y11924835D01*
X480903Y12003145D01*
X480902Y12003148D01*
X432300Y12163367D01*
X415888Y12330000D01*
X432300Y12496633D01*
X480902Y12656852D01*
X480903Y12656855D01*
X522761Y12735165D01*
X559832Y12804520D01*
X666051Y12933949D01*
X795480Y13040168D01*
X864835Y13077239D01*
X943145Y13119097D01*
X943148Y13119098D01*
X1103367Y13167700D01*
X1186624Y13175900D01*
X1228251Y13180000D01*
X1311749Y13180000D01*
X1353376Y13175900D01*
X1353376Y13175900D01*
G37*
G36*
X14291689Y16961571D02*
X14473678Y16886189D01*
X14637463Y16776751D01*
X14776751Y16637463D01*
X14886189Y16473678D01*
X14961571Y16291689D01*
X15000000Y16098491D01*
X15000000Y15901509D01*
X14961571Y15708311D01*
X14886189Y15526322D01*
X14776751Y15362537D01*
X14637463Y15223249D01*
X14473678Y15113811D01*
X14291689Y15038429D01*
X14098491Y15000000D01*
X13901509Y15000000D01*
X13708311Y15038429D01*
X13526322Y15113811D01*
X13362537Y15223249D01*
X13223249Y15362537D01*
X13113811Y15526322D01*
X13038429Y15708311D01*
X13000000Y15901509D01*
X13000000Y16098491D01*
X13038429Y16291689D01*
X13113811Y16473678D01*
X13223249Y16637463D01*
X13362537Y16776751D01*
X13526322Y16886189D01*
X13708311Y16961571D01*
X13901509Y17000000D01*
X14098491Y17000000D01*
X14291689Y16961571D01*
X14291689Y16961571D01*
G37*
G36*
X32600000Y48600000D02*
X31550000Y48600000D01*
X31550000Y49250000D01*
X32600000Y49250000D01*
X32600000Y48600000D01*
X32600000Y48600000D01*
G37*
G36*
X36750000Y48600000D02*
X35700000Y48600000D01*
X35700000Y49250000D01*
X36750000Y49250000D01*
X36750000Y48600000D01*
X36750000Y48600000D01*
G37*
G36*
X13100000Y48640000D02*
X12050000Y48640000D01*
X12050000Y49290000D01*
X13100000Y49290000D01*
X13100000Y48640000D01*
X13100000Y48640000D01*
G37*
G36*
X8950000Y48640000D02*
X7900000Y48640000D01*
X7900000Y49290000D01*
X8950000Y49290000D01*
X8950000Y48640000D01*
X8950000Y48640000D01*
G37*
G36*
X-25200000Y48650000D02*
X-26250000Y48650000D01*
X-26250000Y49300000D01*
X-25200000Y49300000D01*
X-25200000Y48650000D01*
X-25200000Y48650000D01*
G37*
G36*
X22050000Y48650000D02*
X21000000Y48650000D01*
X21000000Y49300000D01*
X22050000Y49300000D01*
X22050000Y48650000D01*
X22050000Y48650000D01*
G37*
G36*
X-12050000Y48650000D02*
X-13100000Y48650000D01*
X-13100000Y49300000D01*
X-12050000Y49300000D01*
X-12050000Y48650000D01*
X-12050000Y48650000D01*
G37*
G36*
X-7900000Y48650000D02*
X-8950000Y48650000D01*
X-8950000Y49300000D01*
X-7900000Y49300000D01*
X-7900000Y48650000D01*
X-7900000Y48650000D01*
G37*
G36*
X-35650000Y48650000D02*
X-36700000Y48650000D01*
X-36700000Y49300000D01*
X-35650000Y49300000D01*
X-35650000Y48650000D01*
X-35650000Y48650000D01*
G37*
G36*
X2580000Y48650000D02*
X1530000Y48650000D01*
X1530000Y49300000D01*
X2580000Y49300000D01*
X2580000Y48650000D01*
X2580000Y48650000D01*
G37*
G36*
X-1570000Y48650000D02*
X-2620000Y48650000D01*
X-2620000Y49300000D01*
X-1570000Y49300000D01*
X-1570000Y48650000D01*
X-1570000Y48650000D01*
G37*
G36*
X26200000Y48650000D02*
X25150000Y48650000D01*
X25150000Y49300000D01*
X26200000Y49300000D01*
X26200000Y48650000D01*
X26200000Y48650000D01*
G37*
G36*
X-21050000Y48650000D02*
X-22100000Y48650000D01*
X-22100000Y49300000D01*
X-21050000Y49300000D01*
X-21050000Y48650000D01*
X-21050000Y48650000D01*
G37*
G36*
X-31500000Y48650000D02*
X-32550000Y48650000D01*
X-32550000Y49300000D01*
X-31500000Y49300000D01*
X-31500000Y48650000D01*
X-31500000Y48650000D01*
G37*
G36*
X36750000Y50750000D02*
X35700000Y50750000D01*
X35700000Y51400000D01*
X36750000Y51400000D01*
X36750000Y50750000D01*
X36750000Y50750000D01*
G37*
G36*
X32600000Y50750000D02*
X31550000Y50750000D01*
X31550000Y51400000D01*
X32600000Y51400000D01*
X32600000Y50750000D01*
X32600000Y50750000D01*
G37*
G36*
X13100000Y50790000D02*
X12050000Y50790000D01*
X12050000Y51440000D01*
X13100000Y51440000D01*
X13100000Y50790000D01*
X13100000Y50790000D01*
G37*
G36*
X8950000Y50790000D02*
X7900000Y50790000D01*
X7900000Y51440000D01*
X8950000Y51440000D01*
X8950000Y50790000D01*
X8950000Y50790000D01*
G37*
G36*
X-12050000Y50800000D02*
X-13100000Y50800000D01*
X-13100000Y51450000D01*
X-12050000Y51450000D01*
X-12050000Y50800000D01*
X-12050000Y50800000D01*
G37*
G36*
X-31500000Y50800000D02*
X-32550000Y50800000D01*
X-32550000Y51450000D01*
X-31500000Y51450000D01*
X-31500000Y50800000D01*
X-31500000Y50800000D01*
G37*
G36*
X-7900000Y50800000D02*
X-8950000Y50800000D01*
X-8950000Y51450000D01*
X-7900000Y51450000D01*
X-7900000Y50800000D01*
X-7900000Y50800000D01*
G37*
G36*
X-1570000Y50800000D02*
X-2620000Y50800000D01*
X-2620000Y51450000D01*
X-1570000Y51450000D01*
X-1570000Y50800000D01*
X-1570000Y50800000D01*
G37*
G36*
X-21050000Y50800000D02*
X-22100000Y50800000D01*
X-22100000Y51450000D01*
X-21050000Y51450000D01*
X-21050000Y50800000D01*
X-21050000Y50800000D01*
G37*
G36*
X-25200000Y50800000D02*
X-26250000Y50800000D01*
X-26250000Y51450000D01*
X-25200000Y51450000D01*
X-25200000Y50800000D01*
X-25200000Y50800000D01*
G37*
G36*
X2580000Y50800000D02*
X1530000Y50800000D01*
X1530000Y51450000D01*
X2580000Y51450000D01*
X2580000Y50800000D01*
X2580000Y50800000D01*
G37*
G36*
X26200000Y50800000D02*
X25150000Y50800000D01*
X25150000Y51450000D01*
X26200000Y51450000D01*
X26200000Y50800000D01*
X26200000Y50800000D01*
G37*
G36*
X22050000Y50800000D02*
X21000000Y50800000D01*
X21000000Y51450000D01*
X22050000Y51450000D01*
X22050000Y50800000D01*
X22050000Y50800000D01*
G37*
G36*
X-35650000Y50800000D02*
X-36700000Y50800000D01*
X-36700000Y51450000D01*
X-35650000Y51450000D01*
X-35650000Y50800000D01*
X-35650000Y50800000D01*
G37*
G36*
X-5250000Y60500000D02*
X-6300000Y60500000D01*
X-6300000Y61150000D01*
X-5250000Y61150000D01*
X-5250000Y60500000D01*
X-5250000Y60500000D01*
G37*
G36*
X-40950000Y60500000D02*
X-42000000Y60500000D01*
X-42000000Y61150000D01*
X-40950000Y61150000D01*
X-40950000Y60500000D01*
X-40950000Y60500000D01*
G37*
G36*
X-36800000Y60500000D02*
X-37850000Y60500000D01*
X-37850000Y61150000D01*
X-36800000Y61150000D01*
X-36800000Y60500000D01*
X-36800000Y60500000D01*
G37*
G36*
X-30400000Y60500000D02*
X-31450000Y60500000D01*
X-31450000Y61150000D01*
X-30400000Y61150000D01*
X-30400000Y60500000D01*
X-30400000Y60500000D01*
G37*
G36*
X-9400000Y60500000D02*
X-10450000Y60500000D01*
X-10450000Y61150000D01*
X-9400000Y61150000D01*
X-9400000Y60500000D01*
X-9400000Y60500000D01*
G37*
G36*
X-19900000Y60500000D02*
X-20950000Y60500000D01*
X-20950000Y61150000D01*
X-19900000Y61150000D01*
X-19900000Y60500000D01*
X-19900000Y60500000D01*
G37*
G36*
X-26250000Y60500000D02*
X-27300000Y60500000D01*
X-27300000Y61150000D01*
X-26250000Y61150000D01*
X-26250000Y60500000D01*
X-26250000Y60500000D01*
G37*
G36*
X-15750000Y60500000D02*
X-16800000Y60500000D01*
X-16800000Y61150000D01*
X-15750000Y61150000D01*
X-15750000Y60500000D01*
X-15750000Y60500000D01*
G37*
G36*
X1050000Y60550000D02*
X0Y60550000D01*
X0Y61200000D01*
X1050000Y61200000D01*
X1050000Y60550000D01*
X1050000Y60550000D01*
G37*
G36*
X39350000Y60550000D02*
X38300000Y60550000D01*
X38300000Y61200000D01*
X39350000Y61200000D01*
X39350000Y60550000D01*
X39350000Y60550000D01*
G37*
G36*
X11600000Y60550000D02*
X10550000Y60550000D01*
X10550000Y61200000D01*
X11600000Y61200000D01*
X11600000Y60550000D01*
X11600000Y60550000D01*
G37*
G36*
X15750000Y60550000D02*
X14700000Y60550000D01*
X14700000Y61200000D01*
X15750000Y61200000D01*
X15750000Y60550000D01*
X15750000Y60550000D01*
G37*
G36*
X22100000Y60550000D02*
X21050000Y60550000D01*
X21050000Y61200000D01*
X22100000Y61200000D01*
X22100000Y60550000D01*
X22100000Y60550000D01*
G37*
G36*
X5200000Y60550000D02*
X4150000Y60550000D01*
X4150000Y61200000D01*
X5200000Y61200000D01*
X5200000Y60550000D01*
X5200000Y60550000D01*
G37*
G36*
X26250000Y60550000D02*
X25200000Y60550000D01*
X25200000Y61200000D01*
X26250000Y61200000D01*
X26250000Y60550000D01*
X26250000Y60550000D01*
G37*
G36*
X35200000Y60550000D02*
X34150000Y60550000D01*
X34150000Y61200000D01*
X35200000Y61200000D01*
X35200000Y60550000D01*
X35200000Y60550000D01*
G37*
G36*
X-19900000Y62650000D02*
X-20950000Y62650000D01*
X-20950000Y63300000D01*
X-19900000Y63300000D01*
X-19900000Y62650000D01*
X-19900000Y62650000D01*
G37*
G36*
X-40950000Y62650000D02*
X-42000000Y62650000D01*
X-42000000Y63300000D01*
X-40950000Y63300000D01*
X-40950000Y62650000D01*
X-40950000Y62650000D01*
G37*
G36*
X-36800000Y62650000D02*
X-37850000Y62650000D01*
X-37850000Y63300000D01*
X-36800000Y63300000D01*
X-36800000Y62650000D01*
X-36800000Y62650000D01*
G37*
G36*
X-9400000Y62650000D02*
X-10450000Y62650000D01*
X-10450000Y63300000D01*
X-9400000Y63300000D01*
X-9400000Y62650000D01*
X-9400000Y62650000D01*
G37*
G36*
X-15750000Y62650000D02*
X-16800000Y62650000D01*
X-16800000Y63300000D01*
X-15750000Y63300000D01*
X-15750000Y62650000D01*
X-15750000Y62650000D01*
G37*
G36*
X-5250000Y62650000D02*
X-6300000Y62650000D01*
X-6300000Y63300000D01*
X-5250000Y63300000D01*
X-5250000Y62650000D01*
X-5250000Y62650000D01*
G37*
G36*
X-30400000Y62650000D02*
X-31450000Y62650000D01*
X-31450000Y63300000D01*
X-30400000Y63300000D01*
X-30400000Y62650000D01*
X-30400000Y62650000D01*
G37*
G36*
X-26250000Y62650000D02*
X-27300000Y62650000D01*
X-27300000Y63300000D01*
X-26250000Y63300000D01*
X-26250000Y62650000D01*
X-26250000Y62650000D01*
G37*
G36*
X22100000Y62700000D02*
X21050000Y62700000D01*
X21050000Y63350000D01*
X22100000Y63350000D01*
X22100000Y62700000D01*
X22100000Y62700000D01*
G37*
G36*
X26250000Y62700000D02*
X25200000Y62700000D01*
X25200000Y63350000D01*
X26250000Y63350000D01*
X26250000Y62700000D01*
X26250000Y62700000D01*
G37*
G36*
X39350000Y62700000D02*
X38300000Y62700000D01*
X38300000Y63350000D01*
X39350000Y63350000D01*
X39350000Y62700000D01*
X39350000Y62700000D01*
G37*
G36*
X35200000Y62700000D02*
X34150000Y62700000D01*
X34150000Y63350000D01*
X35200000Y63350000D01*
X35200000Y62700000D01*
X35200000Y62700000D01*
G37*
G36*
X11600000Y62700000D02*
X10550000Y62700000D01*
X10550000Y63350000D01*
X11600000Y63350000D01*
X11600000Y62700000D01*
X11600000Y62700000D01*
G37*
G36*
X5200000Y62700000D02*
X4150000Y62700000D01*
X4150000Y63350000D01*
X5200000Y63350000D01*
X5200000Y62700000D01*
X5200000Y62700000D01*
G37*
G36*
X1050000Y62700000D02*
X0Y62700000D01*
X0Y63350000D01*
X1050000Y63350000D01*
X1050000Y62700000D01*
X1050000Y62700000D01*
G37*
G36*
X15750000Y62700000D02*
X14700000Y62700000D01*
X14700000Y63350000D01*
X15750000Y63350000D01*
X15750000Y62700000D01*
X15750000Y62700000D01*
G37*
G36*
X29950000Y72400000D02*
X28900000Y72400000D01*
X28900000Y73050000D01*
X29950000Y73050000D01*
X29950000Y72400000D01*
X29950000Y72400000D01*
G37*
G36*
X-18400000Y72400000D02*
X-19450000Y72400000D01*
X-19450000Y73050000D01*
X-18400000Y73050000D01*
X-18400000Y72400000D01*
X-18400000Y72400000D01*
G37*
G36*
X-22550000Y72400000D02*
X-23600000Y72400000D01*
X-23600000Y73050000D01*
X-22550000Y73050000D01*
X-22550000Y72400000D01*
X-22550000Y72400000D01*
G37*
G36*
X-28900000Y72400000D02*
X-29950000Y72400000D01*
X-29950000Y73050000D01*
X-28900000Y73050000D01*
X-28900000Y72400000D01*
X-28900000Y72400000D01*
G37*
G36*
X-33050000Y72400000D02*
X-34100000Y72400000D01*
X-34100000Y73050000D01*
X-33050000Y73050000D01*
X-33050000Y72400000D01*
X-33050000Y72400000D01*
G37*
G36*
X2600000Y72400000D02*
X1550000Y72400000D01*
X1550000Y73050000D01*
X2600000Y73050000D01*
X2600000Y72400000D01*
X2600000Y72400000D01*
G37*
G36*
X13100000Y72400000D02*
X12050000Y72400000D01*
X12050000Y73050000D01*
X13100000Y73050000D01*
X13100000Y72400000D01*
X13100000Y72400000D01*
G37*
G36*
X-1550000Y72400000D02*
X-2600000Y72400000D01*
X-2600000Y73050000D01*
X-1550000Y73050000D01*
X-1550000Y72400000D01*
X-1550000Y72400000D01*
G37*
G36*
X8950000Y72400000D02*
X7900000Y72400000D01*
X7900000Y73050000D01*
X8950000Y73050000D01*
X8950000Y72400000D01*
X8950000Y72400000D01*
G37*
G36*
X-43550000Y72400000D02*
X-44600000Y72400000D01*
X-44600000Y73050000D01*
X-43550000Y73050000D01*
X-43550000Y72400000D01*
X-43550000Y72400000D01*
G37*
G36*
X-12000000Y72400000D02*
X-13050000Y72400000D01*
X-13050000Y73050000D01*
X-12000000Y73050000D01*
X-12000000Y72400000D01*
X-12000000Y72400000D01*
G37*
G36*
X-39400000Y72400000D02*
X-40450000Y72400000D01*
X-40450000Y73050000D01*
X-39400000Y73050000D01*
X-39400000Y72400000D01*
X-39400000Y72400000D01*
G37*
G36*
X34100000Y72400000D02*
X33050000Y72400000D01*
X33050000Y73050000D01*
X34100000Y73050000D01*
X34100000Y72400000D01*
X34100000Y72400000D01*
G37*
G36*
X-7850000Y72400000D02*
X-8900000Y72400000D01*
X-8900000Y73050000D01*
X-7850000Y73050000D01*
X-7850000Y72400000D01*
X-7850000Y72400000D01*
G37*
G36*
X19450000Y72450000D02*
X18400000Y72450000D01*
X18400000Y73100000D01*
X19450000Y73100000D01*
X19450000Y72450000D01*
X19450000Y72450000D01*
G37*
G36*
X44600000Y72450000D02*
X43550000Y72450000D01*
X43550000Y73100000D01*
X44600000Y73100000D01*
X44600000Y72450000D01*
X44600000Y72450000D01*
G37*
G36*
X40450000Y72450000D02*
X39400000Y72450000D01*
X39400000Y73100000D01*
X40450000Y73100000D01*
X40450000Y72450000D01*
X40450000Y72450000D01*
G37*
G36*
X23600000Y72450000D02*
X22550000Y72450000D01*
X22550000Y73100000D01*
X23600000Y73100000D01*
X23600000Y72450000D01*
X23600000Y72450000D01*
G37*
G36*
X-43550000Y74550000D02*
X-44600000Y74550000D01*
X-44600000Y75200000D01*
X-43550000Y75200000D01*
X-43550000Y74550000D01*
X-43550000Y74550000D01*
G37*
G36*
X-7850000Y74550000D02*
X-8900000Y74550000D01*
X-8900000Y75200000D01*
X-7850000Y75200000D01*
X-7850000Y74550000D01*
X-7850000Y74550000D01*
G37*
G36*
X34100000Y74550000D02*
X33050000Y74550000D01*
X33050000Y75200000D01*
X34100000Y75200000D01*
X34100000Y74550000D01*
X34100000Y74550000D01*
G37*
G36*
X-39400000Y74550000D02*
X-40450000Y74550000D01*
X-40450000Y75200000D01*
X-39400000Y75200000D01*
X-39400000Y74550000D01*
X-39400000Y74550000D01*
G37*
G36*
X-1550000Y74550000D02*
X-2600000Y74550000D01*
X-2600000Y75200000D01*
X-1550000Y75200000D01*
X-1550000Y74550000D01*
X-1550000Y74550000D01*
G37*
G36*
X29950000Y74550000D02*
X28900000Y74550000D01*
X28900000Y75200000D01*
X29950000Y75200000D01*
X29950000Y74550000D01*
X29950000Y74550000D01*
G37*
G36*
X-12000000Y74550000D02*
X-13050000Y74550000D01*
X-13050000Y75200000D01*
X-12000000Y75200000D01*
X-12000000Y74550000D01*
X-12000000Y74550000D01*
G37*
G36*
X2600000Y74550000D02*
X1550000Y74550000D01*
X1550000Y75200000D01*
X2600000Y75200000D01*
X2600000Y74550000D01*
X2600000Y74550000D01*
G37*
G36*
X13100000Y74550000D02*
X12050000Y74550000D01*
X12050000Y75200000D01*
X13100000Y75200000D01*
X13100000Y74550000D01*
X13100000Y74550000D01*
G37*
G36*
X8950000Y74550000D02*
X7900000Y74550000D01*
X7900000Y75200000D01*
X8950000Y75200000D01*
X8950000Y74550000D01*
X8950000Y74550000D01*
G37*
G36*
X-28900000Y74550000D02*
X-29950000Y74550000D01*
X-29950000Y75200000D01*
X-28900000Y75200000D01*
X-28900000Y74550000D01*
X-28900000Y74550000D01*
G37*
G36*
X-33050000Y74550000D02*
X-34100000Y74550000D01*
X-34100000Y75200000D01*
X-33050000Y75200000D01*
X-33050000Y74550000D01*
X-33050000Y74550000D01*
G37*
G36*
X-18400000Y74550000D02*
X-19450000Y74550000D01*
X-19450000Y75200000D01*
X-18400000Y75200000D01*
X-18400000Y74550000D01*
X-18400000Y74550000D01*
G37*
G36*
X-22550000Y74550000D02*
X-23600000Y74550000D01*
X-23600000Y75200000D01*
X-22550000Y75200000D01*
X-22550000Y74550000D01*
X-22550000Y74550000D01*
G37*
G36*
X44600000Y74600000D02*
X43550000Y74600000D01*
X43550000Y75250000D01*
X44600000Y75250000D01*
X44600000Y74600000D01*
X44600000Y74600000D01*
G37*
G36*
X40450000Y74600000D02*
X39400000Y74600000D01*
X39400000Y75250000D01*
X40450000Y75250000D01*
X40450000Y74600000D01*
X40450000Y74600000D01*
G37*
G36*
X23600000Y74600000D02*
X22550000Y74600000D01*
X22550000Y75250000D01*
X23600000Y75250000D01*
X23600000Y74600000D01*
X23600000Y74600000D01*
G37*
G36*
X19450000Y74600000D02*
X18400000Y74600000D01*
X18400000Y75250000D01*
X19450000Y75250000D01*
X19450000Y74600000D01*
X19450000Y74600000D01*
G37*
G36*
X-38250000Y84250000D02*
X-39300000Y84250000D01*
X-39300000Y84900000D01*
X-38250000Y84900000D01*
X-38250000Y84250000D01*
X-38250000Y84250000D01*
G37*
G36*
X-34100000Y84250000D02*
X-35150000Y84250000D01*
X-35150000Y84900000D01*
X-34100000Y84900000D01*
X-34100000Y84250000D01*
X-34100000Y84250000D01*
G37*
G36*
X35250000Y84300000D02*
X34200000Y84300000D01*
X34200000Y84950000D01*
X35250000Y84950000D01*
X35250000Y84300000D01*
X35250000Y84300000D01*
G37*
G36*
X-2650000Y84300000D02*
X-3700000Y84300000D01*
X-3700000Y84950000D01*
X-2650000Y84950000D01*
X-2650000Y84300000D01*
X-2650000Y84300000D01*
G37*
G36*
X-6800000Y84300000D02*
X-7850000Y84300000D01*
X-7850000Y84950000D01*
X-6800000Y84950000D01*
X-6800000Y84300000D01*
X-6800000Y84300000D01*
G37*
G36*
X-44700000Y84300000D02*
X-45750000Y84300000D01*
X-45750000Y84950000D01*
X-44700000Y84950000D01*
X-44700000Y84300000D01*
X-44700000Y84300000D01*
G37*
G36*
X3700000Y84300000D02*
X2650000Y84300000D01*
X2650000Y84950000D01*
X3700000Y84950000D01*
X3700000Y84300000D01*
X3700000Y84300000D01*
G37*
G36*
X7850000Y84300000D02*
X6800000Y84300000D01*
X6800000Y84950000D01*
X7850000Y84950000D01*
X7850000Y84300000D01*
X7850000Y84300000D01*
G37*
G36*
X-48850000Y84300000D02*
X-49900000Y84300000D01*
X-49900000Y84950000D01*
X-48850000Y84950000D01*
X-48850000Y84300000D01*
X-48850000Y84300000D01*
G37*
G36*
X-17300000Y84300000D02*
X-18350000Y84300000D01*
X-18350000Y84950000D01*
X-17300000Y84950000D01*
X-17300000Y84300000D01*
X-17300000Y84300000D01*
G37*
G36*
X-13150000Y84300000D02*
X-14200000Y84300000D01*
X-14200000Y84950000D01*
X-13150000Y84950000D01*
X-13150000Y84300000D01*
X-13150000Y84300000D01*
G37*
G36*
X-27800000Y84300000D02*
X-28850000Y84300000D01*
X-28850000Y84950000D01*
X-27800000Y84950000D01*
X-27800000Y84300000D01*
X-27800000Y84300000D01*
G37*
G36*
X18400000Y84300000D02*
X17350000Y84300000D01*
X17350000Y84950000D01*
X18400000Y84950000D01*
X18400000Y84300000D01*
X18400000Y84300000D01*
G37*
G36*
X24700000Y84300000D02*
X23650000Y84300000D01*
X23650000Y84950000D01*
X24700000Y84950000D01*
X24700000Y84300000D01*
X24700000Y84300000D01*
G37*
G36*
X28850000Y84300000D02*
X27800000Y84300000D01*
X27800000Y84950000D01*
X28850000Y84950000D01*
X28850000Y84300000D01*
X28850000Y84300000D01*
G37*
G36*
X49850000Y84300000D02*
X48800000Y84300000D01*
X48800000Y84950000D01*
X49850000Y84950000D01*
X49850000Y84300000D01*
X49850000Y84300000D01*
G37*
G36*
X-23650000Y84300000D02*
X-24700000Y84300000D01*
X-24700000Y84950000D01*
X-23650000Y84950000D01*
X-23650000Y84300000D01*
X-23650000Y84300000D01*
G37*
G36*
X45700000Y84300000D02*
X44650000Y84300000D01*
X44650000Y84950000D01*
X45700000Y84950000D01*
X45700000Y84300000D01*
X45700000Y84300000D01*
G37*
G36*
X39400000Y84300000D02*
X38350000Y84300000D01*
X38350000Y84950000D01*
X39400000Y84950000D01*
X39400000Y84300000D01*
X39400000Y84300000D01*
G37*
G36*
X14250000Y84300000D02*
X13200000Y84300000D01*
X13200000Y84950000D01*
X14250000Y84950000D01*
X14250000Y84300000D01*
X14250000Y84300000D01*
G37*
G36*
X-38250000Y86400000D02*
X-39300000Y86400000D01*
X-39300000Y87050000D01*
X-38250000Y87050000D01*
X-38250000Y86400000D01*
X-38250000Y86400000D01*
G37*
G36*
X-34100000Y86400000D02*
X-35150000Y86400000D01*
X-35150000Y87050000D01*
X-34100000Y87050000D01*
X-34100000Y86400000D01*
X-34100000Y86400000D01*
G37*
G36*
X-48850000Y86450000D02*
X-49900000Y86450000D01*
X-49900000Y87100000D01*
X-48850000Y87100000D01*
X-48850000Y86450000D01*
X-48850000Y86450000D01*
G37*
G36*
X-13150000Y86450000D02*
X-14200000Y86450000D01*
X-14200000Y87100000D01*
X-13150000Y87100000D01*
X-13150000Y86450000D01*
X-13150000Y86450000D01*
G37*
G36*
X-17300000Y86450000D02*
X-18350000Y86450000D01*
X-18350000Y87100000D01*
X-17300000Y87100000D01*
X-17300000Y86450000D01*
X-17300000Y86450000D01*
G37*
G36*
X7850000Y86450000D02*
X6800000Y86450000D01*
X6800000Y87100000D01*
X7850000Y87100000D01*
X7850000Y86450000D01*
X7850000Y86450000D01*
G37*
G36*
X-23650000Y86450000D02*
X-24700000Y86450000D01*
X-24700000Y87100000D01*
X-23650000Y87100000D01*
X-23650000Y86450000D01*
X-23650000Y86450000D01*
G37*
G36*
X3700000Y86450000D02*
X2650000Y86450000D01*
X2650000Y87100000D01*
X3700000Y87100000D01*
X3700000Y86450000D01*
X3700000Y86450000D01*
G37*
G36*
X-6800000Y86450000D02*
X-7850000Y86450000D01*
X-7850000Y87100000D01*
X-6800000Y87100000D01*
X-6800000Y86450000D01*
X-6800000Y86450000D01*
G37*
G36*
X-2650000Y86450000D02*
X-3700000Y86450000D01*
X-3700000Y87100000D01*
X-2650000Y87100000D01*
X-2650000Y86450000D01*
X-2650000Y86450000D01*
G37*
G36*
X18400000Y86450000D02*
X17350000Y86450000D01*
X17350000Y87100000D01*
X18400000Y87100000D01*
X18400000Y86450000D01*
X18400000Y86450000D01*
G37*
G36*
X28850000Y86450000D02*
X27800000Y86450000D01*
X27800000Y87100000D01*
X28850000Y87100000D01*
X28850000Y86450000D01*
X28850000Y86450000D01*
G37*
G36*
X14250000Y86450000D02*
X13200000Y86450000D01*
X13200000Y87100000D01*
X14250000Y87100000D01*
X14250000Y86450000D01*
X14250000Y86450000D01*
G37*
G36*
X49850000Y86450000D02*
X48800000Y86450000D01*
X48800000Y87100000D01*
X49850000Y87100000D01*
X49850000Y86450000D01*
X49850000Y86450000D01*
G37*
G36*
X45700000Y86450000D02*
X44650000Y86450000D01*
X44650000Y87100000D01*
X45700000Y87100000D01*
X45700000Y86450000D01*
X45700000Y86450000D01*
G37*
G36*
X-44700000Y86450000D02*
X-45750000Y86450000D01*
X-45750000Y87100000D01*
X-44700000Y87100000D01*
X-44700000Y86450000D01*
X-44700000Y86450000D01*
G37*
G36*
X35250000Y86450000D02*
X34200000Y86450000D01*
X34200000Y87100000D01*
X35250000Y87100000D01*
X35250000Y86450000D01*
X35250000Y86450000D01*
G37*
G36*
X-27800000Y86450000D02*
X-28850000Y86450000D01*
X-28850000Y87100000D01*
X-27800000Y87100000D01*
X-27800000Y86450000D01*
X-27800000Y86450000D01*
G37*
G36*
X24700000Y86450000D02*
X23650000Y86450000D01*
X23650000Y87100000D01*
X24700000Y87100000D01*
X24700000Y86450000D01*
X24700000Y86450000D01*
G37*
G36*
X39400000Y86450000D02*
X38350000Y86450000D01*
X38350000Y87100000D01*
X39400000Y87100000D01*
X39400000Y86450000D01*
X39400000Y86450000D01*
G37*
G36*
X-42616509Y100308415D02*
X-43323616Y99601308D01*
X-44737829Y101015521D01*
X-44030722Y101722628D01*
X-42616509Y100308415D01*
X-42616509Y100308415D01*
G37*
G36*
X52400000Y100250000D02*
X51100000Y100250000D01*
X51100000Y101800000D01*
X52400000Y101800000D01*
X52400000Y100250000D01*
X52400000Y100250000D01*
G37*
G36*
X47900000Y100250000D02*
X46600000Y100250000D01*
X46600000Y101800000D01*
X47900000Y101800000D01*
X47900000Y100250000D01*
X47900000Y100250000D01*
G37*
G36*
X-47018248Y101563530D02*
X-48291040Y100290738D01*
X-49705254Y101704952D01*
X-48432462Y102977744D01*
X-47018248Y101563530D01*
X-47018248Y101563530D01*
G37*
G36*
X15750000Y100350000D02*
X14050000Y100350000D01*
X14050000Y102050000D01*
X15750000Y102050000D01*
X15750000Y100350000D01*
X15750000Y100350000D01*
G37*
G36*
X-41608882Y101316043D02*
X-42315989Y100608936D01*
X-43730202Y102023149D01*
X-43023095Y102730256D01*
X-41608882Y101316043D01*
X-41608882Y101316043D01*
G37*
G36*
X-40601255Y102323670D02*
X-41308362Y101616563D01*
X-42722575Y103030776D01*
X-42015468Y103737883D01*
X-40601255Y102323670D01*
X-40601255Y102323670D01*
G37*
G36*
X-46724796Y103539148D02*
X-46652001Y103508995D01*
X-46586487Y103465220D01*
X-46530772Y103409505D01*
X-46486997Y103343991D01*
X-46456844Y103271196D01*
X-46441472Y103193917D01*
X-46441472Y103115123D01*
X-46456844Y103037844D01*
X-46486997Y102965049D01*
X-46530772Y102899535D01*
X-46586487Y102843820D01*
X-46652001Y102800045D01*
X-46724796Y102769892D01*
X-46802075Y102754520D01*
X-46880869Y102754520D01*
X-46958148Y102769892D01*
X-47030943Y102800045D01*
X-47096457Y102843820D01*
X-47152172Y102899535D01*
X-47195947Y102965049D01*
X-47226100Y103037844D01*
X-47241472Y103115123D01*
X-47241472Y103193917D01*
X-47226100Y103271196D01*
X-47195947Y103343991D01*
X-47152172Y103409505D01*
X-47096457Y103465220D01*
X-47030943Y103508995D01*
X-46958148Y103539148D01*
X-46880869Y103554520D01*
X-46802075Y103554520D01*
X-46724796Y103539148D01*
X-46724796Y103539148D01*
G37*
G36*
X14983376Y104585900D02*
X15066633Y104577700D01*
X15226852Y104529098D01*
X15226855Y104529097D01*
X15305165Y104487239D01*
X15374520Y104450168D01*
X15503949Y104343949D01*
X15610168Y104214520D01*
X15647239Y104145165D01*
X15689097Y104066855D01*
X15689098Y104066852D01*
X15737700Y103906633D01*
X15754112Y103740000D01*
X15737700Y103573367D01*
X15689098Y103413148D01*
X15689097Y103413145D01*
X15687151Y103409505D01*
X15610168Y103265480D01*
X15503949Y103136051D01*
X15374520Y103029832D01*
X15305165Y102992761D01*
X15226855Y102950903D01*
X15226852Y102950902D01*
X15066633Y102902300D01*
X14983376Y102894100D01*
X14941749Y102890000D01*
X14858251Y102890000D01*
X14816624Y102894100D01*
X14733367Y102902300D01*
X14573148Y102950902D01*
X14573145Y102950903D01*
X14494835Y102992761D01*
X14425480Y103029832D01*
X14296051Y103136051D01*
X14189832Y103265480D01*
X14112849Y103409505D01*
X14110903Y103413145D01*
X14110902Y103413148D01*
X14062300Y103573367D01*
X14045888Y103740000D01*
X14062300Y103906633D01*
X14110902Y104066852D01*
X14110903Y104066855D01*
X14152761Y104145165D01*
X14189832Y104214520D01*
X14296051Y104343949D01*
X14425480Y104450168D01*
X14494835Y104487239D01*
X14573145Y104529097D01*
X14573148Y104529098D01*
X14733367Y104577700D01*
X14816624Y104585900D01*
X14858251Y104590000D01*
X14941749Y104590000D01*
X14983376Y104585900D01*
X14983376Y104585900D01*
G37*
G36*
X-48273363Y105965270D02*
X-48980470Y105258163D01*
X-50394683Y106672376D01*
X-49687576Y107379483D01*
X-48273363Y105965270D01*
X-48273363Y105965270D01*
G37*
G36*
X-43994037Y106370390D02*
X-43893943Y106328929D01*
X-43803862Y106268739D01*
X-43727253Y106192130D01*
X-43667063Y106102049D01*
X-43625602Y106001955D01*
X-43604466Y105895696D01*
X-43604466Y105787356D01*
X-43625602Y105681097D01*
X-43667063Y105581003D01*
X-43727253Y105490922D01*
X-43803862Y105414313D01*
X-43893943Y105354123D01*
X-43994037Y105312662D01*
X-44100296Y105291526D01*
X-44208636Y105291526D01*
X-44314895Y105312662D01*
X-44414989Y105354123D01*
X-44505070Y105414313D01*
X-44581679Y105490922D01*
X-44641869Y105581003D01*
X-44683330Y105681097D01*
X-44704466Y105787356D01*
X-44704466Y105895696D01*
X-44683330Y106001955D01*
X-44641869Y106102049D01*
X-44581679Y106192130D01*
X-44505070Y106268739D01*
X-44414989Y106328929D01*
X-44314895Y106370390D01*
X-44208636Y106391526D01*
X-44100296Y106391526D01*
X-43994037Y106370390D01*
X-43994037Y106370390D01*
G37*
G36*
X-41290684Y107291093D02*
X-42563476Y106018301D01*
X-43977690Y107432515D01*
X-42704898Y108705307D01*
X-41290684Y107291093D01*
X-41290684Y107291093D01*
G37*
G36*
X-47265736Y106972897D02*
X-47972843Y106265790D01*
X-49387056Y107680003D01*
X-48679949Y108387110D01*
X-47265736Y106972897D01*
X-47265736Y106972897D01*
G37*
G36*
X51018521Y107541737D02*
X51109515Y107504046D01*
X51191407Y107449327D01*
X51261051Y107379683D01*
X51315770Y107297791D01*
X51353461Y107206797D01*
X51372676Y107110198D01*
X51372676Y107011706D01*
X51353461Y106915107D01*
X51315770Y106824113D01*
X51261052Y106742222D01*
X51191406Y106672576D01*
X51109515Y106617858D01*
X51018521Y106580167D01*
X50921922Y106560952D01*
X50823430Y106560952D01*
X50726831Y106580167D01*
X50635837Y106617858D01*
X50553946Y106672576D01*
X50484300Y106742222D01*
X50429582Y106824113D01*
X50391891Y106915107D01*
X50372676Y107011706D01*
X50372676Y107110198D01*
X50391891Y107206797D01*
X50429582Y107297791D01*
X50484301Y107379683D01*
X50553945Y107449327D01*
X50635837Y107504046D01*
X50726831Y107541737D01*
X50823430Y107560952D01*
X50921922Y107560952D01*
X51018521Y107541737D01*
X51018521Y107541737D01*
G37*
G36*
X-46258109Y107980524D02*
X-46965216Y107273417D01*
X-48379429Y108687630D01*
X-47672322Y109394737D01*
X-46258109Y107980524D01*
X-46258109Y107980524D01*
G37*
G36*
X47900000Y108200000D02*
X46600000Y108200000D01*
X46600000Y109750000D01*
X47900000Y109750000D01*
X47900000Y108200000D01*
X47900000Y108200000D01*
G37*
G36*
X52400000Y108200000D02*
X51100000Y108200000D01*
X51100000Y109750000D01*
X52400000Y109750000D01*
X52400000Y108200000D01*
X52400000Y108200000D01*
G37*
G36*
X-10658437Y111811550D02*
X-10590816Y111798099D01*
X-10463426Y111745333D01*
X-10394699Y111699410D01*
X-10348776Y111668726D01*
X-10251274Y111571224D01*
X-10220590Y111525301D01*
X-10174667Y111456574D01*
X-10121901Y111329184D01*
X-10121901Y111329182D01*
X-10106150Y111250000D01*
X-10095000Y111193942D01*
X-10095000Y111056058D01*
X-10121901Y110920816D01*
X-10174667Y110793426D01*
X-10220590Y110724699D01*
X-10251274Y110678776D01*
X-10348776Y110581274D01*
X-10394699Y110550590D01*
X-10463426Y110504667D01*
X-10590816Y110451901D01*
X-10658437Y110438450D01*
X-10726056Y110425000D01*
X-10863944Y110425000D01*
X-10931563Y110438450D01*
X-10999184Y110451901D01*
X-11126574Y110504667D01*
X-11195301Y110550590D01*
X-11241224Y110581274D01*
X-11338726Y110678776D01*
X-11369410Y110724699D01*
X-11415333Y110793426D01*
X-11468099Y110920816D01*
X-11495000Y111056058D01*
X-11495000Y111193942D01*
X-11483849Y111250000D01*
X-11468099Y111329182D01*
X-11468099Y111329184D01*
X-11415333Y111456574D01*
X-11369410Y111525301D01*
X-11338726Y111571224D01*
X-11241224Y111668726D01*
X-11195301Y111699410D01*
X-11126574Y111745333D01*
X-10999184Y111798099D01*
X-10931563Y111811550D01*
X-10863944Y111825000D01*
X-10726056Y111825000D01*
X-10658437Y111811550D01*
X-10658437Y111811550D01*
G37*
G36*
X10931563Y111811550D02*
X10999184Y111798099D01*
X11126574Y111745333D01*
X11195301Y111699410D01*
X11241224Y111668726D01*
X11338726Y111571224D01*
X11369410Y111525301D01*
X11415333Y111456574D01*
X11468099Y111329184D01*
X11468099Y111329182D01*
X11483850Y111250000D01*
X11495000Y111193942D01*
X11495000Y111056058D01*
X11468099Y110920816D01*
X11415333Y110793426D01*
X11369410Y110724699D01*
X11338726Y110678776D01*
X11241224Y110581274D01*
X11195301Y110550590D01*
X11126574Y110504667D01*
X10999184Y110451901D01*
X10931563Y110438450D01*
X10863944Y110425000D01*
X10726056Y110425000D01*
X10658437Y110438450D01*
X10590816Y110451901D01*
X10463426Y110504667D01*
X10394699Y110550590D01*
X10348776Y110581274D01*
X10251274Y110678776D01*
X10220590Y110724699D01*
X10174667Y110793426D01*
X10121901Y110920816D01*
X10095000Y111056058D01*
X10095000Y111193942D01*
X10106151Y111250000D01*
X10121901Y111329182D01*
X10121901Y111329184D01*
X10174667Y111456574D01*
X10220590Y111525301D01*
X10251274Y111571224D01*
X10348776Y111668726D01*
X10394699Y111699410D01*
X10463426Y111745333D01*
X10590816Y111798099D01*
X10658437Y111811550D01*
X10726056Y111825000D01*
X10863944Y111825000D01*
X10931563Y111811550D01*
X10931563Y111811550D01*
G37*
G36*
X52400000Y111250000D02*
X51100000Y111250000D01*
X51100000Y112800000D01*
X52400000Y112800000D01*
X52400000Y111250000D01*
X52400000Y111250000D01*
G37*
G36*
X47900000Y111250000D02*
X46600000Y111250000D01*
X46600000Y112800000D01*
X47900000Y112800000D01*
X47900000Y111250000D01*
X47900000Y111250000D01*
G37*
G36*
X12201563Y113081550D02*
X12269184Y113068099D01*
X12396574Y113015333D01*
X12465301Y112969410D01*
X12511224Y112938726D01*
X12608726Y112841224D01*
X12636271Y112800000D01*
X12685333Y112726574D01*
X12738099Y112599184D01*
X12765000Y112463942D01*
X12765000Y112326058D01*
X12738099Y112190816D01*
X12685333Y112063426D01*
X12639410Y111994699D01*
X12608726Y111948776D01*
X12511224Y111851274D01*
X12471902Y111825000D01*
X12396574Y111774667D01*
X12269184Y111721901D01*
X12201563Y111708450D01*
X12133944Y111695000D01*
X11996056Y111695000D01*
X11928437Y111708450D01*
X11860816Y111721901D01*
X11733426Y111774667D01*
X11658098Y111825000D01*
X11618776Y111851274D01*
X11521274Y111948776D01*
X11490590Y111994699D01*
X11444667Y112063426D01*
X11391901Y112190816D01*
X11365000Y112326058D01*
X11365000Y112463942D01*
X11391901Y112599184D01*
X11444667Y112726574D01*
X11493729Y112800000D01*
X11521274Y112841224D01*
X11618776Y112938726D01*
X11664699Y112969410D01*
X11733426Y113015333D01*
X11860816Y113068099D01*
X11928437Y113081550D01*
X11996056Y113095000D01*
X12133944Y113095000D01*
X12201563Y113081550D01*
X12201563Y113081550D01*
G37*
G36*
X-11928437Y113081550D02*
X-11860816Y113068099D01*
X-11733426Y113015333D01*
X-11664699Y112969410D01*
X-11618776Y112938726D01*
X-11521274Y112841224D01*
X-11493729Y112800000D01*
X-11444667Y112726574D01*
X-11391901Y112599184D01*
X-11365000Y112463942D01*
X-11365000Y112326058D01*
X-11391901Y112190816D01*
X-11444667Y112063426D01*
X-11490590Y111994699D01*
X-11521274Y111948776D01*
X-11618776Y111851274D01*
X-11658098Y111825000D01*
X-11733426Y111774667D01*
X-11860816Y111721901D01*
X-11928437Y111708450D01*
X-11996056Y111695000D01*
X-12133944Y111695000D01*
X-12201563Y111708450D01*
X-12269184Y111721901D01*
X-12396574Y111774667D01*
X-12471902Y111825000D01*
X-12511224Y111851274D01*
X-12608726Y111948776D01*
X-12639410Y111994699D01*
X-12685333Y112063426D01*
X-12738099Y112190816D01*
X-12765000Y112326058D01*
X-12765000Y112463942D01*
X-12738099Y112599184D01*
X-12685333Y112726574D01*
X-12636271Y112800000D01*
X-12608726Y112841224D01*
X-12511224Y112938726D01*
X-12465301Y112969410D01*
X-12396574Y113015333D01*
X-12269184Y113068099D01*
X-12201563Y113081550D01*
X-12133944Y113095000D01*
X-11996056Y113095000D01*
X-11928437Y113081550D01*
X-11928437Y113081550D01*
G37*
G36*
X-10658437Y114351549D02*
X-10590816Y114338099D01*
X-10463426Y114285333D01*
X-10394699Y114239410D01*
X-10348776Y114208726D01*
X-10251274Y114111224D01*
X-10227663Y114075887D01*
X-10174667Y113996574D01*
X-10121901Y113869184D01*
X-10121901Y113869182D01*
X-10106111Y113789804D01*
X-10095000Y113733942D01*
X-10095000Y113596058D01*
X-10121901Y113460816D01*
X-10174667Y113333426D01*
X-10220590Y113264699D01*
X-10251274Y113218776D01*
X-10348776Y113121274D01*
X-10388098Y113095000D01*
X-10463426Y113044667D01*
X-10590816Y112991901D01*
X-10658437Y112978450D01*
X-10726056Y112965000D01*
X-10863944Y112965000D01*
X-10931563Y112978450D01*
X-10999184Y112991901D01*
X-11126574Y113044667D01*
X-11201902Y113095000D01*
X-11241224Y113121274D01*
X-11338726Y113218776D01*
X-11369410Y113264699D01*
X-11415333Y113333426D01*
X-11468099Y113460816D01*
X-11495000Y113596058D01*
X-11495000Y113733942D01*
X-11483888Y113789804D01*
X-11468099Y113869182D01*
X-11468099Y113869184D01*
X-11415333Y113996574D01*
X-11362337Y114075887D01*
X-11338726Y114111224D01*
X-11241224Y114208726D01*
X-11195301Y114239410D01*
X-11126574Y114285333D01*
X-10999184Y114338099D01*
X-10931563Y114351549D01*
X-10863944Y114365000D01*
X-10726056Y114365000D01*
X-10658437Y114351549D01*
X-10658437Y114351549D01*
G37*
G36*
X10931563Y114351549D02*
X10999184Y114338099D01*
X11126574Y114285333D01*
X11195301Y114239410D01*
X11241224Y114208726D01*
X11338726Y114111224D01*
X11362337Y114075887D01*
X11415333Y113996574D01*
X11468099Y113869184D01*
X11468099Y113869182D01*
X11483889Y113789804D01*
X11495000Y113733942D01*
X11495000Y113596058D01*
X11468099Y113460816D01*
X11415333Y113333426D01*
X11369410Y113264699D01*
X11338726Y113218776D01*
X11241224Y113121274D01*
X11201902Y113095000D01*
X11126574Y113044667D01*
X10999184Y112991901D01*
X10931563Y112978450D01*
X10863944Y112965000D01*
X10726056Y112965000D01*
X10658437Y112978450D01*
X10590816Y112991901D01*
X10463426Y113044667D01*
X10388098Y113095000D01*
X10348776Y113121274D01*
X10251274Y113218776D01*
X10220590Y113264699D01*
X10174667Y113333426D01*
X10121901Y113460816D01*
X10095000Y113596058D01*
X10095000Y113733942D01*
X10106112Y113789804D01*
X10121901Y113869182D01*
X10121901Y113869184D01*
X10174667Y113996574D01*
X10227663Y114075887D01*
X10251274Y114111224D01*
X10348776Y114208726D01*
X10394699Y114239410D01*
X10463426Y114285333D01*
X10590816Y114338099D01*
X10658437Y114351549D01*
X10726056Y114365000D01*
X10863944Y114365000D01*
X10931563Y114351549D01*
X10931563Y114351549D01*
G37*
G36*
X50473169Y114319833D02*
X50556459Y114285333D01*
X50564163Y114282142D01*
X50634716Y114235000D01*
X50646055Y114227423D01*
X50715699Y114157779D01*
X50770418Y114075887D01*
X50808109Y113984893D01*
X50827324Y113888294D01*
X50827324Y113789802D01*
X50808109Y113693203D01*
X50770418Y113602209D01*
X50715699Y113520317D01*
X50646055Y113450673D01*
X50564163Y113395954D01*
X50473169Y113358263D01*
X50376570Y113339048D01*
X50278078Y113339048D01*
X50181479Y113358263D01*
X50090485Y113395954D01*
X50008593Y113450673D01*
X49938949Y113520317D01*
X49884230Y113602209D01*
X49846539Y113693203D01*
X49827324Y113789802D01*
X49827324Y113888294D01*
X49846539Y113984893D01*
X49884230Y114075887D01*
X49938949Y114157779D01*
X50008593Y114227423D01*
X50019933Y114235000D01*
X50090485Y114282142D01*
X50098189Y114285333D01*
X50181479Y114319833D01*
X50278078Y114339048D01*
X50376570Y114339048D01*
X50473169Y114319833D01*
X50473169Y114319833D01*
G37*
G36*
X-40750000Y114100000D02*
X-42300000Y114100000D01*
X-42300000Y115400000D01*
X-40750000Y115400000D01*
X-40750000Y114100000D01*
X-40750000Y114100000D01*
G37*
G36*
X-48700000Y114100000D02*
X-50250000Y114100000D01*
X-50250000Y115400000D01*
X-48700000Y115400000D01*
X-48700000Y114100000D01*
X-48700000Y114100000D01*
G37*
G36*
X12201563Y115621549D02*
X12269184Y115608099D01*
X12396574Y115555333D01*
X12465301Y115509410D01*
X12511224Y115478726D01*
X12608726Y115381224D01*
X12639410Y115335301D01*
X12685333Y115266574D01*
X12738099Y115139184D01*
X12765000Y115003942D01*
X12765000Y114866058D01*
X12738099Y114730816D01*
X12685333Y114603426D01*
X12639410Y114534699D01*
X12608726Y114488776D01*
X12511224Y114391274D01*
X12471902Y114365000D01*
X12396574Y114314667D01*
X12269184Y114261901D01*
X12201563Y114248451D01*
X12133944Y114235000D01*
X11996056Y114235000D01*
X11928437Y114248451D01*
X11860816Y114261901D01*
X11733426Y114314667D01*
X11658098Y114365000D01*
X11618776Y114391274D01*
X11521274Y114488776D01*
X11490590Y114534699D01*
X11444667Y114603426D01*
X11391901Y114730816D01*
X11365000Y114866058D01*
X11365000Y115003942D01*
X11391901Y115139184D01*
X11444667Y115266574D01*
X11490590Y115335301D01*
X11521274Y115381224D01*
X11618776Y115478726D01*
X11664699Y115509410D01*
X11733426Y115555333D01*
X11860816Y115608099D01*
X11928437Y115621549D01*
X11996056Y115635000D01*
X12133944Y115635000D01*
X12201563Y115621549D01*
X12201563Y115621549D01*
G37*
G36*
X-11928437Y115621549D02*
X-11860816Y115608099D01*
X-11733426Y115555333D01*
X-11664699Y115509410D01*
X-11618776Y115478726D01*
X-11521274Y115381224D01*
X-11490590Y115335301D01*
X-11444667Y115266574D01*
X-11391901Y115139184D01*
X-11365000Y115003942D01*
X-11365000Y114866058D01*
X-11391901Y114730816D01*
X-11444667Y114603426D01*
X-11490590Y114534699D01*
X-11521274Y114488776D01*
X-11618776Y114391274D01*
X-11658098Y114365000D01*
X-11733426Y114314667D01*
X-11860816Y114261901D01*
X-11928437Y114248451D01*
X-11996056Y114235000D01*
X-12133944Y114235000D01*
X-12201563Y114248451D01*
X-12269184Y114261901D01*
X-12396574Y114314667D01*
X-12471902Y114365000D01*
X-12511224Y114391274D01*
X-12608726Y114488776D01*
X-12639410Y114534699D01*
X-12685333Y114603426D01*
X-12738099Y114730816D01*
X-12765000Y114866058D01*
X-12765000Y115003942D01*
X-12738099Y115139184D01*
X-12685333Y115266574D01*
X-12639410Y115335301D01*
X-12608726Y115381224D01*
X-12511224Y115478726D01*
X-12465301Y115509410D01*
X-12396574Y115555333D01*
X-12269184Y115608099D01*
X-12201563Y115621549D01*
X-12133944Y115635000D01*
X-11996056Y115635000D01*
X-11928437Y115621549D01*
X-11928437Y115621549D01*
G37*
G36*
X-10658437Y116891550D02*
X-10590816Y116878099D01*
X-10463426Y116825333D01*
X-10394699Y116779410D01*
X-10348776Y116748726D01*
X-10251274Y116651224D01*
X-10220590Y116605301D01*
X-10174667Y116536574D01*
X-10121901Y116409184D01*
X-10095000Y116273942D01*
X-10095000Y116136058D01*
X-10121901Y116000816D01*
X-10174667Y115873426D01*
X-10220590Y115804699D01*
X-10251274Y115758776D01*
X-10348776Y115661274D01*
X-10388098Y115635000D01*
X-10463426Y115584667D01*
X-10590816Y115531901D01*
X-10658437Y115518450D01*
X-10726056Y115505000D01*
X-10863944Y115505000D01*
X-10931563Y115518450D01*
X-10999184Y115531901D01*
X-11126574Y115584667D01*
X-11201902Y115635000D01*
X-11241224Y115661274D01*
X-11338726Y115758776D01*
X-11369410Y115804699D01*
X-11415333Y115873426D01*
X-11468099Y116000816D01*
X-11495000Y116136058D01*
X-11495000Y116273942D01*
X-11468099Y116409184D01*
X-11415333Y116536574D01*
X-11369410Y116605301D01*
X-11338726Y116651224D01*
X-11241224Y116748726D01*
X-11195301Y116779410D01*
X-11126574Y116825333D01*
X-10999184Y116878099D01*
X-10931563Y116891550D01*
X-10863944Y116905000D01*
X-10726056Y116905000D01*
X-10658437Y116891550D01*
X-10658437Y116891550D01*
G37*
G36*
X-11928437Y118161550D02*
X-11860816Y118148099D01*
X-11733426Y118095333D01*
X-11664699Y118049410D01*
X-11618776Y118018726D01*
X-11521274Y117921224D01*
X-11490590Y117875301D01*
X-11444667Y117806574D01*
X-11391901Y117679184D01*
X-11365000Y117543942D01*
X-11365000Y117406058D01*
X-11391901Y117270816D01*
X-11444667Y117143426D01*
X-11490590Y117074699D01*
X-11521274Y117028776D01*
X-11618776Y116931274D01*
X-11658098Y116905000D01*
X-11733426Y116854667D01*
X-11860816Y116801901D01*
X-11928437Y116788450D01*
X-11996056Y116775000D01*
X-12133944Y116775000D01*
X-12201563Y116788450D01*
X-12269184Y116801901D01*
X-12396574Y116854667D01*
X-12471902Y116905000D01*
X-12511224Y116931274D01*
X-12608726Y117028776D01*
X-12639410Y117074699D01*
X-12685333Y117143426D01*
X-12738099Y117270816D01*
X-12765000Y117406058D01*
X-12765000Y117543942D01*
X-12738099Y117679184D01*
X-12685333Y117806574D01*
X-12639410Y117875301D01*
X-12608726Y117921224D01*
X-12511224Y118018726D01*
X-12465301Y118049410D01*
X-12396574Y118095333D01*
X-12269184Y118148099D01*
X-12201563Y118161550D01*
X-12133944Y118175000D01*
X-11996056Y118175000D01*
X-11928437Y118161550D01*
X-11928437Y118161550D01*
G37*
G36*
X12201563Y118161550D02*
X12269184Y118148099D01*
X12396574Y118095333D01*
X12465301Y118049410D01*
X12511224Y118018726D01*
X12608726Y117921224D01*
X12639410Y117875301D01*
X12685333Y117806574D01*
X12738099Y117679184D01*
X12765000Y117543942D01*
X12765000Y117406058D01*
X12738099Y117270816D01*
X12685333Y117143426D01*
X12639410Y117074699D01*
X12608726Y117028776D01*
X12511224Y116931274D01*
X12471902Y116905000D01*
X12396574Y116854667D01*
X12269184Y116801901D01*
X12201563Y116788450D01*
X12133944Y116775000D01*
X11996056Y116775000D01*
X11928437Y116788450D01*
X11860816Y116801901D01*
X11733426Y116854667D01*
X11658098Y116905000D01*
X11618776Y116931274D01*
X11521274Y117028776D01*
X11490590Y117074699D01*
X11444667Y117143426D01*
X11391901Y117270816D01*
X11365000Y117406058D01*
X11365000Y117543942D01*
X11391901Y117679184D01*
X11444667Y117806574D01*
X11490590Y117875301D01*
X11521274Y117921224D01*
X11618776Y118018726D01*
X11664699Y118049410D01*
X11733426Y118095333D01*
X11860816Y118148099D01*
X11928437Y118161550D01*
X11996056Y118175000D01*
X12133944Y118175000D01*
X12201563Y118161550D01*
X12201563Y118161550D01*
G37*
G36*
X10931563Y119431550D02*
X10999184Y119418099D01*
X11126574Y119365333D01*
X11195301Y119319410D01*
X11241224Y119288726D01*
X11338726Y119191224D01*
X11369410Y119145301D01*
X11415333Y119076574D01*
X11468099Y118949184D01*
X11495000Y118813942D01*
X11495000Y118676058D01*
X11468099Y118540816D01*
X11415333Y118413426D01*
X11369410Y118344699D01*
X11338726Y118298776D01*
X11241224Y118201274D01*
X11201902Y118175000D01*
X11126574Y118124667D01*
X10999184Y118071901D01*
X10931563Y118058450D01*
X10863944Y118045000D01*
X10726056Y118045000D01*
X10658437Y118058450D01*
X10590816Y118071901D01*
X10463426Y118124667D01*
X10388098Y118175000D01*
X10348776Y118201274D01*
X10251274Y118298776D01*
X10220590Y118344699D01*
X10174667Y118413426D01*
X10121901Y118540816D01*
X10095000Y118676058D01*
X10095000Y118813942D01*
X10121901Y118949184D01*
X10174667Y119076574D01*
X10220590Y119145301D01*
X10251274Y119191224D01*
X10348776Y119288726D01*
X10394699Y119319410D01*
X10463426Y119365333D01*
X10590816Y119418099D01*
X10658437Y119431550D01*
X10726056Y119445000D01*
X10863944Y119445000D01*
X10931563Y119431550D01*
X10931563Y119431550D01*
G37*
G36*
X-10658437Y119431550D02*
X-10590816Y119418099D01*
X-10463426Y119365333D01*
X-10394699Y119319410D01*
X-10348776Y119288726D01*
X-10251274Y119191224D01*
X-10220590Y119145301D01*
X-10174667Y119076574D01*
X-10121901Y118949184D01*
X-10095000Y118813942D01*
X-10095000Y118676058D01*
X-10121901Y118540816D01*
X-10174667Y118413426D01*
X-10220590Y118344699D01*
X-10251274Y118298776D01*
X-10348776Y118201274D01*
X-10388098Y118175000D01*
X-10463426Y118124667D01*
X-10590816Y118071901D01*
X-10658437Y118058450D01*
X-10726056Y118045000D01*
X-10863944Y118045000D01*
X-10931563Y118058450D01*
X-10999184Y118071901D01*
X-11126574Y118124667D01*
X-11201902Y118175000D01*
X-11241224Y118201274D01*
X-11338726Y118298776D01*
X-11369410Y118344699D01*
X-11415333Y118413426D01*
X-11468099Y118540816D01*
X-11495000Y118676058D01*
X-11495000Y118813942D01*
X-11468099Y118949184D01*
X-11415333Y119076574D01*
X-11369410Y119145301D01*
X-11338726Y119191224D01*
X-11241224Y119288726D01*
X-11195301Y119319410D01*
X-11126574Y119365333D01*
X-10999184Y119418099D01*
X-10931563Y119431550D01*
X-10863944Y119445000D01*
X-10726056Y119445000D01*
X-10658437Y119431550D01*
X-10658437Y119431550D01*
G37*
G36*
X-48700000Y118600000D02*
X-50250000Y118600000D01*
X-50250000Y119900000D01*
X-48700000Y119900000D01*
X-48700000Y118600000D01*
X-48700000Y118600000D01*
G37*
G36*
X-40750000Y118600000D02*
X-42300000Y118600000D01*
X-42300000Y119900000D01*
X-40750000Y119900000D01*
X-40750000Y118600000D01*
X-40750000Y118600000D01*
G37*
G36*
X47900000Y119200000D02*
X46600000Y119200000D01*
X46600000Y120750000D01*
X47900000Y120750000D01*
X47900000Y119200000D01*
X47900000Y119200000D01*
G37*
G36*
X52400000Y119200000D02*
X51100000Y119200000D01*
X51100000Y120750000D01*
X52400000Y120750000D01*
X52400000Y119200000D01*
X52400000Y119200000D01*
G37*
G36*
X12201563Y120701550D02*
X12269184Y120688099D01*
X12396574Y120635333D01*
X12465301Y120589410D01*
X12511224Y120558726D01*
X12608726Y120461224D01*
X12639410Y120415301D01*
X12685333Y120346574D01*
X12738099Y120219184D01*
X12765000Y120083942D01*
X12765000Y119946058D01*
X12738099Y119810816D01*
X12685333Y119683426D01*
X12639410Y119614699D01*
X12608726Y119568776D01*
X12511224Y119471274D01*
X12471902Y119445000D01*
X12396574Y119394667D01*
X12269184Y119341901D01*
X12201563Y119328451D01*
X12133944Y119315000D01*
X11996056Y119315000D01*
X11928437Y119328451D01*
X11860816Y119341901D01*
X11733426Y119394667D01*
X11658098Y119445000D01*
X11618776Y119471274D01*
X11521274Y119568776D01*
X11490590Y119614699D01*
X11444667Y119683426D01*
X11391901Y119810816D01*
X11365000Y119946058D01*
X11365000Y120083942D01*
X11391901Y120219184D01*
X11444667Y120346574D01*
X11490590Y120415301D01*
X11521274Y120461224D01*
X11618776Y120558726D01*
X11664699Y120589410D01*
X11733426Y120635333D01*
X11860816Y120688099D01*
X11928437Y120701550D01*
X11996056Y120715000D01*
X12133944Y120715000D01*
X12201563Y120701550D01*
X12201563Y120701550D01*
G37*
G36*
X10931563Y121971549D02*
X10999184Y121958099D01*
X11126574Y121905333D01*
X11195301Y121859410D01*
X11241224Y121828726D01*
X11338726Y121731224D01*
X11369410Y121685301D01*
X11415333Y121616574D01*
X11468099Y121489184D01*
X11495000Y121353942D01*
X11495000Y121216058D01*
X11468099Y121080816D01*
X11415333Y120953426D01*
X11369410Y120884699D01*
X11338726Y120838776D01*
X11241224Y120741274D01*
X11201902Y120715000D01*
X11126574Y120664667D01*
X10999184Y120611901D01*
X10931563Y120598451D01*
X10863944Y120585000D01*
X10726056Y120585000D01*
X10658437Y120598451D01*
X10590816Y120611901D01*
X10463426Y120664667D01*
X10388098Y120715000D01*
X10348776Y120741274D01*
X10251274Y120838776D01*
X10220590Y120884699D01*
X10174667Y120953426D01*
X10121901Y121080816D01*
X10095000Y121216058D01*
X10095000Y121353942D01*
X10121901Y121489184D01*
X10174667Y121616574D01*
X10220590Y121685301D01*
X10251274Y121731224D01*
X10348776Y121828726D01*
X10394699Y121859410D01*
X10463426Y121905333D01*
X10590816Y121958099D01*
X10658437Y121971549D01*
X10726056Y121985000D01*
X10863944Y121985000D01*
X10931563Y121971549D01*
X10931563Y121971549D01*
G37*
G36*
X-11928437Y123241549D02*
X-11860816Y123228099D01*
X-11733426Y123175333D01*
X-11664699Y123129410D01*
X-11618776Y123098726D01*
X-11521274Y123001224D01*
X-11490590Y122955301D01*
X-11444667Y122886574D01*
X-11391901Y122759184D01*
X-11365000Y122623942D01*
X-11365000Y122486058D01*
X-11391901Y122350816D01*
X-11444667Y122223426D01*
X-11490590Y122154699D01*
X-11521274Y122108776D01*
X-11618776Y122011274D01*
X-11658098Y121985000D01*
X-11733426Y121934667D01*
X-11860816Y121881901D01*
X-11928437Y121868451D01*
X-11996056Y121855000D01*
X-12133944Y121855000D01*
X-12201563Y121868451D01*
X-12269184Y121881901D01*
X-12396574Y121934667D01*
X-12471902Y121985000D01*
X-12511224Y122011274D01*
X-12608726Y122108776D01*
X-12639410Y122154699D01*
X-12685333Y122223426D01*
X-12738099Y122350816D01*
X-12765000Y122486058D01*
X-12765000Y122623942D01*
X-12738099Y122759184D01*
X-12685333Y122886574D01*
X-12639410Y122955301D01*
X-12608726Y123001224D01*
X-12511224Y123098726D01*
X-12465301Y123129410D01*
X-12396574Y123175333D01*
X-12269184Y123228099D01*
X-12201563Y123241549D01*
X-12133944Y123255000D01*
X-11996056Y123255000D01*
X-11928437Y123241549D01*
X-11928437Y123241549D01*
G37*
G36*
X12201563Y123241549D02*
X12269184Y123228099D01*
X12396574Y123175333D01*
X12465301Y123129410D01*
X12511224Y123098726D01*
X12608726Y123001224D01*
X12639410Y122955301D01*
X12685333Y122886574D01*
X12738099Y122759184D01*
X12765000Y122623942D01*
X12765000Y122486058D01*
X12738099Y122350816D01*
X12685333Y122223426D01*
X12639410Y122154699D01*
X12608726Y122108776D01*
X12511224Y122011274D01*
X12471902Y121985000D01*
X12396574Y121934667D01*
X12269184Y121881901D01*
X12201563Y121868451D01*
X12133944Y121855000D01*
X11996056Y121855000D01*
X11928437Y121868451D01*
X11860816Y121881901D01*
X11733426Y121934667D01*
X11658098Y121985000D01*
X11618776Y122011274D01*
X11521274Y122108776D01*
X11490590Y122154699D01*
X11444667Y122223426D01*
X11391901Y122350816D01*
X11365000Y122486058D01*
X11365000Y122623942D01*
X11391901Y122759184D01*
X11444667Y122886574D01*
X11490590Y122955301D01*
X11521274Y123001224D01*
X11618776Y123098726D01*
X11664699Y123129410D01*
X11733426Y123175333D01*
X11860816Y123228099D01*
X11928437Y123241549D01*
X11996056Y123255000D01*
X12133944Y123255000D01*
X12201563Y123241549D01*
X12201563Y123241549D01*
G37*
G36*
X-39708311Y123961571D02*
X-39526322Y123886189D01*
X-39362538Y123776752D01*
X-39223248Y123637462D01*
X-39163487Y123548023D01*
X-39113811Y123473678D01*
X-39038429Y123291689D01*
X-39000000Y123098491D01*
X-39000000Y122901509D01*
X-39038429Y122708311D01*
X-39113811Y122526322D01*
X-39223249Y122362537D01*
X-39362537Y122223249D01*
X-39526322Y122113811D01*
X-39708311Y122038429D01*
X-39901509Y122000000D01*
X-40098491Y122000000D01*
X-40291689Y122038429D01*
X-40473678Y122113811D01*
X-40637463Y122223249D01*
X-40776751Y122362537D01*
X-40886189Y122526322D01*
X-40961571Y122708311D01*
X-41000000Y122901509D01*
X-41000000Y123098491D01*
X-40961571Y123291689D01*
X-40886189Y123473678D01*
X-40836513Y123548023D01*
X-40776752Y123637462D01*
X-40637462Y123776752D01*
X-40473678Y123886189D01*
X-40291689Y123961571D01*
X-40098491Y124000000D01*
X-39901509Y124000000D01*
X-39708311Y123961571D01*
X-39708311Y123961571D01*
G37*
G36*
X40291689Y123961571D02*
X40473678Y123886189D01*
X40637462Y123776752D01*
X40776752Y123637462D01*
X40836513Y123548023D01*
X40886189Y123473678D01*
X40961571Y123291689D01*
X41000000Y123098491D01*
X41000000Y122901509D01*
X40961571Y122708311D01*
X40886189Y122526322D01*
X40776751Y122362537D01*
X40637463Y122223249D01*
X40473678Y122113811D01*
X40291689Y122038429D01*
X40098491Y122000000D01*
X39901509Y122000000D01*
X39708311Y122038429D01*
X39526322Y122113811D01*
X39362537Y122223249D01*
X39223249Y122362537D01*
X39113811Y122526322D01*
X39038429Y122708311D01*
X39000000Y122901509D01*
X39000000Y123098491D01*
X39038429Y123291689D01*
X39113811Y123473678D01*
X39163487Y123548023D01*
X39223248Y123637462D01*
X39362538Y123776752D01*
X39526322Y123886189D01*
X39708311Y123961571D01*
X39901509Y124000000D01*
X40098491Y124000000D01*
X40291689Y123961571D01*
X40291689Y123961571D01*
G37*
G36*
X-33646327Y124362643D02*
X-33528035Y124313644D01*
X-33421574Y124242510D01*
X-33331037Y124151973D01*
X-33259903Y124045512D01*
X-33210904Y123927220D01*
X-33185925Y123801641D01*
X-33185925Y123673603D01*
X-33210904Y123548024D01*
X-33259903Y123429732D01*
X-33331037Y123323271D01*
X-33421574Y123232734D01*
X-33528035Y123161600D01*
X-33646327Y123112601D01*
X-33771906Y123087622D01*
X-33899944Y123087622D01*
X-34025523Y123112601D01*
X-34143815Y123161600D01*
X-34250276Y123232734D01*
X-34340813Y123323271D01*
X-34411947Y123429732D01*
X-34460946Y123548024D01*
X-34485925Y123673603D01*
X-34485925Y123801641D01*
X-34460946Y123927220D01*
X-34411947Y124045512D01*
X-34340813Y124151973D01*
X-34250276Y124242510D01*
X-34143815Y124313644D01*
X-34025523Y124362643D01*
X-33899944Y124387622D01*
X-33771906Y124387622D01*
X-33646327Y124362643D01*
X-33646327Y124362643D01*
G37*
G36*
X10931563Y124511549D02*
X10999184Y124498099D01*
X11126574Y124445333D01*
X11195301Y124399410D01*
X11241224Y124368726D01*
X11338726Y124271224D01*
X11357911Y124242511D01*
X11415333Y124156574D01*
X11468099Y124029184D01*
X11468099Y124029182D01*
X11488381Y123927221D01*
X11495000Y123893942D01*
X11495000Y123756058D01*
X11468099Y123620816D01*
X11415333Y123493426D01*
X11372773Y123429732D01*
X11338726Y123378776D01*
X11241224Y123281274D01*
X11201902Y123255000D01*
X11126574Y123204667D01*
X10999184Y123151901D01*
X10931563Y123138450D01*
X10863944Y123125000D01*
X10726056Y123125000D01*
X10658437Y123138450D01*
X10590816Y123151901D01*
X10463426Y123204667D01*
X10388098Y123255000D01*
X10348776Y123281274D01*
X10251274Y123378776D01*
X10217227Y123429732D01*
X10174667Y123493426D01*
X10121901Y123620816D01*
X10095000Y123756058D01*
X10095000Y123893942D01*
X10101620Y123927221D01*
X10121901Y124029182D01*
X10121901Y124029184D01*
X10174667Y124156574D01*
X10232089Y124242511D01*
X10251274Y124271224D01*
X10348776Y124368726D01*
X10394699Y124399410D01*
X10463426Y124445333D01*
X10590816Y124498099D01*
X10658437Y124511549D01*
X10726056Y124525000D01*
X10863944Y124525000D01*
X10931563Y124511549D01*
X10931563Y124511549D01*
G37*
G36*
X-10658437Y124511549D02*
X-10590816Y124498099D01*
X-10463426Y124445333D01*
X-10394699Y124399410D01*
X-10348776Y124368726D01*
X-10251274Y124271224D01*
X-10232089Y124242511D01*
X-10174667Y124156574D01*
X-10121901Y124029184D01*
X-10121901Y124029182D01*
X-10101619Y123927221D01*
X-10095000Y123893942D01*
X-10095000Y123756058D01*
X-10121901Y123620816D01*
X-10174667Y123493426D01*
X-10217227Y123429732D01*
X-10251274Y123378776D01*
X-10348776Y123281274D01*
X-10388098Y123255000D01*
X-10463426Y123204667D01*
X-10590816Y123151901D01*
X-10658437Y123138450D01*
X-10726056Y123125000D01*
X-10863944Y123125000D01*
X-10931563Y123138450D01*
X-10999184Y123151901D01*
X-11126574Y123204667D01*
X-11201902Y123255000D01*
X-11241224Y123281274D01*
X-11338726Y123378776D01*
X-11372773Y123429732D01*
X-11415333Y123493426D01*
X-11468099Y123620816D01*
X-11495000Y123756058D01*
X-11495000Y123893942D01*
X-11488380Y123927221D01*
X-11468099Y124029182D01*
X-11468099Y124029184D01*
X-11415333Y124156574D01*
X-11357911Y124242511D01*
X-11338726Y124271224D01*
X-11241224Y124368726D01*
X-11195301Y124399410D01*
X-11126574Y124445333D01*
X-10999184Y124498099D01*
X-10931563Y124511549D01*
X-10863944Y124525000D01*
X-10726056Y124525000D01*
X-10658437Y124511549D01*
X-10658437Y124511549D01*
G37*
G36*
X-28774477Y125487399D02*
X-28656185Y125438400D01*
X-28549724Y125367266D01*
X-28459187Y125276729D01*
X-28388053Y125170268D01*
X-28339054Y125051976D01*
X-28314075Y124926397D01*
X-28314075Y124798359D01*
X-28339054Y124672780D01*
X-28388053Y124554488D01*
X-28459187Y124448027D01*
X-28549724Y124357490D01*
X-28656185Y124286356D01*
X-28774477Y124237357D01*
X-28900056Y124212378D01*
X-29028094Y124212378D01*
X-29153673Y124237357D01*
X-29271965Y124286356D01*
X-29378426Y124357490D01*
X-29468963Y124448027D01*
X-29540097Y124554488D01*
X-29589096Y124672780D01*
X-29614075Y124798359D01*
X-29614075Y124926397D01*
X-29589096Y125051976D01*
X-29540097Y125170268D01*
X-29468963Y125276729D01*
X-29378426Y125367266D01*
X-29271965Y125438400D01*
X-29153673Y125487399D01*
X-29028094Y125512378D01*
X-28900056Y125512378D01*
X-28774477Y125487399D01*
X-28774477Y125487399D01*
G37*
G36*
X-11928437Y125781549D02*
X-11860816Y125768099D01*
X-11733426Y125715333D01*
X-11664699Y125669410D01*
X-11618776Y125638726D01*
X-11521274Y125541224D01*
X-11502000Y125512378D01*
X-11444667Y125426574D01*
X-11391901Y125299184D01*
X-11387434Y125276727D01*
X-11365000Y125163944D01*
X-11365000Y125026056D01*
X-11378451Y124958437D01*
X-11391901Y124890816D01*
X-11444667Y124763426D01*
X-11490590Y124694699D01*
X-11521274Y124648776D01*
X-11618776Y124551274D01*
X-11658098Y124525000D01*
X-11733426Y124474667D01*
X-11860816Y124421901D01*
X-11928437Y124408450D01*
X-11996056Y124395000D01*
X-12133944Y124395000D01*
X-12201563Y124408450D01*
X-12269184Y124421901D01*
X-12396574Y124474667D01*
X-12471902Y124525000D01*
X-12511224Y124551274D01*
X-12608726Y124648776D01*
X-12639410Y124694699D01*
X-12685333Y124763426D01*
X-12738099Y124890816D01*
X-12751549Y124958437D01*
X-12765000Y125026056D01*
X-12765000Y125163944D01*
X-12742566Y125276727D01*
X-12738099Y125299184D01*
X-12685333Y125426574D01*
X-12628000Y125512378D01*
X-12608726Y125541224D01*
X-12511224Y125638726D01*
X-12465301Y125669410D01*
X-12396574Y125715333D01*
X-12269184Y125768099D01*
X-12201563Y125781549D01*
X-12133944Y125795000D01*
X-11996056Y125795000D01*
X-11928437Y125781549D01*
X-11928437Y125781549D01*
G37*
G36*
X12201563Y125781549D02*
X12269184Y125768099D01*
X12396574Y125715333D01*
X12465301Y125669410D01*
X12511224Y125638726D01*
X12608726Y125541224D01*
X12628000Y125512378D01*
X12685333Y125426574D01*
X12738099Y125299184D01*
X12742566Y125276727D01*
X12765000Y125163944D01*
X12765000Y125026056D01*
X12751549Y124958437D01*
X12738099Y124890816D01*
X12685333Y124763426D01*
X12639410Y124694699D01*
X12608726Y124648776D01*
X12511224Y124551274D01*
X12471902Y124525000D01*
X12396574Y124474667D01*
X12269184Y124421901D01*
X12201563Y124408450D01*
X12133944Y124395000D01*
X11996056Y124395000D01*
X11928437Y124408450D01*
X11860816Y124421901D01*
X11733426Y124474667D01*
X11658098Y124525000D01*
X11618776Y124551274D01*
X11521274Y124648776D01*
X11490590Y124694699D01*
X11444667Y124763426D01*
X11391901Y124890816D01*
X11378451Y124958437D01*
X11365000Y125026056D01*
X11365000Y125163944D01*
X11387434Y125276727D01*
X11391901Y125299184D01*
X11444667Y125426574D01*
X11502000Y125512378D01*
X11521274Y125541224D01*
X11618776Y125638726D01*
X11664699Y125669410D01*
X11733426Y125715333D01*
X11860816Y125768099D01*
X11928437Y125781549D01*
X11996056Y125795000D01*
X12133944Y125795000D01*
X12201563Y125781549D01*
X12201563Y125781549D01*
G37*
G36*
X20303376Y126445900D02*
X20386633Y126437700D01*
X20546852Y126389098D01*
X20546855Y126389097D01*
X20619999Y126350000D01*
X20694520Y126310168D01*
X20823949Y126203949D01*
X20930168Y126074520D01*
X20952133Y126033426D01*
X21009097Y125926855D01*
X21009098Y125926852D01*
X21057700Y125766633D01*
X21074112Y125600000D01*
X21057700Y125433367D01*
X21010184Y125276729D01*
X21009097Y125273145D01*
X20996384Y125249361D01*
X20930168Y125125480D01*
X20823949Y124996051D01*
X20694520Y124889832D01*
X20625165Y124852761D01*
X20546855Y124810903D01*
X20546852Y124810902D01*
X20386633Y124762300D01*
X20303376Y124754100D01*
X20261749Y124750000D01*
X20178251Y124750000D01*
X20136624Y124754100D01*
X20053367Y124762300D01*
X19893148Y124810902D01*
X19893145Y124810903D01*
X19814835Y124852761D01*
X19745480Y124889832D01*
X19616051Y124996051D01*
X19509832Y125125480D01*
X19443616Y125249361D01*
X19430903Y125273145D01*
X19429816Y125276729D01*
X19382300Y125433367D01*
X19365888Y125600000D01*
X19382300Y125766633D01*
X19430902Y125926852D01*
X19430903Y125926855D01*
X19487867Y126033426D01*
X19509832Y126074520D01*
X19616051Y126203949D01*
X19745480Y126310168D01*
X19820001Y126350000D01*
X19893145Y126389097D01*
X19893148Y126389098D01*
X20053367Y126437700D01*
X20136624Y126445900D01*
X20178251Y126450000D01*
X20261749Y126450000D01*
X20303376Y126445900D01*
X20303376Y126445900D01*
G37*
G36*
X26150000Y124750000D02*
X24450000Y124750000D01*
X24450000Y126450000D01*
X26150000Y126450000D01*
X26150000Y124750000D01*
X26150000Y124750000D01*
G37*
G36*
X22843376Y126445900D02*
X22926633Y126437700D01*
X23086852Y126389098D01*
X23086855Y126389097D01*
X23159999Y126350000D01*
X23234520Y126310168D01*
X23363949Y126203949D01*
X23470168Y126074520D01*
X23492133Y126033426D01*
X23549097Y125926855D01*
X23549098Y125926852D01*
X23597700Y125766633D01*
X23614112Y125600000D01*
X23597700Y125433367D01*
X23550184Y125276729D01*
X23549097Y125273145D01*
X23536384Y125249361D01*
X23470168Y125125480D01*
X23363949Y124996051D01*
X23234520Y124889832D01*
X23165165Y124852761D01*
X23086855Y124810903D01*
X23086852Y124810902D01*
X22926633Y124762300D01*
X22843376Y124754100D01*
X22801749Y124750000D01*
X22718251Y124750000D01*
X22676624Y124754100D01*
X22593367Y124762300D01*
X22433148Y124810902D01*
X22433145Y124810903D01*
X22354835Y124852761D01*
X22285480Y124889832D01*
X22156051Y124996051D01*
X22049832Y125125480D01*
X21983616Y125249361D01*
X21970903Y125273145D01*
X21969816Y125276729D01*
X21922300Y125433367D01*
X21905888Y125600000D01*
X21922300Y125766633D01*
X21970902Y125926852D01*
X21970903Y125926855D01*
X22027867Y126033426D01*
X22049832Y126074520D01*
X22156051Y126203949D01*
X22285480Y126310168D01*
X22360001Y126350000D01*
X22433145Y126389097D01*
X22433148Y126389098D01*
X22593367Y126437700D01*
X22676624Y126445900D01*
X22718251Y126450000D01*
X22801749Y126450000D01*
X22843376Y126445900D01*
X22843376Y126445900D01*
G37*
G36*
X37487164Y127304305D02*
X37580768Y127273665D01*
X37666596Y127225353D01*
X37741350Y127161224D01*
X37802157Y127083745D01*
X37846679Y126995891D01*
X37873207Y126901039D01*
X37880720Y126802835D01*
X37871884Y126729553D01*
X37623169Y125607673D01*
X37600206Y125537523D01*
X37551894Y125451695D01*
X37487766Y125376941D01*
X37410286Y125316134D01*
X37322432Y125271612D01*
X37227580Y125245084D01*
X37129377Y125237571D01*
X37031594Y125249360D01*
X36937992Y125280000D01*
X36937990Y125280001D01*
X36852162Y125328313D01*
X36777408Y125392441D01*
X36716601Y125469921D01*
X36672079Y125557775D01*
X36645551Y125652627D01*
X36638038Y125750830D01*
X36646874Y125824112D01*
X36667861Y125918776D01*
X36782070Y126433942D01*
X36895589Y126945993D01*
X36918552Y127016143D01*
X36966863Y127101971D01*
X37030992Y127176724D01*
X37030994Y127176726D01*
X37108472Y127237531D01*
X37196325Y127282054D01*
X37291176Y127308581D01*
X37389381Y127316094D01*
X37487164Y127304305D01*
X37487164Y127304305D01*
G37*
G36*
X10931563Y127051550D02*
X10999184Y127038099D01*
X11126574Y126985333D01*
X11195301Y126939410D01*
X11241224Y126908726D01*
X11338726Y126811224D01*
X11364415Y126772777D01*
X11415333Y126696574D01*
X11468099Y126569184D01*
X11468099Y126569182D01*
X11494253Y126437700D01*
X11495000Y126433942D01*
X11495000Y126296058D01*
X11468099Y126160816D01*
X11415333Y126033426D01*
X11369410Y125964699D01*
X11338726Y125918776D01*
X11241224Y125821274D01*
X11201902Y125795000D01*
X11126574Y125744667D01*
X10999184Y125691901D01*
X10931563Y125678450D01*
X10863944Y125665000D01*
X10726056Y125665000D01*
X10658437Y125678450D01*
X10590816Y125691901D01*
X10463426Y125744667D01*
X10388098Y125795000D01*
X10348776Y125821274D01*
X10251274Y125918776D01*
X10220590Y125964699D01*
X10174667Y126033426D01*
X10121901Y126160816D01*
X10095000Y126296058D01*
X10095000Y126433942D01*
X10095748Y126437700D01*
X10121901Y126569182D01*
X10121901Y126569184D01*
X10174667Y126696574D01*
X10225585Y126772777D01*
X10251274Y126811224D01*
X10348776Y126908726D01*
X10394699Y126939410D01*
X10463426Y126985333D01*
X10590816Y127038099D01*
X10658437Y127051550D01*
X10726056Y127065000D01*
X10863944Y127065000D01*
X10931563Y127051550D01*
X10931563Y127051550D01*
G37*
G36*
X39226563Y127736549D02*
X39294184Y127723099D01*
X39421574Y127670333D01*
X39490301Y127624410D01*
X39536224Y127593726D01*
X39633726Y127496224D01*
X39646097Y127477709D01*
X39710333Y127381574D01*
X39763099Y127254184D01*
X39763099Y127254182D01*
X39790000Y127118944D01*
X39790000Y126981056D01*
X39783726Y126949516D01*
X39763099Y126845816D01*
X39710333Y126718426D01*
X39664410Y126649699D01*
X39633726Y126603776D01*
X39536224Y126506274D01*
X39490301Y126475590D01*
X39421574Y126429667D01*
X39294184Y126376901D01*
X39226563Y126363451D01*
X39158944Y126350000D01*
X39021056Y126350000D01*
X38953437Y126363451D01*
X38885816Y126376901D01*
X38758426Y126429667D01*
X38689699Y126475590D01*
X38643776Y126506274D01*
X38546274Y126603776D01*
X38515590Y126649699D01*
X38469667Y126718426D01*
X38416901Y126845816D01*
X38396274Y126949516D01*
X38390000Y126981056D01*
X38390000Y127118944D01*
X38416901Y127254182D01*
X38416901Y127254184D01*
X38469667Y127381574D01*
X38533903Y127477709D01*
X38546274Y127496224D01*
X38643776Y127593726D01*
X38689699Y127624410D01*
X38758426Y127670333D01*
X38885816Y127723099D01*
X38953437Y127736549D01*
X39021056Y127750000D01*
X39158944Y127750000D01*
X39226563Y127736549D01*
X39226563Y127736549D01*
G37*
G36*
X36035205Y127394787D02*
X36096468Y127376203D01*
X36152928Y127346025D01*
X36160319Y127339959D01*
X36202416Y127305412D01*
X36221585Y127282053D01*
X36243029Y127255924D01*
X36273207Y127199464D01*
X36291791Y127138201D01*
X36298066Y127074490D01*
X36291791Y127010779D01*
X36273207Y126949516D01*
X36243029Y126893056D01*
X36228630Y126875511D01*
X36202416Y126843568D01*
X36170473Y126817354D01*
X36152928Y126802955D01*
X36096468Y126772777D01*
X36035205Y126754193D01*
X35987455Y126749490D01*
X35955533Y126749490D01*
X35907783Y126754193D01*
X35846520Y126772777D01*
X35790060Y126802955D01*
X35772515Y126817354D01*
X35740572Y126843568D01*
X35714358Y126875511D01*
X35699959Y126893056D01*
X35669781Y126949516D01*
X35651197Y127010779D01*
X35644922Y127074490D01*
X35651197Y127138201D01*
X35669781Y127199464D01*
X35699959Y127255924D01*
X35721403Y127282053D01*
X35740572Y127305412D01*
X35782669Y127339959D01*
X35790060Y127346025D01*
X35846520Y127376203D01*
X35907783Y127394787D01*
X35955533Y127399490D01*
X35987455Y127399490D01*
X36035205Y127394787D01*
X36035205Y127394787D01*
G37*
G36*
X-11928437Y128321550D02*
X-11860816Y128308099D01*
X-11733426Y128255333D01*
X-11664699Y128209410D01*
X-11618776Y128178726D01*
X-11521274Y128081224D01*
X-11503068Y128053976D01*
X-11444667Y127966574D01*
X-11391901Y127839184D01*
X-11391901Y127839182D01*
X-11368810Y127723099D01*
X-11365000Y127703942D01*
X-11365000Y127566058D01*
X-11391901Y127430816D01*
X-11444667Y127303426D01*
X-11477570Y127254184D01*
X-11521274Y127188776D01*
X-11618776Y127091274D01*
X-11658098Y127065000D01*
X-11733426Y127014667D01*
X-11860816Y126961901D01*
X-11928437Y126948450D01*
X-11996056Y126935000D01*
X-12133944Y126935000D01*
X-12201563Y126948450D01*
X-12269184Y126961901D01*
X-12396574Y127014667D01*
X-12471902Y127065000D01*
X-12511224Y127091274D01*
X-12608726Y127188776D01*
X-12652430Y127254184D01*
X-12685333Y127303426D01*
X-12738099Y127430816D01*
X-12765000Y127566058D01*
X-12765000Y127703942D01*
X-12761189Y127723099D01*
X-12738099Y127839182D01*
X-12738099Y127839184D01*
X-12685333Y127966574D01*
X-12626932Y128053976D01*
X-12608726Y128081224D01*
X-12511224Y128178726D01*
X-12465301Y128209410D01*
X-12396574Y128255333D01*
X-12269184Y128308099D01*
X-12201563Y128321550D01*
X-12133944Y128335000D01*
X-11996056Y128335000D01*
X-11928437Y128321550D01*
X-11928437Y128321550D01*
G37*
G36*
X12201563Y128321550D02*
X12269184Y128308099D01*
X12396574Y128255333D01*
X12465301Y128209410D01*
X12511224Y128178726D01*
X12608726Y128081224D01*
X12626932Y128053976D01*
X12685333Y127966574D01*
X12738099Y127839184D01*
X12738099Y127839182D01*
X12761190Y127723099D01*
X12765000Y127703942D01*
X12765000Y127566058D01*
X12738099Y127430816D01*
X12685333Y127303426D01*
X12652430Y127254184D01*
X12608726Y127188776D01*
X12511224Y127091274D01*
X12471902Y127065000D01*
X12396574Y127014667D01*
X12269184Y126961901D01*
X12201563Y126948450D01*
X12133944Y126935000D01*
X11996056Y126935000D01*
X11928437Y126948450D01*
X11860816Y126961901D01*
X11733426Y127014667D01*
X11658098Y127065000D01*
X11618776Y127091274D01*
X11521274Y127188776D01*
X11477570Y127254184D01*
X11444667Y127303426D01*
X11391901Y127430816D01*
X11365000Y127566058D01*
X11365000Y127703942D01*
X11368811Y127723099D01*
X11391901Y127839182D01*
X11391901Y127839184D01*
X11444667Y127966574D01*
X11503068Y128053976D01*
X11521274Y128081224D01*
X11618776Y128178726D01*
X11664699Y128209410D01*
X11733426Y128255333D01*
X11860816Y128308099D01*
X11928437Y128321550D01*
X11996056Y128335000D01*
X12133944Y128335000D01*
X12201563Y128321550D01*
X12201563Y128321550D01*
G37*
G36*
X29051966Y129174343D02*
X29145570Y129143703D01*
X29231398Y129095391D01*
X29306152Y129031262D01*
X29366959Y128953783D01*
X29411481Y128865929D01*
X29438009Y128771077D01*
X29445522Y128672873D01*
X29437751Y128608426D01*
X29436686Y128599590D01*
X29430360Y128571056D01*
X29187971Y127477711D01*
X29165008Y127407561D01*
X29116696Y127321733D01*
X29052568Y127246979D01*
X28975088Y127186172D01*
X28887234Y127141650D01*
X28792382Y127115122D01*
X28694179Y127107609D01*
X28596396Y127119398D01*
X28502794Y127150038D01*
X28502792Y127150039D01*
X28416964Y127198351D01*
X28342210Y127262479D01*
X28281403Y127339959D01*
X28236881Y127427813D01*
X28210353Y127522665D01*
X28202840Y127620868D01*
X28211676Y127694150D01*
X28213847Y127703942D01*
X28337521Y128261799D01*
X28460391Y128816031D01*
X28483354Y128886181D01*
X28531665Y128972009D01*
X28595794Y129046762D01*
X28595796Y129046764D01*
X28673274Y129107569D01*
X28761127Y129152092D01*
X28855978Y129178619D01*
X28954183Y129186132D01*
X29051966Y129174343D01*
X29051966Y129174343D01*
G37*
G36*
X39586563Y129326549D02*
X39654184Y129313099D01*
X39781574Y129260333D01*
X39817131Y129236574D01*
X39896224Y129183726D01*
X39993726Y129086224D01*
X40020092Y129046764D01*
X40070333Y128971574D01*
X40123099Y128844184D01*
X40150000Y128708942D01*
X40150000Y128571058D01*
X40123099Y128435816D01*
X40070333Y128308426D01*
X40039177Y128261799D01*
X39993726Y128193776D01*
X39896224Y128096274D01*
X39873698Y128081223D01*
X39781574Y128019667D01*
X39654184Y127966901D01*
X39586563Y127953451D01*
X39518944Y127940000D01*
X39381056Y127940000D01*
X39313437Y127953451D01*
X39245816Y127966901D01*
X39118426Y128019667D01*
X39026302Y128081223D01*
X39003776Y128096274D01*
X38906274Y128193776D01*
X38860823Y128261799D01*
X38829667Y128308426D01*
X38776901Y128435816D01*
X38750000Y128571058D01*
X38750000Y128708942D01*
X38776901Y128844184D01*
X38829667Y128971574D01*
X38879908Y129046764D01*
X38906274Y129086224D01*
X39003776Y129183726D01*
X39082869Y129236574D01*
X39118426Y129260333D01*
X39245816Y129313099D01*
X39313437Y129326549D01*
X39381056Y129340000D01*
X39518944Y129340000D01*
X39586563Y129326549D01*
X39586563Y129326549D01*
G37*
G36*
X30392217Y128645807D02*
X30453480Y128627223D01*
X30509940Y128597045D01*
X30527485Y128582646D01*
X30559428Y128556432D01*
X30585642Y128524489D01*
X30600041Y128506944D01*
X30630219Y128450484D01*
X30648803Y128389221D01*
X30655078Y128325510D01*
X30648803Y128261799D01*
X30630219Y128200536D01*
X30600041Y128144076D01*
X30585642Y128126531D01*
X30559428Y128094588D01*
X30527485Y128068374D01*
X30509940Y128053975D01*
X30453480Y128023797D01*
X30392217Y128005213D01*
X30344467Y128000510D01*
X30312545Y128000510D01*
X30264795Y128005213D01*
X30203532Y128023797D01*
X30147072Y128053975D01*
X30129527Y128068374D01*
X30097584Y128094588D01*
X30071370Y128126531D01*
X30056971Y128144076D01*
X30026793Y128200536D01*
X30008209Y128261799D01*
X30001934Y128325510D01*
X30008209Y128389221D01*
X30026793Y128450484D01*
X30056971Y128506944D01*
X30071370Y128524489D01*
X30097584Y128556432D01*
X30129527Y128582646D01*
X30147072Y128597045D01*
X30203532Y128627223D01*
X30264795Y128645807D01*
X30312545Y128650510D01*
X30344467Y128650510D01*
X30392217Y128645807D01*
X30392217Y128645807D01*
G37*
G36*
X10931563Y129591550D02*
X10999184Y129578099D01*
X11126574Y129525333D01*
X11195301Y129479410D01*
X11241224Y129448726D01*
X11338726Y129351224D01*
X11364200Y129313099D01*
X11415333Y129236574D01*
X11468099Y129109184D01*
X11472666Y129086224D01*
X11495000Y128973944D01*
X11495000Y128836056D01*
X11482075Y128771077D01*
X11468099Y128700816D01*
X11415333Y128573426D01*
X11370911Y128506944D01*
X11338726Y128458776D01*
X11241224Y128361274D01*
X11201902Y128335000D01*
X11126574Y128284667D01*
X10999184Y128231901D01*
X10931563Y128218451D01*
X10863944Y128205000D01*
X10726056Y128205000D01*
X10658437Y128218451D01*
X10590816Y128231901D01*
X10463426Y128284667D01*
X10388098Y128335000D01*
X10348776Y128361274D01*
X10251274Y128458776D01*
X10219089Y128506944D01*
X10174667Y128573426D01*
X10121901Y128700816D01*
X10107925Y128771077D01*
X10095000Y128836056D01*
X10095000Y128973944D01*
X10117334Y129086224D01*
X10121901Y129109184D01*
X10174667Y129236574D01*
X10225800Y129313099D01*
X10251274Y129351224D01*
X10348776Y129448726D01*
X10394699Y129479410D01*
X10463426Y129525333D01*
X10590816Y129578099D01*
X10658437Y129591550D01*
X10726056Y129605000D01*
X10863944Y129605000D01*
X10931563Y129591550D01*
X10931563Y129591550D01*
G37*
G36*
X-10658437Y129591550D02*
X-10590816Y129578099D01*
X-10463426Y129525333D01*
X-10394699Y129479410D01*
X-10348776Y129448726D01*
X-10251274Y129351224D01*
X-10225800Y129313099D01*
X-10174667Y129236574D01*
X-10121901Y129109184D01*
X-10117334Y129086224D01*
X-10095000Y128973944D01*
X-10095000Y128836056D01*
X-10107925Y128771077D01*
X-10121901Y128700816D01*
X-10174667Y128573426D01*
X-10219089Y128506944D01*
X-10251274Y128458776D01*
X-10348776Y128361274D01*
X-10388098Y128335000D01*
X-10463426Y128284667D01*
X-10590816Y128231901D01*
X-10658437Y128218451D01*
X-10726056Y128205000D01*
X-10863944Y128205000D01*
X-10931563Y128218451D01*
X-10999184Y128231901D01*
X-11126574Y128284667D01*
X-11201902Y128335000D01*
X-11241224Y128361274D01*
X-11338726Y128458776D01*
X-11370911Y128506944D01*
X-11415333Y128573426D01*
X-11468099Y128700816D01*
X-11482075Y128771077D01*
X-11495000Y128836056D01*
X-11495000Y128973944D01*
X-11472666Y129086224D01*
X-11468099Y129109184D01*
X-11415333Y129236574D01*
X-11364200Y129313099D01*
X-11338726Y129351224D01*
X-11241224Y129448726D01*
X-11195301Y129479410D01*
X-11126574Y129525333D01*
X-10999184Y129578099D01*
X-10931563Y129591550D01*
X-10863944Y129605000D01*
X-10726056Y129605000D01*
X-10658437Y129591550D01*
X-10658437Y129591550D01*
G37*
G36*
X38352922Y131209488D02*
X38446526Y131178848D01*
X38532354Y131130536D01*
X38607108Y131066407D01*
X38607110Y131066405D01*
X38609677Y131063134D01*
X38667915Y130988928D01*
X38712437Y130901074D01*
X38738965Y130806222D01*
X38746478Y130708018D01*
X38740236Y130656250D01*
X38737642Y130634735D01*
X38709229Y130506574D01*
X38553859Y129805746D01*
X38530896Y129735596D01*
X38482584Y129649768D01*
X38418455Y129575014D01*
X38418453Y129575012D01*
X38395142Y129556718D01*
X38340976Y129514207D01*
X38253122Y129469685D01*
X38158270Y129443157D01*
X38060067Y129435644D01*
X37962284Y129447433D01*
X37868682Y129478073D01*
X37868680Y129478074D01*
X37782852Y129526386D01*
X37708098Y129590515D01*
X37647291Y129667994D01*
X37602769Y129755848D01*
X37576241Y129850700D01*
X37568728Y129948903D01*
X37577564Y130022185D01*
X37577572Y130022219D01*
X37661562Y130401074D01*
X37761347Y130851176D01*
X37784310Y130921326D01*
X37832622Y131007154D01*
X37896750Y131081908D01*
X37974230Y131142714D01*
X38062084Y131187237D01*
X38156935Y131213765D01*
X38255139Y131221277D01*
X38352922Y131209488D01*
X38352922Y131209488D01*
G37*
G36*
X12201563Y130861549D02*
X12269184Y130848099D01*
X12396574Y130795333D01*
X12452042Y130758270D01*
X12511224Y130718726D01*
X12608726Y130621224D01*
X12639410Y130575301D01*
X12685333Y130506574D01*
X12738099Y130379184D01*
X12745147Y130343750D01*
X12765000Y130243944D01*
X12765000Y130106056D01*
X12764009Y130101074D01*
X12738099Y129970816D01*
X12685333Y129843426D01*
X12660154Y129805744D01*
X12608726Y129728776D01*
X12511224Y129631274D01*
X12471902Y129605000D01*
X12396574Y129554667D01*
X12269184Y129501901D01*
X12201563Y129488451D01*
X12133944Y129475000D01*
X11996056Y129475000D01*
X11928437Y129488451D01*
X11860816Y129501901D01*
X11733426Y129554667D01*
X11658098Y129605000D01*
X11618776Y129631274D01*
X11521274Y129728776D01*
X11469846Y129805744D01*
X11444667Y129843426D01*
X11391901Y129970816D01*
X11365991Y130101074D01*
X11365000Y130106056D01*
X11365000Y130243944D01*
X11384853Y130343750D01*
X11391901Y130379184D01*
X11444667Y130506574D01*
X11490590Y130575301D01*
X11521274Y130621224D01*
X11618776Y130718726D01*
X11677958Y130758270D01*
X11733426Y130795333D01*
X11860816Y130848099D01*
X11928437Y130861549D01*
X11996056Y130875000D01*
X12133944Y130875000D01*
X12201563Y130861549D01*
X12201563Y130861549D01*
G37*
G36*
X-11928437Y130861549D02*
X-11860816Y130848099D01*
X-11733426Y130795333D01*
X-11677958Y130758270D01*
X-11618776Y130718726D01*
X-11521274Y130621224D01*
X-11490590Y130575301D01*
X-11444667Y130506574D01*
X-11391901Y130379184D01*
X-11384853Y130343750D01*
X-11365000Y130243944D01*
X-11365000Y130106056D01*
X-11365991Y130101074D01*
X-11391901Y129970816D01*
X-11444667Y129843426D01*
X-11469846Y129805744D01*
X-11521274Y129728776D01*
X-11618776Y129631274D01*
X-11658098Y129605000D01*
X-11733426Y129554667D01*
X-11860816Y129501901D01*
X-11928437Y129488451D01*
X-11996056Y129475000D01*
X-12133944Y129475000D01*
X-12201563Y129488451D01*
X-12269184Y129501901D01*
X-12396574Y129554667D01*
X-12471902Y129605000D01*
X-12511224Y129631274D01*
X-12608726Y129728776D01*
X-12660154Y129805744D01*
X-12685333Y129843426D01*
X-12738099Y129970816D01*
X-12764009Y130101074D01*
X-12765000Y130106056D01*
X-12765000Y130243944D01*
X-12745147Y130343750D01*
X-12738099Y130379184D01*
X-12685333Y130506574D01*
X-12639410Y130575301D01*
X-12608726Y130621224D01*
X-12511224Y130718726D01*
X-12452042Y130758270D01*
X-12396574Y130795333D01*
X-12269184Y130848099D01*
X-12201563Y130861549D01*
X-12133944Y130875000D01*
X-11996056Y130875000D01*
X-11928437Y130861549D01*
X-11928437Y130861549D01*
G37*
G36*
X39974028Y130941032D02*
X40064184Y130923099D01*
X40191574Y130870333D01*
X40259916Y130824668D01*
X40306224Y130793726D01*
X40403726Y130696224D01*
X40434410Y130650301D01*
X40480333Y130581574D01*
X40533099Y130454184D01*
X40533099Y130454182D01*
X40560000Y130318944D01*
X40560000Y130181056D01*
X40546549Y130113437D01*
X40533099Y130045816D01*
X40480333Y129918426D01*
X40435079Y129850700D01*
X40403726Y129803776D01*
X40306224Y129706274D01*
X40260301Y129675590D01*
X40191574Y129629667D01*
X40064184Y129576901D01*
X39996563Y129563451D01*
X39928944Y129550000D01*
X39791056Y129550000D01*
X39723437Y129563451D01*
X39655816Y129576901D01*
X39528426Y129629667D01*
X39459699Y129675590D01*
X39413776Y129706274D01*
X39316274Y129803776D01*
X39284921Y129850700D01*
X39239667Y129918426D01*
X39186901Y130045816D01*
X39173451Y130113437D01*
X39160000Y130181056D01*
X39160000Y130318944D01*
X39186901Y130454182D01*
X39186901Y130454184D01*
X39239667Y130581574D01*
X39285590Y130650301D01*
X39316274Y130696224D01*
X39413776Y130793726D01*
X39460084Y130824668D01*
X39528426Y130870333D01*
X39655816Y130923099D01*
X39745972Y130941032D01*
X39791056Y130950000D01*
X39928944Y130950000D01*
X39974028Y130941032D01*
X39974028Y130941032D01*
G37*
G36*
X28950000Y129900000D02*
X27350000Y129900000D01*
X27350000Y130750000D01*
X28950000Y130750000D01*
X28950000Y129900000D01*
X28950000Y129900000D01*
G37*
G36*
X17050000Y129900000D02*
X15450000Y129900000D01*
X15450000Y130750000D01*
X17050000Y130750000D01*
X17050000Y129900000D01*
X17050000Y129900000D01*
G37*
G36*
X20550000Y129900000D02*
X18950000Y129900000D01*
X18950000Y130750000D01*
X20550000Y130750000D01*
X20550000Y129900000D01*
X20550000Y129900000D01*
G37*
G36*
X-30950000Y129900000D02*
X-32550000Y129900000D01*
X-32550000Y130750000D01*
X-30950000Y130750000D01*
X-30950000Y129900000D01*
X-30950000Y129900000D01*
G37*
G36*
X-27450000Y129900000D02*
X-29050000Y129900000D01*
X-29050000Y130750000D01*
X-27450000Y130750000D01*
X-27450000Y129900000D01*
X-27450000Y129900000D01*
G37*
G36*
X-15450000Y129900000D02*
X-17050000Y129900000D01*
X-17050000Y130750000D01*
X-15450000Y130750000D01*
X-15450000Y129900000D01*
X-15450000Y129900000D01*
G37*
G36*
X-18950000Y129900000D02*
X-20550000Y129900000D01*
X-20550000Y130750000D01*
X-18950000Y130750000D01*
X-18950000Y129900000D01*
X-18950000Y129900000D01*
G37*
G36*
X-3450000Y129900000D02*
X-5050000Y129900000D01*
X-5050000Y130750000D01*
X-3450000Y130750000D01*
X-3450000Y129900000D01*
X-3450000Y129900000D01*
G37*
G36*
X-6950000Y129900000D02*
X-8550000Y129900000D01*
X-8550000Y130750000D01*
X-6950000Y130750000D01*
X-6950000Y129900000D01*
X-6950000Y129900000D01*
G37*
G36*
X5050000Y129900000D02*
X3450000Y129900000D01*
X3450000Y130750000D01*
X5050000Y130750000D01*
X5050000Y129900000D01*
X5050000Y129900000D01*
G37*
G36*
X8550000Y129900000D02*
X6950000Y129900000D01*
X6950000Y130750000D01*
X8550000Y130750000D01*
X8550000Y129900000D01*
X8550000Y129900000D01*
G37*
G36*
X32450000Y129900000D02*
X30850000Y129900000D01*
X30850000Y130750000D01*
X32450000Y130750000D01*
X32450000Y129900000D01*
X32450000Y129900000D01*
G37*
G36*
X26108968Y130795918D02*
X26147630Y130784190D01*
X26183270Y130765140D01*
X26214505Y130739505D01*
X26240140Y130708270D01*
X26259190Y130672630D01*
X26270918Y130633968D01*
X26275000Y130592519D01*
X26275000Y130132481D01*
X26270918Y130091032D01*
X26259190Y130052370D01*
X26240140Y130016730D01*
X26214505Y129985495D01*
X26183270Y129959860D01*
X26147630Y129940810D01*
X26108968Y129929082D01*
X26067519Y129925000D01*
X25532481Y129925000D01*
X25491032Y129929082D01*
X25452370Y129940810D01*
X25416730Y129959860D01*
X25385495Y129985495D01*
X25359860Y130016730D01*
X25340810Y130052370D01*
X25329082Y130091032D01*
X25325000Y130132481D01*
X25325000Y130592519D01*
X25329082Y130633968D01*
X25340810Y130672630D01*
X25359860Y130708270D01*
X25385495Y130739505D01*
X25416730Y130765140D01*
X25452370Y130784190D01*
X25491032Y130795918D01*
X25532481Y130800000D01*
X26067519Y130800000D01*
X26108968Y130795918D01*
X26108968Y130795918D01*
G37*
G36*
X-33891032Y130845918D02*
X-33852370Y130834190D01*
X-33816730Y130815140D01*
X-33785495Y130789505D01*
X-33759860Y130758270D01*
X-33740810Y130722630D01*
X-33729082Y130683968D01*
X-33725000Y130642519D01*
X-33725000Y130182481D01*
X-33729082Y130141032D01*
X-33740810Y130102370D01*
X-33759860Y130066730D01*
X-33785495Y130035495D01*
X-33816730Y130009860D01*
X-33852370Y129990810D01*
X-33891032Y129979082D01*
X-33932481Y129975000D01*
X-34467519Y129975000D01*
X-34508968Y129979082D01*
X-34547630Y129990810D01*
X-34583270Y130009860D01*
X-34614505Y130035495D01*
X-34640140Y130066730D01*
X-34659190Y130102370D01*
X-34670918Y130141032D01*
X-34675000Y130182481D01*
X-34675000Y130642519D01*
X-34670918Y130683968D01*
X-34659190Y130722630D01*
X-34640140Y130758270D01*
X-34614505Y130789505D01*
X-34583270Y130815140D01*
X-34547630Y130834190D01*
X-34508968Y130845918D01*
X-34467519Y130850000D01*
X-33932481Y130850000D01*
X-33891032Y130845918D01*
X-33891032Y130845918D01*
G37*
G36*
X2608968Y130870918D02*
X2647630Y130859190D01*
X2683270Y130840140D01*
X2714505Y130814505D01*
X2740140Y130783270D01*
X2759190Y130747630D01*
X2770918Y130708968D01*
X2775000Y130667519D01*
X2775000Y130207481D01*
X2770918Y130166032D01*
X2759190Y130127370D01*
X2740140Y130091730D01*
X2714505Y130060495D01*
X2683270Y130034860D01*
X2647630Y130015810D01*
X2608968Y130004082D01*
X2567519Y130000000D01*
X2032481Y130000000D01*
X1991032Y130004082D01*
X1952370Y130015810D01*
X1916730Y130034860D01*
X1885495Y130060495D01*
X1859860Y130091730D01*
X1840810Y130127370D01*
X1829082Y130166032D01*
X1825000Y130207481D01*
X1825000Y130667519D01*
X1829082Y130708968D01*
X1840810Y130747630D01*
X1859860Y130783270D01*
X1885495Y130814505D01*
X1916730Y130840140D01*
X1952370Y130859190D01*
X1991032Y130870918D01*
X2032481Y130875000D01*
X2567519Y130875000D01*
X2608968Y130870918D01*
X2608968Y130870918D01*
G37*
G36*
X-22066032Y130995918D02*
X-22027370Y130984190D01*
X-21991730Y130965140D01*
X-21960495Y130939505D01*
X-21934860Y130908270D01*
X-21915810Y130872630D01*
X-21904082Y130833968D01*
X-21900000Y130792519D01*
X-21900000Y130332481D01*
X-21904082Y130291032D01*
X-21915810Y130252370D01*
X-21934860Y130216730D01*
X-21960495Y130185495D01*
X-21991730Y130159860D01*
X-22027370Y130140810D01*
X-22066032Y130129082D01*
X-22107481Y130125000D01*
X-22642519Y130125000D01*
X-22683968Y130129082D01*
X-22722630Y130140810D01*
X-22758270Y130159860D01*
X-22789505Y130185495D01*
X-22815140Y130216730D01*
X-22834190Y130252370D01*
X-22845918Y130291032D01*
X-22850000Y130332481D01*
X-22850000Y130792519D01*
X-22845918Y130833968D01*
X-22834190Y130872630D01*
X-22815140Y130908270D01*
X-22789505Y130939505D01*
X-22758270Y130965140D01*
X-22722630Y130984190D01*
X-22683968Y130995918D01*
X-22642519Y131000000D01*
X-22107481Y131000000D01*
X-22066032Y130995918D01*
X-22066032Y130995918D01*
G37*
G36*
X-9191032Y131095918D02*
X-9152370Y131084190D01*
X-9116730Y131065140D01*
X-9085495Y131039505D01*
X-9059860Y131008270D01*
X-9040810Y130972630D01*
X-9029082Y130933968D01*
X-9025000Y130892519D01*
X-9025000Y130432481D01*
X-9029082Y130391032D01*
X-9040810Y130352370D01*
X-9059860Y130316730D01*
X-9085495Y130285495D01*
X-9116730Y130259860D01*
X-9152370Y130240810D01*
X-9191032Y130229082D01*
X-9232481Y130225000D01*
X-9767519Y130225000D01*
X-9808968Y130229082D01*
X-9847630Y130240810D01*
X-9883270Y130259860D01*
X-9914505Y130285495D01*
X-9940140Y130316730D01*
X-9959190Y130352370D01*
X-9970918Y130391032D01*
X-9975000Y130432481D01*
X-9975000Y130892519D01*
X-9970918Y130933968D01*
X-9959190Y130972630D01*
X-9940140Y131008270D01*
X-9914505Y131039505D01*
X-9883270Y131065140D01*
X-9847630Y131084190D01*
X-9808968Y131095918D01*
X-9767519Y131100000D01*
X-9232481Y131100000D01*
X-9191032Y131095918D01*
X-9191032Y131095918D01*
G37*
G36*
X10914025Y132135038D02*
X10999184Y132118099D01*
X11126574Y132065333D01*
X11169177Y132036866D01*
X11241224Y131988726D01*
X11338726Y131891224D01*
X11359258Y131860495D01*
X11415333Y131776574D01*
X11468099Y131649184D01*
X11475921Y131609860D01*
X11495000Y131513944D01*
X11495000Y131376056D01*
X11489441Y131348112D01*
X11468099Y131240816D01*
X11415333Y131113426D01*
X11369410Y131044699D01*
X11338726Y130998776D01*
X11241224Y130901274D01*
X11201902Y130875000D01*
X11126574Y130824667D01*
X10999184Y130771901D01*
X10931563Y130758451D01*
X10863944Y130745000D01*
X10726056Y130745000D01*
X10658437Y130758451D01*
X10590816Y130771901D01*
X10463426Y130824667D01*
X10388098Y130875000D01*
X10348776Y130901274D01*
X10251274Y130998776D01*
X10220590Y131044699D01*
X10174667Y131113426D01*
X10121901Y131240816D01*
X10100559Y131348112D01*
X10095000Y131376056D01*
X10095000Y131513944D01*
X10114079Y131609860D01*
X10121901Y131649184D01*
X10174667Y131776574D01*
X10230742Y131860495D01*
X10251274Y131891224D01*
X10348776Y131988726D01*
X10420823Y132036866D01*
X10463426Y132065333D01*
X10590816Y132118099D01*
X10675975Y132135038D01*
X10726056Y132145000D01*
X10863944Y132145000D01*
X10914025Y132135038D01*
X10914025Y132135038D01*
G37*
G36*
X-10675975Y132135038D02*
X-10590816Y132118099D01*
X-10463426Y132065333D01*
X-10420823Y132036866D01*
X-10348776Y131988726D01*
X-10251274Y131891224D01*
X-10230742Y131860495D01*
X-10174667Y131776574D01*
X-10121901Y131649184D01*
X-10114079Y131609860D01*
X-10095000Y131513944D01*
X-10095000Y131376056D01*
X-10100559Y131348112D01*
X-10121901Y131240816D01*
X-10174667Y131113426D01*
X-10220590Y131044699D01*
X-10251274Y130998776D01*
X-10348776Y130901274D01*
X-10388098Y130875000D01*
X-10463426Y130824667D01*
X-10590816Y130771901D01*
X-10658437Y130758451D01*
X-10726056Y130745000D01*
X-10863944Y130745000D01*
X-10931563Y130758451D01*
X-10999184Y130771901D01*
X-11126574Y130824667D01*
X-11201902Y130875000D01*
X-11241224Y130901274D01*
X-11338726Y130998776D01*
X-11369410Y131044699D01*
X-11415333Y131113426D01*
X-11468099Y131240816D01*
X-11489441Y131348112D01*
X-11495000Y131376056D01*
X-11495000Y131513944D01*
X-11475921Y131609860D01*
X-11468099Y131649184D01*
X-11415333Y131776574D01*
X-11359258Y131860495D01*
X-11338726Y131891224D01*
X-11241224Y131988726D01*
X-11169177Y132036866D01*
X-11126574Y132065333D01*
X-10999184Y132118099D01*
X-10914025Y132135038D01*
X-10863944Y132145000D01*
X-10726056Y132145000D01*
X-10675975Y132135038D01*
X-10675975Y132135038D01*
G37*
G36*
X14308968Y131645918D02*
X14347630Y131634190D01*
X14383270Y131615140D01*
X14414505Y131589505D01*
X14440140Y131558270D01*
X14459190Y131522630D01*
X14470918Y131483968D01*
X14475000Y131442519D01*
X14475000Y130982481D01*
X14470918Y130941032D01*
X14459190Y130902370D01*
X14440140Y130866730D01*
X14414505Y130835495D01*
X14383270Y130809860D01*
X14347630Y130790810D01*
X14308968Y130779082D01*
X14267519Y130775000D01*
X13732481Y130775000D01*
X13691032Y130779082D01*
X13652370Y130790810D01*
X13616730Y130809860D01*
X13585495Y130835495D01*
X13559860Y130866730D01*
X13540810Y130902370D01*
X13529082Y130941032D01*
X13525000Y130982481D01*
X13525000Y131442519D01*
X13529082Y131483968D01*
X13540810Y131522630D01*
X13559860Y131558270D01*
X13585495Y131589505D01*
X13616730Y131615140D01*
X13652370Y131634190D01*
X13691032Y131645918D01*
X13732481Y131650000D01*
X14267519Y131650000D01*
X14308968Y131645918D01*
X14308968Y131645918D01*
G37*
G36*
X40328597Y132538134D02*
X40404184Y132523099D01*
X40531574Y132470333D01*
X40599419Y132425000D01*
X40646224Y132393726D01*
X40743726Y132296224D01*
X40756049Y132277781D01*
X40820333Y132181574D01*
X40873099Y132054184D01*
X40880147Y132018750D01*
X40900000Y131918944D01*
X40900000Y131781056D01*
X40891210Y131736866D01*
X40873099Y131645816D01*
X40820333Y131518426D01*
X40781665Y131460556D01*
X40743726Y131403776D01*
X40646224Y131306274D01*
X40645339Y131305683D01*
X40531574Y131229667D01*
X40404184Y131176901D01*
X40336563Y131163450D01*
X40268944Y131150000D01*
X40131056Y131150000D01*
X40063437Y131163450D01*
X39995816Y131176901D01*
X39868426Y131229667D01*
X39754661Y131305683D01*
X39753776Y131306274D01*
X39656274Y131403776D01*
X39618335Y131460556D01*
X39579667Y131518426D01*
X39526901Y131645816D01*
X39508790Y131736866D01*
X39500000Y131781056D01*
X39500000Y131918944D01*
X39519853Y132018750D01*
X39526901Y132054184D01*
X39579667Y132181574D01*
X39643951Y132277781D01*
X39656274Y132296224D01*
X39753776Y132393726D01*
X39800581Y132425000D01*
X39868426Y132470333D01*
X39995816Y132523099D01*
X40071403Y132538134D01*
X40131056Y132550000D01*
X40268944Y132550000D01*
X40328597Y132538134D01*
X40328597Y132538134D01*
G37*
G36*
X29917725Y133079527D02*
X30011329Y133048887D01*
X30097157Y133000575D01*
X30171911Y132936446D01*
X30232718Y132858967D01*
X30277240Y132771113D01*
X30303768Y132676261D01*
X30311281Y132578057D01*
X30306467Y132538134D01*
X30302445Y132504774D01*
X30275543Y132383426D01*
X30118662Y131675785D01*
X30095699Y131605635D01*
X30047387Y131519807D01*
X29983258Y131445053D01*
X29983256Y131445051D01*
X29965671Y131431250D01*
X29905779Y131384246D01*
X29817925Y131339724D01*
X29723073Y131313196D01*
X29624870Y131305683D01*
X29527087Y131317472D01*
X29433485Y131348112D01*
X29433483Y131348113D01*
X29347655Y131396425D01*
X29272901Y131460554D01*
X29212094Y131538033D01*
X29167572Y131625887D01*
X29141044Y131720739D01*
X29133531Y131818942D01*
X29142367Y131892224D01*
X29148248Y131918750D01*
X29230543Y132289962D01*
X29326150Y132721215D01*
X29349113Y132791365D01*
X29397425Y132877193D01*
X29461553Y132951947D01*
X29539033Y133012753D01*
X29626887Y133057276D01*
X29721738Y133083804D01*
X29819942Y133091316D01*
X29917725Y133079527D01*
X29917725Y133079527D01*
G37*
G36*
X26108968Y132370918D02*
X26147630Y132359190D01*
X26183270Y132340140D01*
X26214505Y132314505D01*
X26240140Y132283270D01*
X26259190Y132247630D01*
X26270918Y132208968D01*
X26275000Y132167519D01*
X26275000Y131707481D01*
X26270918Y131666032D01*
X26259190Y131627370D01*
X26240140Y131591730D01*
X26214505Y131560495D01*
X26183270Y131534860D01*
X26147630Y131515810D01*
X26108968Y131504082D01*
X26067519Y131500000D01*
X25532481Y131500000D01*
X25491032Y131504082D01*
X25452370Y131515810D01*
X25416730Y131534860D01*
X25385495Y131560495D01*
X25359860Y131591730D01*
X25340810Y131627370D01*
X25329082Y131666032D01*
X25325000Y131707481D01*
X25325000Y132167519D01*
X25329082Y132208968D01*
X25340810Y132247630D01*
X25359860Y132283270D01*
X25385495Y132314505D01*
X25416730Y132340140D01*
X25452370Y132359190D01*
X25491032Y132370918D01*
X25532481Y132375000D01*
X26067519Y132375000D01*
X26108968Y132370918D01*
X26108968Y132370918D01*
G37*
G36*
X-33891032Y132420918D02*
X-33852370Y132409190D01*
X-33816730Y132390140D01*
X-33785495Y132364505D01*
X-33759860Y132333270D01*
X-33740810Y132297630D01*
X-33729082Y132258968D01*
X-33725000Y132217519D01*
X-33725000Y131757481D01*
X-33729082Y131716032D01*
X-33740810Y131677370D01*
X-33759860Y131641730D01*
X-33785495Y131610495D01*
X-33816730Y131584860D01*
X-33852370Y131565810D01*
X-33891032Y131554082D01*
X-33932481Y131550000D01*
X-34467519Y131550000D01*
X-34508968Y131554082D01*
X-34547630Y131565810D01*
X-34583270Y131584860D01*
X-34614505Y131610495D01*
X-34640140Y131641730D01*
X-34659190Y131677370D01*
X-34670918Y131716032D01*
X-34675000Y131757481D01*
X-34675000Y132217519D01*
X-34670918Y132258968D01*
X-34659190Y132297630D01*
X-34640140Y132333270D01*
X-34614505Y132364505D01*
X-34583270Y132390140D01*
X-34547630Y132409190D01*
X-34508968Y132420918D01*
X-34467519Y132425000D01*
X-33932481Y132425000D01*
X-33891032Y132420918D01*
X-33891032Y132420918D01*
G37*
G36*
X2608968Y132445918D02*
X2647630Y132434190D01*
X2683270Y132415140D01*
X2714505Y132389505D01*
X2740140Y132358270D01*
X2759190Y132322630D01*
X2770918Y132283968D01*
X2775000Y132242519D01*
X2775000Y131782481D01*
X2770918Y131741032D01*
X2759190Y131702370D01*
X2740140Y131666730D01*
X2714505Y131635495D01*
X2683270Y131609860D01*
X2647630Y131590810D01*
X2608968Y131579082D01*
X2567519Y131575000D01*
X2032481Y131575000D01*
X1991032Y131579082D01*
X1952370Y131590810D01*
X1916730Y131609860D01*
X1885495Y131635495D01*
X1859860Y131666730D01*
X1840810Y131702370D01*
X1829082Y131741032D01*
X1825000Y131782481D01*
X1825000Y132242519D01*
X1829082Y132283968D01*
X1840810Y132322630D01*
X1859860Y132358270D01*
X1885495Y132389505D01*
X1916730Y132415140D01*
X1952370Y132434190D01*
X1991032Y132445918D01*
X2032481Y132450000D01*
X2567519Y132450000D01*
X2608968Y132445918D01*
X2608968Y132445918D01*
G37*
G36*
X-27450000Y131650000D02*
X-29050000Y131650000D01*
X-29050000Y132500000D01*
X-27450000Y132500000D01*
X-27450000Y131650000D01*
X-27450000Y131650000D01*
G37*
G36*
X-6950000Y131650000D02*
X-8550000Y131650000D01*
X-8550000Y132500000D01*
X-6950000Y132500000D01*
X-6950000Y131650000D01*
X-6950000Y131650000D01*
G37*
G36*
X-3450000Y131650000D02*
X-5050000Y131650000D01*
X-5050000Y132500000D01*
X-3450000Y132500000D01*
X-3450000Y131650000D01*
X-3450000Y131650000D01*
G37*
G36*
X32450000Y131650000D02*
X30850000Y131650000D01*
X30850000Y132500000D01*
X32450000Y132500000D01*
X32450000Y131650000D01*
X32450000Y131650000D01*
G37*
G36*
X-18950000Y131650000D02*
X-20550000Y131650000D01*
X-20550000Y132500000D01*
X-18950000Y132500000D01*
X-18950000Y131650000D01*
X-18950000Y131650000D01*
G37*
G36*
X28950000Y131650000D02*
X27350000Y131650000D01*
X27350000Y132500000D01*
X28950000Y132500000D01*
X28950000Y131650000D01*
X28950000Y131650000D01*
G37*
G36*
X-30950000Y131650000D02*
X-32550000Y131650000D01*
X-32550000Y132500000D01*
X-30950000Y132500000D01*
X-30950000Y131650000D01*
X-30950000Y131650000D01*
G37*
G36*
X5050000Y131650000D02*
X3450000Y131650000D01*
X3450000Y132500000D01*
X5050000Y132500000D01*
X5050000Y131650000D01*
X5050000Y131650000D01*
G37*
G36*
X17050000Y131650000D02*
X15450000Y131650000D01*
X15450000Y132500000D01*
X17050000Y132500000D01*
X17050000Y131650000D01*
X17050000Y131650000D01*
G37*
G36*
X20550000Y131650000D02*
X18950000Y131650000D01*
X18950000Y132500000D01*
X20550000Y132500000D01*
X20550000Y131650000D01*
X20550000Y131650000D01*
G37*
G36*
X-15450000Y131650000D02*
X-17050000Y131650000D01*
X-17050000Y132500000D01*
X-15450000Y132500000D01*
X-15450000Y131650000D01*
X-15450000Y131650000D01*
G37*
G36*
X8550000Y131650000D02*
X6950000Y131650000D01*
X6950000Y132500000D01*
X8550000Y132500000D01*
X8550000Y131650000D01*
X8550000Y131650000D01*
G37*
G36*
X-22066032Y132570918D02*
X-22027370Y132559190D01*
X-21991730Y132540140D01*
X-21960495Y132514505D01*
X-21934860Y132483270D01*
X-21915810Y132447630D01*
X-21904082Y132408968D01*
X-21900000Y132367519D01*
X-21900000Y131907481D01*
X-21904082Y131866032D01*
X-21915810Y131827370D01*
X-21934860Y131791730D01*
X-21960495Y131760495D01*
X-21991730Y131734860D01*
X-22027370Y131715810D01*
X-22066032Y131704082D01*
X-22107481Y131700000D01*
X-22642519Y131700000D01*
X-22683968Y131704082D01*
X-22722630Y131715810D01*
X-22758270Y131734860D01*
X-22789505Y131760495D01*
X-22815140Y131791730D01*
X-22834190Y131827370D01*
X-22845918Y131866032D01*
X-22850000Y131907481D01*
X-22850000Y132367519D01*
X-22845918Y132408968D01*
X-22834190Y132447630D01*
X-22815140Y132483270D01*
X-22789505Y132514505D01*
X-22758270Y132540140D01*
X-22722630Y132559190D01*
X-22683968Y132570918D01*
X-22642519Y132575000D01*
X-22107481Y132575000D01*
X-22066032Y132570918D01*
X-22066032Y132570918D01*
G37*
G36*
X-9191032Y132670918D02*
X-9152370Y132659190D01*
X-9116730Y132640140D01*
X-9085495Y132614505D01*
X-9059860Y132583270D01*
X-9040810Y132547630D01*
X-9029082Y132508968D01*
X-9025000Y132467519D01*
X-9025000Y132007481D01*
X-9029082Y131966032D01*
X-9040810Y131927370D01*
X-9059860Y131891730D01*
X-9085495Y131860495D01*
X-9116730Y131834860D01*
X-9152370Y131815810D01*
X-9191032Y131804082D01*
X-9232481Y131800000D01*
X-9767519Y131800000D01*
X-9808968Y131804082D01*
X-9847630Y131815810D01*
X-9883270Y131834860D01*
X-9914505Y131860495D01*
X-9940140Y131891730D01*
X-9959190Y131927370D01*
X-9970918Y131966032D01*
X-9975000Y132007481D01*
X-9975000Y132467519D01*
X-9970918Y132508968D01*
X-9959190Y132547630D01*
X-9940140Y132583270D01*
X-9914505Y132614505D01*
X-9883270Y132640140D01*
X-9847630Y132659190D01*
X-9808968Y132670918D01*
X-9767519Y132675000D01*
X-9232481Y132675000D01*
X-9191032Y132670918D01*
X-9191032Y132670918D01*
G37*
G36*
X-24566032Y132945918D02*
X-24527370Y132934190D01*
X-24491730Y132915140D01*
X-24460495Y132889505D01*
X-24434860Y132858270D01*
X-24415810Y132822630D01*
X-24404082Y132783968D01*
X-24400000Y132742519D01*
X-24400000Y132207481D01*
X-24404082Y132166032D01*
X-24415810Y132127370D01*
X-24434860Y132091730D01*
X-24460495Y132060495D01*
X-24491730Y132034860D01*
X-24527370Y132015810D01*
X-24566032Y132004082D01*
X-24607481Y132000000D01*
X-25067519Y132000000D01*
X-25108968Y132004082D01*
X-25147630Y132015810D01*
X-25183270Y132034860D01*
X-25214505Y132060495D01*
X-25240140Y132091730D01*
X-25259190Y132127370D01*
X-25270918Y132166032D01*
X-25275000Y132207481D01*
X-25275000Y132742519D01*
X-25270918Y132783968D01*
X-25259190Y132822630D01*
X-25240140Y132858270D01*
X-25214505Y132889505D01*
X-25183270Y132915140D01*
X-25147630Y132934190D01*
X-25108968Y132945918D01*
X-25067519Y132950000D01*
X-24607481Y132950000D01*
X-24566032Y132945918D01*
X-24566032Y132945918D01*
G37*
G36*
X-26141032Y132945918D02*
X-26102370Y132934190D01*
X-26066730Y132915140D01*
X-26035495Y132889505D01*
X-26009860Y132858270D01*
X-25990810Y132822630D01*
X-25979082Y132783968D01*
X-25975000Y132742519D01*
X-25975000Y132207481D01*
X-25979082Y132166032D01*
X-25990810Y132127370D01*
X-26009860Y132091730D01*
X-26035495Y132060495D01*
X-26066730Y132034860D01*
X-26102370Y132015810D01*
X-26141032Y132004082D01*
X-26182481Y132000000D01*
X-26642519Y132000000D01*
X-26683968Y132004082D01*
X-26722630Y132015810D01*
X-26758270Y132034860D01*
X-26789505Y132060495D01*
X-26815140Y132091730D01*
X-26834190Y132127370D01*
X-26845918Y132166032D01*
X-26850000Y132207481D01*
X-26850000Y132742519D01*
X-26845918Y132783968D01*
X-26834190Y132822630D01*
X-26815140Y132858270D01*
X-26789505Y132889505D01*
X-26758270Y132915140D01*
X-26722630Y132934190D01*
X-26683968Y132945918D01*
X-26642519Y132950000D01*
X-26182481Y132950000D01*
X-26141032Y132945918D01*
X-26141032Y132945918D01*
G37*
G36*
X12201563Y133401550D02*
X12269184Y133388099D01*
X12396574Y133335333D01*
X12465301Y133289410D01*
X12511224Y133258726D01*
X12608726Y133161224D01*
X12608922Y133160930D01*
X12685333Y133046574D01*
X12738099Y132919184D01*
X12746451Y132877195D01*
X12763525Y132791361D01*
X12765000Y132783942D01*
X12765000Y132646058D01*
X12738099Y132510816D01*
X12685333Y132383426D01*
X12655069Y132338134D01*
X12608726Y132268776D01*
X12511224Y132171274D01*
X12471902Y132145000D01*
X12396574Y132094667D01*
X12269184Y132041901D01*
X12201563Y132028450D01*
X12133944Y132015000D01*
X11996056Y132015000D01*
X11928437Y132028450D01*
X11860816Y132041901D01*
X11733426Y132094667D01*
X11658098Y132145000D01*
X11618776Y132171274D01*
X11521274Y132268776D01*
X11474931Y132338134D01*
X11444667Y132383426D01*
X11391901Y132510816D01*
X11365000Y132646058D01*
X11365000Y132783942D01*
X11366476Y132791361D01*
X11383549Y132877195D01*
X11391901Y132919184D01*
X11444667Y133046574D01*
X11521078Y133160930D01*
X11521274Y133161224D01*
X11618776Y133258726D01*
X11664699Y133289410D01*
X11733426Y133335333D01*
X11860816Y133388099D01*
X11928437Y133401550D01*
X11996056Y133415000D01*
X12133944Y133415000D01*
X12201563Y133401550D01*
X12201563Y133401550D01*
G37*
G36*
X-11928437Y133401550D02*
X-11860816Y133388099D01*
X-11733426Y133335333D01*
X-11664699Y133289410D01*
X-11618776Y133258726D01*
X-11521274Y133161224D01*
X-11521078Y133160930D01*
X-11444667Y133046574D01*
X-11391901Y132919184D01*
X-11383549Y132877195D01*
X-11366475Y132791361D01*
X-11365000Y132783942D01*
X-11365000Y132646058D01*
X-11391901Y132510816D01*
X-11444667Y132383426D01*
X-11474931Y132338134D01*
X-11521274Y132268776D01*
X-11618776Y132171274D01*
X-11658098Y132145000D01*
X-11733426Y132094667D01*
X-11860816Y132041901D01*
X-11928437Y132028450D01*
X-11996056Y132015000D01*
X-12133944Y132015000D01*
X-12201563Y132028450D01*
X-12269184Y132041901D01*
X-12396574Y132094667D01*
X-12471902Y132145000D01*
X-12511224Y132171274D01*
X-12608726Y132268776D01*
X-12655069Y132338134D01*
X-12685333Y132383426D01*
X-12738099Y132510816D01*
X-12765000Y132646058D01*
X-12765000Y132783942D01*
X-12763524Y132791361D01*
X-12746451Y132877195D01*
X-12738099Y132919184D01*
X-12685333Y133046574D01*
X-12608922Y133160930D01*
X-12608726Y133161224D01*
X-12511224Y133258726D01*
X-12465301Y133289410D01*
X-12396574Y133335333D01*
X-12269184Y133388099D01*
X-12201563Y133401550D01*
X-12133944Y133415000D01*
X-11996056Y133415000D01*
X-11928437Y133401550D01*
X-11928437Y133401550D01*
G37*
G36*
X14308968Y133220918D02*
X14347630Y133209190D01*
X14383270Y133190140D01*
X14414505Y133164505D01*
X14440140Y133133270D01*
X14459190Y133097630D01*
X14470918Y133058968D01*
X14475000Y133017519D01*
X14475000Y132557481D01*
X14470918Y132516032D01*
X14459190Y132477370D01*
X14440140Y132441730D01*
X14414505Y132410495D01*
X14383270Y132384860D01*
X14347630Y132365810D01*
X14308968Y132354082D01*
X14267519Y132350000D01*
X13732481Y132350000D01*
X13691032Y132354082D01*
X13652370Y132365810D01*
X13616730Y132384860D01*
X13585495Y132410495D01*
X13559860Y132441730D01*
X13540810Y132477370D01*
X13529082Y132516032D01*
X13525000Y132557481D01*
X13525000Y133017519D01*
X13529082Y133058968D01*
X13540810Y133097630D01*
X13559860Y133133270D01*
X13585495Y133164505D01*
X13616730Y133190140D01*
X13652370Y133209190D01*
X13691032Y133220918D01*
X13732481Y133225000D01*
X14267519Y133225000D01*
X14308968Y133220918D01*
X14308968Y133220918D01*
G37*
M02*
