%FSLAX45Y45*%
G04 Gerber Fmt 4.5, Leading zero omitted, Abs format (unit mm)*
G04 Created by KiCad (PCBNEW 5.0.2-1.fc29) date Mon 25 Feb 2019 04:28:05 CET*
%MOMM*%
%LPD*%
G01*
G04 APERTURE LIST*
%ADD10C,0.100000*%
%ADD11C,0.200000*%
%ADD12C,0.300000*%
G04 APERTURE END LIST*
D10*
X5128859Y13101191D02*
G75*
G02X0Y0I-11617245J-3006596D01*
G01*
X5211417Y9600000D02*
G75*
G03X5211417Y9600000I-210000J0D01*
G01*
X4547827Y11682000D02*
X4547827Y10182000D01*
X4384999Y11682000D02*
G75*
G02X4547827Y11682000I81414J0D01*
G01*
X4384999Y10182000D02*
X4384999Y11682000D01*
X-4791285Y9600000D02*
G75*
G03X-4791285Y9600000I-210000J0D01*
G01*
X0Y14575271D02*
G75*
G02X-5128700Y13101191I-7481641J16371471D01*
G01*
X4547827Y10182000D02*
G75*
G02X4384999Y10182000I-81414J0D01*
G01*
X5128859Y13101191D02*
G75*
G02X0Y14575271I2352718J17845580D01*
G01*
X0Y0D02*
G75*
G02X-5128700Y13101191I6488522J10094508D01*
G01*
X-4302509Y12650000D02*
G75*
G03X-4302509Y12650000I-375000J0D01*
G01*
X5052668Y12650000D02*
G75*
G03X5052668Y12650000I-375000J0D01*
G01*
X210000Y500000D02*
G75*
G03X210000Y500000I-210000J0D01*
G01*
D11*
X3000351Y12865051D02*
X3065351Y12800051D01*
X3065351Y12865051D02*
X3000351Y12800051D01*
X3564649Y12739949D02*
X3629649Y12674949D01*
X3629649Y12739949D02*
X3564649Y12674949D01*
X-4644147Y10315452D02*
G75*
G03X-4644147Y10315452I-40000J0D01*
G01*
X5032732Y11433905D02*
X5032732Y11333905D01*
X4982732Y11383905D02*
X5082732Y11383905D01*
X5087268Y10756095D02*
X5087268Y10656095D01*
X5037268Y10706095D02*
X5137268Y10706095D01*
X-4376555Y10545261D02*
X-4376555Y10623044D01*
X-4454338Y10623044D01*
X-4454338Y10545261D01*
X-4376555Y10545261D01*
X-3383592Y12308762D02*
X-3318592Y12373762D01*
X-3383592Y12438762D01*
X-3448592Y12373762D01*
X-3383592Y12308762D01*
X-2896407Y12421238D02*
X-2831407Y12486238D01*
X-2896407Y12551238D01*
X-2961407Y12486238D01*
X-2896407Y12421238D01*
D12*
X-5230050Y-470714D02*
X-5230050Y-170714D01*
X-5158621Y-170714D01*
X-5115764Y-185000D01*
X-5087192Y-213571D01*
X-5072907Y-242143D01*
X-5058621Y-299286D01*
X-5058621Y-342143D01*
X-5072907Y-399286D01*
X-5087192Y-427857D01*
X-5115764Y-456429D01*
X-5158621Y-470714D01*
X-5230050Y-470714D01*
X-4930050Y-470714D02*
X-4930050Y-270714D01*
X-4930050Y-327857D02*
X-4915764Y-299286D01*
X-4901478Y-285000D01*
X-4872907Y-270714D01*
X-4844335Y-270714D01*
X-4744335Y-470714D02*
X-4744335Y-270714D01*
X-4744335Y-170714D02*
X-4758621Y-185000D01*
X-4744335Y-199286D01*
X-4730050Y-185000D01*
X-4744335Y-170714D01*
X-4744335Y-199286D01*
X-4558621Y-470714D02*
X-4587192Y-456429D01*
X-4601478Y-427857D01*
X-4601478Y-170714D01*
X-4401478Y-470714D02*
X-4430050Y-456429D01*
X-4444335Y-427857D01*
X-4444335Y-170714D01*
X-4058621Y-470714D02*
X-4058621Y-170714D01*
X-3958621Y-385000D01*
X-3858621Y-170714D01*
X-3858621Y-470714D01*
X-3587192Y-470714D02*
X-3587192Y-313572D01*
X-3601478Y-285000D01*
X-3630050Y-270714D01*
X-3687192Y-270714D01*
X-3715764Y-285000D01*
X-3587192Y-456429D02*
X-3615764Y-470714D01*
X-3687192Y-470714D01*
X-3715764Y-456429D01*
X-3730050Y-427857D01*
X-3730050Y-399286D01*
X-3715764Y-370714D01*
X-3687192Y-356429D01*
X-3615764Y-356429D01*
X-3587192Y-342143D01*
X-3444335Y-270714D02*
X-3444335Y-570714D01*
X-3444335Y-285000D02*
X-3415764Y-270714D01*
X-3358621Y-270714D01*
X-3330050Y-285000D01*
X-3315764Y-299286D01*
X-3301478Y-327857D01*
X-3301478Y-413571D01*
X-3315764Y-442143D01*
X-3330050Y-456429D01*
X-3358621Y-470714D01*
X-3415764Y-470714D01*
X-3444335Y-456429D01*
X-3172907Y-442143D02*
X-3158621Y-456429D01*
X-3172907Y-470714D01*
X-3187192Y-456429D01*
X-3172907Y-442143D01*
X-3172907Y-470714D01*
X-3172907Y-285000D02*
X-3158621Y-299286D01*
X-3172907Y-313572D01*
X-3187192Y-299286D01*
X-3172907Y-285000D01*
X-3172907Y-313572D01*
X-5581478Y-932500D02*
X-5516478Y-997500D01*
X-5516478Y-932500D02*
X-5581478Y-997500D01*
X-5172907Y-800714D02*
X-5144335Y-800714D01*
X-5115764Y-815000D01*
X-5101478Y-829286D01*
X-5087192Y-857857D01*
X-5072907Y-915000D01*
X-5072907Y-986429D01*
X-5087192Y-1043571D01*
X-5101478Y-1072143D01*
X-5115764Y-1086429D01*
X-5144335Y-1100714D01*
X-5172907Y-1100714D01*
X-5201478Y-1086429D01*
X-5215764Y-1072143D01*
X-5230050Y-1043571D01*
X-5244335Y-986429D01*
X-5244335Y-915000D01*
X-5230050Y-857857D01*
X-5215764Y-829286D01*
X-5201478Y-815000D01*
X-5172907Y-800714D01*
X-4944335Y-1072143D02*
X-4930050Y-1086429D01*
X-4944335Y-1100714D01*
X-4958621Y-1086429D01*
X-4944335Y-1072143D01*
X-4944335Y-1100714D01*
X-4672907Y-800714D02*
X-4730050Y-800714D01*
X-4758621Y-815000D01*
X-4772907Y-829286D01*
X-4801478Y-872143D01*
X-4815764Y-929286D01*
X-4815764Y-1043571D01*
X-4801478Y-1072143D01*
X-4787192Y-1086429D01*
X-4758621Y-1100714D01*
X-4701478Y-1100714D01*
X-4672907Y-1086429D01*
X-4658621Y-1072143D01*
X-4644335Y-1043571D01*
X-4644335Y-972143D01*
X-4658621Y-943571D01*
X-4672907Y-929286D01*
X-4701478Y-915000D01*
X-4758621Y-915000D01*
X-4787192Y-929286D01*
X-4801478Y-943571D01*
X-4815764Y-972143D01*
X-4372907Y-800714D02*
X-4515764Y-800714D01*
X-4530050Y-943571D01*
X-4515764Y-929286D01*
X-4487192Y-915000D01*
X-4415764Y-915000D01*
X-4387192Y-929286D01*
X-4372907Y-943571D01*
X-4358621Y-972143D01*
X-4358621Y-1043571D01*
X-4372907Y-1072143D01*
X-4387192Y-1086429D01*
X-4415764Y-1100714D01*
X-4487192Y-1100714D01*
X-4515764Y-1086429D01*
X-4530050Y-1072143D01*
X-4230050Y-1100714D02*
X-4230050Y-900714D01*
X-4230050Y-929286D02*
X-4215764Y-915000D01*
X-4187192Y-900714D01*
X-4144335Y-900714D01*
X-4115764Y-915000D01*
X-4101478Y-943571D01*
X-4101478Y-1100714D01*
X-4101478Y-943571D02*
X-4087192Y-915000D01*
X-4058621Y-900714D01*
X-4015764Y-900714D01*
X-3987192Y-915000D01*
X-3972907Y-943571D01*
X-3972907Y-1100714D01*
X-3830050Y-1100714D02*
X-3830050Y-900714D01*
X-3830050Y-929286D02*
X-3815764Y-915000D01*
X-3787192Y-900714D01*
X-3744335Y-900714D01*
X-3715764Y-915000D01*
X-3701478Y-943571D01*
X-3701478Y-1100714D01*
X-3701478Y-943571D02*
X-3687192Y-915000D01*
X-3658621Y-900714D01*
X-3615764Y-900714D01*
X-3587192Y-915000D01*
X-3572907Y-943571D01*
X-3572907Y-1100714D01*
X-2987192Y-786429D02*
X-3244335Y-1172143D01*
X-2601478Y-800714D02*
X-2572907Y-800714D01*
X-2544335Y-815000D01*
X-2530050Y-829286D01*
X-2515764Y-857857D01*
X-2501478Y-915000D01*
X-2501478Y-986429D01*
X-2515764Y-1043571D01*
X-2530050Y-1072143D01*
X-2544335Y-1086429D01*
X-2572907Y-1100714D01*
X-2601478Y-1100714D01*
X-2630050Y-1086429D01*
X-2644335Y-1072143D01*
X-2658621Y-1043571D01*
X-2672907Y-986429D01*
X-2672907Y-915000D01*
X-2658621Y-857857D01*
X-2644335Y-829286D01*
X-2630050Y-815000D01*
X-2601478Y-800714D01*
X-2372907Y-1072143D02*
X-2358621Y-1086429D01*
X-2372907Y-1100714D01*
X-2387192Y-1086429D01*
X-2372907Y-1072143D01*
X-2372907Y-1100714D01*
X-2172907Y-800714D02*
X-2144335Y-800714D01*
X-2115764Y-815000D01*
X-2101478Y-829286D01*
X-2087192Y-857857D01*
X-2072907Y-915000D01*
X-2072907Y-986429D01*
X-2087192Y-1043571D01*
X-2101478Y-1072143D01*
X-2115764Y-1086429D01*
X-2144335Y-1100714D01*
X-2172907Y-1100714D01*
X-2201478Y-1086429D01*
X-2215764Y-1072143D01*
X-2230050Y-1043571D01*
X-2244335Y-986429D01*
X-2244335Y-915000D01*
X-2230050Y-857857D01*
X-2215764Y-829286D01*
X-2201478Y-815000D01*
X-2172907Y-800714D01*
X-1958621Y-829286D02*
X-1944335Y-815000D01*
X-1915764Y-800714D01*
X-1844335Y-800714D01*
X-1815764Y-815000D01*
X-1801478Y-829286D01*
X-1787192Y-857857D01*
X-1787192Y-886429D01*
X-1801478Y-929286D01*
X-1972907Y-1100714D01*
X-1787192Y-1100714D01*
X-1530050Y-800714D02*
X-1587192Y-800714D01*
X-1615764Y-815000D01*
X-1630050Y-829286D01*
X-1658621Y-872143D01*
X-1672907Y-929286D01*
X-1672907Y-1043571D01*
X-1658621Y-1072143D01*
X-1644335Y-1086429D01*
X-1615764Y-1100714D01*
X-1558621Y-1100714D01*
X-1530050Y-1086429D01*
X-1515764Y-1072143D01*
X-1501478Y-1043571D01*
X-1501478Y-972143D01*
X-1515764Y-943571D01*
X-1530050Y-929286D01*
X-1558621Y-915000D01*
X-1615764Y-915000D01*
X-1644335Y-929286D01*
X-1658621Y-943571D01*
X-1672907Y-972143D01*
X-1387192Y-800714D02*
X-1387192Y-857857D01*
X-1272907Y-800714D02*
X-1272907Y-857857D01*
X-830050Y-1215000D02*
X-844335Y-1200714D01*
X-872907Y-1157857D01*
X-887192Y-1129286D01*
X-901478Y-1086429D01*
X-915764Y-1015000D01*
X-915764Y-957857D01*
X-901478Y-886429D01*
X-887192Y-843571D01*
X-872907Y-815000D01*
X-844335Y-772143D01*
X-830050Y-757857D01*
X-730050Y-829286D02*
X-715764Y-815000D01*
X-687192Y-800714D01*
X-615764Y-800714D01*
X-587192Y-815000D01*
X-572907Y-829286D01*
X-558621Y-857857D01*
X-558621Y-886429D01*
X-572907Y-929286D01*
X-744335Y-1100714D01*
X-558621Y-1100714D01*
X-201478Y-1100714D02*
X-201478Y-800714D01*
X-72907Y-1100714D02*
X-72907Y-943571D01*
X-87192Y-915000D01*
X-115764Y-900714D01*
X-158621Y-900714D01*
X-187192Y-915000D01*
X-201478Y-929286D01*
X112807Y-1100714D02*
X84236Y-1086429D01*
X69950Y-1072143D01*
X55665Y-1043571D01*
X55665Y-957857D01*
X69950Y-929286D01*
X84236Y-915000D01*
X112807Y-900714D01*
X155665Y-900714D01*
X184236Y-915000D01*
X198522Y-929286D01*
X212807Y-957857D01*
X212807Y-1043571D01*
X198522Y-1072143D01*
X184236Y-1086429D01*
X155665Y-1100714D01*
X112807Y-1100714D01*
X384236Y-1100714D02*
X355665Y-1086429D01*
X341379Y-1057857D01*
X341379Y-800714D01*
X612808Y-1086429D02*
X584236Y-1100714D01*
X527093Y-1100714D01*
X498522Y-1086429D01*
X484236Y-1057857D01*
X484236Y-943571D01*
X498522Y-915000D01*
X527093Y-900714D01*
X584236Y-900714D01*
X612808Y-915000D01*
X627093Y-943571D01*
X627093Y-972143D01*
X484236Y-1000714D01*
X741379Y-1086429D02*
X769950Y-1100714D01*
X827093Y-1100714D01*
X855665Y-1086429D01*
X869950Y-1057857D01*
X869950Y-1043571D01*
X855665Y-1015000D01*
X827093Y-1000714D01*
X784236Y-1000714D01*
X755665Y-986429D01*
X741379Y-957857D01*
X741379Y-943571D01*
X755665Y-915000D01*
X784236Y-900714D01*
X827093Y-900714D01*
X855665Y-915000D01*
X969950Y-1215000D02*
X984236Y-1200714D01*
X1012807Y-1157857D01*
X1027093Y-1129286D01*
X1041379Y-1086429D01*
X1055665Y-1015000D01*
X1055665Y-957857D01*
X1041379Y-886429D01*
X1027093Y-843571D01*
X1012807Y-815000D01*
X984236Y-772143D01*
X969950Y-757857D01*
X1512807Y-1215000D02*
X1498522Y-1200714D01*
X1469950Y-1157857D01*
X1455665Y-1129286D01*
X1441379Y-1086429D01*
X1427093Y-1015000D01*
X1427093Y-957857D01*
X1441379Y-886429D01*
X1455665Y-843571D01*
X1469950Y-815000D01*
X1498522Y-772143D01*
X1512807Y-757857D01*
X1627093Y-900714D02*
X1627093Y-1100714D01*
X1627093Y-929286D02*
X1641379Y-915000D01*
X1669950Y-900714D01*
X1712807Y-900714D01*
X1741379Y-915000D01*
X1755665Y-943571D01*
X1755665Y-1100714D01*
X1941379Y-1100714D02*
X1912807Y-1086429D01*
X1898522Y-1072143D01*
X1884236Y-1043571D01*
X1884236Y-957857D01*
X1898522Y-929286D01*
X1912807Y-915000D01*
X1941379Y-900714D01*
X1984236Y-900714D01*
X2012807Y-915000D01*
X2027093Y-929286D01*
X2041379Y-957857D01*
X2041379Y-1043571D01*
X2027093Y-1072143D01*
X2012807Y-1086429D01*
X1984236Y-1100714D01*
X1941379Y-1100714D01*
X2127093Y-900714D02*
X2241379Y-900714D01*
X2169950Y-800714D02*
X2169950Y-1057857D01*
X2184236Y-1086429D01*
X2212808Y-1100714D01*
X2241379Y-1100714D01*
X2569950Y-900714D02*
X2569950Y-1200714D01*
X2569950Y-915000D02*
X2598522Y-900714D01*
X2655665Y-900714D01*
X2684236Y-915000D01*
X2698522Y-929286D01*
X2712808Y-957857D01*
X2712808Y-1043571D01*
X2698522Y-1072143D01*
X2684236Y-1086429D01*
X2655665Y-1100714D01*
X2598522Y-1100714D01*
X2569950Y-1086429D01*
X2884236Y-1100714D02*
X2855665Y-1086429D01*
X2841379Y-1057857D01*
X2841379Y-800714D01*
X3127093Y-1100714D02*
X3127093Y-943571D01*
X3112807Y-915000D01*
X3084236Y-900714D01*
X3027093Y-900714D01*
X2998522Y-915000D01*
X3127093Y-1086429D02*
X3098522Y-1100714D01*
X3027093Y-1100714D01*
X2998522Y-1086429D01*
X2984236Y-1057857D01*
X2984236Y-1029286D01*
X2998522Y-1000714D01*
X3027093Y-986429D01*
X3098522Y-986429D01*
X3127093Y-972143D01*
X3227093Y-900714D02*
X3341379Y-900714D01*
X3269950Y-800714D02*
X3269950Y-1057857D01*
X3284236Y-1086429D01*
X3312807Y-1100714D01*
X3341379Y-1100714D01*
X3555665Y-1086429D02*
X3527093Y-1100714D01*
X3469950Y-1100714D01*
X3441379Y-1086429D01*
X3427093Y-1057857D01*
X3427093Y-943571D01*
X3441379Y-915000D01*
X3469950Y-900714D01*
X3527093Y-900714D01*
X3555665Y-915000D01*
X3569950Y-943571D01*
X3569950Y-972143D01*
X3427093Y-1000714D01*
X3827093Y-1100714D02*
X3827093Y-800714D01*
X3827093Y-1086429D02*
X3798522Y-1100714D01*
X3741379Y-1100714D01*
X3712807Y-1086429D01*
X3698522Y-1072143D01*
X3684236Y-1043571D01*
X3684236Y-957857D01*
X3698522Y-929286D01*
X3712807Y-915000D01*
X3741379Y-900714D01*
X3798522Y-900714D01*
X3827093Y-915000D01*
X3941379Y-1215000D02*
X3955665Y-1200714D01*
X3984236Y-1157857D01*
X3998522Y-1129286D01*
X4012807Y-1086429D01*
X4027093Y-1015000D01*
X4027093Y-957857D01*
X4012807Y-886429D01*
X3998522Y-843571D01*
X3984236Y-815000D01*
X3955665Y-772143D01*
X3941379Y-757857D01*
X-5516478Y-1361000D02*
G75*
G03X-5516478Y-1361000I-40000J0D01*
G01*
X-5172907Y-1196714D02*
X-5144335Y-1196714D01*
X-5115764Y-1211000D01*
X-5101478Y-1225286D01*
X-5087192Y-1253857D01*
X-5072907Y-1311000D01*
X-5072907Y-1382429D01*
X-5087192Y-1439571D01*
X-5101478Y-1468143D01*
X-5115764Y-1482429D01*
X-5144335Y-1496714D01*
X-5172907Y-1496714D01*
X-5201478Y-1482429D01*
X-5215764Y-1468143D01*
X-5230050Y-1439571D01*
X-5244335Y-1382429D01*
X-5244335Y-1311000D01*
X-5230050Y-1253857D01*
X-5215764Y-1225286D01*
X-5201478Y-1211000D01*
X-5172907Y-1196714D01*
X-4944335Y-1468143D02*
X-4930050Y-1482429D01*
X-4944335Y-1496714D01*
X-4958621Y-1482429D01*
X-4944335Y-1468143D01*
X-4944335Y-1496714D01*
X-4758621Y-1325286D02*
X-4787192Y-1311000D01*
X-4801478Y-1296714D01*
X-4815764Y-1268143D01*
X-4815764Y-1253857D01*
X-4801478Y-1225286D01*
X-4787192Y-1211000D01*
X-4758621Y-1196714D01*
X-4701478Y-1196714D01*
X-4672907Y-1211000D01*
X-4658621Y-1225286D01*
X-4644335Y-1253857D01*
X-4644335Y-1268143D01*
X-4658621Y-1296714D01*
X-4672907Y-1311000D01*
X-4701478Y-1325286D01*
X-4758621Y-1325286D01*
X-4787192Y-1339572D01*
X-4801478Y-1353857D01*
X-4815764Y-1382429D01*
X-4815764Y-1439571D01*
X-4801478Y-1468143D01*
X-4787192Y-1482429D01*
X-4758621Y-1496714D01*
X-4701478Y-1496714D01*
X-4672907Y-1482429D01*
X-4658621Y-1468143D01*
X-4644335Y-1439571D01*
X-4644335Y-1382429D01*
X-4658621Y-1353857D01*
X-4672907Y-1339572D01*
X-4701478Y-1325286D01*
X-4458621Y-1196714D02*
X-4430050Y-1196714D01*
X-4401478Y-1211000D01*
X-4387192Y-1225286D01*
X-4372907Y-1253857D01*
X-4358621Y-1311000D01*
X-4358621Y-1382429D01*
X-4372907Y-1439571D01*
X-4387192Y-1468143D01*
X-4401478Y-1482429D01*
X-4430050Y-1496714D01*
X-4458621Y-1496714D01*
X-4487192Y-1482429D01*
X-4501478Y-1468143D01*
X-4515764Y-1439571D01*
X-4530050Y-1382429D01*
X-4530050Y-1311000D01*
X-4515764Y-1253857D01*
X-4501478Y-1225286D01*
X-4487192Y-1211000D01*
X-4458621Y-1196714D01*
X-4230050Y-1496714D02*
X-4230050Y-1296714D01*
X-4230050Y-1325286D02*
X-4215764Y-1311000D01*
X-4187192Y-1296714D01*
X-4144335Y-1296714D01*
X-4115764Y-1311000D01*
X-4101478Y-1339572D01*
X-4101478Y-1496714D01*
X-4101478Y-1339572D02*
X-4087192Y-1311000D01*
X-4058621Y-1296714D01*
X-4015764Y-1296714D01*
X-3987192Y-1311000D01*
X-3972907Y-1339572D01*
X-3972907Y-1496714D01*
X-3830050Y-1496714D02*
X-3830050Y-1296714D01*
X-3830050Y-1325286D02*
X-3815764Y-1311000D01*
X-3787192Y-1296714D01*
X-3744335Y-1296714D01*
X-3715764Y-1311000D01*
X-3701478Y-1339572D01*
X-3701478Y-1496714D01*
X-3701478Y-1339572D02*
X-3687192Y-1311000D01*
X-3658621Y-1296714D01*
X-3615764Y-1296714D01*
X-3587192Y-1311000D01*
X-3572907Y-1339572D01*
X-3572907Y-1496714D01*
X-2987192Y-1182429D02*
X-3244335Y-1568143D01*
X-2601478Y-1196714D02*
X-2572907Y-1196714D01*
X-2544335Y-1211000D01*
X-2530050Y-1225286D01*
X-2515764Y-1253857D01*
X-2501478Y-1311000D01*
X-2501478Y-1382429D01*
X-2515764Y-1439571D01*
X-2530050Y-1468143D01*
X-2544335Y-1482429D01*
X-2572907Y-1496714D01*
X-2601478Y-1496714D01*
X-2630050Y-1482429D01*
X-2644335Y-1468143D01*
X-2658621Y-1439571D01*
X-2672907Y-1382429D01*
X-2672907Y-1311000D01*
X-2658621Y-1253857D01*
X-2644335Y-1225286D01*
X-2630050Y-1211000D01*
X-2601478Y-1196714D01*
X-2372907Y-1468143D02*
X-2358621Y-1482429D01*
X-2372907Y-1496714D01*
X-2387192Y-1482429D01*
X-2372907Y-1468143D01*
X-2372907Y-1496714D01*
X-2172907Y-1196714D02*
X-2144335Y-1196714D01*
X-2115764Y-1211000D01*
X-2101478Y-1225286D01*
X-2087192Y-1253857D01*
X-2072907Y-1311000D01*
X-2072907Y-1382429D01*
X-2087192Y-1439571D01*
X-2101478Y-1468143D01*
X-2115764Y-1482429D01*
X-2144335Y-1496714D01*
X-2172907Y-1496714D01*
X-2201478Y-1482429D01*
X-2215764Y-1468143D01*
X-2230050Y-1439571D01*
X-2244335Y-1382429D01*
X-2244335Y-1311000D01*
X-2230050Y-1253857D01*
X-2215764Y-1225286D01*
X-2201478Y-1211000D01*
X-2172907Y-1196714D01*
X-1972907Y-1196714D02*
X-1787192Y-1196714D01*
X-1887192Y-1311000D01*
X-1844335Y-1311000D01*
X-1815764Y-1325286D01*
X-1801478Y-1339572D01*
X-1787192Y-1368143D01*
X-1787192Y-1439571D01*
X-1801478Y-1468143D01*
X-1815764Y-1482429D01*
X-1844335Y-1496714D01*
X-1930050Y-1496714D01*
X-1958621Y-1482429D01*
X-1972907Y-1468143D01*
X-1501478Y-1496714D02*
X-1672907Y-1496714D01*
X-1587192Y-1496714D02*
X-1587192Y-1196714D01*
X-1615764Y-1239572D01*
X-1644335Y-1268143D01*
X-1672907Y-1282429D01*
X-1387192Y-1196714D02*
X-1387192Y-1253857D01*
X-1272907Y-1196714D02*
X-1272907Y-1253857D01*
X-830050Y-1611000D02*
X-844335Y-1596714D01*
X-872907Y-1553857D01*
X-887192Y-1525286D01*
X-901478Y-1482429D01*
X-915764Y-1411000D01*
X-915764Y-1353857D01*
X-901478Y-1282429D01*
X-887192Y-1239572D01*
X-872907Y-1211000D01*
X-844335Y-1168143D01*
X-830050Y-1153857D01*
X-558621Y-1496714D02*
X-730050Y-1496714D01*
X-644335Y-1496714D02*
X-644335Y-1196714D01*
X-672907Y-1239572D01*
X-701478Y-1268143D01*
X-730050Y-1282429D01*
X-201478Y-1496714D02*
X-201478Y-1196714D01*
X-72907Y-1496714D02*
X-72907Y-1339572D01*
X-87192Y-1311000D01*
X-115764Y-1296714D01*
X-158621Y-1296714D01*
X-187192Y-1311000D01*
X-201478Y-1325286D01*
X112807Y-1496714D02*
X84236Y-1482429D01*
X69950Y-1468143D01*
X55665Y-1439571D01*
X55665Y-1353857D01*
X69950Y-1325286D01*
X84236Y-1311000D01*
X112807Y-1296714D01*
X155665Y-1296714D01*
X184236Y-1311000D01*
X198522Y-1325286D01*
X212807Y-1353857D01*
X212807Y-1439571D01*
X198522Y-1468143D01*
X184236Y-1482429D01*
X155665Y-1496714D01*
X112807Y-1496714D01*
X384236Y-1496714D02*
X355665Y-1482429D01*
X341379Y-1453857D01*
X341379Y-1196714D01*
X612808Y-1482429D02*
X584236Y-1496714D01*
X527093Y-1496714D01*
X498522Y-1482429D01*
X484236Y-1453857D01*
X484236Y-1339572D01*
X498522Y-1311000D01*
X527093Y-1296714D01*
X584236Y-1296714D01*
X612808Y-1311000D01*
X627093Y-1339572D01*
X627093Y-1368143D01*
X484236Y-1396714D01*
X727093Y-1611000D02*
X741379Y-1596714D01*
X769950Y-1553857D01*
X784236Y-1525286D01*
X798522Y-1482429D01*
X812807Y-1411000D01*
X812807Y-1353857D01*
X798522Y-1282429D01*
X784236Y-1239572D01*
X769950Y-1211000D01*
X741379Y-1168143D01*
X727093Y-1153857D01*
X1269950Y-1611000D02*
X1255665Y-1596714D01*
X1227093Y-1553857D01*
X1212808Y-1525286D01*
X1198522Y-1482429D01*
X1184236Y-1411000D01*
X1184236Y-1353857D01*
X1198522Y-1282429D01*
X1212808Y-1239572D01*
X1227093Y-1211000D01*
X1255665Y-1168143D01*
X1269950Y-1153857D01*
X1384236Y-1296714D02*
X1384236Y-1496714D01*
X1384236Y-1325286D02*
X1398522Y-1311000D01*
X1427093Y-1296714D01*
X1469950Y-1296714D01*
X1498522Y-1311000D01*
X1512807Y-1339572D01*
X1512807Y-1496714D01*
X1698522Y-1496714D02*
X1669950Y-1482429D01*
X1655665Y-1468143D01*
X1641379Y-1439571D01*
X1641379Y-1353857D01*
X1655665Y-1325286D01*
X1669950Y-1311000D01*
X1698522Y-1296714D01*
X1741379Y-1296714D01*
X1769950Y-1311000D01*
X1784236Y-1325286D01*
X1798522Y-1353857D01*
X1798522Y-1439571D01*
X1784236Y-1468143D01*
X1769950Y-1482429D01*
X1741379Y-1496714D01*
X1698522Y-1496714D01*
X1884236Y-1296714D02*
X1998522Y-1296714D01*
X1927093Y-1196714D02*
X1927093Y-1453857D01*
X1941379Y-1482429D01*
X1969950Y-1496714D01*
X1998522Y-1496714D01*
X2327093Y-1296714D02*
X2327093Y-1596714D01*
X2327093Y-1311000D02*
X2355665Y-1296714D01*
X2412808Y-1296714D01*
X2441379Y-1311000D01*
X2455665Y-1325286D01*
X2469950Y-1353857D01*
X2469950Y-1439571D01*
X2455665Y-1468143D01*
X2441379Y-1482429D01*
X2412808Y-1496714D01*
X2355665Y-1496714D01*
X2327093Y-1482429D01*
X2641379Y-1496714D02*
X2612808Y-1482429D01*
X2598522Y-1453857D01*
X2598522Y-1196714D01*
X2884236Y-1496714D02*
X2884236Y-1339572D01*
X2869950Y-1311000D01*
X2841379Y-1296714D01*
X2784236Y-1296714D01*
X2755665Y-1311000D01*
X2884236Y-1482429D02*
X2855665Y-1496714D01*
X2784236Y-1496714D01*
X2755665Y-1482429D01*
X2741379Y-1453857D01*
X2741379Y-1425286D01*
X2755665Y-1396714D01*
X2784236Y-1382429D01*
X2855665Y-1382429D01*
X2884236Y-1368143D01*
X2984236Y-1296714D02*
X3098522Y-1296714D01*
X3027093Y-1196714D02*
X3027093Y-1453857D01*
X3041379Y-1482429D01*
X3069950Y-1496714D01*
X3098522Y-1496714D01*
X3312807Y-1482429D02*
X3284236Y-1496714D01*
X3227093Y-1496714D01*
X3198522Y-1482429D01*
X3184236Y-1453857D01*
X3184236Y-1339572D01*
X3198522Y-1311000D01*
X3227093Y-1296714D01*
X3284236Y-1296714D01*
X3312807Y-1311000D01*
X3327093Y-1339572D01*
X3327093Y-1368143D01*
X3184236Y-1396714D01*
X3584236Y-1496714D02*
X3584236Y-1196714D01*
X3584236Y-1482429D02*
X3555665Y-1496714D01*
X3498522Y-1496714D01*
X3469950Y-1482429D01*
X3455665Y-1468143D01*
X3441379Y-1439571D01*
X3441379Y-1353857D01*
X3455665Y-1325286D01*
X3469950Y-1311000D01*
X3498522Y-1296714D01*
X3555665Y-1296714D01*
X3584236Y-1311000D01*
X3698522Y-1611000D02*
X3712807Y-1596714D01*
X3741379Y-1553857D01*
X3755665Y-1525286D01*
X3769950Y-1482429D01*
X3784236Y-1411000D01*
X3784236Y-1353857D01*
X3769950Y-1282429D01*
X3755665Y-1239572D01*
X3741379Y-1211000D01*
X3712807Y-1168143D01*
X3698522Y-1153857D01*
X-5566478Y-1707000D02*
X-5566478Y-1807000D01*
X-5616478Y-1757000D02*
X-5516478Y-1757000D01*
X-5072907Y-1892714D02*
X-5244335Y-1892714D01*
X-5158621Y-1892714D02*
X-5158621Y-1592714D01*
X-5187192Y-1635571D01*
X-5215764Y-1664143D01*
X-5244335Y-1678429D01*
X-4944335Y-1864143D02*
X-4930050Y-1878429D01*
X-4944335Y-1892714D01*
X-4958621Y-1878429D01*
X-4944335Y-1864143D01*
X-4944335Y-1892714D01*
X-4744335Y-1592714D02*
X-4715764Y-1592714D01*
X-4687192Y-1607000D01*
X-4672907Y-1621286D01*
X-4658621Y-1649857D01*
X-4644335Y-1707000D01*
X-4644335Y-1778429D01*
X-4658621Y-1835571D01*
X-4672907Y-1864143D01*
X-4687192Y-1878429D01*
X-4715764Y-1892714D01*
X-4744335Y-1892714D01*
X-4772907Y-1878429D01*
X-4787192Y-1864143D01*
X-4801478Y-1835571D01*
X-4815764Y-1778429D01*
X-4815764Y-1707000D01*
X-4801478Y-1649857D01*
X-4787192Y-1621286D01*
X-4772907Y-1607000D01*
X-4744335Y-1592714D01*
X-4458621Y-1592714D02*
X-4430050Y-1592714D01*
X-4401478Y-1607000D01*
X-4387192Y-1621286D01*
X-4372907Y-1649857D01*
X-4358621Y-1707000D01*
X-4358621Y-1778429D01*
X-4372907Y-1835571D01*
X-4387192Y-1864143D01*
X-4401478Y-1878429D01*
X-4430050Y-1892714D01*
X-4458621Y-1892714D01*
X-4487192Y-1878429D01*
X-4501478Y-1864143D01*
X-4515764Y-1835571D01*
X-4530050Y-1778429D01*
X-4530050Y-1707000D01*
X-4515764Y-1649857D01*
X-4501478Y-1621286D01*
X-4487192Y-1607000D01*
X-4458621Y-1592714D01*
X-4230050Y-1892714D02*
X-4230050Y-1692714D01*
X-4230050Y-1721286D02*
X-4215764Y-1707000D01*
X-4187192Y-1692714D01*
X-4144335Y-1692714D01*
X-4115764Y-1707000D01*
X-4101478Y-1735571D01*
X-4101478Y-1892714D01*
X-4101478Y-1735571D02*
X-4087192Y-1707000D01*
X-4058621Y-1692714D01*
X-4015764Y-1692714D01*
X-3987192Y-1707000D01*
X-3972907Y-1735571D01*
X-3972907Y-1892714D01*
X-3830050Y-1892714D02*
X-3830050Y-1692714D01*
X-3830050Y-1721286D02*
X-3815764Y-1707000D01*
X-3787192Y-1692714D01*
X-3744335Y-1692714D01*
X-3715764Y-1707000D01*
X-3701478Y-1735571D01*
X-3701478Y-1892714D01*
X-3701478Y-1735571D02*
X-3687192Y-1707000D01*
X-3658621Y-1692714D01*
X-3615764Y-1692714D01*
X-3587192Y-1707000D01*
X-3572907Y-1735571D01*
X-3572907Y-1892714D01*
X-2987192Y-1578429D02*
X-3244335Y-1964143D01*
X-2601478Y-1592714D02*
X-2572907Y-1592714D01*
X-2544335Y-1607000D01*
X-2530050Y-1621286D01*
X-2515764Y-1649857D01*
X-2501478Y-1707000D01*
X-2501478Y-1778429D01*
X-2515764Y-1835571D01*
X-2530050Y-1864143D01*
X-2544335Y-1878429D01*
X-2572907Y-1892714D01*
X-2601478Y-1892714D01*
X-2630050Y-1878429D01*
X-2644335Y-1864143D01*
X-2658621Y-1835571D01*
X-2672907Y-1778429D01*
X-2672907Y-1707000D01*
X-2658621Y-1649857D01*
X-2644335Y-1621286D01*
X-2630050Y-1607000D01*
X-2601478Y-1592714D01*
X-2372907Y-1864143D02*
X-2358621Y-1878429D01*
X-2372907Y-1892714D01*
X-2387192Y-1878429D01*
X-2372907Y-1864143D01*
X-2372907Y-1892714D01*
X-2172907Y-1592714D02*
X-2144335Y-1592714D01*
X-2115764Y-1607000D01*
X-2101478Y-1621286D01*
X-2087192Y-1649857D01*
X-2072907Y-1707000D01*
X-2072907Y-1778429D01*
X-2087192Y-1835571D01*
X-2101478Y-1864143D01*
X-2115764Y-1878429D01*
X-2144335Y-1892714D01*
X-2172907Y-1892714D01*
X-2201478Y-1878429D01*
X-2215764Y-1864143D01*
X-2230050Y-1835571D01*
X-2244335Y-1778429D01*
X-2244335Y-1707000D01*
X-2230050Y-1649857D01*
X-2215764Y-1621286D01*
X-2201478Y-1607000D01*
X-2172907Y-1592714D01*
X-1972907Y-1592714D02*
X-1787192Y-1592714D01*
X-1887192Y-1707000D01*
X-1844335Y-1707000D01*
X-1815764Y-1721286D01*
X-1801478Y-1735571D01*
X-1787192Y-1764143D01*
X-1787192Y-1835571D01*
X-1801478Y-1864143D01*
X-1815764Y-1878429D01*
X-1844335Y-1892714D01*
X-1930050Y-1892714D01*
X-1958621Y-1878429D01*
X-1972907Y-1864143D01*
X-1644335Y-1892714D02*
X-1587192Y-1892714D01*
X-1558621Y-1878429D01*
X-1544335Y-1864143D01*
X-1515764Y-1821286D01*
X-1501478Y-1764143D01*
X-1501478Y-1649857D01*
X-1515764Y-1621286D01*
X-1530050Y-1607000D01*
X-1558621Y-1592714D01*
X-1615764Y-1592714D01*
X-1644335Y-1607000D01*
X-1658621Y-1621286D01*
X-1672907Y-1649857D01*
X-1672907Y-1721286D01*
X-1658621Y-1749857D01*
X-1644335Y-1764143D01*
X-1615764Y-1778429D01*
X-1558621Y-1778429D01*
X-1530050Y-1764143D01*
X-1515764Y-1749857D01*
X-1501478Y-1721286D01*
X-1387192Y-1592714D02*
X-1387192Y-1649857D01*
X-1272907Y-1592714D02*
X-1272907Y-1649857D01*
X-830050Y-2007000D02*
X-844335Y-1992714D01*
X-872907Y-1949857D01*
X-887192Y-1921286D01*
X-901478Y-1878429D01*
X-915764Y-1807000D01*
X-915764Y-1749857D01*
X-901478Y-1678429D01*
X-887192Y-1635571D01*
X-872907Y-1607000D01*
X-844335Y-1564143D01*
X-830050Y-1549857D01*
X-730050Y-1621286D02*
X-715764Y-1607000D01*
X-687192Y-1592714D01*
X-615764Y-1592714D01*
X-587192Y-1607000D01*
X-572907Y-1621286D01*
X-558621Y-1649857D01*
X-558621Y-1678429D01*
X-572907Y-1721286D01*
X-744335Y-1892714D01*
X-558621Y-1892714D01*
X-201478Y-1892714D02*
X-201478Y-1592714D01*
X-72907Y-1892714D02*
X-72907Y-1735571D01*
X-87192Y-1707000D01*
X-115764Y-1692714D01*
X-158621Y-1692714D01*
X-187192Y-1707000D01*
X-201478Y-1721286D01*
X112807Y-1892714D02*
X84236Y-1878429D01*
X69950Y-1864143D01*
X55665Y-1835571D01*
X55665Y-1749857D01*
X69950Y-1721286D01*
X84236Y-1707000D01*
X112807Y-1692714D01*
X155665Y-1692714D01*
X184236Y-1707000D01*
X198522Y-1721286D01*
X212807Y-1749857D01*
X212807Y-1835571D01*
X198522Y-1864143D01*
X184236Y-1878429D01*
X155665Y-1892714D01*
X112807Y-1892714D01*
X384236Y-1892714D02*
X355665Y-1878429D01*
X341379Y-1849857D01*
X341379Y-1592714D01*
X612808Y-1878429D02*
X584236Y-1892714D01*
X527093Y-1892714D01*
X498522Y-1878429D01*
X484236Y-1849857D01*
X484236Y-1735571D01*
X498522Y-1707000D01*
X527093Y-1692714D01*
X584236Y-1692714D01*
X612808Y-1707000D01*
X627093Y-1735571D01*
X627093Y-1764143D01*
X484236Y-1792714D01*
X741379Y-1878429D02*
X769950Y-1892714D01*
X827093Y-1892714D01*
X855665Y-1878429D01*
X869950Y-1849857D01*
X869950Y-1835571D01*
X855665Y-1807000D01*
X827093Y-1792714D01*
X784236Y-1792714D01*
X755665Y-1778429D01*
X741379Y-1749857D01*
X741379Y-1735571D01*
X755665Y-1707000D01*
X784236Y-1692714D01*
X827093Y-1692714D01*
X855665Y-1707000D01*
X969950Y-2007000D02*
X984236Y-1992714D01*
X1012807Y-1949857D01*
X1027093Y-1921286D01*
X1041379Y-1878429D01*
X1055665Y-1807000D01*
X1055665Y-1749857D01*
X1041379Y-1678429D01*
X1027093Y-1635571D01*
X1012807Y-1607000D01*
X984236Y-1564143D01*
X969950Y-1549857D01*
X1512807Y-2007000D02*
X1498522Y-1992714D01*
X1469950Y-1949857D01*
X1455665Y-1921286D01*
X1441379Y-1878429D01*
X1427093Y-1807000D01*
X1427093Y-1749857D01*
X1441379Y-1678429D01*
X1455665Y-1635571D01*
X1469950Y-1607000D01*
X1498522Y-1564143D01*
X1512807Y-1549857D01*
X1627093Y-1692714D02*
X1627093Y-1892714D01*
X1627093Y-1721286D02*
X1641379Y-1707000D01*
X1669950Y-1692714D01*
X1712807Y-1692714D01*
X1741379Y-1707000D01*
X1755665Y-1735571D01*
X1755665Y-1892714D01*
X1941379Y-1892714D02*
X1912807Y-1878429D01*
X1898522Y-1864143D01*
X1884236Y-1835571D01*
X1884236Y-1749857D01*
X1898522Y-1721286D01*
X1912807Y-1707000D01*
X1941379Y-1692714D01*
X1984236Y-1692714D01*
X2012807Y-1707000D01*
X2027093Y-1721286D01*
X2041379Y-1749857D01*
X2041379Y-1835571D01*
X2027093Y-1864143D01*
X2012807Y-1878429D01*
X1984236Y-1892714D01*
X1941379Y-1892714D01*
X2127093Y-1692714D02*
X2241379Y-1692714D01*
X2169950Y-1592714D02*
X2169950Y-1849857D01*
X2184236Y-1878429D01*
X2212808Y-1892714D01*
X2241379Y-1892714D01*
X2569950Y-1692714D02*
X2569950Y-1992714D01*
X2569950Y-1707000D02*
X2598522Y-1692714D01*
X2655665Y-1692714D01*
X2684236Y-1707000D01*
X2698522Y-1721286D01*
X2712808Y-1749857D01*
X2712808Y-1835571D01*
X2698522Y-1864143D01*
X2684236Y-1878429D01*
X2655665Y-1892714D01*
X2598522Y-1892714D01*
X2569950Y-1878429D01*
X2884236Y-1892714D02*
X2855665Y-1878429D01*
X2841379Y-1849857D01*
X2841379Y-1592714D01*
X3127093Y-1892714D02*
X3127093Y-1735571D01*
X3112807Y-1707000D01*
X3084236Y-1692714D01*
X3027093Y-1692714D01*
X2998522Y-1707000D01*
X3127093Y-1878429D02*
X3098522Y-1892714D01*
X3027093Y-1892714D01*
X2998522Y-1878429D01*
X2984236Y-1849857D01*
X2984236Y-1821286D01*
X2998522Y-1792714D01*
X3027093Y-1778429D01*
X3098522Y-1778429D01*
X3127093Y-1764143D01*
X3227093Y-1692714D02*
X3341379Y-1692714D01*
X3269950Y-1592714D02*
X3269950Y-1849857D01*
X3284236Y-1878429D01*
X3312807Y-1892714D01*
X3341379Y-1892714D01*
X3555665Y-1878429D02*
X3527093Y-1892714D01*
X3469950Y-1892714D01*
X3441379Y-1878429D01*
X3427093Y-1849857D01*
X3427093Y-1735571D01*
X3441379Y-1707000D01*
X3469950Y-1692714D01*
X3527093Y-1692714D01*
X3555665Y-1707000D01*
X3569950Y-1735571D01*
X3569950Y-1764143D01*
X3427093Y-1792714D01*
X3827093Y-1892714D02*
X3827093Y-1592714D01*
X3827093Y-1878429D02*
X3798522Y-1892714D01*
X3741379Y-1892714D01*
X3712807Y-1878429D01*
X3698522Y-1864143D01*
X3684236Y-1835571D01*
X3684236Y-1749857D01*
X3698522Y-1721286D01*
X3712807Y-1707000D01*
X3741379Y-1692714D01*
X3798522Y-1692714D01*
X3827093Y-1707000D01*
X3941379Y-2007000D02*
X3955665Y-1992714D01*
X3984236Y-1949857D01*
X3998522Y-1921286D01*
X4012807Y-1878429D01*
X4027093Y-1807000D01*
X4027093Y-1749857D01*
X4012807Y-1678429D01*
X3998522Y-1635571D01*
X3984236Y-1607000D01*
X3955665Y-1564143D01*
X3941379Y-1549857D01*
X-5532587Y-2191891D02*
X-5532587Y-2114109D01*
X-5610369Y-2114109D01*
X-5610369Y-2191891D01*
X-5532587Y-2191891D01*
X-5072907Y-2288714D02*
X-5244335Y-2288714D01*
X-5158621Y-2288714D02*
X-5158621Y-1988714D01*
X-5187192Y-2031571D01*
X-5215764Y-2060143D01*
X-5244335Y-2074429D01*
X-4944335Y-2260143D02*
X-4930050Y-2274429D01*
X-4944335Y-2288714D01*
X-4958621Y-2274429D01*
X-4944335Y-2260143D01*
X-4944335Y-2288714D01*
X-4644335Y-2288714D02*
X-4815764Y-2288714D01*
X-4730050Y-2288714D02*
X-4730050Y-1988714D01*
X-4758621Y-2031571D01*
X-4787192Y-2060143D01*
X-4815764Y-2074429D01*
X-4458621Y-1988714D02*
X-4430050Y-1988714D01*
X-4401478Y-2003000D01*
X-4387192Y-2017286D01*
X-4372907Y-2045857D01*
X-4358621Y-2103000D01*
X-4358621Y-2174429D01*
X-4372907Y-2231572D01*
X-4387192Y-2260143D01*
X-4401478Y-2274429D01*
X-4430050Y-2288714D01*
X-4458621Y-2288714D01*
X-4487192Y-2274429D01*
X-4501478Y-2260143D01*
X-4515764Y-2231572D01*
X-4530050Y-2174429D01*
X-4530050Y-2103000D01*
X-4515764Y-2045857D01*
X-4501478Y-2017286D01*
X-4487192Y-2003000D01*
X-4458621Y-1988714D01*
X-4230050Y-2288714D02*
X-4230050Y-2088714D01*
X-4230050Y-2117286D02*
X-4215764Y-2103000D01*
X-4187192Y-2088714D01*
X-4144335Y-2088714D01*
X-4115764Y-2103000D01*
X-4101478Y-2131572D01*
X-4101478Y-2288714D01*
X-4101478Y-2131572D02*
X-4087192Y-2103000D01*
X-4058621Y-2088714D01*
X-4015764Y-2088714D01*
X-3987192Y-2103000D01*
X-3972907Y-2131572D01*
X-3972907Y-2288714D01*
X-3830050Y-2288714D02*
X-3830050Y-2088714D01*
X-3830050Y-2117286D02*
X-3815764Y-2103000D01*
X-3787192Y-2088714D01*
X-3744335Y-2088714D01*
X-3715764Y-2103000D01*
X-3701478Y-2131572D01*
X-3701478Y-2288714D01*
X-3701478Y-2131572D02*
X-3687192Y-2103000D01*
X-3658621Y-2088714D01*
X-3615764Y-2088714D01*
X-3587192Y-2103000D01*
X-3572907Y-2131572D01*
X-3572907Y-2288714D01*
X-2987192Y-1974429D02*
X-3244335Y-2360143D01*
X-2601478Y-1988714D02*
X-2572907Y-1988714D01*
X-2544335Y-2003000D01*
X-2530050Y-2017286D01*
X-2515764Y-2045857D01*
X-2501478Y-2103000D01*
X-2501478Y-2174429D01*
X-2515764Y-2231572D01*
X-2530050Y-2260143D01*
X-2544335Y-2274429D01*
X-2572907Y-2288714D01*
X-2601478Y-2288714D01*
X-2630050Y-2274429D01*
X-2644335Y-2260143D01*
X-2658621Y-2231572D01*
X-2672907Y-2174429D01*
X-2672907Y-2103000D01*
X-2658621Y-2045857D01*
X-2644335Y-2017286D01*
X-2630050Y-2003000D01*
X-2601478Y-1988714D01*
X-2372907Y-2260143D02*
X-2358621Y-2274429D01*
X-2372907Y-2288714D01*
X-2387192Y-2274429D01*
X-2372907Y-2260143D01*
X-2372907Y-2288714D01*
X-2172907Y-1988714D02*
X-2144335Y-1988714D01*
X-2115764Y-2003000D01*
X-2101478Y-2017286D01*
X-2087192Y-2045857D01*
X-2072907Y-2103000D01*
X-2072907Y-2174429D01*
X-2087192Y-2231572D01*
X-2101478Y-2260143D01*
X-2115764Y-2274429D01*
X-2144335Y-2288714D01*
X-2172907Y-2288714D01*
X-2201478Y-2274429D01*
X-2215764Y-2260143D01*
X-2230050Y-2231572D01*
X-2244335Y-2174429D01*
X-2244335Y-2103000D01*
X-2230050Y-2045857D01*
X-2215764Y-2017286D01*
X-2201478Y-2003000D01*
X-2172907Y-1988714D01*
X-1815764Y-2088714D02*
X-1815764Y-2288714D01*
X-1887192Y-1974429D02*
X-1958621Y-2188714D01*
X-1772907Y-2188714D01*
X-1687192Y-1988714D02*
X-1501478Y-1988714D01*
X-1601478Y-2103000D01*
X-1558621Y-2103000D01*
X-1530050Y-2117286D01*
X-1515764Y-2131572D01*
X-1501478Y-2160143D01*
X-1501478Y-2231572D01*
X-1515764Y-2260143D01*
X-1530050Y-2274429D01*
X-1558621Y-2288714D01*
X-1644335Y-2288714D01*
X-1672907Y-2274429D01*
X-1687192Y-2260143D01*
X-1387192Y-1988714D02*
X-1387192Y-2045857D01*
X-1272907Y-1988714D02*
X-1272907Y-2045857D01*
X-830050Y-2403000D02*
X-844335Y-2388714D01*
X-872907Y-2345857D01*
X-887192Y-2317286D01*
X-901478Y-2274429D01*
X-915764Y-2203000D01*
X-915764Y-2145857D01*
X-901478Y-2074429D01*
X-887192Y-2031571D01*
X-872907Y-2003000D01*
X-844335Y-1960143D01*
X-830050Y-1945857D01*
X-558621Y-2288714D02*
X-730050Y-2288714D01*
X-644335Y-2288714D02*
X-644335Y-1988714D01*
X-672907Y-2031571D01*
X-701478Y-2060143D01*
X-730050Y-2074429D01*
X-201478Y-2288714D02*
X-201478Y-1988714D01*
X-72907Y-2288714D02*
X-72907Y-2131572D01*
X-87192Y-2103000D01*
X-115764Y-2088714D01*
X-158621Y-2088714D01*
X-187192Y-2103000D01*
X-201478Y-2117286D01*
X112807Y-2288714D02*
X84236Y-2274429D01*
X69950Y-2260143D01*
X55665Y-2231572D01*
X55665Y-2145857D01*
X69950Y-2117286D01*
X84236Y-2103000D01*
X112807Y-2088714D01*
X155665Y-2088714D01*
X184236Y-2103000D01*
X198522Y-2117286D01*
X212807Y-2145857D01*
X212807Y-2231572D01*
X198522Y-2260143D01*
X184236Y-2274429D01*
X155665Y-2288714D01*
X112807Y-2288714D01*
X384236Y-2288714D02*
X355665Y-2274429D01*
X341379Y-2245857D01*
X341379Y-1988714D01*
X612808Y-2274429D02*
X584236Y-2288714D01*
X527093Y-2288714D01*
X498522Y-2274429D01*
X484236Y-2245857D01*
X484236Y-2131572D01*
X498522Y-2103000D01*
X527093Y-2088714D01*
X584236Y-2088714D01*
X612808Y-2103000D01*
X627093Y-2131572D01*
X627093Y-2160143D01*
X484236Y-2188714D01*
X727093Y-2403000D02*
X741379Y-2388714D01*
X769950Y-2345857D01*
X784236Y-2317286D01*
X798522Y-2274429D01*
X812807Y-2203000D01*
X812807Y-2145857D01*
X798522Y-2074429D01*
X784236Y-2031571D01*
X769950Y-2003000D01*
X741379Y-1960143D01*
X727093Y-1945857D01*
X1269950Y-2403000D02*
X1255665Y-2388714D01*
X1227093Y-2345857D01*
X1212808Y-2317286D01*
X1198522Y-2274429D01*
X1184236Y-2203000D01*
X1184236Y-2145857D01*
X1198522Y-2074429D01*
X1212808Y-2031571D01*
X1227093Y-2003000D01*
X1255665Y-1960143D01*
X1269950Y-1945857D01*
X1384236Y-2088714D02*
X1384236Y-2288714D01*
X1384236Y-2117286D02*
X1398522Y-2103000D01*
X1427093Y-2088714D01*
X1469950Y-2088714D01*
X1498522Y-2103000D01*
X1512807Y-2131572D01*
X1512807Y-2288714D01*
X1698522Y-2288714D02*
X1669950Y-2274429D01*
X1655665Y-2260143D01*
X1641379Y-2231572D01*
X1641379Y-2145857D01*
X1655665Y-2117286D01*
X1669950Y-2103000D01*
X1698522Y-2088714D01*
X1741379Y-2088714D01*
X1769950Y-2103000D01*
X1784236Y-2117286D01*
X1798522Y-2145857D01*
X1798522Y-2231572D01*
X1784236Y-2260143D01*
X1769950Y-2274429D01*
X1741379Y-2288714D01*
X1698522Y-2288714D01*
X1884236Y-2088714D02*
X1998522Y-2088714D01*
X1927093Y-1988714D02*
X1927093Y-2245857D01*
X1941379Y-2274429D01*
X1969950Y-2288714D01*
X1998522Y-2288714D01*
X2327093Y-2088714D02*
X2327093Y-2388714D01*
X2327093Y-2103000D02*
X2355665Y-2088714D01*
X2412808Y-2088714D01*
X2441379Y-2103000D01*
X2455665Y-2117286D01*
X2469950Y-2145857D01*
X2469950Y-2231572D01*
X2455665Y-2260143D01*
X2441379Y-2274429D01*
X2412808Y-2288714D01*
X2355665Y-2288714D01*
X2327093Y-2274429D01*
X2641379Y-2288714D02*
X2612808Y-2274429D01*
X2598522Y-2245857D01*
X2598522Y-1988714D01*
X2884236Y-2288714D02*
X2884236Y-2131572D01*
X2869950Y-2103000D01*
X2841379Y-2088714D01*
X2784236Y-2088714D01*
X2755665Y-2103000D01*
X2884236Y-2274429D02*
X2855665Y-2288714D01*
X2784236Y-2288714D01*
X2755665Y-2274429D01*
X2741379Y-2245857D01*
X2741379Y-2217286D01*
X2755665Y-2188714D01*
X2784236Y-2174429D01*
X2855665Y-2174429D01*
X2884236Y-2160143D01*
X2984236Y-2088714D02*
X3098522Y-2088714D01*
X3027093Y-1988714D02*
X3027093Y-2245857D01*
X3041379Y-2274429D01*
X3069950Y-2288714D01*
X3098522Y-2288714D01*
X3312807Y-2274429D02*
X3284236Y-2288714D01*
X3227093Y-2288714D01*
X3198522Y-2274429D01*
X3184236Y-2245857D01*
X3184236Y-2131572D01*
X3198522Y-2103000D01*
X3227093Y-2088714D01*
X3284236Y-2088714D01*
X3312807Y-2103000D01*
X3327093Y-2131572D01*
X3327093Y-2160143D01*
X3184236Y-2188714D01*
X3584236Y-2288714D02*
X3584236Y-1988714D01*
X3584236Y-2274429D02*
X3555665Y-2288714D01*
X3498522Y-2288714D01*
X3469950Y-2274429D01*
X3455665Y-2260143D01*
X3441379Y-2231572D01*
X3441379Y-2145857D01*
X3455665Y-2117286D01*
X3469950Y-2103000D01*
X3498522Y-2088714D01*
X3555665Y-2088714D01*
X3584236Y-2103000D01*
X3698522Y-2403000D02*
X3712807Y-2388714D01*
X3741379Y-2345857D01*
X3755665Y-2317286D01*
X3769950Y-2274429D01*
X3784236Y-2203000D01*
X3784236Y-2145857D01*
X3769950Y-2074429D01*
X3755665Y-2031571D01*
X3741379Y-2003000D01*
X3712807Y-1960143D01*
X3698522Y-1945857D01*
X-5581478Y-2614000D02*
X-5516478Y-2549000D01*
X-5581478Y-2484000D01*
X-5646478Y-2549000D01*
X-5581478Y-2614000D01*
X-5072907Y-2684714D02*
X-5244335Y-2684714D01*
X-5158621Y-2684714D02*
X-5158621Y-2384714D01*
X-5187192Y-2427572D01*
X-5215764Y-2456143D01*
X-5244335Y-2470429D01*
X-4944335Y-2656143D02*
X-4930050Y-2670429D01*
X-4944335Y-2684714D01*
X-4958621Y-2670429D01*
X-4944335Y-2656143D01*
X-4944335Y-2684714D01*
X-4830050Y-2384714D02*
X-4644335Y-2384714D01*
X-4744335Y-2499000D01*
X-4701478Y-2499000D01*
X-4672907Y-2513286D01*
X-4658621Y-2527572D01*
X-4644335Y-2556143D01*
X-4644335Y-2627572D01*
X-4658621Y-2656143D01*
X-4672907Y-2670429D01*
X-4701478Y-2684714D01*
X-4787192Y-2684714D01*
X-4815764Y-2670429D01*
X-4830050Y-2656143D01*
X-4458621Y-2384714D02*
X-4430050Y-2384714D01*
X-4401478Y-2399000D01*
X-4387192Y-2413286D01*
X-4372907Y-2441857D01*
X-4358621Y-2499000D01*
X-4358621Y-2570429D01*
X-4372907Y-2627572D01*
X-4387192Y-2656143D01*
X-4401478Y-2670429D01*
X-4430050Y-2684714D01*
X-4458621Y-2684714D01*
X-4487192Y-2670429D01*
X-4501478Y-2656143D01*
X-4515764Y-2627572D01*
X-4530050Y-2570429D01*
X-4530050Y-2499000D01*
X-4515764Y-2441857D01*
X-4501478Y-2413286D01*
X-4487192Y-2399000D01*
X-4458621Y-2384714D01*
X-4230050Y-2684714D02*
X-4230050Y-2484714D01*
X-4230050Y-2513286D02*
X-4215764Y-2499000D01*
X-4187192Y-2484714D01*
X-4144335Y-2484714D01*
X-4115764Y-2499000D01*
X-4101478Y-2527572D01*
X-4101478Y-2684714D01*
X-4101478Y-2527572D02*
X-4087192Y-2499000D01*
X-4058621Y-2484714D01*
X-4015764Y-2484714D01*
X-3987192Y-2499000D01*
X-3972907Y-2527572D01*
X-3972907Y-2684714D01*
X-3830050Y-2684714D02*
X-3830050Y-2484714D01*
X-3830050Y-2513286D02*
X-3815764Y-2499000D01*
X-3787192Y-2484714D01*
X-3744335Y-2484714D01*
X-3715764Y-2499000D01*
X-3701478Y-2527572D01*
X-3701478Y-2684714D01*
X-3701478Y-2527572D02*
X-3687192Y-2499000D01*
X-3658621Y-2484714D01*
X-3615764Y-2484714D01*
X-3587192Y-2499000D01*
X-3572907Y-2527572D01*
X-3572907Y-2684714D01*
X-2987192Y-2370429D02*
X-3244335Y-2756143D01*
X-2601478Y-2384714D02*
X-2572907Y-2384714D01*
X-2544335Y-2399000D01*
X-2530050Y-2413286D01*
X-2515764Y-2441857D01*
X-2501478Y-2499000D01*
X-2501478Y-2570429D01*
X-2515764Y-2627572D01*
X-2530050Y-2656143D01*
X-2544335Y-2670429D01*
X-2572907Y-2684714D01*
X-2601478Y-2684714D01*
X-2630050Y-2670429D01*
X-2644335Y-2656143D01*
X-2658621Y-2627572D01*
X-2672907Y-2570429D01*
X-2672907Y-2499000D01*
X-2658621Y-2441857D01*
X-2644335Y-2413286D01*
X-2630050Y-2399000D01*
X-2601478Y-2384714D01*
X-2372907Y-2656143D02*
X-2358621Y-2670429D01*
X-2372907Y-2684714D01*
X-2387192Y-2670429D01*
X-2372907Y-2656143D01*
X-2372907Y-2684714D01*
X-2172907Y-2384714D02*
X-2144335Y-2384714D01*
X-2115764Y-2399000D01*
X-2101478Y-2413286D01*
X-2087192Y-2441857D01*
X-2072907Y-2499000D01*
X-2072907Y-2570429D01*
X-2087192Y-2627572D01*
X-2101478Y-2656143D01*
X-2115764Y-2670429D01*
X-2144335Y-2684714D01*
X-2172907Y-2684714D01*
X-2201478Y-2670429D01*
X-2215764Y-2656143D01*
X-2230050Y-2627572D01*
X-2244335Y-2570429D01*
X-2244335Y-2499000D01*
X-2230050Y-2441857D01*
X-2215764Y-2413286D01*
X-2201478Y-2399000D01*
X-2172907Y-2384714D01*
X-1801478Y-2384714D02*
X-1944335Y-2384714D01*
X-1958621Y-2527572D01*
X-1944335Y-2513286D01*
X-1915764Y-2499000D01*
X-1844335Y-2499000D01*
X-1815764Y-2513286D01*
X-1801478Y-2527572D01*
X-1787192Y-2556143D01*
X-1787192Y-2627572D01*
X-1801478Y-2656143D01*
X-1815764Y-2670429D01*
X-1844335Y-2684714D01*
X-1915764Y-2684714D01*
X-1944335Y-2670429D01*
X-1958621Y-2656143D01*
X-1501478Y-2684714D02*
X-1672907Y-2684714D01*
X-1587192Y-2684714D02*
X-1587192Y-2384714D01*
X-1615764Y-2427572D01*
X-1644335Y-2456143D01*
X-1672907Y-2470429D01*
X-1387192Y-2384714D02*
X-1387192Y-2441857D01*
X-1272907Y-2384714D02*
X-1272907Y-2441857D01*
X-830050Y-2799000D02*
X-844335Y-2784714D01*
X-872907Y-2741857D01*
X-887192Y-2713286D01*
X-901478Y-2670429D01*
X-915764Y-2599000D01*
X-915764Y-2541857D01*
X-901478Y-2470429D01*
X-887192Y-2427572D01*
X-872907Y-2399000D01*
X-844335Y-2356143D01*
X-830050Y-2341857D01*
X-730050Y-2413286D02*
X-715764Y-2399000D01*
X-687192Y-2384714D01*
X-615764Y-2384714D01*
X-587192Y-2399000D01*
X-572907Y-2413286D01*
X-558621Y-2441857D01*
X-558621Y-2470429D01*
X-572907Y-2513286D01*
X-744335Y-2684714D01*
X-558621Y-2684714D01*
X-201478Y-2684714D02*
X-201478Y-2384714D01*
X-72907Y-2684714D02*
X-72907Y-2527572D01*
X-87192Y-2499000D01*
X-115764Y-2484714D01*
X-158621Y-2484714D01*
X-187192Y-2499000D01*
X-201478Y-2513286D01*
X112807Y-2684714D02*
X84236Y-2670429D01*
X69950Y-2656143D01*
X55665Y-2627572D01*
X55665Y-2541857D01*
X69950Y-2513286D01*
X84236Y-2499000D01*
X112807Y-2484714D01*
X155665Y-2484714D01*
X184236Y-2499000D01*
X198522Y-2513286D01*
X212807Y-2541857D01*
X212807Y-2627572D01*
X198522Y-2656143D01*
X184236Y-2670429D01*
X155665Y-2684714D01*
X112807Y-2684714D01*
X384236Y-2684714D02*
X355665Y-2670429D01*
X341379Y-2641857D01*
X341379Y-2384714D01*
X612808Y-2670429D02*
X584236Y-2684714D01*
X527093Y-2684714D01*
X498522Y-2670429D01*
X484236Y-2641857D01*
X484236Y-2527572D01*
X498522Y-2499000D01*
X527093Y-2484714D01*
X584236Y-2484714D01*
X612808Y-2499000D01*
X627093Y-2527572D01*
X627093Y-2556143D01*
X484236Y-2584714D01*
X741379Y-2670429D02*
X769950Y-2684714D01*
X827093Y-2684714D01*
X855665Y-2670429D01*
X869950Y-2641857D01*
X869950Y-2627572D01*
X855665Y-2599000D01*
X827093Y-2584714D01*
X784236Y-2584714D01*
X755665Y-2570429D01*
X741379Y-2541857D01*
X741379Y-2527572D01*
X755665Y-2499000D01*
X784236Y-2484714D01*
X827093Y-2484714D01*
X855665Y-2499000D01*
X969950Y-2799000D02*
X984236Y-2784714D01*
X1012807Y-2741857D01*
X1027093Y-2713286D01*
X1041379Y-2670429D01*
X1055665Y-2599000D01*
X1055665Y-2541857D01*
X1041379Y-2470429D01*
X1027093Y-2427572D01*
X1012807Y-2399000D01*
X984236Y-2356143D01*
X969950Y-2341857D01*
X1512807Y-2799000D02*
X1498522Y-2784714D01*
X1469950Y-2741857D01*
X1455665Y-2713286D01*
X1441379Y-2670429D01*
X1427093Y-2599000D01*
X1427093Y-2541857D01*
X1441379Y-2470429D01*
X1455665Y-2427572D01*
X1469950Y-2399000D01*
X1498522Y-2356143D01*
X1512807Y-2341857D01*
X1627093Y-2484714D02*
X1627093Y-2684714D01*
X1627093Y-2513286D02*
X1641379Y-2499000D01*
X1669950Y-2484714D01*
X1712807Y-2484714D01*
X1741379Y-2499000D01*
X1755665Y-2527572D01*
X1755665Y-2684714D01*
X1941379Y-2684714D02*
X1912807Y-2670429D01*
X1898522Y-2656143D01*
X1884236Y-2627572D01*
X1884236Y-2541857D01*
X1898522Y-2513286D01*
X1912807Y-2499000D01*
X1941379Y-2484714D01*
X1984236Y-2484714D01*
X2012807Y-2499000D01*
X2027093Y-2513286D01*
X2041379Y-2541857D01*
X2041379Y-2627572D01*
X2027093Y-2656143D01*
X2012807Y-2670429D01*
X1984236Y-2684714D01*
X1941379Y-2684714D01*
X2127093Y-2484714D02*
X2241379Y-2484714D01*
X2169950Y-2384714D02*
X2169950Y-2641857D01*
X2184236Y-2670429D01*
X2212808Y-2684714D01*
X2241379Y-2684714D01*
X2569950Y-2484714D02*
X2569950Y-2784714D01*
X2569950Y-2499000D02*
X2598522Y-2484714D01*
X2655665Y-2484714D01*
X2684236Y-2499000D01*
X2698522Y-2513286D01*
X2712808Y-2541857D01*
X2712808Y-2627572D01*
X2698522Y-2656143D01*
X2684236Y-2670429D01*
X2655665Y-2684714D01*
X2598522Y-2684714D01*
X2569950Y-2670429D01*
X2884236Y-2684714D02*
X2855665Y-2670429D01*
X2841379Y-2641857D01*
X2841379Y-2384714D01*
X3127093Y-2684714D02*
X3127093Y-2527572D01*
X3112807Y-2499000D01*
X3084236Y-2484714D01*
X3027093Y-2484714D01*
X2998522Y-2499000D01*
X3127093Y-2670429D02*
X3098522Y-2684714D01*
X3027093Y-2684714D01*
X2998522Y-2670429D01*
X2984236Y-2641857D01*
X2984236Y-2613286D01*
X2998522Y-2584714D01*
X3027093Y-2570429D01*
X3098522Y-2570429D01*
X3127093Y-2556143D01*
X3227093Y-2484714D02*
X3341379Y-2484714D01*
X3269950Y-2384714D02*
X3269950Y-2641857D01*
X3284236Y-2670429D01*
X3312807Y-2684714D01*
X3341379Y-2684714D01*
X3555665Y-2670429D02*
X3527093Y-2684714D01*
X3469950Y-2684714D01*
X3441379Y-2670429D01*
X3427093Y-2641857D01*
X3427093Y-2527572D01*
X3441379Y-2499000D01*
X3469950Y-2484714D01*
X3527093Y-2484714D01*
X3555665Y-2499000D01*
X3569950Y-2527572D01*
X3569950Y-2556143D01*
X3427093Y-2584714D01*
X3827093Y-2684714D02*
X3827093Y-2384714D01*
X3827093Y-2670429D02*
X3798522Y-2684714D01*
X3741379Y-2684714D01*
X3712807Y-2670429D01*
X3698522Y-2656143D01*
X3684236Y-2627572D01*
X3684236Y-2541857D01*
X3698522Y-2513286D01*
X3712807Y-2499000D01*
X3741379Y-2484714D01*
X3798522Y-2484714D01*
X3827093Y-2499000D01*
X3941379Y-2799000D02*
X3955665Y-2784714D01*
X3984236Y-2741857D01*
X3998522Y-2713286D01*
X4012807Y-2670429D01*
X4027093Y-2599000D01*
X4027093Y-2541857D01*
X4012807Y-2470429D01*
X3998522Y-2427572D01*
X3984236Y-2399000D01*
X3955665Y-2356143D01*
X3941379Y-2341857D01*
M02*
